0, 0, Header, 1, 11, 384
1, 0, Start_track
1, 0, Title_t, "untitled"
1, 0, SMPTE_offset, 96, 0, 3, 0, 0
1, 0, Sequencer_specific, 3, 0, 0, 65
1, 0, Time_signature, 4, 2, 24, 8
1, 0, Key_signature, 0, "major"
1, 0, Tempo, 697674
1, 1536, Tempo, 750000
1, 6968, Tempo, 759494
1, 7940, Tempo, 750000
1, 10140, Tempo, 759494
1, 10744, Tempo, 750000
1, 17216, Tempo, 759494
1, 17760, Tempo, 750000
1, 18768, Tempo, 740741
1, 19508, Tempo, 750000
1, 20972, Tempo, 759494
1, 21432, Tempo, 750000
1, 23608, Tempo, 740741
1, 25700, Tempo, 750000
1, 26432, Tempo, 740741
1, 28356, Tempo, 750000
1, 29180, Tempo, 740741
1, 32944, Tempo, 750000
1, 34456, Tempo, 740741
1, 35804, Tempo, 750000
1, 36404, Tempo, 740741
1, 39948, Tempo, 731707
1, 42704, Tempo, 740741
1, 44024, Tempo, 731707
1, 49812, Tempo, 722892
1, 52604, Tempo, 731707
1, 53716, Tempo, 722892
1, 54716, Tempo, 714286
1, 55024, Tempo, 722892
1, 56056, Tempo, 731707
1, 59892, Tempo, 722892
1, 64984, Tempo, 731707
1, 65996, Tempo, 740741
1, 66596, Tempo, 731707
1, 67108, Tempo, 722892
1, 73236, Tempo, 714286
1, 74444, Tempo, 722892
1, 74520, Tempo, 731707
1, 74764, Tempo, 722892
1, 77060, Tempo, 714286
1, 82196, Tempo, 722892
1, 83540, Tempo, 731707
1, 83948, Tempo, 722892
1, 91212, Tempo, 697674
1, 112216, Tempo, 714286
1, 112272, Tempo, 722892
1, 112376, Tempo, 731707
1, 112452, Tempo, 740741
1, 112540, Tempo, 750000
1, 112600, Tempo, 759494
1, 112680, Tempo, 769231
1, 112740, Tempo, 779221
1, 112824, Tempo, 789474
1, 112884, Tempo, 800000
1, 112916, Tempo, 810811
1, 112944, Tempo, 821918
1, 112976, Tempo, 833333
1, 113040, Tempo, 845070
1, 113092, Tempo, 857143
1, 113148, Tempo, 869565
1, 113292, Tempo, 882353
1, 113324, Tempo, 895522
1, 113352, Tempo, 909091
1, 113436, Tempo, 923077
1, 113460, Tempo, 937500
1, 113484, Tempo, 937500
1, 113508, Tempo, 952381
1, 113528, Tempo, 967742
1, 113540, Tempo, 983607
1, 113628, Tempo, 1000000
1, 113656, Tempo, 1016949
1, 113668, Tempo, 1034483
1, 113680, Tempo, 1052632
1, 113688, Tempo, 1071429
1, 113696, Tempo, 1090909
1, 113708, Tempo, 1111111
1, 113732, Tempo, 1132075
1, 113848, Tempo, 1111111
1, 113868, Tempo, 1090909
1, 113888, Tempo, 1071429
1, 113900, Tempo, 1052632
1, 113912, Tempo, 1034483
1, 113920, Tempo, 1016949
1, 113936, Tempo, 1000000
1, 113948, Tempo, 983607
1, 113956, Tempo, 967742
1, 113968, Tempo, 952381
1, 113968, End_track
2, 0, Start_track
2, 0, MIDI_port, 0
2, 0, Title_t, "JAZZ GTR"
2, 0, Control_c, 0, 0, 0
2, 0, Control_c, 0, 32, 0
2, 0, Program_c, 0, 26
2, 0, Control_c, 0, 7, 123
2, 0, Control_c, 0, 10, 84
2, 0, Control_c, 0, 91, 100
2, 0, Control_c, 0, 93, 32
2, 396, Control_c, 0, 11, 85
2, 768, Control_c, 0, 101, 0
2, 772, Control_c, 0, 100, 0
2, 776, Control_c, 0, 6, 12
2, 780, Control_c, 0, 101, 127
2, 784, Control_c, 0, 100, 127
2, 2312, Note_on_c, 0, 62, 127
2, 2324, Pitch_bend_c, 0, 8865
2, 2336, Pitch_bend_c, 0, 9517
2, 2372, Pitch_bend_c, 0, 9600
2, 2420, Pitch_bend_c, 0, 9554
2, 2468, Pitch_bend_c, 0, 9575
2, 2496, Note_on_c, 0, 62, 0
2, 2508, Pitch_bend_c, 0, 8192
2, 2516, Note_on_c, 0, 62, 127
2, 2640, Note_on_c, 0, 62, 0
2, 2660, Note_on_c, 0, 58, 127
2, 2700, Pitch_bend_c, 0, 7541
2, 2748, Pitch_bend_c, 0, 7488
2, 2828, Pitch_bend_c, 0, 6076
2, 2892, Note_on_c, 0, 58, 0
2, 2896, Pitch_bend_c, 0, 8192
2, 2900, Note_on_c, 0, 51, 127
2, 2904, Pitch_bend_c, 0, 8865
2, 3060, Note_on_c, 0, 51, 0
2, 3072, Pitch_bend_c, 0, 8192
2, 3076, Note_on_c, 0, 40, 127
2, 3456, Note_on_c, 0, 59, 127
2, 3464, Note_on_c, 0, 64, 127
2, 3512, Pitch_bend_c, 0, 8155
2, 3620, Pitch_bend_c, 0, 8192
2, 3636, Note_on_c, 0, 40, 0
2, 3664, Note_on_c, 0, 40, 127
2, 3736, Pitch_bend_c, 0, 8144
2, 3800, Note_on_c, 0, 59, 0
2, 3808, Note_on_c, 0, 64, 0
2, 3808, Pitch_bend_c, 0, 8197
2, 3832, Note_on_c, 0, 40, 0
2, 3836, Note_on_c, 0, 49, 127
2, 3888, Pitch_bend_c, 0, 8896
2, 3912, Pitch_bend_c, 0, 8832
2, 3936, Pitch_bend_c, 0, 8896
2, 3960, Pitch_bend_c, 0, 8822
2, 3988, Pitch_bend_c, 0, 8896
2, 4020, Note_on_c, 0, 49, 0
2, 4020, Pitch_bend_c, 0, 8827
2, 4032, Pitch_bend_c, 0, 8207
2, 4044, Note_on_c, 0, 47, 127
2, 4108, Note_on_c, 0, 47, 0
2, 4116, Note_on_c, 0, 49, 127
2, 4160, Pitch_bend_c, 0, 8801
2, 4184, Pitch_bend_c, 0, 8876
2, 4292, Note_on_c, 0, 49, 0
2, 4324, Pitch_bend_c, 0, 8234
2, 4332, Note_on_c, 0, 47, 127
2, 4348, Pitch_bend_c, 0, 8223
2, 4376, Note_on_c, 0, 47, 0
2, 4404, Note_on_c, 0, 49, 127
2, 4572, Note_on_c, 0, 49, 0
2, 4600, Pitch_bend_c, 0, 8240
2, 4604, Note_on_c, 0, 47, 127
2, 4628, Pitch_bend_c, 0, 8223
2, 4852, Pitch_bend_c, 0, 8240
2, 4900, Pitch_bend_c, 0, 8202
2, 4984, Note_on_c, 0, 47, 0
2, 4992, Pitch_bend_c, 0, 8134
2, 5000, Note_on_c, 0, 40, 127
2, 5016, Pitch_bend_c, 0, 8192
2, 5044, Pitch_bend_c, 0, 8113
2, 5068, Pitch_bend_c, 0, 8192
2, 5284, Pitch_bend_c, 0, 8070
2, 5312, Pitch_bend_c, 0, 8192
2, 5376, Note_on_c, 0, 57, 127
2, 5436, Note_on_c, 0, 40, 0
2, 5472, Pitch_bend_c, 0, 9581
2, 5504, Pitch_bend_c, 0, 9565
2, 5528, Pitch_bend_c, 0, 9474
2, 5556, Pitch_bend_c, 0, 8197
2, 5560, Note_on_c, 0, 57, 0
2, 5568, Note_on_c, 0, 62, 127
2, 5584, Pitch_bend_c, 0, 8187
2, 5664, Note_on_c, 0, 57, 127
2, 5744, Note_on_c, 0, 57, 0
2, 5752, Note_on_c, 0, 59, 127
2, 5852, Note_on_c, 0, 59, 0
2, 5856, Note_on_c, 0, 62, 0
2, 5856, Note_on_c, 0, 62, 127
2, 5880, Pitch_bend_c, 0, 8229
2, 5908, Pitch_bend_c, 0, 8202
2, 5972, Note_on_c, 0, 59, 127
2, 5980, Note_on_c, 0, 62, 0
2, 6016, Pitch_bend_c, 0, 8192
2, 6056, Pitch_bend_c, 0, 7488
2, 6072, Pitch_bend_c, 0, 6784
2, 6088, Pitch_bend_c, 0, 6215
2, 6104, Pitch_bend_c, 0, 5515
2, 6112, Note_on_c, 0, 59, 0
2, 6128, Pitch_bend_c, 0, 8192
2, 15360, Control_c, 0, 11, 100
2, 16336, Note_on_c, 0, 44, 127
2, 16340, Pitch_bend_c, 0, 8940
2, 16368, Pitch_bend_c, 0, 9581
2, 16384, Pitch_bend_c, 0, 10121
2, 16408, Pitch_bend_c, 0, 10254
2, 16440, Note_on_c, 0, 44, 0
2, 16444, Pitch_bend_c, 0, 8192
2, 16448, Note_on_c, 0, 50, 127
2, 16452, Pitch_bend_c, 0, 8245
2, 16484, Pitch_bend_c, 0, 8213
2, 16624, Note_on_c, 0, 47, 127
2, 16652, Note_on_c, 0, 50, 0
2, 16660, Pitch_bend_c, 0, 8266
2, 16684, Pitch_bend_c, 0, 8187
2, 16700, Note_on_c, 0, 47, 0
2, 16704, Note_on_c, 0, 50, 127
2, 16892, Note_on_c, 0, 50, 0
2, 16912, Note_on_c, 0, 50, 127
2, 16972, Pitch_bend_c, 0, 9511
2, 16996, Pitch_bend_c, 0, 9490
2, 17052, Pitch_bend_c, 0, 9554
2, 17076, Pitch_bend_c, 0, 9714
2, 17100, Pitch_bend_c, 0, 9533
2, 17128, Pitch_bend_c, 0, 9490
2, 17160, Pitch_bend_c, 0, 9581
2, 17168, Pitch_bend_c, 0, 9704
2, 17176, Pitch_bend_c, 0, 9880
2, 17200, Pitch_bend_c, 0, 9784
2, 17208, Pitch_bend_c, 0, 9661
2, 17220, Pitch_bend_c, 0, 9479
2, 17244, Pitch_bend_c, 0, 9517
2, 17260, Pitch_bend_c, 0, 9613
2, 17264, Pitch_bend_c, 0, 10014
2, 17288, Pitch_bend_c, 0, 9902
2, 17304, Note_on_c, 0, 50, 0
2, 17304, Pitch_bend_c, 0, 9998
2, 17676, Pitch_bend_c, 0, 8192
2, 17684, Note_on_c, 0, 57, 127
2, 17708, Pitch_bend_c, 0, 8250
2, 17732, Pitch_bend_c, 0, 8192
2, 17756, Pitch_bend_c, 0, 8250
2, 17764, Pitch_bend_c, 0, 9586
2, 17864, Note_on_c, 0, 57, 0
2, 17868, Pitch_bend_c, 0, 8192
2, 17872, Note_on_c, 0, 62, 127
2, 17920, Pitch_bend_c, 0, 8150
2, 17944, Pitch_bend_c, 0, 8202
2, 17948, Note_on_c, 0, 62, 0
2, 17964, Note_on_c, 0, 62, 127
2, 17996, Pitch_bend_c, 0, 9517
2, 18060, Pitch_bend_c, 0, 9608
2, 18068, Pitch_bend_c, 0, 10404
2, 18100, Pitch_bend_c, 0, 9853
2, 18116, Pitch_bend_c, 0, 9501
2, 18136, Note_on_c, 0, 62, 0
2, 18136, Pitch_bend_c, 0, 8234
2, 18140, Note_on_c, 0, 64, 127
2, 18160, Pitch_bend_c, 0, 8192
2, 18192, Pitch_bend_c, 0, 7760
2, 18200, Pitch_bend_c, 0, 6793
2, 18248, Note_on_c, 0, 64, 0
2, 18256, Pitch_bend_c, 0, 8218
2, 18260, Note_on_c, 0, 59, 127
2, 18284, Pitch_bend_c, 0, 8245
2, 18300, Note_on_c, 0, 59, 0
2, 18316, Note_on_c, 0, 57, 127
2, 18336, Pitch_bend_c, 0, 8192
2, 18348, Pitch_bend_c, 0, 7535
2, 18368, Pitch_bend_c, 0, 6857
2, 18392, Pitch_bend_c, 0, 6734
2, 18400, Note_on_c, 0, 57, 0
2, 22456, Pitch_bend_c, 0, 8192
2, 22464, Pitch_bend_c, 0, 8913
2, 22464, Note_on_c, 0, 44, 127
2, 22492, Pitch_bend_c, 0, 9581
2, 22516, Pitch_bend_c, 0, 10254
2, 22560, Note_on_c, 0, 44, 0
2, 22560, Pitch_bend_c, 0, 8229
2, 22568, Note_on_c, 0, 50, 127
2, 22584, Pitch_bend_c, 0, 8192
2, 22760, Note_on_c, 0, 47, 127
2, 22784, Note_on_c, 0, 50, 0
2, 22792, Pitch_bend_c, 0, 8240
2, 22816, Pitch_bend_c, 0, 8207
2, 22840, Note_on_c, 0, 47, 0
2, 22840, Note_on_c, 0, 55, 127
2, 22928, Pitch_bend_c, 0, 8150
2, 22952, Pitch_bend_c, 0, 8166
2, 22976, Pitch_bend_c, 0, 8325
2, 23004, Pitch_bend_c, 0, 8464
2, 23028, Pitch_bend_c, 0, 8400
2, 23052, Note_on_c, 0, 55, 0
2, 23056, Pitch_bend_c, 0, 8207
2, 23060, Note_on_c, 0, 52, 127
2, 23108, Pitch_bend_c, 0, 8134
2, 23160, Pitch_bend_c, 0, 8282
2, 23184, Pitch_bend_c, 0, 8352
2, 23208, Pitch_bend_c, 0, 8155
2, 23256, Pitch_bend_c, 0, 8309
2, 23280, Pitch_bend_c, 0, 8352
2, 23308, Pitch_bend_c, 0, 8155
2, 23356, Pitch_bend_c, 0, 8202
2, 23364, Pitch_bend_c, 0, 8304
2, 23372, Pitch_bend_c, 0, 8512
2, 23396, Pitch_bend_c, 0, 8442
2, 23404, Pitch_bend_c, 0, 8336
2, 23412, Pitch_bend_c, 0, 8139
2, 23436, Pitch_bend_c, 0, 8223
2, 23452, Pitch_bend_c, 0, 8651
2, 23476, Pitch_bend_c, 0, 8523
2, 23496, Pitch_bend_c, 0, 8389
2, 23504, Pitch_bend_c, 0, 8139
2, 23536, Pitch_bend_c, 0, 8182
2, 23544, Pitch_bend_c, 0, 8282
2, 23552, Pitch_bend_c, 0, 8405
2, 23560, Pitch_bend_c, 0, 8496
2, 23588, Pitch_bend_c, 0, 8394
2, 23592, Pitch_bend_c, 0, 8144
2, 23620, Pitch_bend_c, 0, 8218
2, 23644, Pitch_bend_c, 0, 8336
2, 23652, Pitch_bend_c, 0, 8549
2, 23676, Pitch_bend_c, 0, 8480
2, 23684, Pitch_bend_c, 0, 8368
2, 23692, Pitch_bend_c, 0, 8139
2, 23716, Pitch_bend_c, 0, 8171
2, 23744, Pitch_bend_c, 0, 8384
2, 23780, Note_on_c, 0, 52, 0
2, 34764, Pitch_bend_c, 0, 8240
2, 34768, Note_on_c, 0, 45, 127
2, 34792, Pitch_bend_c, 0, 8902
2, 34816, Pitch_bend_c, 0, 9522
2, 34840, Pitch_bend_c, 0, 9570
2, 34864, Pitch_bend_c, 0, 9549
2, 34880, Note_on_c, 0, 45, 0
2, 34880, Pitch_bend_c, 0, 8192
2, 34884, Note_on_c, 0, 50, 127
2, 34888, Pitch_bend_c, 0, 8250
2, 34920, Pitch_bend_c, 0, 8213
2, 34972, Pitch_bend_c, 0, 8234
2, 34996, Pitch_bend_c, 0, 8213
2, 35052, Pitch_bend_c, 0, 8271
2, 35056, Note_on_c, 0, 47, 127
2, 35064, Note_on_c, 0, 50, 0
2, 35112, Pitch_bend_c, 0, 8192
2, 35128, Note_on_c, 0, 47, 0
2, 35136, Note_on_c, 0, 55, 127
2, 35340, Note_on_c, 0, 55, 0
2, 35344, Note_on_c, 0, 52, 127
2, 35452, Pitch_bend_c, 0, 8245
2, 35476, Pitch_bend_c, 0, 8304
2, 35500, Pitch_bend_c, 0, 8144
2, 35552, Pitch_bend_c, 0, 8282
2, 35576, Pitch_bend_c, 0, 8394
2, 35600, Pitch_bend_c, 0, 8320
2, 35608, Pitch_bend_c, 0, 8118
2, 35632, Pitch_bend_c, 0, 8161
2, 35660, Pitch_bend_c, 0, 8256
2, 35668, Pitch_bend_c, 0, 8368
2, 35676, Pitch_bend_c, 0, 8464
2, 35700, Pitch_bend_c, 0, 8363
2, 35708, Pitch_bend_c, 0, 8139
2, 35732, Pitch_bend_c, 0, 8171
2, 35760, Pitch_bend_c, 0, 8261
2, 35768, Pitch_bend_c, 0, 8373
2, 35776, Pitch_bend_c, 0, 8469
2, 35800, Pitch_bend_c, 0, 8378
2, 35808, Pitch_bend_c, 0, 8144
2, 35832, Pitch_bend_c, 0, 7995
2, 35844, Note_on_c, 0, 52, 0
2, 35844, Pitch_bend_c, 0, 8271
2, 36112, Pitch_bend_c, 0, 8192
2, 36116, Note_on_c, 0, 62, 127
2, 36120, Note_on_c, 0, 67, 127
2, 36164, Note_on_c, 0, 62, 0
2, 36168, Note_on_c, 0, 64, 127
2, 36304, Note_on_c, 0, 64, 0
2, 36320, Note_on_c, 0, 67, 0
2, 36320, Note_on_c, 0, 62, 127
2, 36324, Note_on_c, 0, 67, 127
2, 36492, Note_on_c, 0, 62, 0
2, 36512, Note_on_c, 0, 67, 0
2, 36512, Note_on_c, 0, 59, 127
2, 36516, Pitch_bend_c, 0, 8266
2, 36560, Pitch_bend_c, 0, 7546
2, 36588, Pitch_bend_c, 0, 6878
2, 36660, Pitch_bend_c, 0, 5435
2, 36732, Note_on_c, 0, 59, 0
2, 36736, Pitch_bend_c, 0, 8298
2, 36736, Note_on_c, 0, 52, 127
2, 36768, Pitch_bend_c, 0, 8352
2, 36784, Pitch_bend_c, 0, 6851
2, 36844, Pitch_bend_c, 0, 6883
2, 36848, Note_on_c, 0, 52, 0
2, 36848, Pitch_bend_c, 0, 8192
2, 36848, Note_on_c, 0, 47, 127
2, 36892, Note_on_c, 0, 47, 0
2, 47048, Note_on_c, 0, 67, 127
2, 47056, Note_on_c, 0, 71, 127
2, 47184, Note_on_c, 0, 71, 0
2, 47184, Pitch_bend_c, 0, 8838
2, 47212, Pitch_bend_c, 0, 8736
2, 47236, Pitch_bend_c, 0, 8320
2, 47252, Note_on_c, 0, 67, 0
2, 47252, Pitch_bend_c, 0, 8192
2, 47252, Note_on_c, 0, 64, 127
2, 47256, Pitch_bend_c, 0, 8320
2, 47280, Pitch_bend_c, 0, 8271
2, 47308, Pitch_bend_c, 0, 8336
2, 47332, Note_on_c, 0, 64, 0
2, 47344, Pitch_bend_c, 0, 8187
2, 47348, Note_on_c, 0, 67, 127
2, 47400, Note_on_c, 0, 67, 0
2, 47420, Pitch_bend_c, 0, 8298
2, 47420, Note_on_c, 0, 64, 127
2, 47444, Pitch_bend_c, 0, 8245
2, 47468, Pitch_bend_c, 0, 8298
2, 47496, Pitch_bend_c, 0, 8950
2, 47520, Pitch_bend_c, 0, 8405
2, 47536, Pitch_bend_c, 0, 8027
2, 47564, Pitch_bend_c, 0, 8155
2, 47580, Pitch_bend_c, 0, 8753
2, 47596, Pitch_bend_c, 0, 8854
2, 47604, Pitch_bend_c, 0, 8993
2, 47620, Pitch_bend_c, 0, 8378
2, 47648, Pitch_bend_c, 0, 8213
2, 47676, Pitch_bend_c, 0, 8731
2, 47692, Pitch_bend_c, 0, 8838
2, 47700, Pitch_bend_c, 0, 9004
2, 47716, Pitch_bend_c, 0, 8549
2, 47724, Pitch_bend_c, 0, 7696
2, 47744, Pitch_bend_c, 0, 6974
2, 47760, Pitch_bend_c, 0, 6263
2, 47768, Pitch_bend_c, 0, 5579
2, 47776, Pitch_bend_c, 0, 4885
2, 47792, Pitch_bend_c, 0, 4115
2, 47812, Note_on_c, 0, 64, 0
2, 53184, Pitch_bend_c, 0, 8245
2, 53188, Note_on_c, 0, 45, 127
2, 53208, Pitch_bend_c, 0, 8886
2, 53244, Pitch_bend_c, 0, 9560
2, 53308, Note_on_c, 0, 45, 0
2, 53308, Pitch_bend_c, 0, 8192
2, 53312, Note_on_c, 0, 50, 127
2, 53316, Pitch_bend_c, 0, 8245
2, 53432, Pitch_bend_c, 0, 8223
2, 53476, Note_on_c, 0, 50, 0
2, 53484, Note_on_c, 0, 47, 127
2, 53512, Pitch_bend_c, 0, 8096
2, 53536, Pitch_bend_c, 0, 8192
2, 53540, Note_on_c, 0, 47, 0
2, 53552, Note_on_c, 0, 50, 127
2, 53588, Pitch_bend_c, 0, 8213
2, 53624, Pitch_bend_c, 0, 8240
2, 53648, Pitch_bend_c, 0, 8202
2, 53768, Note_on_c, 0, 50, 0
2, 53776, Note_on_c, 0, 50, 127
2, 53824, Pitch_bend_c, 0, 9517
2, 53852, Pitch_bend_c, 0, 9495
2, 53940, Pitch_bend_c, 0, 9554
2, 53964, Pitch_bend_c, 0, 9575
2, 53988, Pitch_bend_c, 0, 9479
2, 54040, Pitch_bend_c, 0, 9693
2, 54092, Pitch_bend_c, 0, 9485
2, 54116, Pitch_bend_c, 0, 9575
2, 54144, Pitch_bend_c, 0, 9688
2, 54156, Pitch_bend_c, 0, 9832
2, 54188, Pitch_bend_c, 0, 9474
2, 54220, Pitch_bend_c, 0, 9581
2, 54248, Pitch_bend_c, 0, 10030
2, 54272, Pitch_bend_c, 0, 9987
2, 54288, Pitch_bend_c, 0, 9468
2, 54304, Note_on_c, 0, 50, 0
2, 54304, Pitch_bend_c, 0, 10030
2, 55092, Control_c, 0, 11, 125
2, 55284, Pitch_bend_c, 0, 8192
2, 55296, Note_on_c, 0, 74, 127
2, 55300, Pitch_bend_c, 0, 8416
2, 55316, Pitch_bend_c, 0, 8528
2, 55324, Pitch_bend_c, 0, 9095
2, 55348, Pitch_bend_c, 0, 9185
2, 55360, Pitch_bend_c, 0, 9383
2, 55408, Pitch_bend_c, 0, 9453
2, 55436, Pitch_bend_c, 0, 9543
2, 55444, Pitch_bend_c, 0, 9600
2, 55532, Pitch_bend_c, 0, 9672
2, 55540, Pitch_bend_c, 0, 10174
2, 55592, Pitch_bend_c, 0, 9218
2, 55616, Pitch_bend_c, 0, 9292
2, 55624, Pitch_bend_c, 0, 9816
2, 55664, Pitch_bend_c, 0, 9223
2, 55676, Pitch_bend_c, 0, 8672
2, 55684, Pitch_bend_c, 0, 8223
2, 55688, Note_on_c, 0, 74, 0
2, 55712, Note_on_c, 0, 76, 127
2, 55748, Note_on_c, 0, 76, 0
2, 55780, Note_on_c, 0, 74, 127
2, 55832, Pitch_bend_c, 0, 8277
2, 55860, Pitch_bend_c, 0, 6157
2, 55940, Note_on_c, 0, 74, 0
2, 55948, Pitch_bend_c, 0, 8223
2, 55952, Note_on_c, 0, 69, 127
2, 56004, Pitch_bend_c, 0, 8565
2, 56016, Pitch_bend_c, 0, 9415
2, 56040, Pitch_bend_c, 0, 9506
2, 56068, Pitch_bend_c, 0, 8929
2, 56076, Pitch_bend_c, 0, 8432
2, 56092, Pitch_bend_c, 0, 8336
2, 56100, Pitch_bend_c, 0, 8139
2, 56124, Pitch_bend_c, 0, 8171
2, 56132, Pitch_bend_c, 0, 6787
2, 56196, Note_on_c, 0, 69, 0
2, 56196, Pitch_bend_c, 0, 8271
2, 56196, Note_on_c, 0, 64, 127
2, 56228, Pitch_bend_c, 0, 8187
2, 56252, Note_on_c, 0, 64, 0
2, 56264, Note_on_c, 0, 67, 127
2, 56292, Pitch_bend_c, 0, 8139
2, 56344, Pitch_bend_c, 0, 8304
2, 56368, Pitch_bend_c, 0, 8363
2, 56392, Pitch_bend_c, 0, 8177
2, 56444, Pitch_bend_c, 0, 8277
2, 56452, Pitch_bend_c, 0, 8394
2, 56460, Pitch_bend_c, 0, 8555
2, 56484, Pitch_bend_c, 0, 8469
2, 56492, Pitch_bend_c, 0, 8357
2, 56500, Pitch_bend_c, 0, 8139
2, 56528, Pitch_bend_c, 0, 8223
2, 56544, Pitch_bend_c, 0, 8667
2, 56572, Pitch_bend_c, 0, 8555
2, 56588, Pitch_bend_c, 0, 8432
2, 56596, Pitch_bend_c, 0, 8293
2, 56604, Pitch_bend_c, 0, 8161
2, 56628, Pitch_bend_c, 0, 8357
2, 56656, Pitch_bend_c, 0, 8314
2, 56680, Pitch_bend_c, 0, 8357
2, 56684, Note_on_c, 0, 67, 0
2, 56808, Pitch_bend_c, 0, 8192
2, 56808, Note_on_c, 0, 74, 127
2, 56812, Pitch_bend_c, 0, 8464
2, 56836, Pitch_bend_c, 0, 8565
2, 56844, Pitch_bend_c, 0, 8672
2, 56852, Pitch_bend_c, 0, 8795
2, 56860, Pitch_bend_c, 0, 8902
2, 56868, Pitch_bend_c, 0, 9185
2, 56892, Pitch_bend_c, 0, 9399
2, 56916, Pitch_bend_c, 0, 9608
2, 56940, Pitch_bend_c, 0, 9693
2, 56988, Pitch_bend_c, 0, 9832
2, 57012, Pitch_bend_c, 0, 9896
2, 57036, Pitch_bend_c, 0, 9426
2, 57052, Pitch_bend_c, 0, 8940
2, 57076, Pitch_bend_c, 0, 9426
2, 57092, Pitch_bend_c, 0, 9912
2, 57116, Pitch_bend_c, 0, 10024
2, 57140, Pitch_bend_c, 0, 9981
2, 57148, Pitch_bend_c, 0, 9255
2, 57156, Pitch_bend_c, 0, 8678
2, 57164, Pitch_bend_c, 0, 8123
2, 57188, Pitch_bend_c, 0, 8032
2, 57208, Note_on_c, 0, 74, 0
2, 57208, Pitch_bend_c, 0, 8192
2, 57228, Note_on_c, 0, 76, 127
2, 57232, Pitch_bend_c, 0, 8229
2, 57284, Pitch_bend_c, 0, 8197
2, 57308, Note_on_c, 0, 76, 0
2, 57308, Pitch_bend_c, 0, 8245
2, 57324, Note_on_c, 0, 74, 127
2, 57356, Pitch_bend_c, 0, 8288
2, 57396, Pitch_bend_c, 0, 6109
2, 57420, Pitch_bend_c, 0, 6162
2, 57488, Note_on_c, 0, 74, 0
2, 57504, Pitch_bend_c, 0, 8192
2, 57512, Note_on_c, 0, 69, 127
2, 57548, Pitch_bend_c, 0, 8229
2, 57572, Pitch_bend_c, 0, 8352
2, 57596, Pitch_bend_c, 0, 8427
2, 57604, Pitch_bend_c, 0, 8523
2, 57612, Pitch_bend_c, 0, 8651
2, 57620, Pitch_bend_c, 0, 9223
2, 57644, Pitch_bend_c, 0, 9356
2, 57668, Pitch_bend_c, 0, 8672
2, 57676, Pitch_bend_c, 0, 7984
2, 57680, Note_on_c, 0, 69, 0
2, 57684, Pitch_bend_c, 0, 8245
2, 57688, Note_on_c, 0, 71, 127
2, 57712, Pitch_bend_c, 0, 8207
2, 57760, Pitch_bend_c, 0, 8144
2, 57768, Note_on_c, 0, 71, 0
2, 57780, Note_on_c, 0, 69, 127
2, 57784, Pitch_bend_c, 0, 8161
2, 57816, Pitch_bend_c, 0, 8256
2, 57840, Pitch_bend_c, 0, 8705
2, 57864, Pitch_bend_c, 0, 8619
2, 57872, Pitch_bend_c, 0, 8091
2, 57904, Pitch_bend_c, 0, 8096
2, 57928, Pitch_bend_c, 0, 8182
2, 57952, Pitch_bend_c, 0, 7786
2, 57956, Pitch_bend_c, 0, 8096
2, 57960, Note_on_c, 0, 69, 0
2, 57980, Pitch_bend_c, 0, 8245
2, 57984, Note_on_c, 0, 67, 127
2, 58008, Pitch_bend_c, 0, 8197
2, 58048, Pitch_bend_c, 0, 8234
2, 58072, Note_on_c, 0, 67, 0
2, 58188, Pitch_bend_c, 0, 8177
2, 58192, Note_on_c, 0, 67, 127
2, 58260, Pitch_bend_c, 0, 8261
2, 58284, Pitch_bend_c, 0, 8288
2, 58316, Pitch_bend_c, 0, 8389
2, 58332, Pitch_bend_c, 0, 8491
2, 58340, Pitch_bend_c, 0, 8736
2, 58364, Pitch_bend_c, 0, 8678
2, 58376, Note_on_c, 0, 67, 0
2, 58380, Pitch_bend_c, 0, 8192
2, 58380, Note_on_c, 0, 64, 127
2, 58384, Pitch_bend_c, 0, 8304
2, 58416, Pitch_bend_c, 0, 8277
2, 58440, Pitch_bend_c, 0, 8394
2, 58456, Pitch_bend_c, 0, 8582
2, 58480, Pitch_bend_c, 0, 8507
2, 58488, Pitch_bend_c, 0, 8394
2, 58496, Pitch_bend_c, 0, 8223
2, 58520, Pitch_bend_c, 0, 8325
2, 58544, Pitch_bend_c, 0, 8742
2, 58568, Pitch_bend_c, 0, 8678
2, 58576, Pitch_bend_c, 0, 8245
2, 58600, Pitch_bend_c, 0, 8192
2, 58632, Pitch_bend_c, 0, 8432
2, 58664, Pitch_bend_c, 0, 8491
2, 58688, Pitch_bend_c, 0, 8363
2, 58712, Pitch_bend_c, 0, 8245
2, 58736, Pitch_bend_c, 0, 8192
2, 58744, Note_on_c, 0, 64, 0
2, 58752, Pitch_bend_c, 0, 8282
2, 58752, Note_on_c, 0, 67, 127
2, 58828, Note_on_c, 0, 67, 0
2, 58828, Pitch_bend_c, 0, 8192
2, 58852, Pitch_bend_c, 0, 8271
2, 58852, Note_on_c, 0, 64, 127
2, 58936, Note_on_c, 0, 64, 0
2, 58940, Pitch_bend_c, 0, 8218
2, 58948, Note_on_c, 0, 67, 127
2, 59012, Pitch_bend_c, 0, 8795
2, 59040, Pitch_bend_c, 0, 8827
2, 59052, Pitch_bend_c, 0, 8223
2, 59104, Pitch_bend_c, 0, 8282
2, 59112, Pitch_bend_c, 0, 8672
2, 59136, Pitch_bend_c, 0, 8528
2, 59152, Pitch_bend_c, 0, 7738
2, 59180, Pitch_bend_c, 0, 6899
2, 59192, Pitch_bend_c, 0, 6109
2, 59200, Note_on_c, 0, 67, 0
2, 59220, Pitch_bend_c, 0, 8192
2, 59228, Note_on_c, 0, 56, 127
2, 59240, Pitch_bend_c, 0, 8838
2, 59256, Pitch_bend_c, 0, 9410
2, 59280, Pitch_bend_c, 0, 10094
2, 59304, Pitch_bend_c, 0, 10088
2, 59312, Note_on_c, 0, 56, 0
2, 59332, Pitch_bend_c, 0, 8192
2, 59336, Note_on_c, 0, 62, 127
2, 59340, Pitch_bend_c, 0, 8288
2, 59376, Pitch_bend_c, 0, 8271
2, 59400, Pitch_bend_c, 0, 8293
2, 59424, Note_on_c, 0, 62, 0
2, 59428, Pitch_bend_c, 0, 8261
2, 59432, Note_on_c, 0, 64, 127
2, 59520, Note_on_c, 0, 64, 0
2, 59528, Pitch_bend_c, 0, 8218
2, 59532, Note_on_c, 0, 67, 127
2, 59604, Pitch_bend_c, 0, 8416
2, 59664, Pitch_bend_c, 0, 8282
2, 59692, Pitch_bend_c, 0, 8373
2, 59716, Pitch_bend_c, 0, 8330
2, 59728, Note_on_c, 0, 67, 0
2, 59736, Pitch_bend_c, 0, 8192
2, 59736, Note_on_c, 0, 64, 127
2, 59740, Pitch_bend_c, 0, 8298
2, 59812, Pitch_bend_c, 0, 8266
2, 59848, Pitch_bend_c, 0, 7679
2, 59864, Pitch_bend_c, 0, 7028
2, 59880, Pitch_bend_c, 0, 6290
2, 59888, Pitch_bend_c, 0, 5574
2, 59904, Pitch_bend_c, 0, 4879
2, 59912, Pitch_bend_c, 0, 4430
2, 59920, Note_on_c, 0, 64, 0
2, 60356, Pitch_bend_c, 0, 8192
2, 60364, Note_on_c, 0, 74, 127
2, 60368, Pitch_bend_c, 0, 8491
2, 60396, Pitch_bend_c, 0, 8571
2, 60404, Pitch_bend_c, 0, 8699
2, 60416, Pitch_bend_c, 0, 9319
2, 60444, Pitch_bend_c, 0, 9581
2, 60472, Pitch_bend_c, 0, 9664
2, 60496, Pitch_bend_c, 0, 9600
2, 60524, Pitch_bend_c, 0, 9536
2, 60552, Pitch_bend_c, 0, 9600
2, 60580, Pitch_bend_c, 0, 9536
2, 60604, Pitch_bend_c, 0, 9600
2, 60632, Pitch_bend_c, 0, 9536
2, 60664, Pitch_bend_c, 0, 9600
2, 60672, Pitch_bend_c, 0, 9472
2, 60696, Pitch_bend_c, 0, 9536
2, 60704, Pitch_bend_c, 0, 9600
2, 60728, Pitch_bend_c, 0, 9536
2, 60752, Pitch_bend_c, 0, 8896
2, 60760, Pitch_bend_c, 0, 8784
2, 60784, Pitch_bend_c, 0, 8822
2, 60792, Pitch_bend_c, 0, 9437
2, 60808, Pitch_bend_c, 0, 9944
2, 60832, Pitch_bend_c, 0, 10040
2, 60840, Pitch_bend_c, 0, 10259
2, 60872, Pitch_bend_c, 0, 10174
2, 60880, Pitch_bend_c, 0, 9346
2, 60888, Pitch_bend_c, 0, 8758
2, 60896, Pitch_bend_c, 0, 8229
2, 60908, Note_on_c, 0, 74, 0
2, 60940, Note_on_c, 0, 74, 127
2, 60964, Pitch_bend_c, 0, 8352
2, 60988, Pitch_bend_c, 0, 8427
2, 60996, Pitch_bend_c, 0, 8523
2, 61004, Pitch_bend_c, 0, 8784
2, 61028, Pitch_bend_c, 0, 8934
2, 61052, Pitch_bend_c, 0, 9057
2, 61076, Pitch_bend_c, 0, 9239
2, 61100, Pitch_bend_c, 0, 9404
2, 61180, Pitch_bend_c, 0, 9511
2, 61204, Pitch_bend_c, 0, 9661
2, 61220, Pitch_bend_c, 0, 9536
2, 61228, Pitch_bend_c, 0, 9600
2, 61252, Pitch_bend_c, 0, 9664
2, 61268, Pitch_bend_c, 0, 9600
2, 61292, Pitch_bend_c, 0, 9472
2, 61300, Pitch_bend_c, 0, 9664
2, 61324, Pitch_bend_c, 0, 9600
2, 61348, Pitch_bend_c, 0, 9169
2, 61356, Pitch_bend_c, 0, 8806
2, 61380, Pitch_bend_c, 0, 9346
2, 61404, Pitch_bend_c, 0, 9600
2, 61428, Pitch_bend_c, 0, 9490
2, 61440, Pitch_bend_c, 0, 8720
2, 61448, Note_on_c, 0, 74, 0
2, 61468, Pitch_bend_c, 0, 8245
2, 61472, Note_on_c, 0, 76, 127
2, 61544, Pitch_bend_c, 0, 8192
2, 61548, Note_on_c, 0, 76, 0
2, 61568, Pitch_bend_c, 0, 8309
2, 61568, Note_on_c, 0, 74, 127
2, 61616, Pitch_bend_c, 0, 8469
2, 61640, Pitch_bend_c, 0, 8544
2, 61664, Pitch_bend_c, 0, 6173
2, 61716, Pitch_bend_c, 0, 6183
2, 61760, Note_on_c, 0, 74, 0
2, 61764, Pitch_bend_c, 0, 8161
2, 61764, Note_on_c, 0, 69, 127
2, 61816, Pitch_bend_c, 0, 8256
2, 61840, Pitch_bend_c, 0, 8325
2, 61848, Pitch_bend_c, 0, 8437
2, 61856, Pitch_bend_c, 0, 8982
2, 61880, Pitch_bend_c, 0, 9100
2, 61888, Pitch_bend_c, 0, 9228
2, 61896, Pitch_bend_c, 0, 9474
2, 61920, Pitch_bend_c, 0, 9522
2, 61928, Note_on_c, 0, 69, 0
2, 61928, Pitch_bend_c, 0, 8192
2, 61932, Note_on_c, 0, 71, 127
2, 61976, Pitch_bend_c, 0, 8118
2, 62020, Note_on_c, 0, 71, 0
2, 62024, Pitch_bend_c, 0, 8192
2, 62024, Note_on_c, 0, 76, 127
2, 62120, Note_on_c, 0, 76, 0
2, 62128, Note_on_c, 0, 69, 127
2, 62164, Pitch_bend_c, 0, 8368
2, 62212, Note_on_c, 0, 69, 0
2, 62224, Pitch_bend_c, 0, 8192
2, 62228, Note_on_c, 0, 71, 127
2, 62292, Note_on_c, 0, 71, 0
2, 62336, Note_on_c, 0, 62, 127
2, 62340, Pitch_bend_c, 0, 8320
2, 62392, Pitch_bend_c, 0, 8277
2, 62432, Pitch_bend_c, 0, 9586
2, 62540, Note_on_c, 0, 62, 0
2, 62540, Pitch_bend_c, 0, 8240
2, 62544, Note_on_c, 0, 69, 127
2, 62572, Pitch_bend_c, 0, 8336
2, 62596, Pitch_bend_c, 0, 8427
2, 62604, Pitch_bend_c, 0, 8528
2, 62612, Pitch_bend_c, 0, 8635
2, 62620, Pitch_bend_c, 0, 8736
2, 62628, Pitch_bend_c, 0, 7231
2, 62640, Pitch_bend_c, 0, 8192
2, 62644, Note_on_c, 0, 69, 0
2, 62644, Note_on_c, 0, 68, 127
2, 62660, Pitch_bend_c, 0, 7893
2, 62684, Pitch_bend_c, 0, 7690
2, 62712, Pitch_bend_c, 0, 7583
2, 62736, Pitch_bend_c, 0, 7648
2, 62744, Pitch_bend_c, 0, 7765
2, 62752, Pitch_bend_c, 0, 7877
2, 62760, Pitch_bend_c, 0, 7995
2, 62776, Pitch_bend_c, 0, 7546
2, 62800, Pitch_bend_c, 0, 7487
2, 62824, Pitch_bend_c, 0, 7573
2, 62832, Pitch_bend_c, 0, 8177
2, 62856, Pitch_bend_c, 0, 8075
2, 62872, Pitch_bend_c, 0, 7605
2, 62892, Note_on_c, 0, 68, 0
2, 63108, Pitch_bend_c, 0, 8245
2, 63112, Note_on_c, 0, 69, 127
2, 63160, Pitch_bend_c, 0, 8330
2, 63184, Pitch_bend_c, 0, 8507
2, 63208, Pitch_bend_c, 0, 8619
2, 63216, Pitch_bend_c, 0, 9100
2, 63232, Pitch_bend_c, 0, 9196
2, 63240, Pitch_bend_c, 0, 9308
2, 63248, Pitch_bend_c, 0, 9522
2, 63284, Note_on_c, 0, 69, 0
2, 63284, Pitch_bend_c, 0, 8192
2, 63288, Note_on_c, 0, 71, 127
2, 63336, Pitch_bend_c, 0, 8144
2, 63372, Pitch_bend_c, 0, 8192
2, 63388, Note_on_c, 0, 76, 127
2, 63464, Note_on_c, 0, 76, 0
2, 63480, Note_on_c, 0, 71, 0
2, 63500, Note_on_c, 0, 79, 127
2, 63544, Pitch_bend_c, 0, 8955
2, 63552, Pitch_bend_c, 0, 9533
2, 63576, Pitch_bend_c, 0, 9629
2, 63584, Pitch_bend_c, 0, 9693
2, 63612, Pitch_bend_c, 0, 8865
2, 63620, Pitch_bend_c, 0, 8298
2, 63644, Pitch_bend_c, 0, 8182
2, 63752, Note_on_c, 0, 79, 0
2, 63776, Note_on_c, 0, 76, 127
2, 63780, Pitch_bend_c, 0, 8261
2, 63836, Pitch_bend_c, 0, 8197
2, 63860, Note_on_c, 0, 76, 0
2, 63876, Note_on_c, 0, 69, 127
2, 63940, Pitch_bend_c, 0, 8271
2, 63964, Pitch_bend_c, 0, 8341
2, 63972, Pitch_bend_c, 0, 8453
2, 63980, Pitch_bend_c, 0, 9084
2, 64004, Pitch_bend_c, 0, 9201
2, 64012, Pitch_bend_c, 0, 9340
2, 64020, Pitch_bend_c, 0, 9501
2, 64032, Note_on_c, 0, 69, 0
2, 64052, Pitch_bend_c, 0, 8113
2, 64056, Note_on_c, 0, 71, 127
2, 64104, Pitch_bend_c, 0, 8161
2, 64132, Note_on_c, 0, 71, 0
2, 64148, Note_on_c, 0, 76, 127
2, 64152, Pitch_bend_c, 0, 8256
2, 64208, Note_on_c, 0, 76, 0
2, 64228, Pitch_bend_c, 0, 8187
2, 64232, Note_on_c, 0, 74, 127
2, 64280, Pitch_bend_c, 0, 8229
2, 64292, Pitch_bend_c, 0, 7765
2, 64300, Note_on_c, 0, 74, 0
2, 64300, Pitch_bend_c, 0, 8202
2, 64340, Note_on_c, 0, 69, 127
2, 64344, Pitch_bend_c, 0, 8298
2, 64368, Pitch_bend_c, 0, 8250
2, 64408, Pitch_bend_c, 0, 8891
2, 64416, Pitch_bend_c, 0, 9600
2, 64448, Note_on_c, 0, 69, 0
2, 64504, Pitch_bend_c, 0, 8192
2, 64508, Note_on_c, 0, 67, 127
2, 64512, Pitch_bend_c, 0, 8261
2, 64540, Pitch_bend_c, 0, 8207
2, 64564, Pitch_bend_c, 0, 8271
2, 64584, Pitch_bend_c, 0, 8378
2, 64592, Pitch_bend_c, 0, 8507
2, 64600, Pitch_bend_c, 0, 8608
2, 64624, Pitch_bend_c, 0, 8512
2, 64632, Pitch_bend_c, 0, 8256
2, 64656, Pitch_bend_c, 0, 8309
2, 64672, Pitch_bend_c, 0, 8416
2, 64680, Pitch_bend_c, 0, 8539
2, 64688, Pitch_bend_c, 0, 8608
2, 64712, Pitch_bend_c, 0, 8496
2, 64720, Pitch_bend_c, 0, 8256
2, 64744, Pitch_bend_c, 0, 8325
2, 64752, Pitch_bend_c, 0, 8876
2, 64776, Pitch_bend_c, 0, 8854
2, 64792, Pitch_bend_c, 0, 8309
2, 64816, Pitch_bend_c, 0, 8256
2, 64836, Pitch_bend_c, 0, 8876
2, 64860, Pitch_bend_c, 0, 9009
2, 64876, Pitch_bend_c, 0, 8555
2, 64892, Pitch_bend_c, 0, 8161
2, 64940, Pitch_bend_c, 0, 8304
2, 64948, Pitch_bend_c, 0, 8977
2, 64980, Pitch_bend_c, 0, 8501
2, 64996, Pitch_bend_c, 0, 8394
2, 65004, Pitch_bend_c, 0, 8282
2, 65012, Pitch_bend_c, 0, 8223
2, 65036, Pitch_bend_c, 0, 8630
2, 65060, Pitch_bend_c, 0, 8485
2, 65088, Pitch_bend_c, 0, 8240
2, 65112, Pitch_bend_c, 0, 8368
2, 65136, Pitch_bend_c, 0, 8512
2, 65160, Pitch_bend_c, 0, 8400
2, 65176, Note_on_c, 0, 67, 0
2, 65176, Pitch_bend_c, 0, 8507
2, 65280, Pitch_bend_c, 0, 8192
2, 65280, Note_on_c, 0, 64, 127
2, 65284, Pitch_bend_c, 0, 8346
2, 65320, Pitch_bend_c, 0, 8357
2, 65384, Pitch_bend_c, 0, 7722
2, 65412, Pitch_bend_c, 0, 7097
2, 65436, Pitch_bend_c, 0, 6333
2, 65452, Pitch_bend_c, 0, 5612
2, 65472, Pitch_bend_c, 0, 4842
2, 65492, Note_on_c, 0, 64, 0
2, 65636, Pitch_bend_c, 0, 8177
2, 65640, Note_on_c, 0, 53, 127
2, 65672, Pitch_bend_c, 0, 9014
2, 65676, Pitch_bend_c, 0, 9437
2, 65696, Pitch_bend_c, 0, 10062
2, 65704, Pitch_bend_c, 0, 10564
2, 65720, Pitch_bend_c, 0, 11387
2, 65748, Pitch_bend_c, 0, 11985
2, 65752, Note_on_c, 0, 53, 0
2, 65776, Pitch_bend_c, 0, 8202
2, 65780, Note_on_c, 0, 62, 127
2, 65824, Pitch_bend_c, 0, 8245
2, 65860, Pitch_bend_c, 0, 8192
2, 65872, Note_on_c, 0, 62, 0
2, 65876, Note_on_c, 0, 64, 127
2, 65880, Pitch_bend_c, 0, 8288
2, 65932, Pitch_bend_c, 0, 8277
2, 66020, Note_on_c, 0, 64, 0
2, 66040, Pitch_bend_c, 0, 8192
2, 66044, Pitch_bend_c, 0, 8234
2, 66044, Note_on_c, 0, 67, 127
2, 66068, Pitch_bend_c, 0, 8166
2, 66092, Pitch_bend_c, 0, 8229
2, 66116, Pitch_bend_c, 0, 8758
2, 66140, Pitch_bend_c, 0, 8688
2, 66156, Pitch_bend_c, 0, 8234
2, 66184, Pitch_bend_c, 0, 8223
2, 66200, Pitch_bend_c, 0, 8742
2, 66216, Pitch_bend_c, 0, 8838
2, 66224, Pitch_bend_c, 0, 9004
2, 66240, Pitch_bend_c, 0, 8544
2, 66256, Pitch_bend_c, 0, 8202
2, 66284, Pitch_bend_c, 0, 8635
2, 66292, Pitch_bend_c, 0, 9185
2, 66316, Pitch_bend_c, 0, 9282
2, 66332, Pitch_bend_c, 0, 8774
2, 66348, Pitch_bend_c, 0, 8672
2, 66356, Pitch_bend_c, 0, 8565
2, 66364, Pitch_bend_c, 0, 8427
2, 66408, Note_on_c, 0, 67, 0
2, 66416, Pitch_bend_c, 0, 8192
2, 66428, Note_on_c, 0, 64, 127
2, 66504, Pitch_bend_c, 0, 8437
2, 66528, Pitch_bend_c, 0, 8603
2, 66556, Pitch_bend_c, 0, 8517
2, 66564, Pitch_bend_c, 0, 8288
2, 66588, Pitch_bend_c, 0, 8384
2, 66612, Pitch_bend_c, 0, 8998
2, 66640, Pitch_bend_c, 0, 8988
2, 66656, Pitch_bend_c, 0, 8314
2, 66708, Pitch_bend_c, 0, 8384
2, 66732, Pitch_bend_c, 0, 7690
2, 66756, Pitch_bend_c, 0, 6980
2, 66764, Pitch_bend_c, 0, 6306
2, 66772, Pitch_bend_c, 0, 5531
2, 66788, Pitch_bend_c, 0, 4912
2, 66800, Pitch_bend_c, 0, 4185
2, 66824, Pitch_bend_c, 0, 3479
2, 66836, Note_on_c, 0, 64, 0
2, 67188, Pitch_bend_c, 0, 8282
2, 67192, Note_on_c, 0, 52, 127
2, 67236, Pitch_bend_c, 0, 7685
2, 67256, Pitch_bend_c, 0, 6947
2, 67272, Pitch_bend_c, 0, 6322
2, 67288, Pitch_bend_c, 0, 5638
2, 67296, Pitch_bend_c, 0, 4901
2, 67316, Pitch_bend_c, 0, 4249
2, 67324, Pitch_bend_c, 0, 3490
2, 67340, Pitch_bend_c, 0, 2833
2, 67352, Pitch_bend_c, 0, 2128
2, 67356, Pitch_bend_c, 0, 1475
2, 67376, Note_on_c, 0, 52, 0
2, 71600, Pitch_bend_c, 0, 8192
2, 71604, Note_on_c, 0, 44, 127
2, 71612, Pitch_bend_c, 0, 8913
2, 71636, Pitch_bend_c, 0, 8966
2, 71640, Pitch_bend_c, 0, 9629
2, 71664, Pitch_bend_c, 0, 9714
2, 71672, Pitch_bend_c, 0, 10222
2, 71696, Pitch_bend_c, 0, 10195
2, 71708, Note_on_c, 0, 44, 0
2, 71712, Pitch_bend_c, 0, 8192
2, 71716, Note_on_c, 0, 50, 127
2, 71900, Note_on_c, 0, 47, 127
2, 71908, Note_on_c, 0, 50, 0
2, 71924, Pitch_bend_c, 0, 8261
2, 71976, Note_on_c, 0, 47, 0
2, 71980, Pitch_bend_c, 0, 8207
2, 71988, Note_on_c, 0, 55, 127
2, 72004, Pitch_bend_c, 0, 8240
2, 72028, Pitch_bend_c, 0, 8202
2, 72180, Pitch_bend_c, 0, 8325
2, 72200, Note_on_c, 0, 55, 0
2, 72204, Pitch_bend_c, 0, 8234
2, 72208, Note_on_c, 0, 52, 127
2, 72228, Pitch_bend_c, 0, 8197
2, 72304, Pitch_bend_c, 0, 8256
2, 72328, Pitch_bend_c, 0, 8432
2, 72360, Pitch_bend_c, 0, 8182
2, 72388, Pitch_bend_c, 0, 8250
2, 72412, Pitch_bend_c, 0, 8678
2, 72436, Pitch_bend_c, 0, 8571
2, 72452, Pitch_bend_c, 0, 8442
2, 72460, Pitch_bend_c, 0, 8304
2, 72468, Pitch_bend_c, 0, 8218
2, 72496, Pitch_bend_c, 0, 8330
2, 72504, Pitch_bend_c, 0, 8678
2, 72528, Pitch_bend_c, 0, 8603
2, 72536, Pitch_bend_c, 0, 8491
2, 72544, Pitch_bend_c, 0, 8357
2, 72552, Pitch_bend_c, 0, 8182
2, 72576, Pitch_bend_c, 0, 8266
2, 72580, Pitch_bend_c, 0, 8736
2, 72608, Pitch_bend_c, 0, 8656
2, 72620, Pitch_bend_c, 0, 8192
2, 72668, Pitch_bend_c, 0, 8261
2, 72676, Pitch_bend_c, 0, 8720
2, 72700, Pitch_bend_c, 0, 8651
2, 72716, Pitch_bend_c, 0, 8166
2, 72744, Pitch_bend_c, 0, 8144
2, 72768, Pitch_bend_c, 0, 8192
2, 72796, Note_on_c, 0, 52, 0
2, 72968, Pitch_bend_c, 0, 8320
2, 72968, Note_on_c, 0, 50, 127
2, 72992, Pitch_bend_c, 0, 8261
2, 73008, Pitch_bend_c, 0, 9549
2, 73036, Pitch_bend_c, 0, 9602
2, 73052, Pitch_bend_c, 0, 8192
2, 73100, Pitch_bend_c, 0, 9554
2, 73124, Pitch_bend_c, 0, 9597
2, 73148, Pitch_bend_c, 0, 8161
2, 73184, Pitch_bend_c, 0, 9533
2, 73232, Pitch_bend_c, 0, 8166
2, 73284, Pitch_bend_c, 0, 9490
2, 73312, Pitch_bend_c, 0, 9506
2, 73324, Pitch_bend_c, 0, 8187
2, 73372, Pitch_bend_c, 0, 9527
2, 73420, Pitch_bend_c, 0, 8207
2, 73468, Pitch_bend_c, 0, 9549
2, 73512, Pitch_bend_c, 0, 8202
2, 73560, Note_on_c, 0, 50, 0
2, 77860, Note_on_c, 0, 69, 127
2, 77904, Pitch_bend_c, 0, 8795
2, 77928, Pitch_bend_c, 0, 9308
2, 77952, Pitch_bend_c, 0, 9474
2, 78004, Pitch_bend_c, 0, 9431
2, 78040, Pitch_bend_c, 0, 9474
2, 78064, Pitch_bend_c, 0, 9560
2, 78088, Pitch_bend_c, 0, 9656
2, 78092, Pitch_bend_c, 0, 9757
2, 78116, Pitch_bend_c, 0, 9645
2, 78124, Pitch_bend_c, 0, 9506
2, 78148, Pitch_bend_c, 0, 9597
2, 78156, Pitch_bend_c, 0, 10137
2, 78184, Pitch_bend_c, 0, 9624
2, 78208, Pitch_bend_c, 0, 9538
2, 78228, Pitch_bend_c, 0, 10147
2, 78268, Pitch_bend_c, 0, 9527
2, 78308, Pitch_bend_c, 0, 10067
2, 78332, Pitch_bend_c, 0, 10110
2, 78344, Pitch_bend_c, 0, 9597
2, 78372, Pitch_bend_c, 0, 9560
2, 78392, Pitch_bend_c, 0, 10035
2, 78416, Pitch_bend_c, 0, 9966
2, 78428, Pitch_bend_c, 0, 9538
2, 78476, Pitch_bend_c, 0, 9608
2, 78484, Pitch_bend_c, 0, 9966
2, 78508, Pitch_bend_c, 0, 9896
2, 78516, Pitch_bend_c, 0, 9800
2, 78520, Pitch_bend_c, 0, 9672
2, 78528, Pitch_bend_c, 0, 9490
2, 78552, Pitch_bend_c, 0, 9570
2, 78568, Pitch_bend_c, 0, 9677
2, 78576, Pitch_bend_c, 0, 9800
2, 78584, Pitch_bend_c, 0, 9843
2, 78612, Pitch_bend_c, 0, 9565
2, 78632, Pitch_bend_c, 0, 9917
2, 78636, Note_on_c, 0, 69, 0
2, 79040, Pitch_bend_c, 0, 8202
2, 79044, Note_on_c, 0, 71, 127
2, 79088, Pitch_bend_c, 0, 10254
2, 79112, Pitch_bend_c, 0, 10281
2, 79128, Pitch_bend_c, 0, 8144
2, 79172, Pitch_bend_c, 0, 10222
2, 79196, Pitch_bend_c, 0, 10308
2, 79208, Pitch_bend_c, 0, 10409
2, 79216, Pitch_bend_c, 0, 8197
2, 79272, Pitch_bend_c, 0, 10265
2, 79300, Pitch_bend_c, 0, 10372
2, 79316, Pitch_bend_c, 0, 8197
2, 79352, Pitch_bend_c, 0, 10137
2, 79384, Note_on_c, 0, 71, 0
2, 79568, Pitch_bend_c, 0, 8187
2, 79572, Note_on_c, 0, 74, 127
2, 79596, Pitch_bend_c, 0, 8150
2, 79624, Pitch_bend_c, 0, 8192
2, 79632, Pitch_bend_c, 0, 8795
2, 79648, Pitch_bend_c, 0, 9511
2, 79676, Pitch_bend_c, 0, 9661
2, 79708, Pitch_bend_c, 0, 9549
2, 79744, Pitch_bend_c, 0, 9693
2, 79760, Pitch_bend_c, 0, 9912
2, 79792, Pitch_bend_c, 0, 9458
2, 79800, Pitch_bend_c, 0, 8881
2, 79828, Pitch_bend_c, 0, 9490
2, 79844, Pitch_bend_c, 0, 10104
2, 79856, Pitch_bend_c, 0, 10201
2, 79864, Pitch_bend_c, 0, 10302
2, 79872, Pitch_bend_c, 0, 10361
2, 79896, Pitch_bend_c, 0, 9420
2, 79900, Note_on_c, 0, 74, 0
2, 79908, Pitch_bend_c, 0, 8192
2, 84024, Note_on_c, 0, 67, 127
2, 84044, Pitch_bend_c, 0, 8784
2, 84048, Pitch_bend_c, 0, 9442
2, 84056, Pitch_bend_c, 0, 10115
2, 84072, Pitch_bend_c, 0, 10847
2, 84096, Pitch_bend_c, 0, 10730
2, 84112, Note_on_c, 0, 67, 0
2, 84112, Pitch_bend_c, 0, 10831
2, 84180, Pitch_bend_c, 0, 8166
2, 84184, Note_on_c, 0, 67, 127
2, 84224, Pitch_bend_c, 0, 8688
2, 84260, Pitch_bend_c, 0, 8598
2, 84268, Pitch_bend_c, 0, 8485
2, 84276, Pitch_bend_c, 0, 8298
2, 84300, Pitch_bend_c, 0, 8843
2, 84336, Pitch_bend_c, 0, 8298
2, 84360, Pitch_bend_c, 0, 8373
2, 84376, Pitch_bend_c, 0, 9052
2, 84400, Pitch_bend_c, 0, 9068
2, 84404, Pitch_bend_c, 0, 8598
2, 84420, Pitch_bend_c, 0, 8207
2, 84444, Pitch_bend_c, 0, 8282
2, 84452, Pitch_bend_c, 0, 8784
2, 84460, Pitch_bend_c, 0, 9228
2, 84484, Pitch_bend_c, 0, 9180
2, 84488, Pitch_bend_c, 0, 8587
2, 84504, Pitch_bend_c, 0, 8161
2, 84544, Pitch_bend_c, 0, 8309
2, 84552, Pitch_bend_c, 0, 8442
2, 84560, Pitch_bend_c, 0, 8549
2, 84568, Pitch_bend_c, 0, 7648
2, 84584, Pitch_bend_c, 0, 6921
2, 84592, Pitch_bend_c, 0, 6215
2, 84596, Pitch_bend_c, 0, 5467
2, 84612, Pitch_bend_c, 0, 4762
2, 84640, Note_on_c, 0, 67, 0
2, 84996, Pitch_bend_c, 0, 8250
2, 85004, Note_on_c, 0, 62, 127
2, 85036, Pitch_bend_c, 0, 9591
2, 85084, Pitch_bend_c, 0, 8150
2, 85112, Pitch_bend_c, 0, 8177
2, 85128, Pitch_bend_c, 0, 9527
2, 85152, Pitch_bend_c, 0, 9581
2, 85168, Pitch_bend_c, 0, 8139
2, 85220, Pitch_bend_c, 0, 9549
2, 85244, Pitch_bend_c, 0, 9586
2, 85264, Pitch_bend_c, 0, 8166
2, 85304, Pitch_bend_c, 0, 9517
2, 85352, Pitch_bend_c, 0, 8155
2, 85388, Pitch_bend_c, 0, 9468
2, 85412, Pitch_bend_c, 0, 9522
2, 85436, Pitch_bend_c, 0, 8161
2, 85476, Pitch_bend_c, 0, 9517
2, 85528, Pitch_bend_c, 0, 8177
2, 85560, Pitch_bend_c, 0, 9533
2, 85612, Pitch_bend_c, 0, 8144
2, 85660, Note_on_c, 0, 62, 0
2, 85672, Pitch_bend_c, 0, 8192
2, 85672, Note_on_c, 0, 59, 127
2, 85676, Pitch_bend_c, 0, 8346
2, 85704, Pitch_bend_c, 0, 8544
2, 85732, Pitch_bend_c, 0, 7060
2, 85788, Pitch_bend_c, 0, 6317
2, 85804, Pitch_bend_c, 0, 5633
2, 85828, Pitch_bend_c, 0, 5563
2, 85888, Pitch_bend_c, 0, 5382
2, 85908, Note_on_c, 0, 59, 0
2, 85908, Pitch_bend_c, 0, 5553
2, 89480, Pitch_bend_c, 0, 8192
2, 89488, Pitch_bend_c, 0, 8298
2, 89488, Note_on_c, 0, 62, 127
2, 89512, Pitch_bend_c, 0, 8256
2, 89560, Pitch_bend_c, 0, 8859
2, 89584, Pitch_bend_c, 0, 8913
2, 89588, Pitch_bend_c, 0, 9522
2, 89612, Pitch_bend_c, 0, 9501
2, 89620, Note_on_c, 0, 62, 0
2, 89652, Pitch_bend_c, 0, 8182
2, 89652, Note_on_c, 0, 64, 127
2, 89708, Pitch_bend_c, 0, 8144
2, 89732, Pitch_bend_c, 0, 8192
2, 89736, Note_on_c, 0, 64, 0
2, 89740, Note_on_c, 0, 64, 127
2, 89756, Pitch_bend_c, 0, 8266
2, 89780, Pitch_bend_c, 0, 7551
2, 89800, Pitch_bend_c, 0, 6851
2, 89856, Pitch_bend_c, 0, 6894
2, 89884, Pitch_bend_c, 0, 6974
2, 89908, Pitch_bend_c, 0, 6883
2, 89960, Pitch_bend_c, 0, 7054
2, 89968, Pitch_bend_c, 0, 7166
2, 89992, Pitch_bend_c, 0, 6947
2, 90044, Pitch_bend_c, 0, 7118
2, 90052, Pitch_bend_c, 0, 7252
2, 90076, Pitch_bend_c, 0, 7151
2, 90084, Pitch_bend_c, 0, 7038
2, 90092, Pitch_bend_c, 0, 6883
2, 90128, Note_on_c, 0, 64, 0
2, 90136, Pitch_bend_c, 0, 8192
2, 90140, Note_on_c, 0, 62, 127
2, 90144, Pitch_bend_c, 0, 8304
2, 90172, Pitch_bend_c, 0, 8266
2, 90184, Pitch_bend_c, 0, 8907
2, 90208, Pitch_bend_c, 0, 9591
2, 90232, Pitch_bend_c, 0, 9800
2, 90260, Pitch_bend_c, 0, 9843
2, 90284, Pitch_bend_c, 0, 9591
2, 90308, Pitch_bend_c, 0, 9709
2, 90336, Pitch_bend_c, 0, 9837
2, 90344, Pitch_bend_c, 0, 9923
2, 90368, Pitch_bend_c, 0, 9543
2, 90400, Pitch_bend_c, 0, 9656
2, 90424, Pitch_bend_c, 0, 9864
2, 90452, Pitch_bend_c, 0, 9720
2, 90468, Pitch_bend_c, 0, 8940
2, 90484, Pitch_bend_c, 0, 8277
2, 90500, Pitch_bend_c, 0, 7658
2, 90520, Pitch_bend_c, 0, 6862
2, 90524, Note_on_c, 0, 62, 0
2, 90624, Control_c, 0, 11, 95
2, 90988, Pitch_bend_c, 0, 8192
2, 90992, Note_on_c, 0, 57, 127
2, 90996, Pitch_bend_c, 0, 8304
2, 91020, Pitch_bend_c, 0, 8250
2, 91044, Pitch_bend_c, 0, 8907
2, 91068, Pitch_bend_c, 0, 9570
2, 91092, Pitch_bend_c, 0, 9560
2, 91184, Note_on_c, 0, 57, 0
2, 91188, Pitch_bend_c, 0, 8192
2, 91188, Note_on_c, 0, 62, 127
2, 91192, Pitch_bend_c, 0, 8256
2, 91220, Pitch_bend_c, 0, 8192
2, 91248, Note_on_c, 0, 62, 0
2, 91368, Note_on_c, 0, 59, 127
2, 91372, Pitch_bend_c, 0, 8277
2, 91396, Pitch_bend_c, 0, 7583
2, 91420, Pitch_bend_c, 0, 6899
2, 91448, Pitch_bend_c, 0, 6862
2, 91484, Pitch_bend_c, 0, 6942
2, 91508, Pitch_bend_c, 0, 7012
2, 91524, Pitch_bend_c, 0, 5462
2, 91588, Note_on_c, 0, 59, 0
2, 91592, Pitch_bend_c, 0, 8320
2, 91596, Note_on_c, 0, 52, 127
2, 91620, Pitch_bend_c, 0, 8277
2, 91632, Note_on_c, 0, 52, 0
2, 91780, Pitch_bend_c, 0, 8192
2, 91784, Note_on_c, 0, 52, 127
2, 91788, Pitch_bend_c, 0, 8309
2, 91812, Pitch_bend_c, 0, 8357
2, 91844, Pitch_bend_c, 0, 6809
2, 91876, Pitch_bend_c, 0, 6830
2, 91900, Note_on_c, 0, 52, 0
2, 91904, Pitch_bend_c, 0, 8304
2, 91908, Note_on_c, 0, 47, 127
2, 91988, Pitch_bend_c, 0, 8261
2, 92144, Pitch_bend_c, 0, 8197
2, 92168, Pitch_bend_c, 0, 8282
2, 92172, Note_on_c, 0, 47, 0
2, 92188, Note_on_c, 0, 48, 127
2, 92228, Pitch_bend_c, 0, 8314
2, 92252, Pitch_bend_c, 0, 8352
2, 92276, Pitch_bend_c, 0, 8277
2, 92328, Pitch_bend_c, 0, 8352
2, 92380, Pitch_bend_c, 0, 8207
2, 92408, Pitch_bend_c, 0, 8309
2, 92432, Pitch_bend_c, 0, 8400
2, 92456, Pitch_bend_c, 0, 8266
2, 92480, Pitch_bend_c, 0, 8192
2, 92512, Pitch_bend_c, 0, 7973
2, 92540, Pitch_bend_c, 0, 7893
2, 92564, Pitch_bend_c, 0, 7973
2, 92568, Note_on_c, 0, 48, 0
2, 96568, Pitch_bend_c, 0, 8192
2, 96572, Note_on_c, 0, 76, 127
2, 96576, Pitch_bend_c, 0, 8485
2, 96604, Pitch_bend_c, 0, 8352
2, 96628, Pitch_bend_c, 0, 7899
2, 96644, Pitch_bend_c, 0, 7263
2, 96668, Pitch_bend_c, 0, 7140
2, 96676, Pitch_bend_c, 0, 6862
2, 96728, Pitch_bend_c, 0, 4783
2, 96752, Pitch_bend_c, 0, 4746
2, 96776, Pitch_bend_c, 0, 4783
2, 96788, Note_on_c, 0, 76, 0
2, 96808, Pitch_bend_c, 0, 8202
2, 96812, Note_on_c, 0, 74, 127
2, 96836, Pitch_bend_c, 0, 8150
2, 96884, Pitch_bend_c, 0, 8161
2, 96932, Pitch_bend_c, 0, 8266
2, 96956, Pitch_bend_c, 0, 8485
2, 96980, Pitch_bend_c, 0, 8656
2, 96996, Note_on_c, 0, 74, 0
2, 96996, Pitch_bend_c, 0, 8763
2, 97008, Pitch_bend_c, 0, 8192
2, 97012, Note_on_c, 0, 75, 127
2, 97016, Pitch_bend_c, 0, 8742
2, 97044, Pitch_bend_c, 0, 8849
2, 97096, Pitch_bend_c, 0, 8977
2, 97124, Pitch_bend_c, 0, 9201
2, 97148, Pitch_bend_c, 0, 9105
2, 97172, Pitch_bend_c, 0, 9004
2, 97196, Pitch_bend_c, 0, 9297
2, 97240, Pitch_bend_c, 0, 8843
2, 97264, Pitch_bend_c, 0, 8897
2, 97272, Pitch_bend_c, 0, 9004
2, 97280, Pitch_bend_c, 0, 9468
2, 97304, Pitch_bend_c, 0, 9522
2, 97316, Pitch_bend_c, 0, 8972
2, 97340, Pitch_bend_c, 0, 8891
2, 97364, Pitch_bend_c, 0, 9394
2, 97388, Pitch_bend_c, 0, 9506
2, 97412, Pitch_bend_c, 0, 9057
2, 97420, Pitch_bend_c, 0, 8507
2, 97444, Pitch_bend_c, 0, 8646
2, 97468, Pitch_bend_c, 0, 8699
2, 97492, Pitch_bend_c, 0, 8624
2, 97500, Pitch_bend_c, 0, 7968
2, 97516, Note_on_c, 0, 75, 0
2, 97528, Pitch_bend_c, 0, 8192
2, 97532, Note_on_c, 0, 76, 127
2, 97560, Note_on_c, 0, 76, 0
2, 97604, Pitch_bend_c, 0, 8256
2, 97604, Note_on_c, 0, 74, 127
2, 97652, Pitch_bend_c, 0, 8293
2, 97660, Pitch_bend_c, 0, 6183
2, 97684, Pitch_bend_c, 0, 6167
2, 97740, Pitch_bend_c, 0, 6830
2, 97748, Note_on_c, 0, 74, 0
2, 97752, Pitch_bend_c, 0, 8134
2, 97756, Note_on_c, 0, 69, 127
2, 97780, Pitch_bend_c, 0, 8166
2, 97820, Pitch_bend_c, 0, 8758
2, 97828, Pitch_bend_c, 0, 9228
2, 97852, Pitch_bend_c, 0, 9164
2, 97860, Pitch_bend_c, 0, 8177
2, 97916, Pitch_bend_c, 0, 8710
2, 97924, Pitch_bend_c, 0, 9191
2, 97948, Pitch_bend_c, 0, 9132
2, 97952, Pitch_bend_c, 0, 8357
2, 97976, Pitch_bend_c, 0, 8150
2, 98008, Pitch_bend_c, 0, 8027
2, 98016, Pitch_bend_c, 0, 6798
2, 98072, Note_on_c, 0, 69, 0
2, 98084, Pitch_bend_c, 0, 8192
2, 98084, Note_on_c, 0, 64, 127
2, 98088, Pitch_bend_c, 0, 8320
2, 98128, Pitch_bend_c, 0, 6846
2, 98152, Pitch_bend_c, 0, 6894
2, 98188, Note_on_c, 0, 64, 0
2, 101768, Pitch_bend_c, 0, 8177
2, 101772, Note_on_c, 0, 62, 127
2, 101800, Pitch_bend_c, 0, 8849
2, 101824, Pitch_bend_c, 0, 9490
2, 101848, Pitch_bend_c, 0, 9506
2, 101912, Pitch_bend_c, 0, 9501
2, 101936, Note_on_c, 0, 62, 0
2, 101936, Pitch_bend_c, 0, 9560
2, 101940, Pitch_bend_c, 0, 8192
2, 101944, Pitch_bend_c, 0, 8250
2, 101944, Note_on_c, 0, 67, 127
2, 101972, Pitch_bend_c, 0, 8218
2, 101996, Pitch_bend_c, 0, 8261
2, 102020, Pitch_bend_c, 0, 8352
2, 102060, Pitch_bend_c, 0, 8187
2, 102100, Pitch_bend_c, 0, 8325
2, 102108, Pitch_bend_c, 0, 8437
2, 102112, Pitch_bend_c, 0, 8512
2, 102136, Pitch_bend_c, 0, 8416
2, 102144, Pitch_bend_c, 0, 8202
2, 102168, Pitch_bend_c, 0, 8336
2, 102184, Pitch_bend_c, 0, 8736
2, 102208, Pitch_bend_c, 0, 8683
2, 102216, Pitch_bend_c, 0, 8197
2, 102244, Pitch_bend_c, 0, 8245
2, 102264, Pitch_bend_c, 0, 8656
2, 102292, Pitch_bend_c, 0, 8603
2, 102300, Pitch_bend_c, 0, 8496
2, 102308, Pitch_bend_c, 0, 8373
2, 102316, Pitch_bend_c, 0, 8192
2, 102340, Pitch_bend_c, 0, 8240
2, 102348, Pitch_bend_c, 0, 8346
2, 102356, Pitch_bend_c, 0, 8598
2, 102380, Pitch_bend_c, 0, 8528
2, 102392, Pitch_bend_c, 0, 8416
2, 102400, Pitch_bend_c, 0, 8223
2, 102428, Pitch_bend_c, 0, 7557
2, 102444, Pitch_bend_c, 0, 6878
2, 102460, Pitch_bend_c, 0, 6194
2, 102476, Pitch_bend_c, 0, 5510
2, 102484, Note_on_c, 0, 67, 0
2, 103272, Pitch_bend_c, 0, 8192
2, 103276, Note_on_c, 0, 61, 127
2, 103284, Pitch_bend_c, 0, 8763
2, 103308, Pitch_bend_c, 0, 8827
2, 103324, Pitch_bend_c, 0, 9485
2, 103340, Pitch_bend_c, 0, 10115
2, 103388, Pitch_bend_c, 0, 10185
2, 103412, Note_on_c, 0, 61, 0
2, 103420, Pitch_bend_c, 0, 8266
2, 103424, Note_on_c, 0, 67, 127
2, 103496, Note_on_c, 0, 67, 0
2, 103496, Pitch_bend_c, 0, 8192
2, 103496, Note_on_c, 0, 64, 127
2, 103500, Pitch_bend_c, 0, 8240
2, 103512, Pitch_bend_c, 0, 7648
2, 103524, Pitch_bend_c, 0, 6883
2, 103548, Pitch_bend_c, 0, 6830
2, 103580, Pitch_bend_c, 0, 6958
2, 103604, Pitch_bend_c, 0, 7087
2, 103612, Pitch_bend_c, 0, 7284
2, 103636, Pitch_bend_c, 0, 7193
2, 103644, Pitch_bend_c, 0, 6798
2, 103668, Pitch_bend_c, 0, 6846
2, 103684, Pitch_bend_c, 0, 7429
2, 103700, Pitch_bend_c, 0, 7600
2, 103724, Pitch_bend_c, 0, 6824
2, 103768, Pitch_bend_c, 0, 7679
2, 103800, Pitch_bend_c, 0, 7145
2, 103816, Pitch_bend_c, 0, 6782
2, 103840, Pitch_bend_c, 0, 6830
2, 103880, Note_on_c, 0, 64, 0
2, 103888, Pitch_bend_c, 0, 8139
2, 103892, Note_on_c, 0, 62, 127
2, 103916, Pitch_bend_c, 0, 8166
2, 103932, Pitch_bend_c, 0, 8833
2, 103948, Pitch_bend_c, 0, 9522
2, 103972, Pitch_bend_c, 0, 9586
2, 103976, Pitch_bend_c, 0, 9698
2, 103984, Pitch_bend_c, 0, 10126
2, 104008, Pitch_bend_c, 0, 10062
2, 104016, Pitch_bend_c, 0, 9570
2, 104040, Pitch_bend_c, 0, 9511
2, 104072, Pitch_bend_c, 0, 9656
2, 104080, Pitch_bend_c, 0, 10147
2, 104104, Pitch_bend_c, 0, 10073
2, 104112, Pitch_bend_c, 0, 9560
2, 104152, Pitch_bend_c, 0, 8940
2, 104164, Pitch_bend_c, 0, 8256
2, 104180, Pitch_bend_c, 0, 7589
2, 104196, Pitch_bend_c, 0, 6883
2, 104212, Pitch_bend_c, 0, 6173
2, 104236, Note_on_c, 0, 62, 0
2, 113656, Control_c, 0, 11, 85
2, 113660, Pitch_bend_c, 0, 8192
2, 113664, Note_on_c, 0, 57, 127
2, 113684, Pitch_bend_c, 0, 8843
2, 113708, Pitch_bend_c, 0, 9538
2, 113780, Note_on_c, 0, 57, 0
2, 113780, Pitch_bend_c, 0, 8182
2, 113784, Note_on_c, 0, 64, 127
2, 113832, Pitch_bend_c, 0, 8171
2, 113884, Pitch_bend_c, 0, 8192
2, 113888, Note_on_c, 0, 58, 127
2, 113904, Note_on_c, 0, 58, 0
2, 113904, Note_on_c, 0, 57, 127
2, 113944, Note_on_c, 0, 64, 0
2, 113956, Pitch_bend_c, 0, 8330
2, 113996, Pitch_bend_c, 0, 6782
2, 114036, Pitch_bend_c, 0, 6771
2, 114044, Pitch_bend_c, 0, 8192
2, 114048, Note_on_c, 0, 57, 0
2, 114048, Note_on_c, 0, 52, 127
2, 114088, Pitch_bend_c, 0, 8363
2, 114100, Pitch_bend_c, 0, 6851
2, 114128, Control_c, 0, 11, 65
2, 114144, Pitch_bend_c, 0, 8197
2, 114176, Note_on_c, 0, 52, 0
2, 114176, Note_on_c, 0, 50, 127
2, 114184, Pitch_bend_c, 0, 8202
2, 114224, Pitch_bend_c, 0, 9618
2, 114264, Pitch_bend_c, 0, 8192
2, 114304, Note_on_c, 0, 50, 0
2, 114304, Note_on_c, 0, 52, 127
2, 114312, Pitch_bend_c, 0, 8229
2, 114356, Pitch_bend_c, 0, 6851
2, 114396, Pitch_bend_c, 0, 8256
2, 114436, Pitch_bend_c, 0, 8304
2, 114452, Pitch_bend_c, 0, 6814
2, 114480, Pitch_bend_c, 0, 8245
2, 114520, Pitch_bend_c, 0, 8250
2, 114564, Pitch_bend_c, 0, 8368
2, 114608, Pitch_bend_c, 0, 8207
2, 114648, Pitch_bend_c, 0, 8416
2, 114692, Pitch_bend_c, 0, 8250
2, 114736, Pitch_bend_c, 0, 8288
2, 114776, Pitch_bend_c, 0, 8314
2, 114820, Pitch_bend_c, 0, 8187
2, 114864, Pitch_bend_c, 0, 8197
2, 114904, Pitch_bend_c, 0, 8128
2, 114932, Note_on_c, 0, 52, 0
2, 115272, Pitch_bend_c, 0, 9600
2, 115560, Control_c, 0, 11, 127
2, 115576, Pitch_bend_c, 0, 8192
2, 115576, End_track
3, 0, Start_track
3, 0, MIDI_port, 0
3, 0, Title_t, "BASS"
3, 0, Control_c, 1, 0, 0
3, 0, Control_c, 1, 32, 0
3, 0, Program_c, 1, 35
3, 0, Control_c, 1, 7, 110
3, 0, Control_c, 1, 10, 64
3, 0, Control_c, 1, 91, 22
3, 0, Control_c, 1, 93, 0
3, 416, Control_c, 1, 11, 127
3, 5376, Note_on_c, 1, 33, 100
3, 5468, Note_on_c, 1, 33, 0
3, 5472, Note_on_c, 1, 35, 98
3, 5564, Note_on_c, 1, 35, 0
3, 5568, Note_on_c, 1, 38, 97
3, 5660, Note_on_c, 1, 38, 0
3, 5664, Note_on_c, 1, 33, 97
3, 5744, Note_on_c, 1, 33, 0
3, 5760, Note_on_c, 1, 35, 99
3, 5836, Note_on_c, 1, 35, 0
3, 5856, Note_on_c, 1, 38, 97
3, 5948, Note_on_c, 1, 38, 0
3, 5952, Note_on_c, 1, 35, 104
3, 6144, Note_on_c, 1, 35, 0
3, 6144, Note_on_c, 1, 36, 98
3, 6700, Note_on_c, 1, 36, 0
3, 6720, Note_on_c, 1, 36, 98
3, 6888, Note_on_c, 1, 36, 0
3, 6912, Note_on_c, 1, 31, 98
3, 7280, Note_on_c, 1, 31, 0
3, 7296, Note_on_c, 1, 36, 99
3, 7468, Note_on_c, 1, 36, 0
3, 7488, Note_on_c, 1, 37, 99
3, 7676, Note_on_c, 1, 37, 0
3, 7680, Note_on_c, 1, 38, 99
3, 8220, Note_on_c, 1, 38, 0
3, 8256, Note_on_c, 1, 38, 97
3, 8432, Note_on_c, 1, 38, 0
3, 8448, Note_on_c, 1, 33, 97
3, 8816, Note_on_c, 1, 33, 0
3, 8832, Note_on_c, 1, 38, 99
3, 8996, Note_on_c, 1, 38, 0
3, 9024, Note_on_c, 1, 39, 99
3, 9172, Note_on_c, 1, 39, 0
3, 9216, Note_on_c, 1, 40, 102
3, 9404, Note_on_c, 1, 40, 0
3, 9408, Note_on_c, 1, 40, 95
3, 9564, Note_on_c, 1, 40, 0
3, 9600, Note_on_c, 1, 40, 97
3, 9980, Note_on_c, 1, 40, 0
3, 9984, Note_on_c, 1, 40, 101
3, 10172, Note_on_c, 1, 40, 0
3, 10176, Note_on_c, 1, 35, 97
3, 10260, Note_on_c, 1, 35, 0
3, 10272, Note_on_c, 1, 38, 102
3, 10444, Note_on_c, 1, 38, 0
3, 10464, Note_on_c, 1, 35, 98
3, 10528, Note_on_c, 1, 35, 0
3, 10560, Note_on_c, 1, 38, 101
3, 10748, Note_on_c, 1, 38, 0
3, 10752, Note_on_c, 1, 38, 98
3, 10788, Note_on_c, 1, 38, 0
3, 10788, Note_on_c, 1, 40, 97
3, 11112, Note_on_c, 1, 40, 0
3, 11136, Note_on_c, 1, 40, 100
3, 11324, Note_on_c, 1, 40, 0
3, 11328, Note_on_c, 1, 28, 97
3, 11516, Note_on_c, 1, 28, 0
3, 11520, Note_on_c, 1, 40, 102
3, 11648, Note_on_c, 1, 40, 0
3, 11712, Note_on_c, 1, 40, 98
3, 11864, Note_on_c, 1, 40, 0
3, 11904, Note_on_c, 1, 40, 99
3, 12000, Note_on_c, 1, 40, 0
3, 12000, Note_on_c, 1, 38, 102
3, 12096, Note_on_c, 1, 38, 0
3, 12096, Note_on_c, 1, 35, 99
3, 12288, Note_on_c, 1, 35, 0
3, 12288, Note_on_c, 1, 36, 98
3, 12844, Note_on_c, 1, 36, 0
3, 12864, Note_on_c, 1, 36, 98
3, 13032, Note_on_c, 1, 36, 0
3, 13056, Note_on_c, 1, 31, 98
3, 13424, Note_on_c, 1, 31, 0
3, 13440, Note_on_c, 1, 36, 99
3, 13612, Note_on_c, 1, 36, 0
3, 13632, Note_on_c, 1, 37, 99
3, 13820, Note_on_c, 1, 37, 0
3, 13824, Note_on_c, 1, 38, 99
3, 14364, Note_on_c, 1, 38, 0
3, 14400, Note_on_c, 1, 38, 97
3, 14576, Note_on_c, 1, 38, 0
3, 14592, Note_on_c, 1, 33, 97
3, 14960, Note_on_c, 1, 33, 0
3, 14976, Note_on_c, 1, 38, 99
3, 15140, Note_on_c, 1, 38, 0
3, 15168, Note_on_c, 1, 39, 99
3, 15316, Note_on_c, 1, 39, 0
3, 15360, Note_on_c, 1, 40, 102
3, 15548, Note_on_c, 1, 40, 0
3, 15552, Note_on_c, 1, 40, 95
3, 15708, Note_on_c, 1, 40, 0
3, 15744, Note_on_c, 1, 40, 97
3, 16124, Note_on_c, 1, 40, 0
3, 16128, Note_on_c, 1, 40, 101
3, 16316, Note_on_c, 1, 40, 0
3, 16320, Note_on_c, 1, 35, 97
3, 16404, Note_on_c, 1, 35, 0
3, 16416, Note_on_c, 1, 38, 102
3, 16588, Note_on_c, 1, 38, 0
3, 16608, Note_on_c, 1, 35, 98
3, 16672, Note_on_c, 1, 35, 0
3, 16704, Note_on_c, 1, 38, 101
3, 16892, Note_on_c, 1, 38, 0
3, 16896, Note_on_c, 1, 38, 98
3, 16932, Note_on_c, 1, 38, 0
3, 16932, Note_on_c, 1, 40, 97
3, 17256, Note_on_c, 1, 40, 0
3, 17280, Note_on_c, 1, 40, 100
3, 17468, Note_on_c, 1, 40, 0
3, 17472, Note_on_c, 1, 28, 97
3, 17660, Note_on_c, 1, 28, 0
3, 17664, Note_on_c, 1, 40, 102
3, 17792, Note_on_c, 1, 40, 0
3, 17856, Note_on_c, 1, 40, 98
3, 18008, Note_on_c, 1, 40, 0
3, 18048, Note_on_c, 1, 40, 99
3, 18144, Note_on_c, 1, 40, 0
3, 18144, Note_on_c, 1, 38, 102
3, 18240, Note_on_c, 1, 38, 0
3, 18240, Note_on_c, 1, 35, 99
3, 18432, Note_on_c, 1, 35, 0
3, 18432, Note_on_c, 1, 36, 98
3, 18988, Note_on_c, 1, 36, 0
3, 19008, Note_on_c, 1, 36, 98
3, 19176, Note_on_c, 1, 36, 0
3, 19200, Note_on_c, 1, 31, 98
3, 19568, Note_on_c, 1, 31, 0
3, 19584, Note_on_c, 1, 36, 99
3, 19756, Note_on_c, 1, 36, 0
3, 19776, Note_on_c, 1, 37, 99
3, 19964, Note_on_c, 1, 37, 0
3, 19968, Note_on_c, 1, 38, 99
3, 20508, Note_on_c, 1, 38, 0
3, 20544, Note_on_c, 1, 38, 97
3, 20720, Note_on_c, 1, 38, 0
3, 20736, Note_on_c, 1, 33, 97
3, 21104, Note_on_c, 1, 33, 0
3, 21120, Note_on_c, 1, 38, 99
3, 21284, Note_on_c, 1, 38, 0
3, 21312, Note_on_c, 1, 39, 99
3, 21460, Note_on_c, 1, 39, 0
3, 21504, Note_on_c, 1, 40, 102
3, 21692, Note_on_c, 1, 40, 0
3, 21696, Note_on_c, 1, 40, 95
3, 21852, Note_on_c, 1, 40, 0
3, 21888, Note_on_c, 1, 40, 97
3, 22268, Note_on_c, 1, 40, 0
3, 22272, Note_on_c, 1, 40, 101
3, 22460, Note_on_c, 1, 40, 0
3, 22464, Note_on_c, 1, 35, 97
3, 22548, Note_on_c, 1, 35, 0
3, 22560, Note_on_c, 1, 38, 102
3, 22732, Note_on_c, 1, 38, 0
3, 22752, Note_on_c, 1, 35, 98
3, 22816, Note_on_c, 1, 35, 0
3, 22848, Note_on_c, 1, 38, 101
3, 23036, Note_on_c, 1, 38, 0
3, 23040, Note_on_c, 1, 38, 98
3, 23076, Note_on_c, 1, 38, 0
3, 23076, Note_on_c, 1, 40, 97
3, 23400, Note_on_c, 1, 40, 0
3, 23424, Note_on_c, 1, 40, 100
3, 23612, Note_on_c, 1, 40, 0
3, 23616, Note_on_c, 1, 28, 97
3, 23804, Note_on_c, 1, 28, 0
3, 23808, Note_on_c, 1, 40, 102
3, 23936, Note_on_c, 1, 40, 0
3, 24000, Note_on_c, 1, 40, 98
3, 24152, Note_on_c, 1, 40, 0
3, 24192, Note_on_c, 1, 40, 99
3, 24288, Note_on_c, 1, 40, 0
3, 24288, Note_on_c, 1, 38, 102
3, 24384, Note_on_c, 1, 38, 0
3, 24384, Note_on_c, 1, 35, 99
3, 24576, Note_on_c, 1, 35, 0
3, 24576, Note_on_c, 1, 36, 98
3, 25132, Note_on_c, 1, 36, 0
3, 25152, Note_on_c, 1, 36, 98
3, 25320, Note_on_c, 1, 36, 0
3, 25344, Note_on_c, 1, 31, 98
3, 25712, Note_on_c, 1, 31, 0
3, 25728, Note_on_c, 1, 36, 99
3, 25900, Note_on_c, 1, 36, 0
3, 25920, Note_on_c, 1, 37, 99
3, 26108, Note_on_c, 1, 37, 0
3, 26112, Note_on_c, 1, 38, 99
3, 26652, Note_on_c, 1, 38, 0
3, 26688, Note_on_c, 1, 38, 97
3, 26864, Note_on_c, 1, 38, 0
3, 26880, Note_on_c, 1, 33, 97
3, 27248, Note_on_c, 1, 33, 0
3, 27264, Note_on_c, 1, 38, 99
3, 27428, Note_on_c, 1, 38, 0
3, 27456, Note_on_c, 1, 39, 99
3, 27604, Note_on_c, 1, 39, 0
3, 27648, Note_on_c, 1, 40, 102
3, 27836, Note_on_c, 1, 40, 0
3, 27840, Note_on_c, 1, 40, 95
3, 27996, Note_on_c, 1, 40, 0
3, 28032, Note_on_c, 1, 40, 97
3, 28412, Note_on_c, 1, 40, 0
3, 28416, Note_on_c, 1, 40, 101
3, 28604, Note_on_c, 1, 40, 0
3, 28608, Note_on_c, 1, 35, 97
3, 28692, Note_on_c, 1, 35, 0
3, 28704, Note_on_c, 1, 38, 102
3, 28876, Note_on_c, 1, 38, 0
3, 28896, Note_on_c, 1, 35, 98
3, 28960, Note_on_c, 1, 35, 0
3, 28992, Note_on_c, 1, 38, 101
3, 29180, Note_on_c, 1, 38, 0
3, 29184, Note_on_c, 1, 38, 98
3, 29220, Note_on_c, 1, 38, 0
3, 29220, Note_on_c, 1, 40, 97
3, 29544, Note_on_c, 1, 40, 0
3, 29568, Note_on_c, 1, 40, 100
3, 29756, Note_on_c, 1, 40, 0
3, 29760, Note_on_c, 1, 28, 97
3, 29948, Note_on_c, 1, 28, 0
3, 29952, Note_on_c, 1, 40, 102
3, 30080, Note_on_c, 1, 40, 0
3, 30144, Note_on_c, 1, 40, 98
3, 30296, Note_on_c, 1, 40, 0
3, 30336, Note_on_c, 1, 40, 99
3, 30432, Note_on_c, 1, 40, 0
3, 30432, Note_on_c, 1, 38, 102
3, 30528, Note_on_c, 1, 38, 0
3, 30528, Note_on_c, 1, 35, 99
3, 30720, Note_on_c, 1, 35, 0
3, 30720, Note_on_c, 1, 36, 98
3, 31276, Note_on_c, 1, 36, 0
3, 31296, Note_on_c, 1, 36, 98
3, 31464, Note_on_c, 1, 36, 0
3, 31488, Note_on_c, 1, 31, 98
3, 31856, Note_on_c, 1, 31, 0
3, 31872, Note_on_c, 1, 36, 99
3, 32044, Note_on_c, 1, 36, 0
3, 32064, Note_on_c, 1, 37, 99
3, 32252, Note_on_c, 1, 37, 0
3, 32256, Note_on_c, 1, 38, 99
3, 32796, Note_on_c, 1, 38, 0
3, 32832, Note_on_c, 1, 38, 97
3, 33008, Note_on_c, 1, 38, 0
3, 33024, Note_on_c, 1, 33, 97
3, 33392, Note_on_c, 1, 33, 0
3, 33408, Note_on_c, 1, 38, 99
3, 33572, Note_on_c, 1, 38, 0
3, 33600, Note_on_c, 1, 39, 99
3, 33748, Note_on_c, 1, 39, 0
3, 33792, Note_on_c, 1, 40, 102
3, 33980, Note_on_c, 1, 40, 0
3, 33984, Note_on_c, 1, 40, 95
3, 34140, Note_on_c, 1, 40, 0
3, 34176, Note_on_c, 1, 40, 97
3, 34556, Note_on_c, 1, 40, 0
3, 34560, Note_on_c, 1, 40, 101
3, 34748, Note_on_c, 1, 40, 0
3, 34752, Note_on_c, 1, 35, 97
3, 34836, Note_on_c, 1, 35, 0
3, 34848, Note_on_c, 1, 38, 102
3, 35020, Note_on_c, 1, 38, 0
3, 35040, Note_on_c, 1, 35, 98
3, 35104, Note_on_c, 1, 35, 0
3, 35136, Note_on_c, 1, 38, 101
3, 35324, Note_on_c, 1, 38, 0
3, 35328, Note_on_c, 1, 38, 98
3, 35364, Note_on_c, 1, 38, 0
3, 35364, Note_on_c, 1, 40, 97
3, 35688, Note_on_c, 1, 40, 0
3, 35712, Note_on_c, 1, 40, 100
3, 35900, Note_on_c, 1, 40, 0
3, 35904, Note_on_c, 1, 28, 97
3, 36092, Note_on_c, 1, 28, 0
3, 36096, Note_on_c, 1, 40, 102
3, 36224, Note_on_c, 1, 40, 0
3, 36288, Note_on_c, 1, 40, 98
3, 36440, Note_on_c, 1, 40, 0
3, 36480, Note_on_c, 1, 40, 99
3, 36576, Note_on_c, 1, 40, 0
3, 36576, Note_on_c, 1, 38, 102
3, 36672, Note_on_c, 1, 38, 0
3, 36672, Note_on_c, 1, 35, 99
3, 36864, Note_on_c, 1, 35, 0
3, 36864, Note_on_c, 1, 36, 98
3, 37420, Note_on_c, 1, 36, 0
3, 37440, Note_on_c, 1, 36, 98
3, 37608, Note_on_c, 1, 36, 0
3, 37632, Note_on_c, 1, 31, 98
3, 38000, Note_on_c, 1, 31, 0
3, 38016, Note_on_c, 1, 36, 99
3, 38188, Note_on_c, 1, 36, 0
3, 38208, Note_on_c, 1, 37, 99
3, 38396, Note_on_c, 1, 37, 0
3, 38400, Note_on_c, 1, 38, 99
3, 38940, Note_on_c, 1, 38, 0
3, 38976, Note_on_c, 1, 38, 97
3, 39152, Note_on_c, 1, 38, 0
3, 39168, Note_on_c, 1, 33, 97
3, 39536, Note_on_c, 1, 33, 0
3, 39552, Note_on_c, 1, 38, 99
3, 39716, Note_on_c, 1, 38, 0
3, 39744, Note_on_c, 1, 39, 99
3, 39892, Note_on_c, 1, 39, 0
3, 39936, Note_on_c, 1, 40, 102
3, 40124, Note_on_c, 1, 40, 0
3, 40128, Note_on_c, 1, 40, 95
3, 40284, Note_on_c, 1, 40, 0
3, 40320, Note_on_c, 1, 40, 97
3, 40700, Note_on_c, 1, 40, 0
3, 40704, Note_on_c, 1, 40, 101
3, 40892, Note_on_c, 1, 40, 0
3, 40896, Note_on_c, 1, 35, 97
3, 40980, Note_on_c, 1, 35, 0
3, 40992, Note_on_c, 1, 38, 102
3, 41164, Note_on_c, 1, 38, 0
3, 41184, Note_on_c, 1, 35, 98
3, 41248, Note_on_c, 1, 35, 0
3, 41280, Note_on_c, 1, 38, 101
3, 41468, Note_on_c, 1, 38, 0
3, 41472, Note_on_c, 1, 38, 98
3, 41508, Note_on_c, 1, 38, 0
3, 41508, Note_on_c, 1, 40, 97
3, 41832, Note_on_c, 1, 40, 0
3, 41856, Note_on_c, 1, 40, 100
3, 42044, Note_on_c, 1, 40, 0
3, 42048, Note_on_c, 1, 28, 97
3, 42236, Note_on_c, 1, 28, 0
3, 42240, Note_on_c, 1, 40, 102
3, 42368, Note_on_c, 1, 40, 0
3, 42432, Note_on_c, 1, 40, 98
3, 42584, Note_on_c, 1, 40, 0
3, 42624, Note_on_c, 1, 40, 99
3, 42720, Note_on_c, 1, 40, 0
3, 42720, Note_on_c, 1, 38, 102
3, 42816, Note_on_c, 1, 38, 0
3, 42816, Note_on_c, 1, 35, 99
3, 43008, Note_on_c, 1, 35, 0
3, 43008, Note_on_c, 1, 36, 98
3, 43564, Note_on_c, 1, 36, 0
3, 43584, Note_on_c, 1, 36, 98
3, 43752, Note_on_c, 1, 36, 0
3, 43776, Note_on_c, 1, 31, 98
3, 44144, Note_on_c, 1, 31, 0
3, 44160, Note_on_c, 1, 36, 99
3, 44332, Note_on_c, 1, 36, 0
3, 44352, Note_on_c, 1, 37, 99
3, 44540, Note_on_c, 1, 37, 0
3, 44544, Note_on_c, 1, 38, 99
3, 45084, Note_on_c, 1, 38, 0
3, 45120, Note_on_c, 1, 38, 97
3, 45296, Note_on_c, 1, 38, 0
3, 45312, Note_on_c, 1, 33, 97
3, 45680, Note_on_c, 1, 33, 0
3, 45696, Note_on_c, 1, 38, 99
3, 45860, Note_on_c, 1, 38, 0
3, 45888, Note_on_c, 1, 39, 99
3, 46036, Note_on_c, 1, 39, 0
3, 46080, Note_on_c, 1, 40, 102
3, 46268, Note_on_c, 1, 40, 0
3, 46272, Note_on_c, 1, 40, 95
3, 46428, Note_on_c, 1, 40, 0
3, 46464, Note_on_c, 1, 40, 97
3, 46844, Note_on_c, 1, 40, 0
3, 46848, Note_on_c, 1, 40, 101
3, 47036, Note_on_c, 1, 40, 0
3, 47040, Note_on_c, 1, 35, 97
3, 47124, Note_on_c, 1, 35, 0
3, 47136, Note_on_c, 1, 38, 102
3, 47308, Note_on_c, 1, 38, 0
3, 47328, Note_on_c, 1, 35, 98
3, 47392, Note_on_c, 1, 35, 0
3, 47424, Note_on_c, 1, 38, 101
3, 47612, Note_on_c, 1, 38, 0
3, 47616, Note_on_c, 1, 38, 98
3, 47652, Note_on_c, 1, 38, 0
3, 47652, Note_on_c, 1, 40, 97
3, 47976, Note_on_c, 1, 40, 0
3, 48000, Note_on_c, 1, 40, 100
3, 48188, Note_on_c, 1, 40, 0
3, 48192, Note_on_c, 1, 28, 97
3, 48380, Note_on_c, 1, 28, 0
3, 48384, Note_on_c, 1, 40, 102
3, 48512, Note_on_c, 1, 40, 0
3, 48576, Note_on_c, 1, 40, 98
3, 48728, Note_on_c, 1, 40, 0
3, 48768, Note_on_c, 1, 40, 99
3, 48864, Note_on_c, 1, 40, 0
3, 48864, Note_on_c, 1, 38, 102
3, 48960, Note_on_c, 1, 38, 0
3, 48960, Note_on_c, 1, 35, 99
3, 49152, Note_on_c, 1, 35, 0
3, 49152, Note_on_c, 1, 36, 98
3, 49708, Note_on_c, 1, 36, 0
3, 49728, Note_on_c, 1, 36, 98
3, 49896, Note_on_c, 1, 36, 0
3, 49920, Note_on_c, 1, 31, 98
3, 50288, Note_on_c, 1, 31, 0
3, 50304, Note_on_c, 1, 36, 99
3, 50476, Note_on_c, 1, 36, 0
3, 50496, Note_on_c, 1, 37, 99
3, 50684, Note_on_c, 1, 37, 0
3, 50688, Note_on_c, 1, 38, 99
3, 51228, Note_on_c, 1, 38, 0
3, 51264, Note_on_c, 1, 38, 97
3, 51440, Note_on_c, 1, 38, 0
3, 51456, Note_on_c, 1, 33, 97
3, 51824, Note_on_c, 1, 33, 0
3, 51840, Note_on_c, 1, 38, 99
3, 52004, Note_on_c, 1, 38, 0
3, 52032, Note_on_c, 1, 39, 99
3, 52180, Note_on_c, 1, 39, 0
3, 52224, Note_on_c, 1, 40, 102
3, 52412, Note_on_c, 1, 40, 0
3, 52416, Note_on_c, 1, 40, 95
3, 52572, Note_on_c, 1, 40, 0
3, 52608, Note_on_c, 1, 40, 97
3, 52988, Note_on_c, 1, 40, 0
3, 52992, Note_on_c, 1, 40, 101
3, 53180, Note_on_c, 1, 40, 0
3, 53184, Note_on_c, 1, 35, 97
3, 53268, Note_on_c, 1, 35, 0
3, 53280, Note_on_c, 1, 38, 102
3, 53452, Note_on_c, 1, 38, 0
3, 53472, Note_on_c, 1, 35, 98
3, 53536, Note_on_c, 1, 35, 0
3, 53568, Note_on_c, 1, 38, 101
3, 53756, Note_on_c, 1, 38, 0
3, 53760, Note_on_c, 1, 38, 98
3, 53796, Note_on_c, 1, 38, 0
3, 53796, Note_on_c, 1, 40, 97
3, 54120, Note_on_c, 1, 40, 0
3, 54144, Note_on_c, 1, 40, 100
3, 54332, Note_on_c, 1, 40, 0
3, 54336, Note_on_c, 1, 28, 97
3, 54524, Note_on_c, 1, 28, 0
3, 54528, Note_on_c, 1, 40, 102
3, 54656, Note_on_c, 1, 40, 0
3, 54720, Note_on_c, 1, 40, 98
3, 54872, Note_on_c, 1, 40, 0
3, 54912, Note_on_c, 1, 40, 99
3, 55008, Note_on_c, 1, 40, 0
3, 55008, Note_on_c, 1, 38, 102
3, 55104, Note_on_c, 1, 38, 0
3, 55104, Note_on_c, 1, 35, 99
3, 55296, Note_on_c, 1, 35, 0
3, 55296, Note_on_c, 1, 36, 98
3, 55852, Note_on_c, 1, 36, 0
3, 55872, Note_on_c, 1, 36, 98
3, 56040, Note_on_c, 1, 36, 0
3, 56064, Note_on_c, 1, 31, 98
3, 56432, Note_on_c, 1, 31, 0
3, 56448, Note_on_c, 1, 36, 99
3, 56620, Note_on_c, 1, 36, 0
3, 56640, Note_on_c, 1, 37, 99
3, 56828, Note_on_c, 1, 37, 0
3, 56832, Note_on_c, 1, 38, 99
3, 57372, Note_on_c, 1, 38, 0
3, 57408, Note_on_c, 1, 38, 97
3, 57584, Note_on_c, 1, 38, 0
3, 57600, Note_on_c, 1, 33, 97
3, 57968, Note_on_c, 1, 33, 0
3, 57984, Note_on_c, 1, 38, 99
3, 58148, Note_on_c, 1, 38, 0
3, 58176, Note_on_c, 1, 39, 99
3, 58324, Note_on_c, 1, 39, 0
3, 58368, Note_on_c, 1, 40, 102
3, 58556, Note_on_c, 1, 40, 0
3, 58560, Note_on_c, 1, 40, 95
3, 58716, Note_on_c, 1, 40, 0
3, 58752, Note_on_c, 1, 40, 97
3, 59132, Note_on_c, 1, 40, 0
3, 59136, Note_on_c, 1, 40, 101
3, 59324, Note_on_c, 1, 40, 0
3, 59328, Note_on_c, 1, 35, 97
3, 59412, Note_on_c, 1, 35, 0
3, 59424, Note_on_c, 1, 38, 102
3, 59596, Note_on_c, 1, 38, 0
3, 59616, Note_on_c, 1, 35, 98
3, 59680, Note_on_c, 1, 35, 0
3, 59712, Note_on_c, 1, 38, 101
3, 59900, Note_on_c, 1, 38, 0
3, 59904, Note_on_c, 1, 38, 98
3, 59940, Note_on_c, 1, 38, 0
3, 59940, Note_on_c, 1, 40, 97
3, 60264, Note_on_c, 1, 40, 0
3, 60288, Note_on_c, 1, 40, 100
3, 60476, Note_on_c, 1, 40, 0
3, 60480, Note_on_c, 1, 28, 97
3, 60668, Note_on_c, 1, 28, 0
3, 60672, Note_on_c, 1, 40, 102
3, 60800, Note_on_c, 1, 40, 0
3, 60864, Note_on_c, 1, 40, 98
3, 61016, Note_on_c, 1, 40, 0
3, 61056, Note_on_c, 1, 40, 99
3, 61152, Note_on_c, 1, 40, 0
3, 61152, Note_on_c, 1, 38, 102
3, 61248, Note_on_c, 1, 38, 0
3, 61248, Note_on_c, 1, 35, 99
3, 61440, Note_on_c, 1, 35, 0
3, 61440, Note_on_c, 1, 36, 98
3, 61996, Note_on_c, 1, 36, 0
3, 62016, Note_on_c, 1, 36, 98
3, 62184, Note_on_c, 1, 36, 0
3, 62208, Note_on_c, 1, 31, 98
3, 62576, Note_on_c, 1, 31, 0
3, 62592, Note_on_c, 1, 36, 99
3, 62764, Note_on_c, 1, 36, 0
3, 62784, Note_on_c, 1, 37, 99
3, 62972, Note_on_c, 1, 37, 0
3, 62976, Note_on_c, 1, 38, 99
3, 63516, Note_on_c, 1, 38, 0
3, 63552, Note_on_c, 1, 38, 97
3, 63728, Note_on_c, 1, 38, 0
3, 63744, Note_on_c, 1, 33, 97
3, 64112, Note_on_c, 1, 33, 0
3, 64128, Note_on_c, 1, 38, 99
3, 64292, Note_on_c, 1, 38, 0
3, 64320, Note_on_c, 1, 39, 99
3, 64468, Note_on_c, 1, 39, 0
3, 64512, Note_on_c, 1, 40, 102
3, 64700, Note_on_c, 1, 40, 0
3, 64704, Note_on_c, 1, 40, 95
3, 64860, Note_on_c, 1, 40, 0
3, 64896, Note_on_c, 1, 40, 97
3, 65276, Note_on_c, 1, 40, 0
3, 65280, Note_on_c, 1, 40, 101
3, 65468, Note_on_c, 1, 40, 0
3, 65472, Note_on_c, 1, 35, 97
3, 65556, Note_on_c, 1, 35, 0
3, 65568, Note_on_c, 1, 38, 102
3, 65740, Note_on_c, 1, 38, 0
3, 65760, Note_on_c, 1, 35, 98
3, 65824, Note_on_c, 1, 35, 0
3, 65856, Note_on_c, 1, 38, 101
3, 66044, Note_on_c, 1, 38, 0
3, 66048, Note_on_c, 1, 38, 98
3, 66084, Note_on_c, 1, 38, 0
3, 66084, Note_on_c, 1, 40, 97
3, 66408, Note_on_c, 1, 40, 0
3, 66432, Note_on_c, 1, 40, 100
3, 66620, Note_on_c, 1, 40, 0
3, 66624, Note_on_c, 1, 28, 97
3, 66812, Note_on_c, 1, 28, 0
3, 66816, Note_on_c, 1, 40, 102
3, 66944, Note_on_c, 1, 40, 0
3, 67008, Note_on_c, 1, 40, 98
3, 67160, Note_on_c, 1, 40, 0
3, 67200, Note_on_c, 1, 40, 99
3, 67296, Note_on_c, 1, 40, 0
3, 67296, Note_on_c, 1, 38, 102
3, 67392, Note_on_c, 1, 38, 0
3, 67392, Note_on_c, 1, 35, 99
3, 67584, Note_on_c, 1, 35, 0
3, 67584, Note_on_c, 1, 36, 101
3, 67748, Note_on_c, 1, 36, 0
3, 67776, Note_on_c, 1, 28, 98
3, 67940, Note_on_c, 1, 28, 0
3, 67968, Note_on_c, 1, 29, 99
3, 68132, Note_on_c, 1, 29, 0
3, 68160, Note_on_c, 1, 30, 102
3, 68324, Note_on_c, 1, 30, 0
3, 68352, Note_on_c, 1, 31, 101
3, 68516, Note_on_c, 1, 31, 0
3, 68544, Note_on_c, 1, 35, 98
3, 68708, Note_on_c, 1, 35, 0
3, 68736, Note_on_c, 1, 36, 99
3, 68900, Note_on_c, 1, 36, 0
3, 68928, Note_on_c, 1, 37, 101
3, 69092, Note_on_c, 1, 37, 0
3, 69120, Note_on_c, 1, 38, 102
3, 69284, Note_on_c, 1, 38, 0
3, 69312, Note_on_c, 1, 30, 99
3, 69476, Note_on_c, 1, 30, 0
3, 69504, Note_on_c, 1, 31, 101
3, 69668, Note_on_c, 1, 31, 0
3, 69696, Note_on_c, 1, 32, 99
3, 69860, Note_on_c, 1, 32, 0
3, 69888, Note_on_c, 1, 33, 97
3, 70052, Note_on_c, 1, 33, 0
3, 70080, Note_on_c, 1, 37, 101
3, 70244, Note_on_c, 1, 37, 0
3, 70272, Note_on_c, 1, 38, 100
3, 70436, Note_on_c, 1, 38, 0
3, 70464, Note_on_c, 1, 39, 102
3, 70628, Note_on_c, 1, 39, 0
3, 70656, Note_on_c, 1, 40, 102
3, 70844, Note_on_c, 1, 40, 0
3, 70848, Note_on_c, 1, 40, 95
3, 71004, Note_on_c, 1, 40, 0
3, 71040, Note_on_c, 1, 40, 97
3, 71420, Note_on_c, 1, 40, 0
3, 71424, Note_on_c, 1, 40, 101
3, 71616, Note_on_c, 1, 40, 0
3, 71616, Note_on_c, 1, 35, 97
3, 71700, Note_on_c, 1, 35, 0
3, 71712, Note_on_c, 1, 38, 102
3, 71884, Note_on_c, 1, 38, 0
3, 71904, Note_on_c, 1, 35, 98
3, 71968, Note_on_c, 1, 35, 0
3, 72000, Note_on_c, 1, 38, 101
3, 72172, Note_on_c, 1, 38, 0
3, 72192, Note_on_c, 1, 38, 98
3, 72252, Note_on_c, 1, 38, 0
3, 72252, Note_on_c, 1, 40, 97
3, 72576, Note_on_c, 1, 40, 0
3, 72576, Note_on_c, 1, 40, 100
3, 72764, Note_on_c, 1, 40, 0
3, 72768, Note_on_c, 1, 40, 97
3, 72956, Note_on_c, 1, 40, 0
3, 72960, Note_on_c, 1, 40, 102
3, 73088, Note_on_c, 1, 40, 0
3, 73152, Note_on_c, 1, 40, 98
3, 73304, Note_on_c, 1, 40, 0
3, 73344, Note_on_c, 1, 40, 99
3, 73436, Note_on_c, 1, 40, 0
3, 73440, Note_on_c, 1, 38, 102
3, 73532, Note_on_c, 1, 38, 0
3, 73536, Note_on_c, 1, 35, 99
3, 73728, Note_on_c, 1, 35, 0
3, 73728, Note_on_c, 1, 36, 98
3, 74284, Note_on_c, 1, 36, 0
3, 74304, Note_on_c, 1, 36, 98
3, 74472, Note_on_c, 1, 36, 0
3, 74496, Note_on_c, 1, 31, 98
3, 74864, Note_on_c, 1, 31, 0
3, 74880, Note_on_c, 1, 36, 99
3, 75052, Note_on_c, 1, 36, 0
3, 75072, Note_on_c, 1, 37, 99
3, 75260, Note_on_c, 1, 37, 0
3, 75264, Note_on_c, 1, 38, 99
3, 75804, Note_on_c, 1, 38, 0
3, 75840, Note_on_c, 1, 38, 97
3, 76016, Note_on_c, 1, 38, 0
3, 76032, Note_on_c, 1, 33, 97
3, 76400, Note_on_c, 1, 33, 0
3, 76416, Note_on_c, 1, 38, 99
3, 76580, Note_on_c, 1, 38, 0
3, 76608, Note_on_c, 1, 39, 99
3, 76756, Note_on_c, 1, 39, 0
3, 76800, Note_on_c, 1, 40, 102
3, 76988, Note_on_c, 1, 40, 0
3, 76992, Note_on_c, 1, 40, 95
3, 77148, Note_on_c, 1, 40, 0
3, 77184, Note_on_c, 1, 40, 97
3, 77564, Note_on_c, 1, 40, 0
3, 77568, Note_on_c, 1, 40, 101
3, 77756, Note_on_c, 1, 40, 0
3, 77760, Note_on_c, 1, 35, 97
3, 77844, Note_on_c, 1, 35, 0
3, 77856, Note_on_c, 1, 38, 102
3, 78028, Note_on_c, 1, 38, 0
3, 78048, Note_on_c, 1, 35, 98
3, 78112, Note_on_c, 1, 35, 0
3, 78144, Note_on_c, 1, 38, 101
3, 78332, Note_on_c, 1, 38, 0
3, 78336, Note_on_c, 1, 38, 98
3, 78372, Note_on_c, 1, 38, 0
3, 78372, Note_on_c, 1, 40, 97
3, 78696, Note_on_c, 1, 40, 0
3, 78720, Note_on_c, 1, 40, 100
3, 78908, Note_on_c, 1, 40, 0
3, 78912, Note_on_c, 1, 28, 97
3, 79100, Note_on_c, 1, 28, 0
3, 79104, Note_on_c, 1, 40, 102
3, 79232, Note_on_c, 1, 40, 0
3, 79296, Note_on_c, 1, 40, 98
3, 79448, Note_on_c, 1, 40, 0
3, 79488, Note_on_c, 1, 40, 99
3, 79584, Note_on_c, 1, 40, 0
3, 79584, Note_on_c, 1, 38, 102
3, 79680, Note_on_c, 1, 38, 0
3, 79680, Note_on_c, 1, 35, 99
3, 79872, Note_on_c, 1, 35, 0
3, 79872, Note_on_c, 1, 36, 98
3, 80428, Note_on_c, 1, 36, 0
3, 80448, Note_on_c, 1, 36, 98
3, 80616, Note_on_c, 1, 36, 0
3, 80640, Note_on_c, 1, 31, 98
3, 81008, Note_on_c, 1, 31, 0
3, 81024, Note_on_c, 1, 36, 99
3, 81196, Note_on_c, 1, 36, 0
3, 81216, Note_on_c, 1, 37, 99
3, 81404, Note_on_c, 1, 37, 0
3, 81408, Note_on_c, 1, 38, 99
3, 81948, Note_on_c, 1, 38, 0
3, 81984, Note_on_c, 1, 38, 97
3, 82160, Note_on_c, 1, 38, 0
3, 82176, Note_on_c, 1, 33, 97
3, 82544, Note_on_c, 1, 33, 0
3, 82560, Note_on_c, 1, 38, 99
3, 82724, Note_on_c, 1, 38, 0
3, 82752, Note_on_c, 1, 39, 99
3, 82900, Note_on_c, 1, 39, 0
3, 82944, Note_on_c, 1, 40, 102
3, 83132, Note_on_c, 1, 40, 0
3, 83136, Note_on_c, 1, 40, 95
3, 83292, Note_on_c, 1, 40, 0
3, 83328, Note_on_c, 1, 40, 97
3, 83708, Note_on_c, 1, 40, 0
3, 83712, Note_on_c, 1, 40, 101
3, 83900, Note_on_c, 1, 40, 0
3, 83904, Note_on_c, 1, 35, 97
3, 83988, Note_on_c, 1, 35, 0
3, 84000, Note_on_c, 1, 38, 102
3, 84172, Note_on_c, 1, 38, 0
3, 84192, Note_on_c, 1, 35, 98
3, 84256, Note_on_c, 1, 35, 0
3, 84288, Note_on_c, 1, 38, 101
3, 84476, Note_on_c, 1, 38, 0
3, 84480, Note_on_c, 1, 38, 98
3, 84516, Note_on_c, 1, 38, 0
3, 84516, Note_on_c, 1, 40, 97
3, 84840, Note_on_c, 1, 40, 0
3, 84864, Note_on_c, 1, 40, 100
3, 85052, Note_on_c, 1, 40, 0
3, 85056, Note_on_c, 1, 28, 97
3, 85244, Note_on_c, 1, 28, 0
3, 85248, Note_on_c, 1, 40, 102
3, 85376, Note_on_c, 1, 40, 0
3, 85440, Note_on_c, 1, 40, 98
3, 85592, Note_on_c, 1, 40, 0
3, 85632, Note_on_c, 1, 40, 99
3, 85728, Note_on_c, 1, 40, 0
3, 85728, Note_on_c, 1, 38, 102
3, 85824, Note_on_c, 1, 38, 0
3, 85824, Note_on_c, 1, 35, 99
3, 86016, Note_on_c, 1, 35, 0
3, 86016, Note_on_c, 1, 36, 98
3, 86572, Note_on_c, 1, 36, 0
3, 86592, Note_on_c, 1, 36, 98
3, 86760, Note_on_c, 1, 36, 0
3, 86784, Note_on_c, 1, 31, 98
3, 87152, Note_on_c, 1, 31, 0
3, 87168, Note_on_c, 1, 36, 99
3, 87340, Note_on_c, 1, 36, 0
3, 87360, Note_on_c, 1, 37, 99
3, 87548, Note_on_c, 1, 37, 0
3, 87552, Note_on_c, 1, 38, 99
3, 88092, Note_on_c, 1, 38, 0
3, 88128, Note_on_c, 1, 38, 97
3, 88304, Note_on_c, 1, 38, 0
3, 88320, Note_on_c, 1, 33, 97
3, 88688, Note_on_c, 1, 33, 0
3, 88704, Note_on_c, 1, 38, 99
3, 88868, Note_on_c, 1, 38, 0
3, 88896, Note_on_c, 1, 39, 99
3, 89044, Note_on_c, 1, 39, 0
3, 89088, Note_on_c, 1, 40, 102
3, 89276, Note_on_c, 1, 40, 0
3, 89280, Note_on_c, 1, 40, 95
3, 89436, Note_on_c, 1, 40, 0
3, 89472, Note_on_c, 1, 40, 97
3, 89852, Note_on_c, 1, 40, 0
3, 89856, Note_on_c, 1, 40, 101
3, 90044, Note_on_c, 1, 40, 0
3, 90048, Note_on_c, 1, 35, 97
3, 90132, Note_on_c, 1, 35, 0
3, 90144, Note_on_c, 1, 38, 102
3, 90316, Note_on_c, 1, 38, 0
3, 90336, Note_on_c, 1, 35, 98
3, 90400, Note_on_c, 1, 35, 0
3, 90432, Note_on_c, 1, 38, 101
3, 90620, Note_on_c, 1, 38, 0
3, 90624, Note_on_c, 1, 38, 98
3, 90660, Note_on_c, 1, 38, 0
3, 90660, Note_on_c, 1, 40, 97
3, 90984, Note_on_c, 1, 40, 0
3, 91008, Note_on_c, 1, 40, 100
3, 91196, Note_on_c, 1, 40, 0
3, 91200, Note_on_c, 1, 28, 97
3, 91388, Note_on_c, 1, 28, 0
3, 91392, Note_on_c, 1, 40, 102
3, 91520, Note_on_c, 1, 40, 0
3, 91584, Note_on_c, 1, 40, 98
3, 91736, Note_on_c, 1, 40, 0
3, 91776, Note_on_c, 1, 40, 99
3, 91872, Note_on_c, 1, 40, 0
3, 91872, Note_on_c, 1, 38, 102
3, 91968, Note_on_c, 1, 38, 0
3, 91968, Note_on_c, 1, 35, 99
3, 92160, Note_on_c, 1, 35, 0
3, 92160, Note_on_c, 1, 36, 101
3, 92324, Note_on_c, 1, 36, 0
3, 92352, Note_on_c, 1, 28, 98
3, 92516, Note_on_c, 1, 28, 0
3, 92544, Note_on_c, 1, 29, 99
3, 92708, Note_on_c, 1, 29, 0
3, 92736, Note_on_c, 1, 30, 102
3, 92900, Note_on_c, 1, 30, 0
3, 92928, Note_on_c, 1, 31, 101
3, 93092, Note_on_c, 1, 31, 0
3, 93120, Note_on_c, 1, 35, 98
3, 93284, Note_on_c, 1, 35, 0
3, 93312, Note_on_c, 1, 36, 99
3, 93476, Note_on_c, 1, 36, 0
3, 93504, Note_on_c, 1, 37, 101
3, 93668, Note_on_c, 1, 37, 0
3, 93696, Note_on_c, 1, 38, 102
3, 93860, Note_on_c, 1, 38, 0
3, 93888, Note_on_c, 1, 30, 99
3, 94052, Note_on_c, 1, 30, 0
3, 94080, Note_on_c, 1, 31, 101
3, 94244, Note_on_c, 1, 31, 0
3, 94272, Note_on_c, 1, 32, 99
3, 94436, Note_on_c, 1, 32, 0
3, 94464, Note_on_c, 1, 33, 97
3, 94628, Note_on_c, 1, 33, 0
3, 94656, Note_on_c, 1, 37, 101
3, 94820, Note_on_c, 1, 37, 0
3, 94848, Note_on_c, 1, 38, 100
3, 95012, Note_on_c, 1, 38, 0
3, 95040, Note_on_c, 1, 39, 102
3, 95204, Note_on_c, 1, 39, 0
3, 95232, Note_on_c, 1, 40, 102
3, 95420, Note_on_c, 1, 40, 0
3, 95424, Note_on_c, 1, 40, 95
3, 95580, Note_on_c, 1, 40, 0
3, 95616, Note_on_c, 1, 40, 97
3, 95996, Note_on_c, 1, 40, 0
3, 96000, Note_on_c, 1, 40, 101
3, 96192, Note_on_c, 1, 40, 0
3, 96192, Note_on_c, 1, 35, 97
3, 96276, Note_on_c, 1, 35, 0
3, 96288, Note_on_c, 1, 38, 102
3, 96460, Note_on_c, 1, 38, 0
3, 96480, Note_on_c, 1, 35, 98
3, 96544, Note_on_c, 1, 35, 0
3, 96576, Note_on_c, 1, 38, 101
3, 96748, Note_on_c, 1, 38, 0
3, 96768, Note_on_c, 1, 38, 98
3, 96828, Note_on_c, 1, 38, 0
3, 96828, Note_on_c, 1, 40, 97
3, 97152, Note_on_c, 1, 40, 0
3, 97152, Note_on_c, 1, 40, 100
3, 97340, Note_on_c, 1, 40, 0
3, 97344, Note_on_c, 1, 40, 97
3, 97532, Note_on_c, 1, 40, 0
3, 97536, Note_on_c, 1, 40, 102
3, 97664, Note_on_c, 1, 40, 0
3, 97728, Note_on_c, 1, 40, 98
3, 97820, Note_on_c, 1, 40, 0
3, 97824, Note_on_c, 1, 40, 98
3, 97916, Note_on_c, 1, 40, 0
3, 97920, Note_on_c, 1, 40, 99
3, 98012, Note_on_c, 1, 40, 0
3, 98016, Note_on_c, 1, 38, 102
3, 98108, Note_on_c, 1, 38, 0
3, 98112, Note_on_c, 1, 35, 99
3, 98304, Note_on_c, 1, 35, 0
3, 98304, Note_on_c, 1, 36, 101
3, 98468, Note_on_c, 1, 36, 0
3, 98496, Note_on_c, 1, 28, 98
3, 98660, Note_on_c, 1, 28, 0
3, 98688, Note_on_c, 1, 29, 99
3, 98852, Note_on_c, 1, 29, 0
3, 98880, Note_on_c, 1, 30, 102
3, 99044, Note_on_c, 1, 30, 0
3, 99072, Note_on_c, 1, 31, 101
3, 99236, Note_on_c, 1, 31, 0
3, 99264, Note_on_c, 1, 35, 98
3, 99428, Note_on_c, 1, 35, 0
3, 99456, Note_on_c, 1, 36, 99
3, 99620, Note_on_c, 1, 36, 0
3, 99648, Note_on_c, 1, 37, 101
3, 99812, Note_on_c, 1, 37, 0
3, 99840, Note_on_c, 1, 38, 102
3, 100004, Note_on_c, 1, 38, 0
3, 100032, Note_on_c, 1, 30, 99
3, 100196, Note_on_c, 1, 30, 0
3, 100224, Note_on_c, 1, 31, 101
3, 100388, Note_on_c, 1, 31, 0
3, 100416, Note_on_c, 1, 32, 99
3, 100580, Note_on_c, 1, 32, 0
3, 100608, Note_on_c, 1, 33, 97
3, 100772, Note_on_c, 1, 33, 0
3, 100800, Note_on_c, 1, 37, 101
3, 100964, Note_on_c, 1, 37, 0
3, 100992, Note_on_c, 1, 38, 100
3, 101156, Note_on_c, 1, 38, 0
3, 101184, Note_on_c, 1, 39, 102
3, 101348, Note_on_c, 1, 39, 0
3, 101376, Note_on_c, 1, 40, 102
3, 101564, Note_on_c, 1, 40, 0
3, 101568, Note_on_c, 1, 40, 95
3, 101660, Note_on_c, 1, 40, 0
3, 101664, Note_on_c, 1, 40, 98
3, 101756, Note_on_c, 1, 40, 0
3, 101760, Note_on_c, 1, 40, 97
3, 101952, Note_on_c, 1, 40, 0
3, 101952, Note_on_c, 1, 40, 98
3, 102048, Note_on_c, 1, 40, 0
3, 102048, Note_on_c, 1, 40, 98
3, 102140, Note_on_c, 1, 40, 0
3, 102144, Note_on_c, 1, 40, 101
3, 102336, Note_on_c, 1, 40, 0
3, 102336, Note_on_c, 1, 35, 97
3, 102420, Note_on_c, 1, 35, 0
3, 102432, Note_on_c, 1, 38, 102
3, 102604, Note_on_c, 1, 38, 0
3, 102624, Note_on_c, 1, 35, 98
3, 102688, Note_on_c, 1, 35, 0
3, 102720, Note_on_c, 1, 38, 101
3, 102908, Note_on_c, 1, 38, 0
3, 102912, Note_on_c, 1, 40, 97
3, 103004, Note_on_c, 1, 40, 0
3, 103008, Note_on_c, 1, 40, 98
3, 103100, Note_on_c, 1, 40, 0
3, 103104, Note_on_c, 1, 40, 98
3, 103196, Note_on_c, 1, 40, 0
3, 103200, Note_on_c, 1, 40, 98
3, 103292, Note_on_c, 1, 40, 0
3, 103296, Note_on_c, 1, 40, 100
3, 103484, Note_on_c, 1, 40, 0
3, 103488, Note_on_c, 1, 40, 97
3, 103676, Note_on_c, 1, 40, 0
3, 103680, Note_on_c, 1, 40, 102
3, 103808, Note_on_c, 1, 40, 0
3, 103872, Note_on_c, 1, 40, 98
3, 104024, Note_on_c, 1, 40, 0
3, 104064, Note_on_c, 1, 40, 99
3, 104156, Note_on_c, 1, 40, 0
3, 104160, Note_on_c, 1, 38, 102
3, 104252, Note_on_c, 1, 38, 0
3, 104256, Note_on_c, 1, 35, 99
3, 104348, Note_on_c, 1, 35, 0
3, 104352, Note_on_c, 1, 38, 102
3, 104444, Note_on_c, 1, 38, 0
3, 104448, Note_on_c, 1, 36, 101
3, 104612, Note_on_c, 1, 36, 0
3, 104640, Note_on_c, 1, 28, 98
3, 104804, Note_on_c, 1, 28, 0
3, 104832, Note_on_c, 1, 29, 99
3, 104996, Note_on_c, 1, 29, 0
3, 105024, Note_on_c, 1, 30, 102
3, 105188, Note_on_c, 1, 30, 0
3, 105216, Note_on_c, 1, 31, 101
3, 105380, Note_on_c, 1, 31, 0
3, 105408, Note_on_c, 1, 35, 98
3, 105572, Note_on_c, 1, 35, 0
3, 105600, Note_on_c, 1, 36, 99
3, 105764, Note_on_c, 1, 36, 0
3, 105792, Note_on_c, 1, 37, 101
3, 105956, Note_on_c, 1, 37, 0
3, 105984, Note_on_c, 1, 38, 102
3, 106148, Note_on_c, 1, 38, 0
3, 106176, Note_on_c, 1, 30, 99
3, 106340, Note_on_c, 1, 30, 0
3, 106368, Note_on_c, 1, 31, 101
3, 106532, Note_on_c, 1, 31, 0
3, 106560, Note_on_c, 1, 32, 99
3, 106724, Note_on_c, 1, 32, 0
3, 106752, Note_on_c, 1, 33, 97
3, 106916, Note_on_c, 1, 33, 0
3, 106944, Note_on_c, 1, 37, 101
3, 107108, Note_on_c, 1, 37, 0
3, 107136, Note_on_c, 1, 38, 100
3, 107300, Note_on_c, 1, 38, 0
3, 107328, Note_on_c, 1, 39, 102
3, 107492, Note_on_c, 1, 39, 0
3, 107520, Note_on_c, 1, 40, 102
3, 107708, Note_on_c, 1, 40, 0
3, 107712, Note_on_c, 1, 40, 95
3, 107868, Note_on_c, 1, 40, 0
3, 107904, Note_on_c, 1, 40, 97
3, 108284, Note_on_c, 1, 40, 0
3, 108288, Note_on_c, 1, 40, 101
3, 108480, Note_on_c, 1, 40, 0
3, 108480, Note_on_c, 1, 35, 97
3, 108564, Note_on_c, 1, 35, 0
3, 108576, Note_on_c, 1, 38, 102
3, 108748, Note_on_c, 1, 38, 0
3, 108768, Note_on_c, 1, 35, 98
3, 108832, Note_on_c, 1, 35, 0
3, 108864, Note_on_c, 1, 38, 101
3, 109036, Note_on_c, 1, 38, 0
3, 109056, Note_on_c, 1, 38, 98
3, 109116, Note_on_c, 1, 38, 0
3, 109116, Note_on_c, 1, 40, 97
3, 109440, Note_on_c, 1, 40, 0
3, 109440, Note_on_c, 1, 40, 100
3, 109628, Note_on_c, 1, 40, 0
3, 109632, Note_on_c, 1, 40, 97
3, 109820, Note_on_c, 1, 40, 0
3, 109824, Note_on_c, 1, 40, 102
3, 109952, Note_on_c, 1, 40, 0
3, 110016, Note_on_c, 1, 40, 98
3, 110168, Note_on_c, 1, 40, 0
3, 110208, Note_on_c, 1, 40, 99
3, 110300, Note_on_c, 1, 40, 0
3, 110304, Note_on_c, 1, 38, 102
3, 110396, Note_on_c, 1, 38, 0
3, 110400, Note_on_c, 1, 35, 99
3, 110592, Note_on_c, 1, 35, 0
3, 110592, Note_on_c, 1, 36, 101
3, 110756, Note_on_c, 1, 36, 0
3, 110784, Note_on_c, 1, 28, 98
3, 110948, Note_on_c, 1, 28, 0
3, 110976, Note_on_c, 1, 29, 99
3, 111140, Note_on_c, 1, 29, 0
3, 111168, Note_on_c, 1, 30, 102
3, 111332, Note_on_c, 1, 30, 0
3, 111360, Note_on_c, 1, 31, 101
3, 111524, Note_on_c, 1, 31, 0
3, 111552, Note_on_c, 1, 35, 98
3, 111716, Note_on_c, 1, 35, 0
3, 111744, Note_on_c, 1, 36, 99
3, 111908, Note_on_c, 1, 36, 0
3, 111936, Note_on_c, 1, 37, 101
3, 112100, Note_on_c, 1, 37, 0
3, 112128, Note_on_c, 1, 38, 102
3, 112292, Note_on_c, 1, 38, 0
3, 112320, Note_on_c, 1, 30, 99
3, 112484, Note_on_c, 1, 30, 0
3, 112512, Note_on_c, 1, 31, 101
3, 112676, Note_on_c, 1, 31, 0
3, 112704, Note_on_c, 1, 32, 99
3, 112868, Note_on_c, 1, 32, 0
3, 112896, Note_on_c, 1, 33, 97
3, 113060, Note_on_c, 1, 33, 0
3, 113088, Note_on_c, 1, 37, 101
3, 113252, Note_on_c, 1, 37, 0
3, 113280, Note_on_c, 1, 38, 100
3, 113444, Note_on_c, 1, 38, 0
3, 113472, Note_on_c, 1, 39, 102
3, 113636, Note_on_c, 1, 39, 0
3, 113664, Note_on_c, 1, 40, 105
3, 114432, Pitch_bend_c, 1, 6784
3, 114528, Pitch_bend_c, 1, 8192
3, 114624, Pitch_bend_c, 1, 6784
3, 114720, Pitch_bend_c, 1, 8192
3, 114816, Pitch_bend_c, 1, 6784
3, 114912, Pitch_bend_c, 1, 8192
3, 115008, Pitch_bend_c, 1, 6784
3, 115104, Pitch_bend_c, 1, 8192
3, 115248, Note_on_c, 1, 40, 0
3, 115248, End_track
4, 0, Start_track
4, 0, MIDI_port, 0
4, 0, Title_t, "AHH'S"
4, 0, Control_c, 2, 0, 0
4, 0, Control_c, 2, 32, 0
4, 0, Program_c, 2, 52
4, 0, Control_c, 2, 7, 120
4, 0, Control_c, 2, 10, 64
4, 0, Control_c, 2, 91, 100
4, 0, Control_c, 2, 93, 55
4, 436, Control_c, 2, 11, 127
4, 24576, Note_on_c, 2, 60, 79
4, 24576, Note_on_c, 2, 64, 80
4, 25336, Note_on_c, 2, 64, 0
4, 25340, Note_on_c, 2, 60, 0
4, 25344, Note_on_c, 2, 62, 78
4, 25344, Note_on_c, 2, 59, 79
4, 26108, Note_on_c, 2, 59, 0
4, 26108, Note_on_c, 2, 62, 0
4, 26112, Note_on_c, 2, 62, 77
4, 26112, Note_on_c, 2, 57, 78
4, 26876, Note_on_c, 2, 62, 0
4, 26880, Note_on_c, 2, 61, 77
4, 27632, Note_on_c, 2, 57, 0
4, 27640, Note_on_c, 2, 61, 0
4, 27648, Note_on_c, 2, 59, 78
4, 27648, Note_on_c, 2, 56, 78
4, 30328, Note_on_c, 2, 56, 0
4, 30328, Note_on_c, 2, 59, 0
4, 30720, Note_on_c, 2, 60, 79
4, 30720, Note_on_c, 2, 64, 80
4, 31480, Note_on_c, 2, 64, 0
4, 31484, Note_on_c, 2, 60, 0
4, 31488, Note_on_c, 2, 62, 78
4, 31488, Note_on_c, 2, 59, 79
4, 32252, Note_on_c, 2, 59, 0
4, 32252, Note_on_c, 2, 62, 0
4, 32256, Note_on_c, 2, 62, 77
4, 32256, Note_on_c, 2, 57, 78
4, 33020, Note_on_c, 2, 62, 0
4, 33024, Note_on_c, 2, 61, 77
4, 33776, Note_on_c, 2, 57, 0
4, 33784, Note_on_c, 2, 61, 0
4, 33792, Note_on_c, 2, 59, 78
4, 33792, Note_on_c, 2, 56, 78
4, 36472, Note_on_c, 2, 56, 0
4, 36472, Note_on_c, 2, 59, 0
4, 36864, Note_on_c, 2, 60, 79
4, 36864, Note_on_c, 2, 64, 80
4, 37624, Note_on_c, 2, 64, 0
4, 37628, Note_on_c, 2, 60, 0
4, 37632, Note_on_c, 2, 62, 78
4, 37632, Note_on_c, 2, 59, 79
4, 38396, Note_on_c, 2, 59, 0
4, 38396, Note_on_c, 2, 62, 0
4, 38400, Note_on_c, 2, 62, 77
4, 38400, Note_on_c, 2, 57, 78
4, 39164, Note_on_c, 2, 62, 0
4, 39168, Note_on_c, 2, 61, 77
4, 39920, Note_on_c, 2, 57, 0
4, 39928, Note_on_c, 2, 61, 0
4, 39936, Note_on_c, 2, 59, 78
4, 39936, Note_on_c, 2, 56, 78
4, 42616, Note_on_c, 2, 56, 0
4, 42616, Note_on_c, 2, 59, 0
4, 43008, Note_on_c, 2, 60, 79
4, 43008, Note_on_c, 2, 64, 80
4, 43768, Note_on_c, 2, 64, 0
4, 43772, Note_on_c, 2, 60, 0
4, 43776, Note_on_c, 2, 62, 78
4, 43776, Note_on_c, 2, 59, 79
4, 44540, Note_on_c, 2, 59, 0
4, 44540, Note_on_c, 2, 62, 0
4, 44544, Note_on_c, 2, 62, 77
4, 44544, Note_on_c, 2, 57, 78
4, 45308, Note_on_c, 2, 62, 0
4, 45312, Note_on_c, 2, 61, 77
4, 46064, Note_on_c, 2, 57, 0
4, 46072, Note_on_c, 2, 61, 0
4, 46080, Note_on_c, 2, 59, 78
4, 46080, Note_on_c, 2, 56, 78
4, 48760, Note_on_c, 2, 56, 0
4, 48760, Note_on_c, 2, 59, 0
4, 49152, Note_on_c, 2, 60, 79
4, 49152, Note_on_c, 2, 64, 80
4, 49912, Note_on_c, 2, 64, 0
4, 49916, Note_on_c, 2, 60, 0
4, 49920, Note_on_c, 2, 62, 78
4, 49920, Note_on_c, 2, 59, 79
4, 50684, Note_on_c, 2, 59, 0
4, 50684, Note_on_c, 2, 62, 0
4, 50688, Note_on_c, 2, 62, 77
4, 50688, Note_on_c, 2, 57, 78
4, 51452, Note_on_c, 2, 62, 0
4, 51456, Note_on_c, 2, 61, 77
4, 52208, Note_on_c, 2, 57, 0
4, 52216, Note_on_c, 2, 61, 0
4, 52224, Note_on_c, 2, 59, 78
4, 52224, Note_on_c, 2, 56, 78
4, 54904, Note_on_c, 2, 56, 0
4, 54904, Note_on_c, 2, 59, 0
4, 55296, Note_on_c, 2, 60, 79
4, 55296, Note_on_c, 2, 64, 80
4, 56056, Note_on_c, 2, 64, 0
4, 56060, Note_on_c, 2, 60, 0
4, 56064, Note_on_c, 2, 62, 78
4, 56064, Note_on_c, 2, 59, 79
4, 56828, Note_on_c, 2, 59, 0
4, 56828, Note_on_c, 2, 62, 0
4, 56832, Note_on_c, 2, 62, 77
4, 56832, Note_on_c, 2, 57, 78
4, 57596, Note_on_c, 2, 62, 0
4, 57600, Note_on_c, 2, 61, 77
4, 58352, Note_on_c, 2, 57, 0
4, 58360, Note_on_c, 2, 61, 0
4, 58368, Note_on_c, 2, 59, 78
4, 58368, Note_on_c, 2, 56, 78
4, 61048, Note_on_c, 2, 56, 0
4, 61048, Note_on_c, 2, 59, 0
4, 61440, Note_on_c, 2, 60, 79
4, 61440, Note_on_c, 2, 64, 80
4, 62200, Note_on_c, 2, 64, 0
4, 62204, Note_on_c, 2, 60, 0
4, 62208, Note_on_c, 2, 62, 78
4, 62208, Note_on_c, 2, 59, 79
4, 62972, Note_on_c, 2, 59, 0
4, 62972, Note_on_c, 2, 62, 0
4, 62976, Note_on_c, 2, 62, 77
4, 62976, Note_on_c, 2, 57, 78
4, 63740, Note_on_c, 2, 62, 0
4, 63744, Note_on_c, 2, 61, 77
4, 64496, Note_on_c, 2, 57, 0
4, 64504, Note_on_c, 2, 61, 0
4, 64512, Note_on_c, 2, 59, 78
4, 64512, Note_on_c, 2, 56, 78
4, 67192, Note_on_c, 2, 56, 0
4, 67192, Note_on_c, 2, 59, 0
4, 67584, Note_on_c, 2, 60, 79
4, 67584, Note_on_c, 2, 64, 80
4, 68344, Note_on_c, 2, 64, 0
4, 68348, Note_on_c, 2, 60, 0
4, 68352, Note_on_c, 2, 62, 78
4, 68352, Note_on_c, 2, 59, 79
4, 69116, Note_on_c, 2, 59, 0
4, 69116, Note_on_c, 2, 62, 0
4, 69120, Note_on_c, 2, 62, 77
4, 69120, Note_on_c, 2, 57, 78
4, 69884, Note_on_c, 2, 62, 0
4, 69888, Note_on_c, 2, 61, 77
4, 70640, Note_on_c, 2, 57, 0
4, 70648, Note_on_c, 2, 61, 0
4, 70656, Note_on_c, 2, 59, 78
4, 70656, Note_on_c, 2, 56, 78
4, 73336, Note_on_c, 2, 56, 0
4, 73336, Note_on_c, 2, 59, 0
4, 73728, Note_on_c, 2, 60, 79
4, 73728, Note_on_c, 2, 64, 80
4, 74488, Note_on_c, 2, 64, 0
4, 74492, Note_on_c, 2, 60, 0
4, 74496, Note_on_c, 2, 62, 78
4, 74496, Note_on_c, 2, 59, 79
4, 75260, Note_on_c, 2, 59, 0
4, 75260, Note_on_c, 2, 62, 0
4, 75264, Note_on_c, 2, 62, 77
4, 75264, Note_on_c, 2, 57, 78
4, 76028, Note_on_c, 2, 62, 0
4, 76032, Note_on_c, 2, 61, 77
4, 76784, Note_on_c, 2, 57, 0
4, 76792, Note_on_c, 2, 61, 0
4, 76800, Note_on_c, 2, 59, 78
4, 76800, Note_on_c, 2, 56, 78
4, 79480, Note_on_c, 2, 56, 0
4, 79480, Note_on_c, 2, 59, 0
4, 79872, Note_on_c, 2, 60, 79
4, 79872, Note_on_c, 2, 64, 80
4, 80632, Note_on_c, 2, 64, 0
4, 80636, Note_on_c, 2, 60, 0
4, 80640, Note_on_c, 2, 62, 78
4, 80640, Note_on_c, 2, 59, 79
4, 81404, Note_on_c, 2, 59, 0
4, 81404, Note_on_c, 2, 62, 0
4, 81408, Note_on_c, 2, 62, 77
4, 81408, Note_on_c, 2, 57, 78
4, 82172, Note_on_c, 2, 62, 0
4, 82176, Note_on_c, 2, 61, 77
4, 82928, Note_on_c, 2, 57, 0
4, 82936, Note_on_c, 2, 61, 0
4, 82944, Note_on_c, 2, 59, 78
4, 82944, Note_on_c, 2, 56, 78
4, 85624, Note_on_c, 2, 56, 0
4, 85624, Note_on_c, 2, 59, 0
4, 86016, Note_on_c, 2, 60, 79
4, 86016, Note_on_c, 2, 64, 80
4, 86776, Note_on_c, 2, 64, 0
4, 86780, Note_on_c, 2, 60, 0
4, 86784, Note_on_c, 2, 62, 78
4, 86784, Note_on_c, 2, 59, 79
4, 87548, Note_on_c, 2, 59, 0
4, 87548, Note_on_c, 2, 62, 0
4, 87552, Note_on_c, 2, 62, 77
4, 87552, Note_on_c, 2, 57, 78
4, 88316, Note_on_c, 2, 62, 0
4, 88320, Note_on_c, 2, 61, 77
4, 89072, Note_on_c, 2, 57, 0
4, 89080, Note_on_c, 2, 61, 0
4, 89088, Note_on_c, 2, 59, 78
4, 89088, Note_on_c, 2, 56, 78
4, 91768, Note_on_c, 2, 56, 0
4, 91768, Note_on_c, 2, 59, 0
4, 92160, Note_on_c, 2, 60, 79
4, 92160, Note_on_c, 2, 64, 80
4, 92920, Note_on_c, 2, 64, 0
4, 92924, Note_on_c, 2, 60, 0
4, 92928, Note_on_c, 2, 62, 78
4, 92928, Note_on_c, 2, 59, 79
4, 93692, Note_on_c, 2, 59, 0
4, 93692, Note_on_c, 2, 62, 0
4, 93696, Note_on_c, 2, 62, 77
4, 93696, Note_on_c, 2, 57, 78
4, 94460, Note_on_c, 2, 62, 0
4, 94464, Note_on_c, 2, 61, 77
4, 95216, Note_on_c, 2, 57, 0
4, 95224, Note_on_c, 2, 61, 0
4, 95232, Note_on_c, 2, 59, 78
4, 95232, Note_on_c, 2, 56, 78
4, 97912, Note_on_c, 2, 56, 0
4, 97912, Note_on_c, 2, 59, 0
4, 98304, Note_on_c, 2, 60, 79
4, 98304, Note_on_c, 2, 64, 80
4, 99064, Note_on_c, 2, 64, 0
4, 99068, Note_on_c, 2, 60, 0
4, 99072, Note_on_c, 2, 62, 78
4, 99072, Note_on_c, 2, 59, 79
4, 99836, Note_on_c, 2, 59, 0
4, 99836, Note_on_c, 2, 62, 0
4, 99840, Note_on_c, 2, 62, 77
4, 99840, Note_on_c, 2, 57, 78
4, 100604, Note_on_c, 2, 62, 0
4, 100608, Note_on_c, 2, 61, 77
4, 101360, Note_on_c, 2, 57, 0
4, 101368, Note_on_c, 2, 61, 0
4, 101376, Note_on_c, 2, 59, 78
4, 101376, Note_on_c, 2, 56, 78
4, 104056, Note_on_c, 2, 56, 0
4, 104056, Note_on_c, 2, 59, 0
4, 104448, Note_on_c, 2, 60, 79
4, 104448, Note_on_c, 2, 64, 80
4, 105208, Note_on_c, 2, 64, 0
4, 105212, Note_on_c, 2, 60, 0
4, 105216, Note_on_c, 2, 62, 78
4, 105216, Note_on_c, 2, 59, 79
4, 105980, Note_on_c, 2, 59, 0
4, 105980, Note_on_c, 2, 62, 0
4, 105984, Note_on_c, 2, 62, 77
4, 105984, Note_on_c, 2, 57, 78
4, 106748, Note_on_c, 2, 62, 0
4, 106752, Note_on_c, 2, 61, 77
4, 107504, Note_on_c, 2, 57, 0
4, 107512, Note_on_c, 2, 61, 0
4, 107520, Note_on_c, 2, 59, 78
4, 107520, Note_on_c, 2, 56, 78
4, 110200, Note_on_c, 2, 56, 0
4, 110200, Note_on_c, 2, 59, 0
4, 110592, Note_on_c, 2, 60, 79
4, 110592, Note_on_c, 2, 64, 80
4, 111352, Note_on_c, 2, 64, 0
4, 111356, Note_on_c, 2, 60, 0
4, 111360, Note_on_c, 2, 62, 78
4, 111360, Note_on_c, 2, 59, 79
4, 112124, Note_on_c, 2, 59, 0
4, 112124, Note_on_c, 2, 62, 0
4, 112128, Note_on_c, 2, 62, 77
4, 112128, Note_on_c, 2, 57, 78
4, 112892, Note_on_c, 2, 62, 0
4, 112896, Note_on_c, 2, 61, 77
4, 113648, Note_on_c, 2, 57, 0
4, 113656, Note_on_c, 2, 61, 0
4, 113656, End_track
5, 0, Start_track
5, 0, MIDI_port, 0
5, 0, Title_t, "OHH'S"
5, 0, Control_c, 4, 0, 0
5, 0, Control_c, 4, 32, 0
5, 0, Program_c, 4, 53
5, 0, Control_c, 4, 7, 120
5, 0, Control_c, 4, 10, 64
5, 0, Control_c, 4, 91, 100
5, 0, Control_c, 4, 93, 64
5, 476, Control_c, 4, 11, 127
5, 12288, Note_on_c, 4, 60, 88
5, 12288, Note_on_c, 4, 64, 89
5, 13048, Note_on_c, 4, 64, 0
5, 13052, Note_on_c, 4, 60, 0
5, 13056, Note_on_c, 4, 62, 87
5, 13056, Note_on_c, 4, 59, 88
5, 13820, Note_on_c, 4, 59, 0
5, 13820, Note_on_c, 4, 62, 0
5, 13824, Note_on_c, 4, 62, 86
5, 13824, Note_on_c, 4, 57, 87
5, 14588, Note_on_c, 4, 62, 0
5, 14592, Note_on_c, 4, 61, 86
5, 15344, Note_on_c, 4, 57, 0
5, 15352, Note_on_c, 4, 61, 0
5, 15360, Note_on_c, 4, 59, 87
5, 15360, Note_on_c, 4, 56, 87
5, 18040, Note_on_c, 4, 56, 0
5, 18040, Note_on_c, 4, 59, 0
5, 18432, Note_on_c, 4, 60, 88
5, 18432, Note_on_c, 4, 64, 89
5, 19192, Note_on_c, 4, 64, 0
5, 19196, Note_on_c, 4, 60, 0
5, 19200, Note_on_c, 4, 62, 87
5, 19200, Note_on_c, 4, 59, 88
5, 19964, Note_on_c, 4, 59, 0
5, 19964, Note_on_c, 4, 62, 0
5, 19968, Note_on_c, 4, 62, 86
5, 19968, Note_on_c, 4, 57, 87
5, 20732, Note_on_c, 4, 62, 0
5, 20736, Note_on_c, 4, 61, 86
5, 21488, Note_on_c, 4, 57, 0
5, 21496, Note_on_c, 4, 61, 0
5, 21504, Note_on_c, 4, 59, 87
5, 21504, Note_on_c, 4, 56, 87
5, 24184, Note_on_c, 4, 56, 0
5, 24184, Note_on_c, 4, 59, 0
5, 24184, End_track
6, 0, Start_track
6, 0, MIDI_port, 0
6, 0, Title_t, "PIANO"
6, 0, Control_c, 5, 0, 0
6, 0, Control_c, 5, 32, 0
6, 0, Program_c, 5, 0
6, 0, Control_c, 5, 7, 120
6, 0, Control_c, 5, 10, 64
6, 0, Control_c, 5, 91, 85
6, 0, Control_c, 5, 93, 0
6, 496, Control_c, 5, 11, 127
6, 6144, Note_on_c, 5, 60, 95
6, 6144, Note_on_c, 5, 64, 94
6, 6144, Note_on_c, 5, 55, 89
6, 6144, Note_on_c, 5, 48, 97
6, 6500, Note_on_c, 5, 64, 0
6, 6512, Note_on_c, 5, 60, 0
6, 6528, Note_on_c, 5, 60, 85
6, 6528, Note_on_c, 5, 64, 89
6, 6584, Note_on_c, 5, 55, 0
6, 6660, Note_on_c, 5, 64, 0
6, 6720, Note_on_c, 5, 55, 81
6, 6756, Note_on_c, 5, 60, 0
6, 6868, Note_on_c, 5, 55, 0
6, 6892, Note_on_c, 5, 48, 0
6, 6912, Note_on_c, 5, 55, 81
6, 6912, Note_on_c, 5, 59, 86
6, 6912, Note_on_c, 5, 62, 89
6, 6912, Note_on_c, 5, 43, 93
6, 7256, Note_on_c, 5, 55, 0
6, 7260, Note_on_c, 5, 43, 0
6, 7268, Note_on_c, 5, 62, 0
6, 7272, Note_on_c, 5, 59, 0
6, 7296, Note_on_c, 5, 55, 79
6, 7296, Note_on_c, 5, 59, 81
6, 7296, Note_on_c, 5, 62, 85
6, 7296, Note_on_c, 5, 43, 93
6, 7352, Note_on_c, 5, 55, 0
6, 7488, Note_on_c, 5, 55, 79
6, 7496, Note_on_c, 5, 59, 0
6, 7500, Note_on_c, 5, 62, 0
6, 7536, Note_on_c, 5, 55, 0
6, 7628, Note_on_c, 5, 43, 0
6, 7680, Note_on_c, 5, 62, 88
6, 7680, Note_on_c, 5, 57, 82
6, 7680, Note_on_c, 5, 66, 93
6, 7680, Note_on_c, 5, 50, 92
6, 8028, Note_on_c, 5, 50, 0
6, 8032, Note_on_c, 5, 62, 0
6, 8040, Note_on_c, 5, 66, 0
6, 8064, Note_on_c, 5, 62, 90
6, 8064, Note_on_c, 5, 66, 83
6, 8064, Note_on_c, 5, 50, 90
6, 8132, Note_on_c, 5, 57, 0
6, 8256, Note_on_c, 5, 57, 62
6, 8284, Note_on_c, 5, 62, 0
6, 8304, Note_on_c, 5, 66, 0
6, 8376, Note_on_c, 5, 57, 0
6, 8424, Note_on_c, 5, 50, 0
6, 8448, Note_on_c, 5, 64, 63
6, 8448, Note_on_c, 5, 57, 70
6, 8448, Note_on_c, 5, 45, 93
6, 8448, Note_on_c, 5, 61, 57
6, 8508, Note_on_c, 5, 64, 0
6, 8512, Note_on_c, 5, 57, 0
6, 8516, Note_on_c, 5, 61, 0
6, 8640, Note_on_c, 5, 64, 57
6, 8640, Note_on_c, 5, 57, 69
6, 8716, Note_on_c, 5, 57, 0
6, 8724, Note_on_c, 5, 64, 0
6, 8800, Note_on_c, 5, 45, 0
6, 8832, Note_on_c, 5, 64, 88
6, 8832, Note_on_c, 5, 57, 81
6, 8832, Note_on_c, 5, 45, 93
6, 8832, Note_on_c, 5, 61, 82
6, 8888, Note_on_c, 5, 57, 0
6, 9024, Note_on_c, 5, 57, 72
6, 9068, Note_on_c, 5, 61, 0
6, 9088, Note_on_c, 5, 64, 0
6, 9184, Note_on_c, 5, 45, 0
6, 9208, Note_on_c, 5, 57, 0
6, 9216, Note_on_c, 5, 40, 81
6, 9540, Note_on_c, 5, 40, 0
6, 9600, Note_on_c, 5, 59, 93
6, 9600, Note_on_c, 5, 40, 95
6, 9600, Note_on_c, 5, 52, 93
6, 9696, Note_on_c, 5, 52, 0
6, 9792, Note_on_c, 5, 52, 82
6, 9924, Note_on_c, 5, 52, 0
6, 9924, Note_on_c, 5, 59, 0
6, 9936, Note_on_c, 5, 40, 0
6, 9984, Note_on_c, 5, 59, 95
6, 9984, Note_on_c, 5, 40, 94
6, 9984, Note_on_c, 5, 52, 92
6, 10052, Note_on_c, 5, 52, 0
6, 10176, Note_on_c, 5, 52, 86
6, 10180, Note_on_c, 5, 40, 0
6, 10272, Note_on_c, 5, 40, 109
6, 10300, Note_on_c, 5, 52, 0
6, 10464, Note_on_c, 5, 52, 91
6, 10492, Note_on_c, 5, 59, 0
6, 10532, Note_on_c, 5, 52, 0
6, 10560, Note_on_c, 5, 59, 95
6, 10688, Note_on_c, 5, 40, 0
6, 10752, Note_on_c, 5, 40, 114
6, 11092, Note_on_c, 5, 59, 0
6, 11100, Note_on_c, 5, 40, 0
6, 11136, Note_on_c, 5, 59, 93
6, 11136, Note_on_c, 5, 40, 87
6, 11136, Note_on_c, 5, 52, 84
6, 11204, Note_on_c, 5, 52, 0
6, 11328, Note_on_c, 5, 52, 81
6, 11356, Note_on_c, 5, 40, 0
6, 11424, Note_on_c, 5, 40, 93
6, 11436, Note_on_c, 5, 52, 0
6, 11468, Note_on_c, 5, 59, 0
6, 11520, Note_on_c, 5, 59, 87
6, 11520, Note_on_c, 5, 52, 83
6, 11596, Note_on_c, 5, 52, 0
6, 11712, Note_on_c, 5, 52, 83
6, 11764, Note_on_c, 5, 40, 0
6, 11808, Note_on_c, 5, 40, 94
6, 11832, Note_on_c, 5, 52, 0
6, 12000, Note_on_c, 5, 52, 92
6, 12040, Note_on_c, 5, 59, 0
6, 12096, Note_on_c, 5, 59, 93
6, 12128, Note_on_c, 5, 52, 0
6, 12172, Note_on_c, 5, 59, 0
6, 12260, Note_on_c, 5, 40, 0
6, 12288, Note_on_c, 5, 60, 95
6, 12288, Note_on_c, 5, 64, 94
6, 12288, Note_on_c, 5, 55, 89
6, 12288, Note_on_c, 5, 48, 97
6, 12644, Note_on_c, 5, 64, 0
6, 12656, Note_on_c, 5, 60, 0
6, 12672, Note_on_c, 5, 60, 85
6, 12672, Note_on_c, 5, 64, 89
6, 12728, Note_on_c, 5, 55, 0
6, 12804, Note_on_c, 5, 64, 0
6, 12864, Note_on_c, 5, 55, 81
6, 12900, Note_on_c, 5, 60, 0
6, 13012, Note_on_c, 5, 55, 0
6, 13036, Note_on_c, 5, 48, 0
6, 13056, Note_on_c, 5, 55, 81
6, 13056, Note_on_c, 5, 59, 86
6, 13056, Note_on_c, 5, 62, 89
6, 13056, Note_on_c, 5, 43, 93
6, 13400, Note_on_c, 5, 55, 0
6, 13404, Note_on_c, 5, 43, 0
6, 13412, Note_on_c, 5, 62, 0
6, 13416, Note_on_c, 5, 59, 0
6, 13440, Note_on_c, 5, 55, 79
6, 13440, Note_on_c, 5, 59, 81
6, 13440, Note_on_c, 5, 62, 85
6, 13440, Note_on_c, 5, 43, 93
6, 13496, Note_on_c, 5, 55, 0
6, 13632, Note_on_c, 5, 55, 79
6, 13640, Note_on_c, 5, 59, 0
6, 13644, Note_on_c, 5, 62, 0
6, 13680, Note_on_c, 5, 55, 0
6, 13772, Note_on_c, 5, 43, 0
6, 13824, Note_on_c, 5, 62, 88
6, 13824, Note_on_c, 5, 57, 82
6, 13824, Note_on_c, 5, 66, 93
6, 13824, Note_on_c, 5, 50, 92
6, 14172, Note_on_c, 5, 50, 0
6, 14176, Note_on_c, 5, 62, 0
6, 14184, Note_on_c, 5, 66, 0
6, 14208, Note_on_c, 5, 62, 90
6, 14208, Note_on_c, 5, 66, 83
6, 14208, Note_on_c, 5, 50, 90
6, 14276, Note_on_c, 5, 57, 0
6, 14400, Note_on_c, 5, 57, 62
6, 14428, Note_on_c, 5, 62, 0
6, 14448, Note_on_c, 5, 66, 0
6, 14520, Note_on_c, 5, 57, 0
6, 14568, Note_on_c, 5, 50, 0
6, 14592, Note_on_c, 5, 64, 63
6, 14592, Note_on_c, 5, 57, 70
6, 14592, Note_on_c, 5, 45, 93
6, 14592, Note_on_c, 5, 61, 57
6, 14652, Note_on_c, 5, 64, 0
6, 14656, Note_on_c, 5, 57, 0
6, 14660, Note_on_c, 5, 61, 0
6, 14784, Note_on_c, 5, 64, 57
6, 14784, Note_on_c, 5, 57, 69
6, 14860, Note_on_c, 5, 57, 0
6, 14868, Note_on_c, 5, 64, 0
6, 14944, Note_on_c, 5, 45, 0
6, 14976, Note_on_c, 5, 64, 88
6, 14976, Note_on_c, 5, 57, 81
6, 14976, Note_on_c, 5, 45, 93
6, 14976, Note_on_c, 5, 61, 82
6, 15032, Note_on_c, 5, 57, 0
6, 15168, Note_on_c, 5, 57, 72
6, 15212, Note_on_c, 5, 61, 0
6, 15232, Note_on_c, 5, 64, 0
6, 15328, Note_on_c, 5, 45, 0
6, 15352, Note_on_c, 5, 57, 0
6, 15360, Note_on_c, 5, 40, 81
6, 15684, Note_on_c, 5, 40, 0
6, 15744, Note_on_c, 5, 59, 93
6, 15744, Note_on_c, 5, 40, 95
6, 15744, Note_on_c, 5, 52, 93
6, 15840, Note_on_c, 5, 52, 0
6, 15936, Note_on_c, 5, 52, 82
6, 16068, Note_on_c, 5, 52, 0
6, 16068, Note_on_c, 5, 59, 0
6, 16080, Note_on_c, 5, 40, 0
6, 16128, Note_on_c, 5, 59, 95
6, 16128, Note_on_c, 5, 40, 94
6, 16128, Note_on_c, 5, 52, 92
6, 16196, Note_on_c, 5, 52, 0
6, 16320, Note_on_c, 5, 52, 86
6, 16324, Note_on_c, 5, 40, 0
6, 16416, Note_on_c, 5, 40, 109
6, 16444, Note_on_c, 5, 52, 0
6, 16608, Note_on_c, 5, 52, 91
6, 16636, Note_on_c, 5, 59, 0
6, 16676, Note_on_c, 5, 52, 0
6, 16704, Note_on_c, 5, 59, 95
6, 16832, Note_on_c, 5, 40, 0
6, 16896, Note_on_c, 5, 40, 114
6, 17236, Note_on_c, 5, 59, 0
6, 17244, Note_on_c, 5, 40, 0
6, 17280, Note_on_c, 5, 59, 93
6, 17280, Note_on_c, 5, 40, 87
6, 17280, Note_on_c, 5, 52, 84
6, 17348, Note_on_c, 5, 52, 0
6, 17472, Note_on_c, 5, 52, 81
6, 17500, Note_on_c, 5, 40, 0
6, 17568, Note_on_c, 5, 40, 93
6, 17580, Note_on_c, 5, 52, 0
6, 17612, Note_on_c, 5, 59, 0
6, 17664, Note_on_c, 5, 59, 87
6, 17664, Note_on_c, 5, 52, 83
6, 17740, Note_on_c, 5, 52, 0
6, 17856, Note_on_c, 5, 52, 83
6, 17908, Note_on_c, 5, 40, 0
6, 17952, Note_on_c, 5, 40, 94
6, 17976, Note_on_c, 5, 52, 0
6, 18144, Note_on_c, 5, 52, 92
6, 18184, Note_on_c, 5, 59, 0
6, 18240, Note_on_c, 5, 59, 93
6, 18272, Note_on_c, 5, 52, 0
6, 18316, Note_on_c, 5, 59, 0
6, 18404, Note_on_c, 5, 40, 0
6, 18432, Note_on_c, 5, 60, 95
6, 18432, Note_on_c, 5, 64, 94
6, 18432, Note_on_c, 5, 55, 89
6, 18432, Note_on_c, 5, 48, 97
6, 18788, Note_on_c, 5, 64, 0
6, 18800, Note_on_c, 5, 60, 0
6, 18816, Note_on_c, 5, 60, 85
6, 18816, Note_on_c, 5, 64, 89
6, 18872, Note_on_c, 5, 55, 0
6, 18948, Note_on_c, 5, 64, 0
6, 19008, Note_on_c, 5, 55, 81
6, 19044, Note_on_c, 5, 60, 0
6, 19156, Note_on_c, 5, 55, 0
6, 19180, Note_on_c, 5, 48, 0
6, 19200, Note_on_c, 5, 55, 81
6, 19200, Note_on_c, 5, 59, 86
6, 19200, Note_on_c, 5, 62, 89
6, 19200, Note_on_c, 5, 43, 93
6, 19544, Note_on_c, 5, 55, 0
6, 19548, Note_on_c, 5, 43, 0
6, 19556, Note_on_c, 5, 62, 0
6, 19560, Note_on_c, 5, 59, 0
6, 19584, Note_on_c, 5, 55, 79
6, 19584, Note_on_c, 5, 59, 81
6, 19584, Note_on_c, 5, 62, 85
6, 19584, Note_on_c, 5, 43, 93
6, 19640, Note_on_c, 5, 55, 0
6, 19776, Note_on_c, 5, 55, 79
6, 19784, Note_on_c, 5, 59, 0
6, 19788, Note_on_c, 5, 62, 0
6, 19824, Note_on_c, 5, 55, 0
6, 19916, Note_on_c, 5, 43, 0
6, 19968, Note_on_c, 5, 62, 88
6, 19968, Note_on_c, 5, 57, 82
6, 19968, Note_on_c, 5, 66, 93
6, 19968, Note_on_c, 5, 50, 92
6, 20316, Note_on_c, 5, 50, 0
6, 20320, Note_on_c, 5, 62, 0
6, 20328, Note_on_c, 5, 66, 0
6, 20352, Note_on_c, 5, 62, 90
6, 20352, Note_on_c, 5, 66, 83
6, 20352, Note_on_c, 5, 50, 90
6, 20420, Note_on_c, 5, 57, 0
6, 20544, Note_on_c, 5, 57, 62
6, 20572, Note_on_c, 5, 62, 0
6, 20592, Note_on_c, 5, 66, 0
6, 20664, Note_on_c, 5, 57, 0
6, 20712, Note_on_c, 5, 50, 0
6, 20736, Note_on_c, 5, 64, 63
6, 20736, Note_on_c, 5, 57, 70
6, 20736, Note_on_c, 5, 45, 93
6, 20736, Note_on_c, 5, 61, 57
6, 20796, Note_on_c, 5, 64, 0
6, 20800, Note_on_c, 5, 57, 0
6, 20804, Note_on_c, 5, 61, 0
6, 20928, Note_on_c, 5, 64, 57
6, 20928, Note_on_c, 5, 57, 69
6, 21004, Note_on_c, 5, 57, 0
6, 21012, Note_on_c, 5, 64, 0
6, 21088, Note_on_c, 5, 45, 0
6, 21120, Note_on_c, 5, 64, 88
6, 21120, Note_on_c, 5, 57, 81
6, 21120, Note_on_c, 5, 45, 93
6, 21120, Note_on_c, 5, 61, 82
6, 21176, Note_on_c, 5, 57, 0
6, 21312, Note_on_c, 5, 57, 72
6, 21356, Note_on_c, 5, 61, 0
6, 21376, Note_on_c, 5, 64, 0
6, 21472, Note_on_c, 5, 45, 0
6, 21496, Note_on_c, 5, 57, 0
6, 21504, Note_on_c, 5, 40, 81
6, 21828, Note_on_c, 5, 40, 0
6, 21888, Note_on_c, 5, 59, 93
6, 21888, Note_on_c, 5, 40, 95
6, 21888, Note_on_c, 5, 52, 93
6, 21984, Note_on_c, 5, 52, 0
6, 22080, Note_on_c, 5, 52, 82
6, 22212, Note_on_c, 5, 52, 0
6, 22212, Note_on_c, 5, 59, 0
6, 22224, Note_on_c, 5, 40, 0
6, 22272, Note_on_c, 5, 59, 95
6, 22272, Note_on_c, 5, 40, 94
6, 22272, Note_on_c, 5, 52, 92
6, 22340, Note_on_c, 5, 52, 0
6, 22464, Note_on_c, 5, 52, 86
6, 22468, Note_on_c, 5, 40, 0
6, 22560, Note_on_c, 5, 40, 109
6, 22588, Note_on_c, 5, 52, 0
6, 22752, Note_on_c, 5, 52, 91
6, 22780, Note_on_c, 5, 59, 0
6, 22820, Note_on_c, 5, 52, 0
6, 22848, Note_on_c, 5, 59, 95
6, 22976, Note_on_c, 5, 40, 0
6, 23040, Note_on_c, 5, 40, 114
6, 23380, Note_on_c, 5, 59, 0
6, 23388, Note_on_c, 5, 40, 0
6, 23424, Note_on_c, 5, 59, 93
6, 23424, Note_on_c, 5, 40, 87
6, 23424, Note_on_c, 5, 52, 84
6, 23492, Note_on_c, 5, 52, 0
6, 23616, Note_on_c, 5, 52, 81
6, 23644, Note_on_c, 5, 40, 0
6, 23712, Note_on_c, 5, 40, 93
6, 23724, Note_on_c, 5, 52, 0
6, 23756, Note_on_c, 5, 59, 0
6, 23808, Note_on_c, 5, 59, 87
6, 23808, Note_on_c, 5, 52, 83
6, 23884, Note_on_c, 5, 52, 0
6, 24000, Note_on_c, 5, 52, 83
6, 24052, Note_on_c, 5, 40, 0
6, 24096, Note_on_c, 5, 40, 94
6, 24120, Note_on_c, 5, 52, 0
6, 24288, Note_on_c, 5, 52, 92
6, 24328, Note_on_c, 5, 59, 0
6, 24384, Note_on_c, 5, 59, 93
6, 24416, Note_on_c, 5, 52, 0
6, 24460, Note_on_c, 5, 59, 0
6, 24548, Note_on_c, 5, 40, 0
6, 24576, Note_on_c, 5, 60, 95
6, 24576, Note_on_c, 5, 64, 94
6, 24576, Note_on_c, 5, 55, 89
6, 24576, Note_on_c, 5, 48, 97
6, 24932, Note_on_c, 5, 64, 0
6, 24944, Note_on_c, 5, 60, 0
6, 24960, Note_on_c, 5, 60, 85
6, 24960, Note_on_c, 5, 64, 89
6, 25016, Note_on_c, 5, 55, 0
6, 25092, Note_on_c, 5, 64, 0
6, 25152, Note_on_c, 5, 55, 81
6, 25188, Note_on_c, 5, 60, 0
6, 25300, Note_on_c, 5, 55, 0
6, 25324, Note_on_c, 5, 48, 0
6, 25344, Note_on_c, 5, 55, 81
6, 25344, Note_on_c, 5, 59, 86
6, 25344, Note_on_c, 5, 62, 89
6, 25344, Note_on_c, 5, 43, 93
6, 25688, Note_on_c, 5, 55, 0
6, 25692, Note_on_c, 5, 43, 0
6, 25700, Note_on_c, 5, 62, 0
6, 25704, Note_on_c, 5, 59, 0
6, 25728, Note_on_c, 5, 55, 79
6, 25728, Note_on_c, 5, 59, 81
6, 25728, Note_on_c, 5, 62, 85
6, 25728, Note_on_c, 5, 43, 93
6, 25784, Note_on_c, 5, 55, 0
6, 25920, Note_on_c, 5, 55, 79
6, 25928, Note_on_c, 5, 59, 0
6, 25932, Note_on_c, 5, 62, 0
6, 25968, Note_on_c, 5, 55, 0
6, 26060, Note_on_c, 5, 43, 0
6, 26112, Note_on_c, 5, 62, 88
6, 26112, Note_on_c, 5, 57, 82
6, 26112, Note_on_c, 5, 66, 93
6, 26112, Note_on_c, 5, 50, 92
6, 26460, Note_on_c, 5, 50, 0
6, 26464, Note_on_c, 5, 62, 0
6, 26472, Note_on_c, 5, 66, 0
6, 26496, Note_on_c, 5, 62, 90
6, 26496, Note_on_c, 5, 66, 83
6, 26496, Note_on_c, 5, 50, 90
6, 26564, Note_on_c, 5, 57, 0
6, 26688, Note_on_c, 5, 57, 62
6, 26716, Note_on_c, 5, 62, 0
6, 26736, Note_on_c, 5, 66, 0
6, 26808, Note_on_c, 5, 57, 0
6, 26856, Note_on_c, 5, 50, 0
6, 26880, Note_on_c, 5, 64, 63
6, 26880, Note_on_c, 5, 57, 70
6, 26880, Note_on_c, 5, 45, 93
6, 26880, Note_on_c, 5, 61, 57
6, 26940, Note_on_c, 5, 64, 0
6, 26944, Note_on_c, 5, 57, 0
6, 26948, Note_on_c, 5, 61, 0
6, 27072, Note_on_c, 5, 64, 57
6, 27072, Note_on_c, 5, 57, 69
6, 27148, Note_on_c, 5, 57, 0
6, 27156, Note_on_c, 5, 64, 0
6, 27232, Note_on_c, 5, 45, 0
6, 27264, Note_on_c, 5, 64, 88
6, 27264, Note_on_c, 5, 57, 81
6, 27264, Note_on_c, 5, 45, 93
6, 27264, Note_on_c, 5, 61, 82
6, 27320, Note_on_c, 5, 57, 0
6, 27456, Note_on_c, 5, 57, 72
6, 27500, Note_on_c, 5, 61, 0
6, 27520, Note_on_c, 5, 64, 0
6, 27616, Note_on_c, 5, 45, 0
6, 27640, Note_on_c, 5, 57, 0
6, 27648, Note_on_c, 5, 40, 81
6, 27972, Note_on_c, 5, 40, 0
6, 28032, Note_on_c, 5, 59, 93
6, 28032, Note_on_c, 5, 40, 95
6, 28032, Note_on_c, 5, 52, 93
6, 28128, Note_on_c, 5, 52, 0
6, 28224, Note_on_c, 5, 52, 82
6, 28356, Note_on_c, 5, 52, 0
6, 28356, Note_on_c, 5, 59, 0
6, 28368, Note_on_c, 5, 40, 0
6, 28416, Note_on_c, 5, 59, 95
6, 28416, Note_on_c, 5, 40, 94
6, 28416, Note_on_c, 5, 52, 92
6, 28484, Note_on_c, 5, 52, 0
6, 28608, Note_on_c, 5, 52, 86
6, 28612, Note_on_c, 5, 40, 0
6, 28704, Note_on_c, 5, 40, 109
6, 28732, Note_on_c, 5, 52, 0
6, 28896, Note_on_c, 5, 52, 91
6, 28924, Note_on_c, 5, 59, 0
6, 28964, Note_on_c, 5, 52, 0
6, 28992, Note_on_c, 5, 59, 95
6, 29120, Note_on_c, 5, 40, 0
6, 29184, Note_on_c, 5, 40, 114
6, 29524, Note_on_c, 5, 59, 0
6, 29532, Note_on_c, 5, 40, 0
6, 29568, Note_on_c, 5, 59, 93
6, 29568, Note_on_c, 5, 40, 87
6, 29568, Note_on_c, 5, 52, 84
6, 29636, Note_on_c, 5, 52, 0
6, 29760, Note_on_c, 5, 52, 81
6, 29788, Note_on_c, 5, 40, 0
6, 29856, Note_on_c, 5, 40, 93
6, 29868, Note_on_c, 5, 52, 0
6, 29900, Note_on_c, 5, 59, 0
6, 29952, Note_on_c, 5, 59, 87
6, 29952, Note_on_c, 5, 52, 83
6, 30028, Note_on_c, 5, 52, 0
6, 30144, Note_on_c, 5, 52, 83
6, 30196, Note_on_c, 5, 40, 0
6, 30240, Note_on_c, 5, 40, 94
6, 30264, Note_on_c, 5, 52, 0
6, 30432, Note_on_c, 5, 52, 92
6, 30472, Note_on_c, 5, 59, 0
6, 30528, Note_on_c, 5, 59, 93
6, 30560, Note_on_c, 5, 52, 0
6, 30604, Note_on_c, 5, 59, 0
6, 30692, Note_on_c, 5, 40, 0
6, 30720, Note_on_c, 5, 60, 95
6, 30720, Note_on_c, 5, 64, 94
6, 30720, Note_on_c, 5, 55, 89
6, 30720, Note_on_c, 5, 48, 97
6, 31076, Note_on_c, 5, 64, 0
6, 31088, Note_on_c, 5, 60, 0
6, 31104, Note_on_c, 5, 60, 85
6, 31104, Note_on_c, 5, 64, 89
6, 31160, Note_on_c, 5, 55, 0
6, 31236, Note_on_c, 5, 64, 0
6, 31296, Note_on_c, 5, 55, 81
6, 31332, Note_on_c, 5, 60, 0
6, 31444, Note_on_c, 5, 55, 0
6, 31468, Note_on_c, 5, 48, 0
6, 31488, Note_on_c, 5, 55, 81
6, 31488, Note_on_c, 5, 59, 86
6, 31488, Note_on_c, 5, 62, 89
6, 31488, Note_on_c, 5, 43, 93
6, 31832, Note_on_c, 5, 55, 0
6, 31836, Note_on_c, 5, 43, 0
6, 31844, Note_on_c, 5, 62, 0
6, 31848, Note_on_c, 5, 59, 0
6, 31872, Note_on_c, 5, 55, 79
6, 31872, Note_on_c, 5, 59, 81
6, 31872, Note_on_c, 5, 62, 85
6, 31872, Note_on_c, 5, 43, 93
6, 31928, Note_on_c, 5, 55, 0
6, 32064, Note_on_c, 5, 55, 79
6, 32072, Note_on_c, 5, 59, 0
6, 32076, Note_on_c, 5, 62, 0
6, 32112, Note_on_c, 5, 55, 0
6, 32204, Note_on_c, 5, 43, 0
6, 32256, Note_on_c, 5, 62, 88
6, 32256, Note_on_c, 5, 57, 82
6, 32256, Note_on_c, 5, 66, 93
6, 32256, Note_on_c, 5, 50, 92
6, 32604, Note_on_c, 5, 50, 0
6, 32608, Note_on_c, 5, 62, 0
6, 32616, Note_on_c, 5, 66, 0
6, 32640, Note_on_c, 5, 62, 90
6, 32640, Note_on_c, 5, 66, 83
6, 32640, Note_on_c, 5, 50, 90
6, 32708, Note_on_c, 5, 57, 0
6, 32832, Note_on_c, 5, 57, 62
6, 32860, Note_on_c, 5, 62, 0
6, 32880, Note_on_c, 5, 66, 0
6, 32952, Note_on_c, 5, 57, 0
6, 33000, Note_on_c, 5, 50, 0
6, 33024, Note_on_c, 5, 64, 63
6, 33024, Note_on_c, 5, 57, 70
6, 33024, Note_on_c, 5, 45, 93
6, 33024, Note_on_c, 5, 61, 57
6, 33084, Note_on_c, 5, 64, 0
6, 33088, Note_on_c, 5, 57, 0
6, 33092, Note_on_c, 5, 61, 0
6, 33216, Note_on_c, 5, 64, 57
6, 33216, Note_on_c, 5, 57, 69
6, 33292, Note_on_c, 5, 57, 0
6, 33300, Note_on_c, 5, 64, 0
6, 33376, Note_on_c, 5, 45, 0
6, 33408, Note_on_c, 5, 64, 88
6, 33408, Note_on_c, 5, 57, 81
6, 33408, Note_on_c, 5, 45, 93
6, 33408, Note_on_c, 5, 61, 82
6, 33464, Note_on_c, 5, 57, 0
6, 33600, Note_on_c, 5, 57, 72
6, 33644, Note_on_c, 5, 61, 0
6, 33664, Note_on_c, 5, 64, 0
6, 33760, Note_on_c, 5, 45, 0
6, 33784, Note_on_c, 5, 57, 0
6, 33792, Note_on_c, 5, 40, 81
6, 34116, Note_on_c, 5, 40, 0
6, 34176, Note_on_c, 5, 59, 93
6, 34176, Note_on_c, 5, 40, 95
6, 34176, Note_on_c, 5, 52, 93
6, 34272, Note_on_c, 5, 52, 0
6, 34368, Note_on_c, 5, 52, 82
6, 34500, Note_on_c, 5, 52, 0
6, 34500, Note_on_c, 5, 59, 0
6, 34512, Note_on_c, 5, 40, 0
6, 34560, Note_on_c, 5, 59, 95
6, 34560, Note_on_c, 5, 40, 94
6, 34560, Note_on_c, 5, 52, 92
6, 34628, Note_on_c, 5, 52, 0
6, 34752, Note_on_c, 5, 52, 86
6, 34756, Note_on_c, 5, 40, 0
6, 34848, Note_on_c, 5, 40, 109
6, 34876, Note_on_c, 5, 52, 0
6, 35040, Note_on_c, 5, 52, 91
6, 35068, Note_on_c, 5, 59, 0
6, 35108, Note_on_c, 5, 52, 0
6, 35136, Note_on_c, 5, 59, 95
6, 35264, Note_on_c, 5, 40, 0
6, 35328, Note_on_c, 5, 40, 114
6, 35668, Note_on_c, 5, 59, 0
6, 35676, Note_on_c, 5, 40, 0
6, 35712, Note_on_c, 5, 59, 93
6, 35712, Note_on_c, 5, 40, 87
6, 35712, Note_on_c, 5, 52, 84
6, 35780, Note_on_c, 5, 52, 0
6, 35904, Note_on_c, 5, 52, 81
6, 35932, Note_on_c, 5, 40, 0
6, 36000, Note_on_c, 5, 40, 93
6, 36012, Note_on_c, 5, 52, 0
6, 36044, Note_on_c, 5, 59, 0
6, 36096, Note_on_c, 5, 59, 87
6, 36096, Note_on_c, 5, 52, 83
6, 36172, Note_on_c, 5, 52, 0
6, 36288, Note_on_c, 5, 52, 83
6, 36340, Note_on_c, 5, 40, 0
6, 36384, Note_on_c, 5, 40, 94
6, 36408, Note_on_c, 5, 52, 0
6, 36576, Note_on_c, 5, 52, 92
6, 36616, Note_on_c, 5, 59, 0
6, 36672, Note_on_c, 5, 59, 93
6, 36704, Note_on_c, 5, 52, 0
6, 36748, Note_on_c, 5, 59, 0
6, 36836, Note_on_c, 5, 40, 0
6, 36864, Note_on_c, 5, 60, 95
6, 36864, Note_on_c, 5, 64, 94
6, 36864, Note_on_c, 5, 55, 89
6, 36864, Note_on_c, 5, 48, 97
6, 37220, Note_on_c, 5, 64, 0
6, 37232, Note_on_c, 5, 60, 0
6, 37248, Note_on_c, 5, 60, 85
6, 37248, Note_on_c, 5, 64, 89
6, 37304, Note_on_c, 5, 55, 0
6, 37380, Note_on_c, 5, 64, 0
6, 37440, Note_on_c, 5, 55, 81
6, 37476, Note_on_c, 5, 60, 0
6, 37588, Note_on_c, 5, 55, 0
6, 37612, Note_on_c, 5, 48, 0
6, 37632, Note_on_c, 5, 55, 81
6, 37632, Note_on_c, 5, 59, 86
6, 37632, Note_on_c, 5, 62, 89
6, 37632, Note_on_c, 5, 43, 93
6, 37976, Note_on_c, 5, 55, 0
6, 37980, Note_on_c, 5, 43, 0
6, 37988, Note_on_c, 5, 62, 0
6, 37992, Note_on_c, 5, 59, 0
6, 38016, Note_on_c, 5, 55, 79
6, 38016, Note_on_c, 5, 59, 81
6, 38016, Note_on_c, 5, 62, 85
6, 38016, Note_on_c, 5, 43, 93
6, 38072, Note_on_c, 5, 55, 0
6, 38208, Note_on_c, 5, 55, 79
6, 38216, Note_on_c, 5, 59, 0
6, 38220, Note_on_c, 5, 62, 0
6, 38256, Note_on_c, 5, 55, 0
6, 38348, Note_on_c, 5, 43, 0
6, 38400, Note_on_c, 5, 62, 88
6, 38400, Note_on_c, 5, 57, 82
6, 38400, Note_on_c, 5, 66, 93
6, 38400, Note_on_c, 5, 50, 92
6, 38748, Note_on_c, 5, 50, 0
6, 38752, Note_on_c, 5, 62, 0
6, 38760, Note_on_c, 5, 66, 0
6, 38784, Note_on_c, 5, 62, 90
6, 38784, Note_on_c, 5, 66, 83
6, 38784, Note_on_c, 5, 50, 90
6, 38852, Note_on_c, 5, 57, 0
6, 38976, Note_on_c, 5, 57, 62
6, 39004, Note_on_c, 5, 62, 0
6, 39024, Note_on_c, 5, 66, 0
6, 39096, Note_on_c, 5, 57, 0
6, 39144, Note_on_c, 5, 50, 0
6, 39168, Note_on_c, 5, 64, 63
6, 39168, Note_on_c, 5, 57, 70
6, 39168, Note_on_c, 5, 45, 93
6, 39168, Note_on_c, 5, 61, 57
6, 39228, Note_on_c, 5, 64, 0
6, 39232, Note_on_c, 5, 57, 0
6, 39236, Note_on_c, 5, 61, 0
6, 39360, Note_on_c, 5, 64, 57
6, 39360, Note_on_c, 5, 57, 69
6, 39436, Note_on_c, 5, 57, 0
6, 39444, Note_on_c, 5, 64, 0
6, 39520, Note_on_c, 5, 45, 0
6, 39552, Note_on_c, 5, 64, 88
6, 39552, Note_on_c, 5, 57, 81
6, 39552, Note_on_c, 5, 45, 93
6, 39552, Note_on_c, 5, 61, 82
6, 39608, Note_on_c, 5, 57, 0
6, 39744, Note_on_c, 5, 57, 72
6, 39788, Note_on_c, 5, 61, 0
6, 39808, Note_on_c, 5, 64, 0
6, 39904, Note_on_c, 5, 45, 0
6, 39928, Note_on_c, 5, 57, 0
6, 39936, Note_on_c, 5, 40, 81
6, 40260, Note_on_c, 5, 40, 0
6, 40320, Note_on_c, 5, 59, 93
6, 40320, Note_on_c, 5, 40, 95
6, 40320, Note_on_c, 5, 52, 93
6, 40416, Note_on_c, 5, 52, 0
6, 40512, Note_on_c, 5, 52, 82
6, 40644, Note_on_c, 5, 52, 0
6, 40644, Note_on_c, 5, 59, 0
6, 40656, Note_on_c, 5, 40, 0
6, 40704, Note_on_c, 5, 59, 95
6, 40704, Note_on_c, 5, 40, 94
6, 40704, Note_on_c, 5, 52, 92
6, 40772, Note_on_c, 5, 52, 0
6, 40896, Note_on_c, 5, 52, 86
6, 40900, Note_on_c, 5, 40, 0
6, 40992, Note_on_c, 5, 40, 109
6, 41020, Note_on_c, 5, 52, 0
6, 41184, Note_on_c, 5, 52, 91
6, 41212, Note_on_c, 5, 59, 0
6, 41252, Note_on_c, 5, 52, 0
6, 41280, Note_on_c, 5, 59, 95
6, 41408, Note_on_c, 5, 40, 0
6, 41472, Note_on_c, 5, 40, 114
6, 41812, Note_on_c, 5, 59, 0
6, 41820, Note_on_c, 5, 40, 0
6, 41856, Note_on_c, 5, 59, 93
6, 41856, Note_on_c, 5, 40, 87
6, 41856, Note_on_c, 5, 52, 84
6, 41924, Note_on_c, 5, 52, 0
6, 42048, Note_on_c, 5, 52, 81
6, 42076, Note_on_c, 5, 40, 0
6, 42144, Note_on_c, 5, 40, 93
6, 42156, Note_on_c, 5, 52, 0
6, 42188, Note_on_c, 5, 59, 0
6, 42240, Note_on_c, 5, 59, 87
6, 42240, Note_on_c, 5, 52, 83
6, 42316, Note_on_c, 5, 52, 0
6, 42432, Note_on_c, 5, 52, 83
6, 42484, Note_on_c, 5, 40, 0
6, 42528, Note_on_c, 5, 40, 94
6, 42552, Note_on_c, 5, 52, 0
6, 42720, Note_on_c, 5, 52, 92
6, 42760, Note_on_c, 5, 59, 0
6, 42816, Note_on_c, 5, 59, 93
6, 42848, Note_on_c, 5, 52, 0
6, 42892, Note_on_c, 5, 59, 0
6, 42980, Note_on_c, 5, 40, 0
6, 43008, Note_on_c, 5, 60, 95
6, 43008, Note_on_c, 5, 64, 94
6, 43008, Note_on_c, 5, 55, 89
6, 43008, Note_on_c, 5, 48, 97
6, 43364, Note_on_c, 5, 64, 0
6, 43376, Note_on_c, 5, 60, 0
6, 43392, Note_on_c, 5, 60, 85
6, 43392, Note_on_c, 5, 64, 89
6, 43448, Note_on_c, 5, 55, 0
6, 43524, Note_on_c, 5, 64, 0
6, 43584, Note_on_c, 5, 55, 81
6, 43620, Note_on_c, 5, 60, 0
6, 43732, Note_on_c, 5, 55, 0
6, 43756, Note_on_c, 5, 48, 0
6, 43776, Note_on_c, 5, 55, 81
6, 43776, Note_on_c, 5, 59, 86
6, 43776, Note_on_c, 5, 62, 89
6, 43776, Note_on_c, 5, 43, 93
6, 44120, Note_on_c, 5, 55, 0
6, 44124, Note_on_c, 5, 43, 0
6, 44132, Note_on_c, 5, 62, 0
6, 44136, Note_on_c, 5, 59, 0
6, 44160, Note_on_c, 5, 55, 79
6, 44160, Note_on_c, 5, 59, 81
6, 44160, Note_on_c, 5, 62, 85
6, 44160, Note_on_c, 5, 43, 93
6, 44216, Note_on_c, 5, 55, 0
6, 44352, Note_on_c, 5, 55, 79
6, 44360, Note_on_c, 5, 59, 0
6, 44364, Note_on_c, 5, 62, 0
6, 44400, Note_on_c, 5, 55, 0
6, 44492, Note_on_c, 5, 43, 0
6, 44544, Note_on_c, 5, 62, 88
6, 44544, Note_on_c, 5, 57, 82
6, 44544, Note_on_c, 5, 66, 93
6, 44544, Note_on_c, 5, 50, 92
6, 44892, Note_on_c, 5, 50, 0
6, 44896, Note_on_c, 5, 62, 0
6, 44904, Note_on_c, 5, 66, 0
6, 44928, Note_on_c, 5, 62, 90
6, 44928, Note_on_c, 5, 66, 83
6, 44928, Note_on_c, 5, 50, 90
6, 44996, Note_on_c, 5, 57, 0
6, 45120, Note_on_c, 5, 57, 62
6, 45148, Note_on_c, 5, 62, 0
6, 45168, Note_on_c, 5, 66, 0
6, 45240, Note_on_c, 5, 57, 0
6, 45288, Note_on_c, 5, 50, 0
6, 45312, Note_on_c, 5, 64, 63
6, 45312, Note_on_c, 5, 57, 70
6, 45312, Note_on_c, 5, 45, 93
6, 45312, Note_on_c, 5, 61, 57
6, 45372, Note_on_c, 5, 64, 0
6, 45376, Note_on_c, 5, 57, 0
6, 45380, Note_on_c, 5, 61, 0
6, 45504, Note_on_c, 5, 64, 57
6, 45504, Note_on_c, 5, 57, 69
6, 45580, Note_on_c, 5, 57, 0
6, 45588, Note_on_c, 5, 64, 0
6, 45664, Note_on_c, 5, 45, 0
6, 45696, Note_on_c, 5, 64, 88
6, 45696, Note_on_c, 5, 57, 81
6, 45696, Note_on_c, 5, 45, 93
6, 45696, Note_on_c, 5, 61, 82
6, 45752, Note_on_c, 5, 57, 0
6, 45888, Note_on_c, 5, 57, 72
6, 45932, Note_on_c, 5, 61, 0
6, 45952, Note_on_c, 5, 64, 0
6, 46048, Note_on_c, 5, 45, 0
6, 46072, Note_on_c, 5, 57, 0
6, 46080, Note_on_c, 5, 40, 81
6, 46404, Note_on_c, 5, 40, 0
6, 46464, Note_on_c, 5, 59, 93
6, 46464, Note_on_c, 5, 40, 95
6, 46464, Note_on_c, 5, 52, 93
6, 46560, Note_on_c, 5, 52, 0
6, 46656, Note_on_c, 5, 52, 82
6, 46788, Note_on_c, 5, 52, 0
6, 46788, Note_on_c, 5, 59, 0
6, 46800, Note_on_c, 5, 40, 0
6, 46848, Note_on_c, 5, 59, 95
6, 46848, Note_on_c, 5, 40, 94
6, 46848, Note_on_c, 5, 52, 92
6, 46916, Note_on_c, 5, 52, 0
6, 47040, Note_on_c, 5, 52, 86
6, 47044, Note_on_c, 5, 40, 0
6, 47136, Note_on_c, 5, 40, 109
6, 47164, Note_on_c, 5, 52, 0
6, 47328, Note_on_c, 5, 52, 91
6, 47356, Note_on_c, 5, 59, 0
6, 47396, Note_on_c, 5, 52, 0
6, 47424, Note_on_c, 5, 59, 95
6, 47552, Note_on_c, 5, 40, 0
6, 47616, Note_on_c, 5, 40, 114
6, 47956, Note_on_c, 5, 59, 0
6, 47964, Note_on_c, 5, 40, 0
6, 48000, Note_on_c, 5, 59, 93
6, 48000, Note_on_c, 5, 40, 87
6, 48000, Note_on_c, 5, 52, 84
6, 48068, Note_on_c, 5, 52, 0
6, 48192, Note_on_c, 5, 52, 81
6, 48220, Note_on_c, 5, 40, 0
6, 48288, Note_on_c, 5, 40, 93
6, 48300, Note_on_c, 5, 52, 0
6, 48332, Note_on_c, 5, 59, 0
6, 48384, Note_on_c, 5, 59, 87
6, 48384, Note_on_c, 5, 52, 83
6, 48460, Note_on_c, 5, 52, 0
6, 48576, Note_on_c, 5, 52, 83
6, 48628, Note_on_c, 5, 40, 0
6, 48672, Note_on_c, 5, 40, 94
6, 48696, Note_on_c, 5, 52, 0
6, 48864, Note_on_c, 5, 52, 92
6, 48904, Note_on_c, 5, 59, 0
6, 48960, Note_on_c, 5, 59, 93
6, 48992, Note_on_c, 5, 52, 0
6, 49036, Note_on_c, 5, 59, 0
6, 49124, Note_on_c, 5, 40, 0
6, 49152, Note_on_c, 5, 60, 95
6, 49152, Note_on_c, 5, 64, 94
6, 49152, Note_on_c, 5, 55, 89
6, 49152, Note_on_c, 5, 48, 97
6, 49508, Note_on_c, 5, 64, 0
6, 49520, Note_on_c, 5, 60, 0
6, 49536, Note_on_c, 5, 60, 85
6, 49536, Note_on_c, 5, 64, 89
6, 49592, Note_on_c, 5, 55, 0
6, 49668, Note_on_c, 5, 64, 0
6, 49728, Note_on_c, 5, 55, 81
6, 49764, Note_on_c, 5, 60, 0
6, 49876, Note_on_c, 5, 55, 0
6, 49900, Note_on_c, 5, 48, 0
6, 49920, Note_on_c, 5, 55, 81
6, 49920, Note_on_c, 5, 59, 86
6, 49920, Note_on_c, 5, 62, 89
6, 49920, Note_on_c, 5, 43, 93
6, 50264, Note_on_c, 5, 55, 0
6, 50268, Note_on_c, 5, 43, 0
6, 50276, Note_on_c, 5, 62, 0
6, 50280, Note_on_c, 5, 59, 0
6, 50304, Note_on_c, 5, 55, 79
6, 50304, Note_on_c, 5, 59, 81
6, 50304, Note_on_c, 5, 62, 85
6, 50304, Note_on_c, 5, 43, 93
6, 50360, Note_on_c, 5, 55, 0
6, 50496, Note_on_c, 5, 55, 79
6, 50504, Note_on_c, 5, 59, 0
6, 50508, Note_on_c, 5, 62, 0
6, 50544, Note_on_c, 5, 55, 0
6, 50636, Note_on_c, 5, 43, 0
6, 50688, Note_on_c, 5, 62, 88
6, 50688, Note_on_c, 5, 57, 82
6, 50688, Note_on_c, 5, 66, 93
6, 50688, Note_on_c, 5, 50, 92
6, 51036, Note_on_c, 5, 50, 0
6, 51040, Note_on_c, 5, 62, 0
6, 51048, Note_on_c, 5, 66, 0
6, 51072, Note_on_c, 5, 62, 90
6, 51072, Note_on_c, 5, 66, 83
6, 51072, Note_on_c, 5, 50, 90
6, 51140, Note_on_c, 5, 57, 0
6, 51264, Note_on_c, 5, 57, 62
6, 51292, Note_on_c, 5, 62, 0
6, 51312, Note_on_c, 5, 66, 0
6, 51384, Note_on_c, 5, 57, 0
6, 51432, Note_on_c, 5, 50, 0
6, 51456, Note_on_c, 5, 64, 63
6, 51456, Note_on_c, 5, 57, 70
6, 51456, Note_on_c, 5, 45, 93
6, 51456, Note_on_c, 5, 61, 57
6, 51516, Note_on_c, 5, 64, 0
6, 51520, Note_on_c, 5, 57, 0
6, 51524, Note_on_c, 5, 61, 0
6, 51648, Note_on_c, 5, 64, 57
6, 51648, Note_on_c, 5, 57, 69
6, 51724, Note_on_c, 5, 57, 0
6, 51732, Note_on_c, 5, 64, 0
6, 51808, Note_on_c, 5, 45, 0
6, 51840, Note_on_c, 5, 64, 88
6, 51840, Note_on_c, 5, 57, 81
6, 51840, Note_on_c, 5, 45, 93
6, 51840, Note_on_c, 5, 61, 82
6, 51896, Note_on_c, 5, 57, 0
6, 52032, Note_on_c, 5, 57, 72
6, 52076, Note_on_c, 5, 61, 0
6, 52096, Note_on_c, 5, 64, 0
6, 52192, Note_on_c, 5, 45, 0
6, 52216, Note_on_c, 5, 57, 0
6, 52224, Note_on_c, 5, 40, 81
6, 52548, Note_on_c, 5, 40, 0
6, 52608, Note_on_c, 5, 59, 93
6, 52608, Note_on_c, 5, 40, 95
6, 52608, Note_on_c, 5, 52, 93
6, 52704, Note_on_c, 5, 52, 0
6, 52800, Note_on_c, 5, 52, 82
6, 52932, Note_on_c, 5, 52, 0
6, 52932, Note_on_c, 5, 59, 0
6, 52944, Note_on_c, 5, 40, 0
6, 52992, Note_on_c, 5, 59, 95
6, 52992, Note_on_c, 5, 40, 94
6, 52992, Note_on_c, 5, 52, 92
6, 53060, Note_on_c, 5, 52, 0
6, 53184, Note_on_c, 5, 52, 86
6, 53188, Note_on_c, 5, 40, 0
6, 53280, Note_on_c, 5, 40, 109
6, 53308, Note_on_c, 5, 52, 0
6, 53472, Note_on_c, 5, 52, 91
6, 53500, Note_on_c, 5, 59, 0
6, 53540, Note_on_c, 5, 52, 0
6, 53568, Note_on_c, 5, 59, 95
6, 53696, Note_on_c, 5, 40, 0
6, 53760, Note_on_c, 5, 40, 114
6, 54100, Note_on_c, 5, 59, 0
6, 54108, Note_on_c, 5, 40, 0
6, 54144, Note_on_c, 5, 59, 93
6, 54144, Note_on_c, 5, 40, 87
6, 54144, Note_on_c, 5, 52, 84
6, 54212, Note_on_c, 5, 52, 0
6, 54336, Note_on_c, 5, 52, 81
6, 54364, Note_on_c, 5, 40, 0
6, 54432, Note_on_c, 5, 40, 93
6, 54444, Note_on_c, 5, 52, 0
6, 54476, Note_on_c, 5, 59, 0
6, 54528, Note_on_c, 5, 59, 87
6, 54528, Note_on_c, 5, 52, 83
6, 54604, Note_on_c, 5, 52, 0
6, 54720, Note_on_c, 5, 52, 83
6, 54772, Note_on_c, 5, 40, 0
6, 54816, Note_on_c, 5, 40, 94
6, 54840, Note_on_c, 5, 52, 0
6, 55008, Note_on_c, 5, 52, 92
6, 55048, Note_on_c, 5, 59, 0
6, 55104, Note_on_c, 5, 59, 93
6, 55136, Note_on_c, 5, 52, 0
6, 55180, Note_on_c, 5, 59, 0
6, 55268, Note_on_c, 5, 40, 0
6, 55296, Note_on_c, 5, 60, 95
6, 55296, Note_on_c, 5, 64, 94
6, 55296, Note_on_c, 5, 55, 89
6, 55296, Note_on_c, 5, 48, 97
6, 55652, Note_on_c, 5, 64, 0
6, 55664, Note_on_c, 5, 60, 0
6, 55680, Note_on_c, 5, 60, 85
6, 55680, Note_on_c, 5, 64, 89
6, 55736, Note_on_c, 5, 55, 0
6, 55812, Note_on_c, 5, 64, 0
6, 55872, Note_on_c, 5, 55, 81
6, 55908, Note_on_c, 5, 60, 0
6, 56020, Note_on_c, 5, 55, 0
6, 56044, Note_on_c, 5, 48, 0
6, 56064, Note_on_c, 5, 55, 81
6, 56064, Note_on_c, 5, 59, 86
6, 56064, Note_on_c, 5, 62, 89
6, 56064, Note_on_c, 5, 43, 93
6, 56408, Note_on_c, 5, 55, 0
6, 56412, Note_on_c, 5, 43, 0
6, 56420, Note_on_c, 5, 62, 0
6, 56424, Note_on_c, 5, 59, 0
6, 56448, Note_on_c, 5, 55, 79
6, 56448, Note_on_c, 5, 59, 81
6, 56448, Note_on_c, 5, 62, 85
6, 56448, Note_on_c, 5, 43, 93
6, 56504, Note_on_c, 5, 55, 0
6, 56640, Note_on_c, 5, 55, 79
6, 56648, Note_on_c, 5, 59, 0
6, 56652, Note_on_c, 5, 62, 0
6, 56688, Note_on_c, 5, 55, 0
6, 56780, Note_on_c, 5, 43, 0
6, 56832, Note_on_c, 5, 62, 88
6, 56832, Note_on_c, 5, 57, 82
6, 56832, Note_on_c, 5, 66, 93
6, 56832, Note_on_c, 5, 50, 92
6, 57180, Note_on_c, 5, 50, 0
6, 57184, Note_on_c, 5, 62, 0
6, 57192, Note_on_c, 5, 66, 0
6, 57216, Note_on_c, 5, 62, 90
6, 57216, Note_on_c, 5, 66, 83
6, 57216, Note_on_c, 5, 50, 90
6, 57284, Note_on_c, 5, 57, 0
6, 57408, Note_on_c, 5, 57, 62
6, 57436, Note_on_c, 5, 62, 0
6, 57456, Note_on_c, 5, 66, 0
6, 57528, Note_on_c, 5, 57, 0
6, 57576, Note_on_c, 5, 50, 0
6, 57600, Note_on_c, 5, 64, 63
6, 57600, Note_on_c, 5, 57, 70
6, 57600, Note_on_c, 5, 45, 93
6, 57600, Note_on_c, 5, 61, 57
6, 57660, Note_on_c, 5, 64, 0
6, 57664, Note_on_c, 5, 57, 0
6, 57668, Note_on_c, 5, 61, 0
6, 57792, Note_on_c, 5, 64, 57
6, 57792, Note_on_c, 5, 57, 69
6, 57868, Note_on_c, 5, 57, 0
6, 57876, Note_on_c, 5, 64, 0
6, 57952, Note_on_c, 5, 45, 0
6, 57984, Note_on_c, 5, 64, 88
6, 57984, Note_on_c, 5, 57, 81
6, 57984, Note_on_c, 5, 45, 93
6, 57984, Note_on_c, 5, 61, 82
6, 58040, Note_on_c, 5, 57, 0
6, 58176, Note_on_c, 5, 57, 72
6, 58220, Note_on_c, 5, 61, 0
6, 58240, Note_on_c, 5, 64, 0
6, 58336, Note_on_c, 5, 45, 0
6, 58360, Note_on_c, 5, 57, 0
6, 58368, Note_on_c, 5, 40, 81
6, 58692, Note_on_c, 5, 40, 0
6, 58752, Note_on_c, 5, 59, 93
6, 58752, Note_on_c, 5, 40, 95
6, 58752, Note_on_c, 5, 52, 93
6, 58848, Note_on_c, 5, 52, 0
6, 58944, Note_on_c, 5, 52, 82
6, 59076, Note_on_c, 5, 52, 0
6, 59076, Note_on_c, 5, 59, 0
6, 59088, Note_on_c, 5, 40, 0
6, 59136, Note_on_c, 5, 59, 95
6, 59136, Note_on_c, 5, 40, 94
6, 59136, Note_on_c, 5, 52, 92
6, 59204, Note_on_c, 5, 52, 0
6, 59328, Note_on_c, 5, 52, 86
6, 59332, Note_on_c, 5, 40, 0
6, 59424, Note_on_c, 5, 40, 109
6, 59452, Note_on_c, 5, 52, 0
6, 59616, Note_on_c, 5, 52, 91
6, 59644, Note_on_c, 5, 59, 0
6, 59684, Note_on_c, 5, 52, 0
6, 59712, Note_on_c, 5, 59, 95
6, 59840, Note_on_c, 5, 40, 0
6, 59904, Note_on_c, 5, 40, 114
6, 60244, Note_on_c, 5, 59, 0
6, 60252, Note_on_c, 5, 40, 0
6, 60288, Note_on_c, 5, 59, 93
6, 60288, Note_on_c, 5, 40, 87
6, 60288, Note_on_c, 5, 52, 84
6, 60356, Note_on_c, 5, 52, 0
6, 60480, Note_on_c, 5, 52, 81
6, 60508, Note_on_c, 5, 40, 0
6, 60576, Note_on_c, 5, 40, 93
6, 60588, Note_on_c, 5, 52, 0
6, 60620, Note_on_c, 5, 59, 0
6, 60672, Note_on_c, 5, 59, 87
6, 60672, Note_on_c, 5, 52, 83
6, 60748, Note_on_c, 5, 52, 0
6, 60864, Note_on_c, 5, 52, 83
6, 60916, Note_on_c, 5, 40, 0
6, 60960, Note_on_c, 5, 40, 94
6, 60984, Note_on_c, 5, 52, 0
6, 61152, Note_on_c, 5, 52, 92
6, 61192, Note_on_c, 5, 59, 0
6, 61248, Note_on_c, 5, 59, 93
6, 61280, Note_on_c, 5, 52, 0
6, 61324, Note_on_c, 5, 59, 0
6, 61412, Note_on_c, 5, 40, 0
6, 61440, Note_on_c, 5, 60, 95
6, 61440, Note_on_c, 5, 64, 94
6, 61440, Note_on_c, 5, 55, 89
6, 61440, Note_on_c, 5, 48, 97
6, 61796, Note_on_c, 5, 64, 0
6, 61808, Note_on_c, 5, 60, 0
6, 61824, Note_on_c, 5, 60, 85
6, 61824, Note_on_c, 5, 64, 89
6, 61880, Note_on_c, 5, 55, 0
6, 61956, Note_on_c, 5, 64, 0
6, 62016, Note_on_c, 5, 55, 81
6, 62052, Note_on_c, 5, 60, 0
6, 62164, Note_on_c, 5, 55, 0
6, 62188, Note_on_c, 5, 48, 0
6, 62208, Note_on_c, 5, 55, 81
6, 62208, Note_on_c, 5, 59, 86
6, 62208, Note_on_c, 5, 62, 89
6, 62208, Note_on_c, 5, 43, 93
6, 62552, Note_on_c, 5, 55, 0
6, 62556, Note_on_c, 5, 43, 0
6, 62564, Note_on_c, 5, 62, 0
6, 62568, Note_on_c, 5, 59, 0
6, 62592, Note_on_c, 5, 55, 79
6, 62592, Note_on_c, 5, 59, 81
6, 62592, Note_on_c, 5, 62, 85
6, 62592, Note_on_c, 5, 43, 93
6, 62648, Note_on_c, 5, 55, 0
6, 62784, Note_on_c, 5, 55, 79
6, 62792, Note_on_c, 5, 59, 0
6, 62796, Note_on_c, 5, 62, 0
6, 62832, Note_on_c, 5, 55, 0
6, 62924, Note_on_c, 5, 43, 0
6, 62976, Note_on_c, 5, 62, 88
6, 62976, Note_on_c, 5, 57, 82
6, 62976, Note_on_c, 5, 66, 93
6, 62976, Note_on_c, 5, 50, 92
6, 63324, Note_on_c, 5, 50, 0
6, 63328, Note_on_c, 5, 62, 0
6, 63336, Note_on_c, 5, 66, 0
6, 63360, Note_on_c, 5, 62, 90
6, 63360, Note_on_c, 5, 66, 83
6, 63360, Note_on_c, 5, 50, 90
6, 63428, Note_on_c, 5, 57, 0
6, 63552, Note_on_c, 5, 57, 62
6, 63580, Note_on_c, 5, 62, 0
6, 63600, Note_on_c, 5, 66, 0
6, 63672, Note_on_c, 5, 57, 0
6, 63720, Note_on_c, 5, 50, 0
6, 63744, Note_on_c, 5, 64, 63
6, 63744, Note_on_c, 5, 57, 70
6, 63744, Note_on_c, 5, 45, 93
6, 63744, Note_on_c, 5, 61, 57
6, 63804, Note_on_c, 5, 64, 0
6, 63808, Note_on_c, 5, 57, 0
6, 63812, Note_on_c, 5, 61, 0
6, 63936, Note_on_c, 5, 64, 57
6, 63936, Note_on_c, 5, 57, 69
6, 64012, Note_on_c, 5, 57, 0
6, 64020, Note_on_c, 5, 64, 0
6, 64096, Note_on_c, 5, 45, 0
6, 64128, Note_on_c, 5, 64, 88
6, 64128, Note_on_c, 5, 57, 81
6, 64128, Note_on_c, 5, 45, 93
6, 64128, Note_on_c, 5, 61, 82
6, 64184, Note_on_c, 5, 57, 0
6, 64320, Note_on_c, 5, 57, 72
6, 64364, Note_on_c, 5, 61, 0
6, 64384, Note_on_c, 5, 64, 0
6, 64480, Note_on_c, 5, 45, 0
6, 64504, Note_on_c, 5, 57, 0
6, 64512, Note_on_c, 5, 40, 81
6, 64836, Note_on_c, 5, 40, 0
6, 64896, Note_on_c, 5, 59, 93
6, 64896, Note_on_c, 5, 40, 95
6, 64896, Note_on_c, 5, 52, 93
6, 64992, Note_on_c, 5, 52, 0
6, 65088, Note_on_c, 5, 52, 82
6, 65220, Note_on_c, 5, 52, 0
6, 65220, Note_on_c, 5, 59, 0
6, 65232, Note_on_c, 5, 40, 0
6, 65280, Note_on_c, 5, 59, 95
6, 65280, Note_on_c, 5, 40, 94
6, 65280, Note_on_c, 5, 52, 92
6, 65348, Note_on_c, 5, 52, 0
6, 65472, Note_on_c, 5, 52, 86
6, 65476, Note_on_c, 5, 40, 0
6, 65568, Note_on_c, 5, 40, 109
6, 65596, Note_on_c, 5, 52, 0
6, 65760, Note_on_c, 5, 52, 91
6, 65788, Note_on_c, 5, 59, 0
6, 65828, Note_on_c, 5, 52, 0
6, 65856, Note_on_c, 5, 59, 95
6, 65984, Note_on_c, 5, 40, 0
6, 66048, Note_on_c, 5, 40, 114
6, 66388, Note_on_c, 5, 59, 0
6, 66396, Note_on_c, 5, 40, 0
6, 66432, Note_on_c, 5, 59, 93
6, 66432, Note_on_c, 5, 40, 87
6, 66432, Note_on_c, 5, 52, 84
6, 66500, Note_on_c, 5, 52, 0
6, 66624, Note_on_c, 5, 52, 81
6, 66652, Note_on_c, 5, 40, 0
6, 66720, Note_on_c, 5, 40, 93
6, 66732, Note_on_c, 5, 52, 0
6, 66764, Note_on_c, 5, 59, 0
6, 66816, Note_on_c, 5, 59, 87
6, 66816, Note_on_c, 5, 52, 83
6, 66892, Note_on_c, 5, 52, 0
6, 67008, Note_on_c, 5, 52, 83
6, 67060, Note_on_c, 5, 40, 0
6, 67104, Note_on_c, 5, 40, 94
6, 67128, Note_on_c, 5, 52, 0
6, 67296, Note_on_c, 5, 52, 92
6, 67336, Note_on_c, 5, 59, 0
6, 67392, Note_on_c, 5, 59, 93
6, 67424, Note_on_c, 5, 52, 0
6, 67468, Note_on_c, 5, 59, 0
6, 67556, Note_on_c, 5, 40, 0
6, 67584, Note_on_c, 5, 48, 122
6, 67584, Note_on_c, 5, 60, 119
6, 67776, Note_on_c, 5, 40, 110
6, 67776, Note_on_c, 5, 52, 107
6, 67788, Note_on_c, 5, 60, 0
6, 67804, Note_on_c, 5, 48, 0
6, 67968, Note_on_c, 5, 53, 107
6, 67968, Note_on_c, 5, 41, 127
6, 67972, Note_on_c, 5, 52, 0
6, 67988, Note_on_c, 5, 40, 0
6, 68160, Note_on_c, 5, 41, 0
6, 68160, Note_on_c, 5, 54, 107
6, 68160, Note_on_c, 5, 42, 110
6, 68184, Note_on_c, 5, 53, 0
6, 68348, Note_on_c, 5, 42, 0
6, 68352, Note_on_c, 5, 43, 127
6, 68352, Note_on_c, 5, 55, 109
6, 68380, Note_on_c, 5, 54, 0
6, 68544, Note_on_c, 5, 59, 110
6, 68544, Note_on_c, 5, 47, 107
6, 68576, Note_on_c, 5, 43, 0
6, 68588, Note_on_c, 5, 55, 0
6, 68736, Note_on_c, 5, 48, 119
6, 68736, Note_on_c, 5, 60, 110
6, 68764, Note_on_c, 5, 59, 0
6, 68768, Note_on_c, 5, 47, 0
6, 68908, Note_on_c, 5, 60, 0
6, 68920, Note_on_c, 5, 48, 0
6, 68928, Note_on_c, 5, 49, 110
6, 68928, Note_on_c, 5, 61, 110
6, 69084, Note_on_c, 5, 49, 0
6, 69096, Note_on_c, 5, 61, 0
6, 69120, Note_on_c, 5, 50, 104
6, 69120, Note_on_c, 5, 62, 110
6, 69312, Note_on_c, 5, 54, 114
6, 69312, Note_on_c, 5, 42, 114
6, 69320, Note_on_c, 5, 50, 0
6, 69472, Note_on_c, 5, 62, 0
6, 69496, Note_on_c, 5, 42, 0
6, 69504, Note_on_c, 5, 55, 122
6, 69504, Note_on_c, 5, 43, 127
6, 69536, Note_on_c, 5, 54, 0
6, 69696, Note_on_c, 5, 56, 119
6, 69696, Note_on_c, 5, 44, 119
6, 69700, Note_on_c, 5, 43, 0
6, 69704, Note_on_c, 5, 55, 0
6, 69888, Note_on_c, 5, 57, 110
6, 69888, Note_on_c, 5, 45, 110
6, 69900, Note_on_c, 5, 44, 0
6, 69916, Note_on_c, 5, 56, 0
6, 70080, Note_on_c, 5, 49, 122
6, 70080, Note_on_c, 5, 61, 119
6, 70092, Note_on_c, 5, 45, 0
6, 70216, Note_on_c, 5, 57, 0
6, 70272, Note_on_c, 5, 49, 0
6, 70272, Note_on_c, 5, 61, 0
6, 70272, Note_on_c, 5, 62, 98
6, 70272, Note_on_c, 5, 50, 110
6, 70456, Note_on_c, 5, 62, 0
6, 70464, Note_on_c, 5, 51, 122
6, 70464, Note_on_c, 5, 63, 110
6, 70504, Note_on_c, 5, 50, 0
6, 70600, Note_on_c, 5, 51, 0
6, 70608, Note_on_c, 5, 63, 0
6, 70656, Note_on_c, 5, 64, 102
6, 70656, Note_on_c, 5, 52, 110
6, 70848, Note_on_c, 5, 40, 102
6, 71076, Note_on_c, 5, 52, 0
6, 71124, Note_on_c, 5, 64, 0
6, 71232, Note_on_c, 5, 52, 85
6, 71276, Note_on_c, 5, 52, 0
6, 71372, Note_on_c, 5, 40, 0
6, 71408, Control_c, 5, 64, 127
6, 71424, Note_on_c, 5, 59, 102
6, 71424, Note_on_c, 5, 40, 98
6, 71424, Note_on_c, 5, 52, 95
6, 71604, Note_on_c, 5, 52, 0
6, 71616, Note_on_c, 5, 52, 88
6, 71628, Note_on_c, 5, 40, 0
6, 71684, Note_on_c, 5, 59, 0
6, 71712, Note_on_c, 5, 76, 99
6, 71712, Note_on_c, 5, 74, 102
6, 71712, Note_on_c, 5, 71, 93
6, 71712, Note_on_c, 5, 59, 95
6, 71712, Note_on_c, 5, 40, 109
6, 71728, Note_on_c, 5, 52, 0
6, 71760, Note_on_c, 5, 71, 0
6, 71760, Note_on_c, 5, 76, 0
6, 71760, Note_on_c, 5, 74, 0
6, 71900, Note_on_c, 5, 59, 0
6, 71904, Note_on_c, 5, 71, 95
6, 71904, Note_on_c, 5, 76, 104
6, 71904, Note_on_c, 5, 74, 102
6, 71904, Note_on_c, 5, 52, 95
6, 71920, Note_on_c, 5, 40, 0
6, 71952, Note_on_c, 5, 74, 0
6, 71960, Note_on_c, 5, 76, 0
6, 71972, Note_on_c, 5, 71, 0
6, 72000, Note_on_c, 5, 59, 88
6, 72000, Note_on_c, 5, 62, 99
6, 72000, Note_on_c, 5, 40, 88
6, 72044, Note_on_c, 5, 52, 0
6, 72096, Note_on_c, 5, 71, 98
6, 72096, Note_on_c, 5, 76, 114
6, 72096, Note_on_c, 5, 74, 114
6, 72140, Note_on_c, 5, 62, 0
6, 72160, Note_on_c, 5, 59, 0
6, 72172, Note_on_c, 5, 40, 0
6, 72192, Note_on_c, 5, 59, 94
6, 72192, Note_on_c, 5, 40, 97
6, 72192, Note_on_c, 5, 52, 92
6, 72304, Note_on_c, 5, 52, 0
6, 72384, Note_on_c, 5, 52, 81
6, 72420, Note_on_c, 5, 40, 0
6, 72480, Note_on_c, 5, 40, 99
6, 72508, Note_on_c, 5, 59, 0
6, 72516, Note_on_c, 5, 52, 0
6, 72524, Note_on_c, 5, 74, 0
6, 72528, Note_on_c, 5, 76, 0
6, 72536, Note_on_c, 5, 71, 0
6, 72576, Note_on_c, 5, 71, 93
6, 72576, Note_on_c, 5, 76, 99
6, 72576, Note_on_c, 5, 74, 98
6, 72576, Note_on_c, 5, 59, 104
6, 72576, Note_on_c, 5, 52, 98
6, 72688, Note_on_c, 5, 52, 0
6, 72744, Note_on_c, 5, 71, 0
6, 72768, Note_on_c, 5, 71, 88
6, 72768, Note_on_c, 5, 52, 81
6, 72804, Note_on_c, 5, 40, 0
6, 72824, Note_on_c, 5, 74, 0
6, 72832, Note_on_c, 5, 76, 0
6, 72860, Note_on_c, 5, 71, 0
6, 72864, Note_on_c, 5, 74, 99
6, 72864, Note_on_c, 5, 76, 100
6, 72960, Note_on_c, 5, 40, 122
6, 72984, Note_on_c, 5, 52, 0
6, 72996, Note_on_c, 5, 59, 0
6, 73052, Note_on_c, 5, 76, 0
6, 73056, Note_on_c, 5, 71, 94
6, 73056, Note_on_c, 5, 59, 99
6, 73056, Note_on_c, 5, 52, 100
6, 73080, Note_on_c, 5, 74, 0
6, 73112, Note_on_c, 5, 71, 0
6, 73136, Note_on_c, 5, 40, 0
6, 73152, Note_on_c, 5, 76, 100
6, 73152, Note_on_c, 5, 74, 100
6, 73232, Note_on_c, 5, 52, 0
6, 73240, Note_on_c, 5, 59, 0
6, 73248, Note_on_c, 5, 71, 93
6, 73248, Note_on_c, 5, 40, 122
6, 73252, Note_on_c, 5, 76, 0
6, 73256, Note_on_c, 5, 74, 0
6, 73308, Note_on_c, 5, 71, 0
6, 73344, Note_on_c, 5, 74, 100
6, 73344, Note_on_c, 5, 76, 102
6, 73344, Note_on_c, 5, 71, 95
6, 73468, Note_on_c, 5, 40, 0
6, 73540, Note_on_c, 5, 76, 0
6, 73548, Note_on_c, 5, 74, 0
6, 73556, Note_on_c, 5, 71, 0
6, 73712, Control_c, 5, 64, 0
6, 73728, Note_on_c, 5, 60, 95
6, 73728, Note_on_c, 5, 64, 94
6, 73728, Note_on_c, 5, 55, 89
6, 73728, Note_on_c, 5, 48, 97
6, 74084, Note_on_c, 5, 64, 0
6, 74096, Note_on_c, 5, 60, 0
6, 74112, Note_on_c, 5, 60, 85
6, 74112, Note_on_c, 5, 64, 89
6, 74168, Note_on_c, 5, 55, 0
6, 74244, Note_on_c, 5, 64, 0
6, 74304, Note_on_c, 5, 55, 81
6, 74340, Note_on_c, 5, 60, 0
6, 74452, Note_on_c, 5, 55, 0
6, 74476, Note_on_c, 5, 48, 0
6, 74496, Note_on_c, 5, 55, 81
6, 74496, Note_on_c, 5, 59, 86
6, 74496, Note_on_c, 5, 62, 89
6, 74496, Note_on_c, 5, 43, 93
6, 74840, Note_on_c, 5, 55, 0
6, 74844, Note_on_c, 5, 43, 0
6, 74852, Note_on_c, 5, 62, 0
6, 74856, Note_on_c, 5, 59, 0
6, 74880, Note_on_c, 5, 55, 79
6, 74880, Note_on_c, 5, 59, 81
6, 74880, Note_on_c, 5, 62, 85
6, 74880, Note_on_c, 5, 43, 93
6, 74936, Note_on_c, 5, 55, 0
6, 75072, Note_on_c, 5, 55, 79
6, 75080, Note_on_c, 5, 59, 0
6, 75084, Note_on_c, 5, 62, 0
6, 75120, Note_on_c, 5, 55, 0
6, 75212, Note_on_c, 5, 43, 0
6, 75264, Note_on_c, 5, 62, 88
6, 75264, Note_on_c, 5, 57, 82
6, 75264, Note_on_c, 5, 66, 93
6, 75264, Note_on_c, 5, 50, 92
6, 75612, Note_on_c, 5, 50, 0
6, 75616, Note_on_c, 5, 62, 0
6, 75624, Note_on_c, 5, 66, 0
6, 75648, Note_on_c, 5, 62, 90
6, 75648, Note_on_c, 5, 66, 83
6, 75648, Note_on_c, 5, 50, 90
6, 75716, Note_on_c, 5, 57, 0
6, 75840, Note_on_c, 5, 57, 62
6, 75868, Note_on_c, 5, 62, 0
6, 75888, Note_on_c, 5, 66, 0
6, 75960, Note_on_c, 5, 57, 0
6, 76008, Note_on_c, 5, 50, 0
6, 76032, Note_on_c, 5, 64, 63
6, 76032, Note_on_c, 5, 57, 70
6, 76032, Note_on_c, 5, 45, 93
6, 76032, Note_on_c, 5, 61, 57
6, 76092, Note_on_c, 5, 64, 0
6, 76096, Note_on_c, 5, 57, 0
6, 76100, Note_on_c, 5, 61, 0
6, 76224, Note_on_c, 5, 64, 57
6, 76224, Note_on_c, 5, 57, 69
6, 76300, Note_on_c, 5, 57, 0
6, 76308, Note_on_c, 5, 64, 0
6, 76384, Note_on_c, 5, 45, 0
6, 76416, Note_on_c, 5, 64, 88
6, 76416, Note_on_c, 5, 57, 81
6, 76416, Note_on_c, 5, 45, 93
6, 76416, Note_on_c, 5, 61, 82
6, 76472, Note_on_c, 5, 57, 0
6, 76608, Note_on_c, 5, 57, 72
6, 76652, Note_on_c, 5, 61, 0
6, 76672, Note_on_c, 5, 64, 0
6, 76768, Note_on_c, 5, 45, 0
6, 76792, Note_on_c, 5, 57, 0
6, 76800, Note_on_c, 5, 40, 81
6, 77124, Note_on_c, 5, 40, 0
6, 77184, Note_on_c, 5, 59, 93
6, 77184, Note_on_c, 5, 40, 95
6, 77184, Note_on_c, 5, 52, 93
6, 77280, Note_on_c, 5, 52, 0
6, 77376, Note_on_c, 5, 52, 82
6, 77508, Note_on_c, 5, 52, 0
6, 77508, Note_on_c, 5, 59, 0
6, 77520, Note_on_c, 5, 40, 0
6, 77568, Note_on_c, 5, 59, 95
6, 77568, Note_on_c, 5, 40, 94
6, 77568, Note_on_c, 5, 52, 92
6, 77636, Note_on_c, 5, 52, 0
6, 77760, Note_on_c, 5, 52, 86
6, 77764, Note_on_c, 5, 40, 0
6, 77856, Note_on_c, 5, 40, 109
6, 77884, Note_on_c, 5, 52, 0
6, 78048, Note_on_c, 5, 52, 91
6, 78076, Note_on_c, 5, 59, 0
6, 78116, Note_on_c, 5, 52, 0
6, 78144, Note_on_c, 5, 59, 95
6, 78272, Note_on_c, 5, 40, 0
6, 78336, Note_on_c, 5, 40, 114
6, 78676, Note_on_c, 5, 59, 0
6, 78684, Note_on_c, 5, 40, 0
6, 78720, Note_on_c, 5, 59, 93
6, 78720, Note_on_c, 5, 40, 87
6, 78720, Note_on_c, 5, 52, 84
6, 78788, Note_on_c, 5, 52, 0
6, 78912, Note_on_c, 5, 52, 81
6, 78940, Note_on_c, 5, 40, 0
6, 79008, Note_on_c, 5, 40, 93
6, 79020, Note_on_c, 5, 52, 0
6, 79052, Note_on_c, 5, 59, 0
6, 79104, Note_on_c, 5, 59, 87
6, 79104, Note_on_c, 5, 52, 83
6, 79180, Note_on_c, 5, 52, 0
6, 79296, Note_on_c, 5, 52, 83
6, 79348, Note_on_c, 5, 40, 0
6, 79392, Note_on_c, 5, 40, 94
6, 79416, Note_on_c, 5, 52, 0
6, 79584, Note_on_c, 5, 52, 92
6, 79624, Note_on_c, 5, 59, 0
6, 79680, Note_on_c, 5, 59, 93
6, 79712, Note_on_c, 5, 52, 0
6, 79756, Note_on_c, 5, 59, 0
6, 79844, Note_on_c, 5, 40, 0
6, 79872, Note_on_c, 5, 60, 95
6, 79872, Note_on_c, 5, 64, 94
6, 79872, Note_on_c, 5, 55, 89
6, 79872, Note_on_c, 5, 48, 97
6, 80228, Note_on_c, 5, 64, 0
6, 80240, Note_on_c, 5, 60, 0
6, 80256, Note_on_c, 5, 60, 85
6, 80256, Note_on_c, 5, 64, 89
6, 80312, Note_on_c, 5, 55, 0
6, 80388, Note_on_c, 5, 64, 0
6, 80448, Note_on_c, 5, 55, 81
6, 80484, Note_on_c, 5, 60, 0
6, 80596, Note_on_c, 5, 55, 0
6, 80620, Note_on_c, 5, 48, 0
6, 80640, Note_on_c, 5, 55, 81
6, 80640, Note_on_c, 5, 59, 86
6, 80640, Note_on_c, 5, 62, 89
6, 80640, Note_on_c, 5, 43, 93
6, 80984, Note_on_c, 5, 55, 0
6, 80988, Note_on_c, 5, 43, 0
6, 80996, Note_on_c, 5, 62, 0
6, 81000, Note_on_c, 5, 59, 0
6, 81024, Note_on_c, 5, 55, 79
6, 81024, Note_on_c, 5, 59, 81
6, 81024, Note_on_c, 5, 62, 85
6, 81024, Note_on_c, 5, 43, 93
6, 81080, Note_on_c, 5, 55, 0
6, 81216, Note_on_c, 5, 55, 79
6, 81224, Note_on_c, 5, 59, 0
6, 81228, Note_on_c, 5, 62, 0
6, 81264, Note_on_c, 5, 55, 0
6, 81356, Note_on_c, 5, 43, 0
6, 81408, Note_on_c, 5, 62, 88
6, 81408, Note_on_c, 5, 57, 82
6, 81408, Note_on_c, 5, 66, 93
6, 81408, Note_on_c, 5, 50, 92
6, 81756, Note_on_c, 5, 50, 0
6, 81760, Note_on_c, 5, 62, 0
6, 81768, Note_on_c, 5, 66, 0
6, 81792, Note_on_c, 5, 62, 90
6, 81792, Note_on_c, 5, 66, 83
6, 81792, Note_on_c, 5, 50, 90
6, 81860, Note_on_c, 5, 57, 0
6, 81984, Note_on_c, 5, 57, 62
6, 82012, Note_on_c, 5, 62, 0
6, 82032, Note_on_c, 5, 66, 0
6, 82104, Note_on_c, 5, 57, 0
6, 82152, Note_on_c, 5, 50, 0
6, 82176, Note_on_c, 5, 64, 63
6, 82176, Note_on_c, 5, 57, 70
6, 82176, Note_on_c, 5, 45, 93
6, 82176, Note_on_c, 5, 61, 57
6, 82236, Note_on_c, 5, 64, 0
6, 82240, Note_on_c, 5, 57, 0
6, 82244, Note_on_c, 5, 61, 0
6, 82368, Note_on_c, 5, 64, 57
6, 82368, Note_on_c, 5, 57, 69
6, 82444, Note_on_c, 5, 57, 0
6, 82452, Note_on_c, 5, 64, 0
6, 82528, Note_on_c, 5, 45, 0
6, 82560, Note_on_c, 5, 64, 88
6, 82560, Note_on_c, 5, 57, 81
6, 82560, Note_on_c, 5, 45, 93
6, 82560, Note_on_c, 5, 61, 82
6, 82616, Note_on_c, 5, 57, 0
6, 82752, Note_on_c, 5, 57, 72
6, 82796, Note_on_c, 5, 61, 0
6, 82816, Note_on_c, 5, 64, 0
6, 82912, Note_on_c, 5, 45, 0
6, 82936, Note_on_c, 5, 57, 0
6, 82944, Note_on_c, 5, 40, 81
6, 83268, Note_on_c, 5, 40, 0
6, 83328, Note_on_c, 5, 59, 93
6, 83328, Note_on_c, 5, 40, 95
6, 83328, Note_on_c, 5, 52, 93
6, 83424, Note_on_c, 5, 52, 0
6, 83520, Note_on_c, 5, 52, 82
6, 83652, Note_on_c, 5, 52, 0
6, 83652, Note_on_c, 5, 59, 0
6, 83664, Note_on_c, 5, 40, 0
6, 83712, Note_on_c, 5, 59, 95
6, 83712, Note_on_c, 5, 40, 94
6, 83712, Note_on_c, 5, 52, 92
6, 83780, Note_on_c, 5, 52, 0
6, 83904, Note_on_c, 5, 52, 86
6, 83908, Note_on_c, 5, 40, 0
6, 84000, Note_on_c, 5, 40, 109
6, 84028, Note_on_c, 5, 52, 0
6, 84192, Note_on_c, 5, 52, 91
6, 84220, Note_on_c, 5, 59, 0
6, 84260, Note_on_c, 5, 52, 0
6, 84288, Note_on_c, 5, 59, 95
6, 84416, Note_on_c, 5, 40, 0
6, 84480, Note_on_c, 5, 40, 114
6, 84820, Note_on_c, 5, 59, 0
6, 84828, Note_on_c, 5, 40, 0
6, 84864, Note_on_c, 5, 59, 93
6, 84864, Note_on_c, 5, 40, 87
6, 84864, Note_on_c, 5, 52, 84
6, 84932, Note_on_c, 5, 52, 0
6, 85056, Note_on_c, 5, 52, 81
6, 85084, Note_on_c, 5, 40, 0
6, 85152, Note_on_c, 5, 40, 93
6, 85164, Note_on_c, 5, 52, 0
6, 85196, Note_on_c, 5, 59, 0
6, 85248, Note_on_c, 5, 59, 87
6, 85248, Note_on_c, 5, 52, 83
6, 85324, Note_on_c, 5, 52, 0
6, 85440, Note_on_c, 5, 52, 83
6, 85492, Note_on_c, 5, 40, 0
6, 85536, Note_on_c, 5, 40, 94
6, 85560, Note_on_c, 5, 52, 0
6, 85728, Note_on_c, 5, 52, 92
6, 85768, Note_on_c, 5, 59, 0
6, 85824, Note_on_c, 5, 59, 93
6, 85856, Note_on_c, 5, 52, 0
6, 85900, Note_on_c, 5, 59, 0
6, 85988, Note_on_c, 5, 40, 0
6, 86016, Note_on_c, 5, 60, 95
6, 86016, Note_on_c, 5, 64, 94
6, 86016, Note_on_c, 5, 55, 89
6, 86016, Note_on_c, 5, 48, 97
6, 86372, Note_on_c, 5, 64, 0
6, 86384, Note_on_c, 5, 60, 0
6, 86400, Note_on_c, 5, 60, 85
6, 86400, Note_on_c, 5, 64, 89
6, 86456, Note_on_c, 5, 55, 0
6, 86532, Note_on_c, 5, 64, 0
6, 86592, Note_on_c, 5, 55, 81
6, 86628, Note_on_c, 5, 60, 0
6, 86740, Note_on_c, 5, 55, 0
6, 86764, Note_on_c, 5, 48, 0
6, 86784, Note_on_c, 5, 55, 81
6, 86784, Note_on_c, 5, 59, 86
6, 86784, Note_on_c, 5, 62, 89
6, 86784, Note_on_c, 5, 43, 93
6, 87128, Note_on_c, 5, 55, 0
6, 87132, Note_on_c, 5, 43, 0
6, 87140, Note_on_c, 5, 62, 0
6, 87144, Note_on_c, 5, 59, 0
6, 87168, Note_on_c, 5, 55, 79
6, 87168, Note_on_c, 5, 59, 81
6, 87168, Note_on_c, 5, 62, 85
6, 87168, Note_on_c, 5, 43, 93
6, 87224, Note_on_c, 5, 55, 0
6, 87360, Note_on_c, 5, 55, 79
6, 87368, Note_on_c, 5, 59, 0
6, 87372, Note_on_c, 5, 62, 0
6, 87408, Note_on_c, 5, 55, 0
6, 87500, Note_on_c, 5, 43, 0
6, 87552, Note_on_c, 5, 62, 88
6, 87552, Note_on_c, 5, 57, 82
6, 87552, Note_on_c, 5, 66, 93
6, 87552, Note_on_c, 5, 50, 92
6, 87900, Note_on_c, 5, 50, 0
6, 87904, Note_on_c, 5, 62, 0
6, 87912, Note_on_c, 5, 66, 0
6, 87936, Note_on_c, 5, 62, 90
6, 87936, Note_on_c, 5, 66, 83
6, 87936, Note_on_c, 5, 50, 90
6, 88004, Note_on_c, 5, 57, 0
6, 88128, Note_on_c, 5, 57, 62
6, 88156, Note_on_c, 5, 62, 0
6, 88176, Note_on_c, 5, 66, 0
6, 88248, Note_on_c, 5, 57, 0
6, 88296, Note_on_c, 5, 50, 0
6, 88320, Note_on_c, 5, 64, 63
6, 88320, Note_on_c, 5, 57, 70
6, 88320, Note_on_c, 5, 45, 93
6, 88320, Note_on_c, 5, 61, 57
6, 88380, Note_on_c, 5, 64, 0
6, 88384, Note_on_c, 5, 57, 0
6, 88388, Note_on_c, 5, 61, 0
6, 88512, Note_on_c, 5, 64, 57
6, 88512, Note_on_c, 5, 57, 69
6, 88588, Note_on_c, 5, 57, 0
6, 88596, Note_on_c, 5, 64, 0
6, 88672, Note_on_c, 5, 45, 0
6, 88704, Note_on_c, 5, 64, 88
6, 88704, Note_on_c, 5, 57, 81
6, 88704, Note_on_c, 5, 45, 93
6, 88704, Note_on_c, 5, 61, 82
6, 88760, Note_on_c, 5, 57, 0
6, 88896, Note_on_c, 5, 57, 72
6, 88940, Note_on_c, 5, 61, 0
6, 88960, Note_on_c, 5, 64, 0
6, 89056, Note_on_c, 5, 45, 0
6, 89080, Note_on_c, 5, 57, 0
6, 89088, Note_on_c, 5, 40, 81
6, 89412, Note_on_c, 5, 40, 0
6, 89472, Note_on_c, 5, 59, 93
6, 89472, Note_on_c, 5, 40, 95
6, 89472, Note_on_c, 5, 52, 93
6, 89568, Note_on_c, 5, 52, 0
6, 89664, Note_on_c, 5, 52, 82
6, 89796, Note_on_c, 5, 52, 0
6, 89796, Note_on_c, 5, 59, 0
6, 89808, Note_on_c, 5, 40, 0
6, 89856, Note_on_c, 5, 59, 95
6, 89856, Note_on_c, 5, 40, 94
6, 89856, Note_on_c, 5, 52, 92
6, 89924, Note_on_c, 5, 52, 0
6, 90048, Note_on_c, 5, 52, 86
6, 90052, Note_on_c, 5, 40, 0
6, 90144, Note_on_c, 5, 40, 109
6, 90172, Note_on_c, 5, 52, 0
6, 90336, Note_on_c, 5, 52, 91
6, 90364, Note_on_c, 5, 59, 0
6, 90404, Note_on_c, 5, 52, 0
6, 90432, Note_on_c, 5, 59, 95
6, 90560, Note_on_c, 5, 40, 0
6, 90624, Note_on_c, 5, 40, 114
6, 90964, Note_on_c, 5, 59, 0
6, 90972, Note_on_c, 5, 40, 0
6, 91008, Note_on_c, 5, 59, 93
6, 91008, Note_on_c, 5, 40, 87
6, 91008, Note_on_c, 5, 52, 84
6, 91076, Note_on_c, 5, 52, 0
6, 91200, Note_on_c, 5, 52, 81
6, 91228, Note_on_c, 5, 40, 0
6, 91296, Note_on_c, 5, 40, 93
6, 91308, Note_on_c, 5, 52, 0
6, 91340, Note_on_c, 5, 59, 0
6, 91392, Note_on_c, 5, 59, 87
6, 91392, Note_on_c, 5, 52, 83
6, 91468, Note_on_c, 5, 52, 0
6, 91584, Note_on_c, 5, 52, 83
6, 91636, Note_on_c, 5, 40, 0
6, 91680, Note_on_c, 5, 40, 94
6, 91704, Note_on_c, 5, 52, 0
6, 91872, Note_on_c, 5, 52, 92
6, 91912, Note_on_c, 5, 59, 0
6, 91968, Note_on_c, 5, 59, 93
6, 92000, Note_on_c, 5, 52, 0
6, 92044, Note_on_c, 5, 59, 0
6, 92132, Note_on_c, 5, 40, 0
6, 92160, Note_on_c, 5, 48, 122
6, 92160, Note_on_c, 5, 60, 119
6, 92352, Note_on_c, 5, 40, 110
6, 92352, Note_on_c, 5, 52, 107
6, 92364, Note_on_c, 5, 60, 0
6, 92380, Note_on_c, 5, 48, 0
6, 92544, Note_on_c, 5, 53, 107
6, 92544, Note_on_c, 5, 41, 127
6, 92548, Note_on_c, 5, 52, 0
6, 92564, Note_on_c, 5, 40, 0
6, 92736, Note_on_c, 5, 41, 0
6, 92736, Note_on_c, 5, 54, 107
6, 92736, Note_on_c, 5, 42, 110
6, 92760, Note_on_c, 5, 53, 0
6, 92924, Note_on_c, 5, 42, 0
6, 92928, Note_on_c, 5, 43, 127
6, 92928, Note_on_c, 5, 55, 109
6, 92956, Note_on_c, 5, 54, 0
6, 93120, Note_on_c, 5, 59, 110
6, 93120, Note_on_c, 5, 47, 107
6, 93152, Note_on_c, 5, 43, 0
6, 93164, Note_on_c, 5, 55, 0
6, 93312, Note_on_c, 5, 48, 119
6, 93312, Note_on_c, 5, 60, 110
6, 93340, Note_on_c, 5, 59, 0
6, 93344, Note_on_c, 5, 47, 0
6, 93484, Note_on_c, 5, 60, 0
6, 93496, Note_on_c, 5, 48, 0
6, 93504, Note_on_c, 5, 49, 110
6, 93504, Note_on_c, 5, 61, 110
6, 93660, Note_on_c, 5, 49, 0
6, 93672, Note_on_c, 5, 61, 0
6, 93696, Note_on_c, 5, 50, 104
6, 93696, Note_on_c, 5, 62, 110
6, 93888, Note_on_c, 5, 54, 114
6, 93888, Note_on_c, 5, 42, 114
6, 93896, Note_on_c, 5, 50, 0
6, 94048, Note_on_c, 5, 62, 0
6, 94072, Note_on_c, 5, 42, 0
6, 94080, Note_on_c, 5, 55, 122
6, 94080, Note_on_c, 5, 43, 127
6, 94112, Note_on_c, 5, 54, 0
6, 94272, Note_on_c, 5, 56, 119
6, 94272, Note_on_c, 5, 44, 119
6, 94276, Note_on_c, 5, 43, 0
6, 94280, Note_on_c, 5, 55, 0
6, 94464, Note_on_c, 5, 57, 110
6, 94464, Note_on_c, 5, 45, 110
6, 94476, Note_on_c, 5, 44, 0
6, 94492, Note_on_c, 5, 56, 0
6, 94656, Note_on_c, 5, 49, 122
6, 94656, Note_on_c, 5, 61, 119
6, 94668, Note_on_c, 5, 45, 0
6, 94792, Note_on_c, 5, 57, 0
6, 94848, Note_on_c, 5, 49, 0
6, 94848, Note_on_c, 5, 61, 0
6, 94848, Note_on_c, 5, 62, 98
6, 94848, Note_on_c, 5, 50, 110
6, 95032, Note_on_c, 5, 62, 0
6, 95040, Note_on_c, 5, 51, 122
6, 95040, Note_on_c, 5, 63, 110
6, 95080, Note_on_c, 5, 50, 0
6, 95176, Note_on_c, 5, 51, 0
6, 95184, Note_on_c, 5, 63, 0
6, 95232, Note_on_c, 5, 64, 102
6, 95232, Note_on_c, 5, 52, 110
6, 95424, Note_on_c, 5, 40, 102
6, 95652, Note_on_c, 5, 52, 0
6, 95700, Note_on_c, 5, 64, 0
6, 95808, Note_on_c, 5, 52, 85
6, 95852, Note_on_c, 5, 52, 0
6, 95948, Note_on_c, 5, 40, 0
6, 95984, Control_c, 5, 64, 127
6, 96000, Note_on_c, 5, 59, 102
6, 96000, Note_on_c, 5, 40, 98
6, 96000, Note_on_c, 5, 52, 95
6, 96180, Note_on_c, 5, 52, 0
6, 96192, Note_on_c, 5, 52, 88
6, 96204, Note_on_c, 5, 40, 0
6, 96260, Note_on_c, 5, 59, 0
6, 96288, Note_on_c, 5, 76, 99
6, 96288, Note_on_c, 5, 74, 102
6, 96288, Note_on_c, 5, 71, 93
6, 96288, Note_on_c, 5, 59, 95
6, 96288, Note_on_c, 5, 40, 109
6, 96304, Note_on_c, 5, 52, 0
6, 96336, Note_on_c, 5, 71, 0
6, 96336, Note_on_c, 5, 76, 0
6, 96336, Note_on_c, 5, 74, 0
6, 96476, Note_on_c, 5, 59, 0
6, 96480, Note_on_c, 5, 71, 95
6, 96480, Note_on_c, 5, 76, 104
6, 96480, Note_on_c, 5, 74, 102
6, 96480, Note_on_c, 5, 52, 95
6, 96496, Note_on_c, 5, 40, 0
6, 96528, Note_on_c, 5, 74, 0
6, 96536, Note_on_c, 5, 76, 0
6, 96548, Note_on_c, 5, 71, 0
6, 96576, Note_on_c, 5, 59, 88
6, 96576, Note_on_c, 5, 62, 99
6, 96576, Note_on_c, 5, 40, 88
6, 96620, Note_on_c, 5, 52, 0
6, 96672, Note_on_c, 5, 71, 98
6, 96672, Note_on_c, 5, 76, 114
6, 96672, Note_on_c, 5, 74, 114
6, 96716, Note_on_c, 5, 62, 0
6, 96736, Note_on_c, 5, 59, 0
6, 96748, Note_on_c, 5, 40, 0
6, 96768, Note_on_c, 5, 59, 94
6, 96768, Note_on_c, 5, 40, 97
6, 96768, Note_on_c, 5, 52, 92
6, 96880, Note_on_c, 5, 52, 0
6, 96960, Note_on_c, 5, 52, 81
6, 96996, Note_on_c, 5, 40, 0
6, 97056, Note_on_c, 5, 40, 99
6, 97084, Note_on_c, 5, 59, 0
6, 97092, Note_on_c, 5, 52, 0
6, 97100, Note_on_c, 5, 74, 0
6, 97104, Note_on_c, 5, 76, 0
6, 97112, Note_on_c, 5, 71, 0
6, 97152, Note_on_c, 5, 71, 93
6, 97152, Note_on_c, 5, 76, 99
6, 97152, Note_on_c, 5, 74, 98
6, 97152, Note_on_c, 5, 59, 104
6, 97152, Note_on_c, 5, 52, 98
6, 97264, Note_on_c, 5, 52, 0
6, 97320, Note_on_c, 5, 71, 0
6, 97344, Note_on_c, 5, 71, 88
6, 97344, Note_on_c, 5, 52, 81
6, 97380, Note_on_c, 5, 40, 0
6, 97400, Note_on_c, 5, 74, 0
6, 97408, Note_on_c, 5, 76, 0
6, 97436, Note_on_c, 5, 71, 0
6, 97440, Note_on_c, 5, 74, 99
6, 97440, Note_on_c, 5, 76, 100
6, 97536, Note_on_c, 5, 40, 122
6, 97560, Note_on_c, 5, 52, 0
6, 97572, Note_on_c, 5, 59, 0
6, 97628, Note_on_c, 5, 76, 0
6, 97632, Note_on_c, 5, 71, 94
6, 97632, Note_on_c, 5, 59, 99
6, 97632, Note_on_c, 5, 52, 100
6, 97656, Note_on_c, 5, 74, 0
6, 97688, Note_on_c, 5, 71, 0
6, 97712, Note_on_c, 5, 40, 0
6, 97728, Note_on_c, 5, 76, 100
6, 97728, Note_on_c, 5, 74, 100
6, 97808, Note_on_c, 5, 52, 0
6, 97816, Note_on_c, 5, 59, 0
6, 97824, Note_on_c, 5, 71, 93
6, 97824, Note_on_c, 5, 40, 122
6, 97828, Note_on_c, 5, 76, 0
6, 97832, Note_on_c, 5, 74, 0
6, 97884, Note_on_c, 5, 71, 0
6, 97920, Note_on_c, 5, 74, 100
6, 97920, Note_on_c, 5, 76, 102
6, 97920, Note_on_c, 5, 71, 95
6, 98044, Note_on_c, 5, 40, 0
6, 98116, Note_on_c, 5, 76, 0
6, 98124, Note_on_c, 5, 74, 0
6, 98132, Note_on_c, 5, 71, 0
6, 98288, Control_c, 5, 64, 0
6, 98304, Note_on_c, 5, 48, 122
6, 98304, Note_on_c, 5, 60, 119
6, 98496, Note_on_c, 5, 40, 110
6, 98496, Note_on_c, 5, 52, 107
6, 98508, Note_on_c, 5, 60, 0
6, 98524, Note_on_c, 5, 48, 0
6, 98688, Note_on_c, 5, 53, 107
6, 98688, Note_on_c, 5, 41, 127
6, 98692, Note_on_c, 5, 52, 0
6, 98708, Note_on_c, 5, 40, 0
6, 98880, Note_on_c, 5, 41, 0
6, 98880, Note_on_c, 5, 54, 107
6, 98880, Note_on_c, 5, 42, 110
6, 98904, Note_on_c, 5, 53, 0
6, 99068, Note_on_c, 5, 42, 0
6, 99072, Note_on_c, 5, 43, 127
6, 99072, Note_on_c, 5, 55, 109
6, 99100, Note_on_c, 5, 54, 0
6, 99264, Note_on_c, 5, 59, 110
6, 99264, Note_on_c, 5, 47, 107
6, 99296, Note_on_c, 5, 43, 0
6, 99308, Note_on_c, 5, 55, 0
6, 99456, Note_on_c, 5, 48, 119
6, 99456, Note_on_c, 5, 60, 110
6, 99484, Note_on_c, 5, 59, 0
6, 99488, Note_on_c, 5, 47, 0
6, 99628, Note_on_c, 5, 60, 0
6, 99640, Note_on_c, 5, 48, 0
6, 99648, Note_on_c, 5, 49, 110
6, 99648, Note_on_c, 5, 61, 110
6, 99804, Note_on_c, 5, 49, 0
6, 99816, Note_on_c, 5, 61, 0
6, 99840, Note_on_c, 5, 50, 104
6, 99840, Note_on_c, 5, 62, 110
6, 100032, Note_on_c, 5, 54, 114
6, 100032, Note_on_c, 5, 42, 114
6, 100040, Note_on_c, 5, 50, 0
6, 100192, Note_on_c, 5, 62, 0
6, 100216, Note_on_c, 5, 42, 0
6, 100224, Note_on_c, 5, 55, 122
6, 100224, Note_on_c, 5, 43, 127
6, 100256, Note_on_c, 5, 54, 0
6, 100416, Note_on_c, 5, 56, 119
6, 100416, Note_on_c, 5, 44, 119
6, 100420, Note_on_c, 5, 43, 0
6, 100424, Note_on_c, 5, 55, 0
6, 100608, Note_on_c, 5, 57, 110
6, 100608, Note_on_c, 5, 45, 110
6, 100620, Note_on_c, 5, 44, 0
6, 100636, Note_on_c, 5, 56, 0
6, 100800, Note_on_c, 5, 49, 122
6, 100800, Note_on_c, 5, 61, 119
6, 100812, Note_on_c, 5, 45, 0
6, 100936, Note_on_c, 5, 57, 0
6, 100992, Note_on_c, 5, 49, 0
6, 100992, Note_on_c, 5, 61, 0
6, 100992, Note_on_c, 5, 62, 98
6, 100992, Note_on_c, 5, 50, 110
6, 101176, Note_on_c, 5, 62, 0
6, 101184, Note_on_c, 5, 51, 122
6, 101184, Note_on_c, 5, 63, 110
6, 101224, Note_on_c, 5, 50, 0
6, 101320, Note_on_c, 5, 51, 0
6, 101328, Note_on_c, 5, 63, 0
6, 101376, Note_on_c, 5, 64, 102
6, 101376, Note_on_c, 5, 52, 110
6, 101568, Note_on_c, 5, 40, 102
6, 101796, Note_on_c, 5, 52, 0
6, 101844, Note_on_c, 5, 64, 0
6, 101952, Note_on_c, 5, 52, 85
6, 101996, Note_on_c, 5, 52, 0
6, 102092, Note_on_c, 5, 40, 0
6, 102128, Control_c, 5, 64, 127
6, 102144, Note_on_c, 5, 59, 102
6, 102144, Note_on_c, 5, 40, 98
6, 102144, Note_on_c, 5, 52, 95
6, 102324, Note_on_c, 5, 52, 0
6, 102336, Note_on_c, 5, 52, 88
6, 102348, Note_on_c, 5, 40, 0
6, 102404, Note_on_c, 5, 59, 0
6, 102432, Note_on_c, 5, 76, 99
6, 102432, Note_on_c, 5, 74, 102
6, 102432, Note_on_c, 5, 71, 93
6, 102432, Note_on_c, 5, 59, 95
6, 102432, Note_on_c, 5, 40, 109
6, 102448, Note_on_c, 5, 52, 0
6, 102480, Note_on_c, 5, 71, 0
6, 102480, Note_on_c, 5, 76, 0
6, 102480, Note_on_c, 5, 74, 0
6, 102620, Note_on_c, 5, 59, 0
6, 102624, Note_on_c, 5, 71, 95
6, 102624, Note_on_c, 5, 76, 104
6, 102624, Note_on_c, 5, 74, 102
6, 102624, Note_on_c, 5, 52, 95
6, 102640, Note_on_c, 5, 40, 0
6, 102672, Note_on_c, 5, 74, 0
6, 102680, Note_on_c, 5, 76, 0
6, 102692, Note_on_c, 5, 71, 0
6, 102720, Note_on_c, 5, 59, 88
6, 102720, Note_on_c, 5, 62, 99
6, 102720, Note_on_c, 5, 40, 88
6, 102764, Note_on_c, 5, 52, 0
6, 102816, Note_on_c, 5, 71, 98
6, 102816, Note_on_c, 5, 76, 114
6, 102816, Note_on_c, 5, 74, 114
6, 102860, Note_on_c, 5, 62, 0
6, 102880, Note_on_c, 5, 59, 0
6, 102892, Note_on_c, 5, 40, 0
6, 102912, Note_on_c, 5, 59, 94
6, 102912, Note_on_c, 5, 40, 97
6, 102912, Note_on_c, 5, 52, 92
6, 103024, Note_on_c, 5, 52, 0
6, 103104, Note_on_c, 5, 52, 81
6, 103140, Note_on_c, 5, 40, 0
6, 103200, Note_on_c, 5, 40, 99
6, 103228, Note_on_c, 5, 59, 0
6, 103236, Note_on_c, 5, 52, 0
6, 103244, Note_on_c, 5, 74, 0
6, 103248, Note_on_c, 5, 76, 0
6, 103256, Note_on_c, 5, 71, 0
6, 103296, Note_on_c, 5, 71, 93
6, 103296, Note_on_c, 5, 76, 99
6, 103296, Note_on_c, 5, 74, 98
6, 103296, Note_on_c, 5, 59, 104
6, 103296, Note_on_c, 5, 52, 98
6, 103408, Note_on_c, 5, 52, 0
6, 103464, Note_on_c, 5, 71, 0
6, 103488, Note_on_c, 5, 71, 88
6, 103488, Note_on_c, 5, 52, 81
6, 103524, Note_on_c, 5, 40, 0
6, 103544, Note_on_c, 5, 74, 0
6, 103552, Note_on_c, 5, 76, 0
6, 103580, Note_on_c, 5, 71, 0
6, 103584, Note_on_c, 5, 74, 99
6, 103584, Note_on_c, 5, 76, 100
6, 103680, Note_on_c, 5, 40, 122
6, 103704, Note_on_c, 5, 52, 0
6, 103716, Note_on_c, 5, 59, 0
6, 103772, Note_on_c, 5, 76, 0
6, 103776, Note_on_c, 5, 71, 94
6, 103776, Note_on_c, 5, 59, 99
6, 103776, Note_on_c, 5, 52, 100
6, 103800, Note_on_c, 5, 74, 0
6, 103832, Note_on_c, 5, 71, 0
6, 103856, Note_on_c, 5, 40, 0
6, 103872, Note_on_c, 5, 76, 100
6, 103872, Note_on_c, 5, 74, 100
6, 103952, Note_on_c, 5, 52, 0
6, 103960, Note_on_c, 5, 59, 0
6, 103968, Note_on_c, 5, 71, 93
6, 103968, Note_on_c, 5, 40, 122
6, 103972, Note_on_c, 5, 76, 0
6, 103976, Note_on_c, 5, 74, 0
6, 104028, Note_on_c, 5, 71, 0
6, 104064, Note_on_c, 5, 74, 100
6, 104064, Note_on_c, 5, 76, 102
6, 104064, Note_on_c, 5, 71, 95
6, 104188, Note_on_c, 5, 40, 0
6, 104260, Note_on_c, 5, 76, 0
6, 104268, Note_on_c, 5, 74, 0
6, 104276, Note_on_c, 5, 71, 0
6, 104432, Control_c, 5, 64, 0
6, 104448, Note_on_c, 5, 48, 122
6, 104448, Note_on_c, 5, 60, 119
6, 104640, Note_on_c, 5, 40, 110
6, 104640, Note_on_c, 5, 52, 107
6, 104652, Note_on_c, 5, 60, 0
6, 104668, Note_on_c, 5, 48, 0
6, 104832, Note_on_c, 5, 53, 107
6, 104832, Note_on_c, 5, 41, 127
6, 104836, Note_on_c, 5, 52, 0
6, 104852, Note_on_c, 5, 40, 0
6, 105024, Note_on_c, 5, 41, 0
6, 105024, Note_on_c, 5, 54, 107
6, 105024, Note_on_c, 5, 42, 110
6, 105048, Note_on_c, 5, 53, 0
6, 105212, Note_on_c, 5, 42, 0
6, 105216, Note_on_c, 5, 43, 127
6, 105216, Note_on_c, 5, 55, 109
6, 105244, Note_on_c, 5, 54, 0
6, 105408, Note_on_c, 5, 59, 110
6, 105408, Note_on_c, 5, 47, 107
6, 105440, Note_on_c, 5, 43, 0
6, 105452, Note_on_c, 5, 55, 0
6, 105600, Note_on_c, 5, 48, 119
6, 105600, Note_on_c, 5, 60, 110
6, 105628, Note_on_c, 5, 59, 0
6, 105632, Note_on_c, 5, 47, 0
6, 105772, Note_on_c, 5, 60, 0
6, 105784, Note_on_c, 5, 48, 0
6, 105792, Note_on_c, 5, 49, 110
6, 105792, Note_on_c, 5, 61, 110
6, 105948, Note_on_c, 5, 49, 0
6, 105960, Note_on_c, 5, 61, 0
6, 105984, Note_on_c, 5, 50, 104
6, 105984, Note_on_c, 5, 62, 110
6, 106176, Note_on_c, 5, 54, 114
6, 106176, Note_on_c, 5, 42, 114
6, 106184, Note_on_c, 5, 50, 0
6, 106336, Note_on_c, 5, 62, 0
6, 106360, Note_on_c, 5, 42, 0
6, 106368, Note_on_c, 5, 55, 122
6, 106368, Note_on_c, 5, 43, 127
6, 106400, Note_on_c, 5, 54, 0
6, 106560, Note_on_c, 5, 56, 119
6, 106560, Note_on_c, 5, 44, 119
6, 106564, Note_on_c, 5, 43, 0
6, 106568, Note_on_c, 5, 55, 0
6, 106752, Note_on_c, 5, 57, 110
6, 106752, Note_on_c, 5, 45, 110
6, 106764, Note_on_c, 5, 44, 0
6, 106780, Note_on_c, 5, 56, 0
6, 106944, Note_on_c, 5, 49, 122
6, 106944, Note_on_c, 5, 61, 119
6, 106956, Note_on_c, 5, 45, 0
6, 107080, Note_on_c, 5, 57, 0
6, 107136, Note_on_c, 5, 49, 0
6, 107136, Note_on_c, 5, 61, 0
6, 107136, Note_on_c, 5, 62, 98
6, 107136, Note_on_c, 5, 50, 110
6, 107320, Note_on_c, 5, 62, 0
6, 107328, Note_on_c, 5, 51, 122
6, 107328, Note_on_c, 5, 63, 110
6, 107368, Note_on_c, 5, 50, 0
6, 107464, Note_on_c, 5, 51, 0
6, 107472, Note_on_c, 5, 63, 0
6, 107520, Note_on_c, 5, 64, 102
6, 107520, Note_on_c, 5, 52, 110
6, 107712, Note_on_c, 5, 40, 102
6, 107940, Note_on_c, 5, 52, 0
6, 107988, Note_on_c, 5, 64, 0
6, 108096, Note_on_c, 5, 52, 85
6, 108140, Note_on_c, 5, 52, 0
6, 108236, Note_on_c, 5, 40, 0
6, 108272, Control_c, 5, 64, 127
6, 108288, Note_on_c, 5, 59, 102
6, 108288, Note_on_c, 5, 40, 98
6, 108288, Note_on_c, 5, 52, 95
6, 108468, Note_on_c, 5, 52, 0
6, 108480, Note_on_c, 5, 52, 88
6, 108492, Note_on_c, 5, 40, 0
6, 108548, Note_on_c, 5, 59, 0
6, 108576, Note_on_c, 5, 76, 99
6, 108576, Note_on_c, 5, 74, 102
6, 108576, Note_on_c, 5, 71, 93
6, 108576, Note_on_c, 5, 59, 95
6, 108576, Note_on_c, 5, 40, 109
6, 108592, Note_on_c, 5, 52, 0
6, 108624, Note_on_c, 5, 71, 0
6, 108624, Note_on_c, 5, 76, 0
6, 108624, Note_on_c, 5, 74, 0
6, 108764, Note_on_c, 5, 59, 0
6, 108768, Note_on_c, 5, 71, 95
6, 108768, Note_on_c, 5, 76, 104
6, 108768, Note_on_c, 5, 74, 102
6, 108768, Note_on_c, 5, 52, 95
6, 108784, Note_on_c, 5, 40, 0
6, 108816, Note_on_c, 5, 74, 0
6, 108824, Note_on_c, 5, 76, 0
6, 108836, Note_on_c, 5, 71, 0
6, 108864, Note_on_c, 5, 59, 88
6, 108864, Note_on_c, 5, 62, 99
6, 108864, Note_on_c, 5, 40, 88
6, 108908, Note_on_c, 5, 52, 0
6, 108960, Note_on_c, 5, 71, 98
6, 108960, Note_on_c, 5, 76, 114
6, 108960, Note_on_c, 5, 74, 114
6, 109004, Note_on_c, 5, 62, 0
6, 109024, Note_on_c, 5, 59, 0
6, 109036, Note_on_c, 5, 40, 0
6, 109056, Note_on_c, 5, 59, 94
6, 109056, Note_on_c, 5, 40, 97
6, 109056, Note_on_c, 5, 52, 92
6, 109168, Note_on_c, 5, 52, 0
6, 109248, Note_on_c, 5, 52, 81
6, 109284, Note_on_c, 5, 40, 0
6, 109344, Note_on_c, 5, 40, 99
6, 109372, Note_on_c, 5, 59, 0
6, 109380, Note_on_c, 5, 52, 0
6, 109388, Note_on_c, 5, 74, 0
6, 109392, Note_on_c, 5, 76, 0
6, 109400, Note_on_c, 5, 71, 0
6, 109440, Note_on_c, 5, 71, 93
6, 109440, Note_on_c, 5, 76, 99
6, 109440, Note_on_c, 5, 74, 98
6, 109440, Note_on_c, 5, 59, 104
6, 109440, Note_on_c, 5, 52, 98
6, 109552, Note_on_c, 5, 52, 0
6, 109608, Note_on_c, 5, 71, 0
6, 109632, Note_on_c, 5, 71, 88
6, 109632, Note_on_c, 5, 52, 81
6, 109668, Note_on_c, 5, 40, 0
6, 109688, Note_on_c, 5, 74, 0
6, 109696, Note_on_c, 5, 76, 0
6, 109724, Note_on_c, 5, 71, 0
6, 109728, Note_on_c, 5, 74, 99
6, 109728, Note_on_c, 5, 76, 100
6, 109824, Note_on_c, 5, 40, 122
6, 109848, Note_on_c, 5, 52, 0
6, 109860, Note_on_c, 5, 59, 0
6, 109916, Note_on_c, 5, 76, 0
6, 109920, Note_on_c, 5, 71, 94
6, 109920, Note_on_c, 5, 59, 99
6, 109920, Note_on_c, 5, 52, 100
6, 109944, Note_on_c, 5, 74, 0
6, 109976, Note_on_c, 5, 71, 0
6, 110000, Note_on_c, 5, 40, 0
6, 110016, Note_on_c, 5, 76, 100
6, 110016, Note_on_c, 5, 74, 100
6, 110096, Note_on_c, 5, 52, 0
6, 110104, Note_on_c, 5, 59, 0
6, 110112, Note_on_c, 5, 71, 93
6, 110112, Note_on_c, 5, 40, 122
6, 110116, Note_on_c, 5, 76, 0
6, 110120, Note_on_c, 5, 74, 0
6, 110172, Note_on_c, 5, 71, 0
6, 110208, Note_on_c, 5, 74, 100
6, 110208, Note_on_c, 5, 76, 102
6, 110208, Note_on_c, 5, 71, 95
6, 110332, Note_on_c, 5, 40, 0
6, 110404, Note_on_c, 5, 76, 0
6, 110412, Note_on_c, 5, 74, 0
6, 110420, Note_on_c, 5, 71, 0
6, 110576, Control_c, 5, 64, 0
6, 110592, Note_on_c, 5, 48, 122
6, 110592, Note_on_c, 5, 60, 119
6, 110784, Note_on_c, 5, 40, 110
6, 110784, Note_on_c, 5, 52, 107
6, 110796, Note_on_c, 5, 60, 0
6, 110812, Note_on_c, 5, 48, 0
6, 110976, Note_on_c, 5, 53, 107
6, 110976, Note_on_c, 5, 41, 127
6, 110980, Note_on_c, 5, 52, 0
6, 110996, Note_on_c, 5, 40, 0
6, 111168, Note_on_c, 5, 41, 0
6, 111168, Note_on_c, 5, 54, 107
6, 111168, Note_on_c, 5, 42, 110
6, 111192, Note_on_c, 5, 53, 0
6, 111356, Note_on_c, 5, 42, 0
6, 111360, Note_on_c, 5, 43, 127
6, 111360, Note_on_c, 5, 55, 109
6, 111388, Note_on_c, 5, 54, 0
6, 111552, Note_on_c, 5, 59, 110
6, 111552, Note_on_c, 5, 47, 107
6, 111584, Note_on_c, 5, 43, 0
6, 111596, Note_on_c, 5, 55, 0
6, 111744, Note_on_c, 5, 48, 119
6, 111744, Note_on_c, 5, 60, 110
6, 111772, Note_on_c, 5, 59, 0
6, 111776, Note_on_c, 5, 47, 0
6, 111916, Note_on_c, 5, 60, 0
6, 111928, Note_on_c, 5, 48, 0
6, 111936, Note_on_c, 5, 49, 110
6, 111936, Note_on_c, 5, 61, 110
6, 112092, Note_on_c, 5, 49, 0
6, 112104, Note_on_c, 5, 61, 0
6, 112128, Note_on_c, 5, 50, 104
6, 112128, Note_on_c, 5, 62, 110
6, 112320, Note_on_c, 5, 54, 114
6, 112320, Note_on_c, 5, 42, 114
6, 112328, Note_on_c, 5, 50, 0
6, 112480, Note_on_c, 5, 62, 0
6, 112504, Note_on_c, 5, 42, 0
6, 112512, Note_on_c, 5, 55, 122
6, 112512, Note_on_c, 5, 43, 127
6, 112544, Note_on_c, 5, 54, 0
6, 112704, Note_on_c, 5, 56, 119
6, 112704, Note_on_c, 5, 44, 119
6, 112708, Note_on_c, 5, 43, 0
6, 112712, Note_on_c, 5, 55, 0
6, 112896, Note_on_c, 5, 57, 110
6, 112896, Note_on_c, 5, 45, 110
6, 112908, Note_on_c, 5, 44, 0
6, 112924, Note_on_c, 5, 56, 0
6, 113088, Note_on_c, 5, 49, 122
6, 113088, Note_on_c, 5, 61, 119
6, 113100, Note_on_c, 5, 45, 0
6, 113224, Note_on_c, 5, 57, 0
6, 113280, Note_on_c, 5, 49, 0
6, 113280, Note_on_c, 5, 61, 0
6, 113280, Note_on_c, 5, 62, 98
6, 113280, Note_on_c, 5, 50, 110
6, 113464, Note_on_c, 5, 62, 0
6, 113472, Note_on_c, 5, 51, 122
6, 113472, Note_on_c, 5, 63, 110
6, 113512, Note_on_c, 5, 50, 0
6, 113608, Note_on_c, 5, 51, 0
6, 113616, Note_on_c, 5, 63, 0
6, 113664, Note_on_c, 5, 40, 110
6, 113668, Note_on_c, 5, 47, 110
6, 113672, Note_on_c, 5, 52, 112
6, 115248, Note_on_c, 5, 40, 0
6, 115252, Note_on_c, 5, 47, 0
6, 115256, Note_on_c, 5, 52, 0
6, 115256, End_track
7, 0, Start_track
7, 0, MIDI_port, 0
7, 0, Title_t, "O\\D GTR"
7, 0, Control_c, 6, 0, 0
7, 0, Control_c, 6, 32, 0
7, 0, Program_c, 6, 29
7, 0, Control_c, 6, 7, 86
7, 0, Control_c, 6, 10, 64
7, 0, Control_c, 6, 91, 75
7, 0, Control_c, 6, 93, 20
7, 516, Control_c, 6, 11, 127
7, 6532, Note_on_c, 6, 64, 101
7, 6536, Note_on_c, 6, 67, 101
7, 6540, Note_on_c, 6, 72, 102
7, 6640, Note_on_c, 6, 72, 0
7, 6644, Note_on_c, 6, 64, 0
7, 6648, Note_on_c, 6, 67, 0
7, 7272, Note_on_c, 6, 59, 73
7, 7284, Note_on_c, 6, 62, 101
7, 7292, Note_on_c, 6, 71, 101
7, 7292, Note_on_c, 6, 67, 95
7, 7396, Note_on_c, 6, 67, 0
7, 7400, Note_on_c, 6, 71, 0
7, 7400, Note_on_c, 6, 62, 0
7, 7404, Note_on_c, 6, 59, 0
7, 8048, Note_on_c, 6, 62, 80
7, 8056, Note_on_c, 6, 66, 99
7, 8060, Note_on_c, 6, 74, 100
7, 8064, Note_on_c, 6, 69, 96
7, 8160, Note_on_c, 6, 69, 0
7, 8164, Note_on_c, 6, 74, 0
7, 8168, Note_on_c, 6, 66, 0
7, 8168, Note_on_c, 6, 62, 0
7, 8832, Note_on_c, 6, 61, 87
7, 8836, Note_on_c, 6, 64, 97
7, 8844, Note_on_c, 6, 73, 97
7, 8848, Note_on_c, 6, 69, 95
7, 8928, Note_on_c, 6, 69, 0
7, 8932, Note_on_c, 6, 73, 0
7, 8936, Note_on_c, 6, 64, 0
7, 8940, Note_on_c, 6, 61, 0
7, 9600, Note_on_c, 6, 52, 67
7, 9612, Note_on_c, 6, 59, 107
7, 9616, Note_on_c, 6, 64, 103
7, 9708, Note_on_c, 6, 52, 0
7, 9728, Note_on_c, 6, 64, 0
7, 9732, Note_on_c, 6, 59, 0
7, 10364, Note_on_c, 6, 52, 97
7, 10372, Note_on_c, 6, 59, 108
7, 10376, Note_on_c, 6, 64, 100
7, 10472, Note_on_c, 6, 52, 0
7, 10488, Note_on_c, 6, 59, 0
7, 10492, Note_on_c, 6, 64, 0
7, 11140, Note_on_c, 6, 52, 95
7, 11144, Note_on_c, 6, 59, 105
7, 11148, Note_on_c, 6, 64, 101
7, 11248, Note_on_c, 6, 52, 0
7, 11252, Note_on_c, 6, 64, 0
7, 11252, Note_on_c, 6, 59, 0
7, 11900, Note_on_c, 6, 52, 99
7, 11904, Note_on_c, 6, 59, 109
7, 11908, Note_on_c, 6, 64, 103
7, 12000, Note_on_c, 6, 52, 0
7, 12008, Note_on_c, 6, 64, 0
7, 12008, Note_on_c, 6, 59, 0
7, 12676, Note_on_c, 6, 64, 101
7, 12680, Note_on_c, 6, 67, 101
7, 12684, Note_on_c, 6, 72, 102
7, 12784, Note_on_c, 6, 72, 0
7, 12788, Note_on_c, 6, 64, 0
7, 12792, Note_on_c, 6, 67, 0
7, 13416, Note_on_c, 6, 59, 73
7, 13428, Note_on_c, 6, 62, 101
7, 13436, Note_on_c, 6, 71, 101
7, 13436, Note_on_c, 6, 67, 95
7, 13540, Note_on_c, 6, 67, 0
7, 13544, Note_on_c, 6, 71, 0
7, 13544, Note_on_c, 6, 62, 0
7, 13548, Note_on_c, 6, 59, 0
7, 14192, Note_on_c, 6, 62, 80
7, 14200, Note_on_c, 6, 66, 99
7, 14204, Note_on_c, 6, 74, 100
7, 14208, Note_on_c, 6, 69, 96
7, 14304, Note_on_c, 6, 69, 0
7, 14308, Note_on_c, 6, 74, 0
7, 14312, Note_on_c, 6, 66, 0
7, 14312, Note_on_c, 6, 62, 0
7, 14976, Note_on_c, 6, 61, 87
7, 14980, Note_on_c, 6, 64, 97
7, 14988, Note_on_c, 6, 73, 97
7, 14992, Note_on_c, 6, 69, 95
7, 15072, Note_on_c, 6, 69, 0
7, 15076, Note_on_c, 6, 73, 0
7, 15080, Note_on_c, 6, 64, 0
7, 15084, Note_on_c, 6, 61, 0
7, 15744, Note_on_c, 6, 52, 67
7, 15756, Note_on_c, 6, 59, 107
7, 15760, Note_on_c, 6, 64, 103
7, 15852, Note_on_c, 6, 52, 0
7, 15872, Note_on_c, 6, 64, 0
7, 15876, Note_on_c, 6, 59, 0
7, 16508, Note_on_c, 6, 52, 97
7, 16516, Note_on_c, 6, 59, 108
7, 16520, Note_on_c, 6, 64, 100
7, 16616, Note_on_c, 6, 52, 0
7, 16632, Note_on_c, 6, 59, 0
7, 16636, Note_on_c, 6, 64, 0
7, 17284, Note_on_c, 6, 52, 95
7, 17288, Note_on_c, 6, 59, 105
7, 17292, Note_on_c, 6, 64, 101
7, 17392, Note_on_c, 6, 52, 0
7, 17396, Note_on_c, 6, 64, 0
7, 17396, Note_on_c, 6, 59, 0
7, 18044, Note_on_c, 6, 52, 99
7, 18048, Note_on_c, 6, 59, 109
7, 18052, Note_on_c, 6, 64, 103
7, 18144, Note_on_c, 6, 52, 0
7, 18152, Note_on_c, 6, 64, 0
7, 18152, Note_on_c, 6, 59, 0
7, 18820, Note_on_c, 6, 64, 101
7, 18824, Note_on_c, 6, 67, 101
7, 18828, Note_on_c, 6, 72, 102
7, 18928, Note_on_c, 6, 72, 0
7, 18932, Note_on_c, 6, 64, 0
7, 18936, Note_on_c, 6, 67, 0
7, 19560, Note_on_c, 6, 59, 73
7, 19572, Note_on_c, 6, 62, 101
7, 19580, Note_on_c, 6, 71, 101
7, 19580, Note_on_c, 6, 67, 95
7, 19684, Note_on_c, 6, 67, 0
7, 19688, Note_on_c, 6, 71, 0
7, 19688, Note_on_c, 6, 62, 0
7, 19692, Note_on_c, 6, 59, 0
7, 20336, Note_on_c, 6, 62, 80
7, 20344, Note_on_c, 6, 66, 99
7, 20348, Note_on_c, 6, 74, 100
7, 20352, Note_on_c, 6, 69, 96
7, 20448, Note_on_c, 6, 69, 0
7, 20452, Note_on_c, 6, 74, 0
7, 20456, Note_on_c, 6, 66, 0
7, 20456, Note_on_c, 6, 62, 0
7, 21120, Note_on_c, 6, 61, 87
7, 21124, Note_on_c, 6, 64, 97
7, 21132, Note_on_c, 6, 73, 97
7, 21136, Note_on_c, 6, 69, 95
7, 21216, Note_on_c, 6, 69, 0
7, 21220, Note_on_c, 6, 73, 0
7, 21224, Note_on_c, 6, 64, 0
7, 21228, Note_on_c, 6, 61, 0
7, 21888, Note_on_c, 6, 52, 67
7, 21900, Note_on_c, 6, 59, 107
7, 21904, Note_on_c, 6, 64, 103
7, 21996, Note_on_c, 6, 52, 0
7, 22016, Note_on_c, 6, 64, 0
7, 22020, Note_on_c, 6, 59, 0
7, 22652, Note_on_c, 6, 52, 97
7, 22660, Note_on_c, 6, 59, 108
7, 22664, Note_on_c, 6, 64, 100
7, 22760, Note_on_c, 6, 52, 0
7, 22776, Note_on_c, 6, 59, 0
7, 22780, Note_on_c, 6, 64, 0
7, 23428, Note_on_c, 6, 52, 95
7, 23432, Note_on_c, 6, 59, 105
7, 23436, Note_on_c, 6, 64, 101
7, 23536, Note_on_c, 6, 52, 0
7, 23540, Note_on_c, 6, 64, 0
7, 23540, Note_on_c, 6, 59, 0
7, 24188, Note_on_c, 6, 52, 99
7, 24192, Note_on_c, 6, 59, 109
7, 24196, Note_on_c, 6, 64, 103
7, 24288, Note_on_c, 6, 52, 0
7, 24296, Note_on_c, 6, 64, 0
7, 24296, Note_on_c, 6, 59, 0
7, 24964, Note_on_c, 6, 64, 101
7, 24968, Note_on_c, 6, 67, 101
7, 24972, Note_on_c, 6, 72, 102
7, 25072, Note_on_c, 6, 72, 0
7, 25076, Note_on_c, 6, 64, 0
7, 25080, Note_on_c, 6, 67, 0
7, 25704, Note_on_c, 6, 59, 73
7, 25716, Note_on_c, 6, 62, 101
7, 25724, Note_on_c, 6, 71, 101
7, 25724, Note_on_c, 6, 67, 95
7, 25828, Note_on_c, 6, 67, 0
7, 25832, Note_on_c, 6, 71, 0
7, 25832, Note_on_c, 6, 62, 0
7, 25836, Note_on_c, 6, 59, 0
7, 26480, Note_on_c, 6, 62, 80
7, 26488, Note_on_c, 6, 66, 99
7, 26492, Note_on_c, 6, 74, 100
7, 26496, Note_on_c, 6, 69, 96
7, 26592, Note_on_c, 6, 69, 0
7, 26596, Note_on_c, 6, 74, 0
7, 26600, Note_on_c, 6, 66, 0
7, 26600, Note_on_c, 6, 62, 0
7, 27264, Note_on_c, 6, 61, 87
7, 27268, Note_on_c, 6, 64, 97
7, 27276, Note_on_c, 6, 73, 97
7, 27280, Note_on_c, 6, 69, 95
7, 27360, Note_on_c, 6, 69, 0
7, 27364, Note_on_c, 6, 73, 0
7, 27368, Note_on_c, 6, 64, 0
7, 27372, Note_on_c, 6, 61, 0
7, 28032, Note_on_c, 6, 52, 67
7, 28044, Note_on_c, 6, 59, 107
7, 28048, Note_on_c, 6, 64, 103
7, 28140, Note_on_c, 6, 52, 0
7, 28160, Note_on_c, 6, 64, 0
7, 28164, Note_on_c, 6, 59, 0
7, 28796, Note_on_c, 6, 52, 97
7, 28804, Note_on_c, 6, 59, 108
7, 28808, Note_on_c, 6, 64, 100
7, 28904, Note_on_c, 6, 52, 0
7, 28920, Note_on_c, 6, 59, 0
7, 28924, Note_on_c, 6, 64, 0
7, 29572, Note_on_c, 6, 52, 95
7, 29576, Note_on_c, 6, 59, 105
7, 29580, Note_on_c, 6, 64, 101
7, 29680, Note_on_c, 6, 52, 0
7, 29684, Note_on_c, 6, 64, 0
7, 29684, Note_on_c, 6, 59, 0
7, 30332, Note_on_c, 6, 52, 99
7, 30336, Note_on_c, 6, 59, 109
7, 30340, Note_on_c, 6, 64, 103
7, 30432, Note_on_c, 6, 52, 0
7, 30440, Note_on_c, 6, 64, 0
7, 30440, Note_on_c, 6, 59, 0
7, 31108, Note_on_c, 6, 64, 101
7, 31112, Note_on_c, 6, 67, 101
7, 31116, Note_on_c, 6, 72, 102
7, 31216, Note_on_c, 6, 72, 0
7, 31220, Note_on_c, 6, 64, 0
7, 31224, Note_on_c, 6, 67, 0
7, 31848, Note_on_c, 6, 59, 73
7, 31860, Note_on_c, 6, 62, 101
7, 31868, Note_on_c, 6, 71, 101
7, 31868, Note_on_c, 6, 67, 95
7, 31972, Note_on_c, 6, 67, 0
7, 31976, Note_on_c, 6, 71, 0
7, 31976, Note_on_c, 6, 62, 0
7, 31980, Note_on_c, 6, 59, 0
7, 32624, Note_on_c, 6, 62, 80
7, 32632, Note_on_c, 6, 66, 99
7, 32636, Note_on_c, 6, 74, 100
7, 32640, Note_on_c, 6, 69, 96
7, 32736, Note_on_c, 6, 69, 0
7, 32740, Note_on_c, 6, 74, 0
7, 32744, Note_on_c, 6, 66, 0
7, 32744, Note_on_c, 6, 62, 0
7, 33408, Note_on_c, 6, 61, 87
7, 33412, Note_on_c, 6, 64, 97
7, 33420, Note_on_c, 6, 73, 97
7, 33424, Note_on_c, 6, 69, 95
7, 33504, Note_on_c, 6, 69, 0
7, 33508, Note_on_c, 6, 73, 0
7, 33512, Note_on_c, 6, 64, 0
7, 33516, Note_on_c, 6, 61, 0
7, 34176, Note_on_c, 6, 52, 67
7, 34188, Note_on_c, 6, 59, 107
7, 34192, Note_on_c, 6, 64, 103
7, 34284, Note_on_c, 6, 52, 0
7, 34304, Note_on_c, 6, 64, 0
7, 34308, Note_on_c, 6, 59, 0
7, 34940, Note_on_c, 6, 52, 97
7, 34948, Note_on_c, 6, 59, 108
7, 34952, Note_on_c, 6, 64, 100
7, 35048, Note_on_c, 6, 52, 0
7, 35064, Note_on_c, 6, 59, 0
7, 35068, Note_on_c, 6, 64, 0
7, 35716, Note_on_c, 6, 52, 95
7, 35720, Note_on_c, 6, 59, 105
7, 35724, Note_on_c, 6, 64, 101
7, 35824, Note_on_c, 6, 52, 0
7, 35828, Note_on_c, 6, 64, 0
7, 35828, Note_on_c, 6, 59, 0
7, 36476, Note_on_c, 6, 52, 99
7, 36480, Note_on_c, 6, 59, 109
7, 36484, Note_on_c, 6, 64, 103
7, 36576, Note_on_c, 6, 52, 0
7, 36584, Note_on_c, 6, 64, 0
7, 36584, Note_on_c, 6, 59, 0
7, 37252, Note_on_c, 6, 64, 101
7, 37256, Note_on_c, 6, 67, 101
7, 37260, Note_on_c, 6, 72, 102
7, 37360, Note_on_c, 6, 72, 0
7, 37364, Note_on_c, 6, 64, 0
7, 37368, Note_on_c, 6, 67, 0
7, 37992, Note_on_c, 6, 59, 73
7, 38004, Note_on_c, 6, 62, 101
7, 38012, Note_on_c, 6, 71, 101
7, 38012, Note_on_c, 6, 67, 95
7, 38116, Note_on_c, 6, 67, 0
7, 38120, Note_on_c, 6, 71, 0
7, 38120, Note_on_c, 6, 62, 0
7, 38124, Note_on_c, 6, 59, 0
7, 38768, Note_on_c, 6, 62, 80
7, 38776, Note_on_c, 6, 66, 99
7, 38780, Note_on_c, 6, 74, 100
7, 38784, Note_on_c, 6, 69, 96
7, 38880, Note_on_c, 6, 69, 0
7, 38884, Note_on_c, 6, 74, 0
7, 38888, Note_on_c, 6, 66, 0
7, 38888, Note_on_c, 6, 62, 0
7, 39552, Note_on_c, 6, 61, 87
7, 39556, Note_on_c, 6, 64, 97
7, 39564, Note_on_c, 6, 73, 97
7, 39568, Note_on_c, 6, 69, 95
7, 39648, Note_on_c, 6, 69, 0
7, 39652, Note_on_c, 6, 73, 0
7, 39656, Note_on_c, 6, 64, 0
7, 39660, Note_on_c, 6, 61, 0
7, 40320, Note_on_c, 6, 52, 67
7, 40332, Note_on_c, 6, 59, 107
7, 40336, Note_on_c, 6, 64, 103
7, 40428, Note_on_c, 6, 52, 0
7, 40448, Note_on_c, 6, 64, 0
7, 40452, Note_on_c, 6, 59, 0
7, 41084, Note_on_c, 6, 52, 97
7, 41092, Note_on_c, 6, 59, 108
7, 41096, Note_on_c, 6, 64, 100
7, 41192, Note_on_c, 6, 52, 0
7, 41208, Note_on_c, 6, 59, 0
7, 41212, Note_on_c, 6, 64, 0
7, 41860, Note_on_c, 6, 52, 95
7, 41864, Note_on_c, 6, 59, 105
7, 41868, Note_on_c, 6, 64, 101
7, 41968, Note_on_c, 6, 52, 0
7, 41972, Note_on_c, 6, 64, 0
7, 41972, Note_on_c, 6, 59, 0
7, 42620, Note_on_c, 6, 52, 99
7, 42624, Note_on_c, 6, 59, 109
7, 42628, Note_on_c, 6, 64, 103
7, 42720, Note_on_c, 6, 52, 0
7, 42728, Note_on_c, 6, 64, 0
7, 42728, Note_on_c, 6, 59, 0
7, 43396, Note_on_c, 6, 64, 101
7, 43400, Note_on_c, 6, 67, 101
7, 43404, Note_on_c, 6, 72, 102
7, 43504, Note_on_c, 6, 72, 0
7, 43508, Note_on_c, 6, 64, 0
7, 43512, Note_on_c, 6, 67, 0
7, 44136, Note_on_c, 6, 59, 73
7, 44148, Note_on_c, 6, 62, 101
7, 44156, Note_on_c, 6, 71, 101
7, 44156, Note_on_c, 6, 67, 95
7, 44260, Note_on_c, 6, 67, 0
7, 44264, Note_on_c, 6, 71, 0
7, 44264, Note_on_c, 6, 62, 0
7, 44268, Note_on_c, 6, 59, 0
7, 44912, Note_on_c, 6, 62, 80
7, 44920, Note_on_c, 6, 66, 99
7, 44924, Note_on_c, 6, 74, 100
7, 44928, Note_on_c, 6, 69, 96
7, 45024, Note_on_c, 6, 69, 0
7, 45028, Note_on_c, 6, 74, 0
7, 45032, Note_on_c, 6, 66, 0
7, 45032, Note_on_c, 6, 62, 0
7, 45696, Note_on_c, 6, 61, 87
7, 45700, Note_on_c, 6, 64, 97
7, 45708, Note_on_c, 6, 73, 97
7, 45712, Note_on_c, 6, 69, 95
7, 45792, Note_on_c, 6, 69, 0
7, 45796, Note_on_c, 6, 73, 0
7, 45800, Note_on_c, 6, 64, 0
7, 45804, Note_on_c, 6, 61, 0
7, 46464, Note_on_c, 6, 52, 67
7, 46476, Note_on_c, 6, 59, 107
7, 46480, Note_on_c, 6, 64, 103
7, 46572, Note_on_c, 6, 52, 0
7, 46592, Note_on_c, 6, 64, 0
7, 46596, Note_on_c, 6, 59, 0
7, 47228, Note_on_c, 6, 52, 97
7, 47236, Note_on_c, 6, 59, 108
7, 47240, Note_on_c, 6, 64, 100
7, 47336, Note_on_c, 6, 52, 0
7, 47352, Note_on_c, 6, 59, 0
7, 47356, Note_on_c, 6, 64, 0
7, 48004, Note_on_c, 6, 52, 95
7, 48008, Note_on_c, 6, 59, 105
7, 48012, Note_on_c, 6, 64, 101
7, 48112, Note_on_c, 6, 52, 0
7, 48116, Note_on_c, 6, 64, 0
7, 48116, Note_on_c, 6, 59, 0
7, 48764, Note_on_c, 6, 52, 99
7, 48768, Note_on_c, 6, 59, 109
7, 48772, Note_on_c, 6, 64, 103
7, 48864, Note_on_c, 6, 52, 0
7, 48872, Note_on_c, 6, 64, 0
7, 48872, Note_on_c, 6, 59, 0
7, 49540, Note_on_c, 6, 64, 101
7, 49544, Note_on_c, 6, 67, 101
7, 49548, Note_on_c, 6, 72, 102
7, 49648, Note_on_c, 6, 72, 0
7, 49652, Note_on_c, 6, 64, 0
7, 49656, Note_on_c, 6, 67, 0
7, 50280, Note_on_c, 6, 59, 73
7, 50292, Note_on_c, 6, 62, 101
7, 50300, Note_on_c, 6, 71, 101
7, 50300, Note_on_c, 6, 67, 95
7, 50404, Note_on_c, 6, 67, 0
7, 50408, Note_on_c, 6, 71, 0
7, 50408, Note_on_c, 6, 62, 0
7, 50412, Note_on_c, 6, 59, 0
7, 51056, Note_on_c, 6, 62, 80
7, 51064, Note_on_c, 6, 66, 99
7, 51068, Note_on_c, 6, 74, 100
7, 51072, Note_on_c, 6, 69, 96
7, 51168, Note_on_c, 6, 69, 0
7, 51172, Note_on_c, 6, 74, 0
7, 51176, Note_on_c, 6, 66, 0
7, 51176, Note_on_c, 6, 62, 0
7, 51840, Note_on_c, 6, 61, 87
7, 51844, Note_on_c, 6, 64, 97
7, 51852, Note_on_c, 6, 73, 97
7, 51856, Note_on_c, 6, 69, 95
7, 51936, Note_on_c, 6, 69, 0
7, 51940, Note_on_c, 6, 73, 0
7, 51944, Note_on_c, 6, 64, 0
7, 51948, Note_on_c, 6, 61, 0
7, 52608, Note_on_c, 6, 52, 67
7, 52620, Note_on_c, 6, 59, 107
7, 52624, Note_on_c, 6, 64, 103
7, 52716, Note_on_c, 6, 52, 0
7, 52736, Note_on_c, 6, 64, 0
7, 52740, Note_on_c, 6, 59, 0
7, 53372, Note_on_c, 6, 52, 97
7, 53380, Note_on_c, 6, 59, 108
7, 53384, Note_on_c, 6, 64, 100
7, 53480, Note_on_c, 6, 52, 0
7, 53496, Note_on_c, 6, 59, 0
7, 53500, Note_on_c, 6, 64, 0
7, 54148, Note_on_c, 6, 52, 95
7, 54152, Note_on_c, 6, 59, 105
7, 54156, Note_on_c, 6, 64, 101
7, 54256, Note_on_c, 6, 52, 0
7, 54260, Note_on_c, 6, 64, 0
7, 54260, Note_on_c, 6, 59, 0
7, 54908, Note_on_c, 6, 52, 99
7, 54912, Note_on_c, 6, 59, 109
7, 54916, Note_on_c, 6, 64, 103
7, 55008, Note_on_c, 6, 52, 0
7, 55016, Note_on_c, 6, 64, 0
7, 55016, Note_on_c, 6, 59, 0
7, 55684, Note_on_c, 6, 64, 101
7, 55688, Note_on_c, 6, 67, 101
7, 55692, Note_on_c, 6, 72, 102
7, 55792, Note_on_c, 6, 72, 0
7, 55796, Note_on_c, 6, 64, 0
7, 55800, Note_on_c, 6, 67, 0
7, 56424, Note_on_c, 6, 59, 73
7, 56436, Note_on_c, 6, 62, 101
7, 56444, Note_on_c, 6, 71, 101
7, 56444, Note_on_c, 6, 67, 95
7, 56548, Note_on_c, 6, 67, 0
7, 56552, Note_on_c, 6, 71, 0
7, 56552, Note_on_c, 6, 62, 0
7, 56556, Note_on_c, 6, 59, 0
7, 57200, Note_on_c, 6, 62, 80
7, 57208, Note_on_c, 6, 66, 99
7, 57212, Note_on_c, 6, 74, 100
7, 57216, Note_on_c, 6, 69, 96
7, 57312, Note_on_c, 6, 69, 0
7, 57316, Note_on_c, 6, 74, 0
7, 57320, Note_on_c, 6, 66, 0
7, 57320, Note_on_c, 6, 62, 0
7, 57984, Note_on_c, 6, 61, 87
7, 57988, Note_on_c, 6, 64, 97
7, 57996, Note_on_c, 6, 73, 97
7, 58000, Note_on_c, 6, 69, 95
7, 58080, Note_on_c, 6, 69, 0
7, 58084, Note_on_c, 6, 73, 0
7, 58088, Note_on_c, 6, 64, 0
7, 58092, Note_on_c, 6, 61, 0
7, 58752, Note_on_c, 6, 52, 67
7, 58764, Note_on_c, 6, 59, 107
7, 58768, Note_on_c, 6, 64, 103
7, 58860, Note_on_c, 6, 52, 0
7, 58880, Note_on_c, 6, 64, 0
7, 58884, Note_on_c, 6, 59, 0
7, 59516, Note_on_c, 6, 52, 97
7, 59524, Note_on_c, 6, 59, 108
7, 59528, Note_on_c, 6, 64, 100
7, 59624, Note_on_c, 6, 52, 0
7, 59640, Note_on_c, 6, 59, 0
7, 59644, Note_on_c, 6, 64, 0
7, 60292, Note_on_c, 6, 52, 95
7, 60296, Note_on_c, 6, 59, 105
7, 60300, Note_on_c, 6, 64, 101
7, 60400, Note_on_c, 6, 52, 0
7, 60404, Note_on_c, 6, 64, 0
7, 60404, Note_on_c, 6, 59, 0
7, 61052, Note_on_c, 6, 52, 99
7, 61056, Note_on_c, 6, 59, 109
7, 61060, Note_on_c, 6, 64, 103
7, 61152, Note_on_c, 6, 52, 0
7, 61160, Note_on_c, 6, 64, 0
7, 61160, Note_on_c, 6, 59, 0
7, 61828, Note_on_c, 6, 64, 101
7, 61832, Note_on_c, 6, 67, 101
7, 61836, Note_on_c, 6, 72, 102
7, 61936, Note_on_c, 6, 72, 0
7, 61940, Note_on_c, 6, 64, 0
7, 61944, Note_on_c, 6, 67, 0
7, 62568, Note_on_c, 6, 59, 73
7, 62580, Note_on_c, 6, 62, 101
7, 62588, Note_on_c, 6, 71, 101
7, 62588, Note_on_c, 6, 67, 95
7, 62692, Note_on_c, 6, 67, 0
7, 62696, Note_on_c, 6, 71, 0
7, 62696, Note_on_c, 6, 62, 0
7, 62700, Note_on_c, 6, 59, 0
7, 63344, Note_on_c, 6, 62, 80
7, 63352, Note_on_c, 6, 66, 99
7, 63356, Note_on_c, 6, 74, 100
7, 63360, Note_on_c, 6, 69, 96
7, 63456, Note_on_c, 6, 69, 0
7, 63460, Note_on_c, 6, 74, 0
7, 63464, Note_on_c, 6, 66, 0
7, 63464, Note_on_c, 6, 62, 0
7, 64128, Note_on_c, 6, 61, 87
7, 64132, Note_on_c, 6, 64, 97
7, 64140, Note_on_c, 6, 73, 97
7, 64144, Note_on_c, 6, 69, 95
7, 64224, Note_on_c, 6, 69, 0
7, 64228, Note_on_c, 6, 73, 0
7, 64232, Note_on_c, 6, 64, 0
7, 64236, Note_on_c, 6, 61, 0
7, 64896, Note_on_c, 6, 52, 67
7, 64908, Note_on_c, 6, 59, 107
7, 64912, Note_on_c, 6, 64, 103
7, 65004, Note_on_c, 6, 52, 0
7, 65024, Note_on_c, 6, 64, 0
7, 65028, Note_on_c, 6, 59, 0
7, 65660, Note_on_c, 6, 52, 97
7, 65668, Note_on_c, 6, 59, 108
7, 65672, Note_on_c, 6, 64, 100
7, 65768, Note_on_c, 6, 52, 0
7, 65784, Note_on_c, 6, 59, 0
7, 65788, Note_on_c, 6, 64, 0
7, 66436, Note_on_c, 6, 52, 95
7, 66440, Note_on_c, 6, 59, 105
7, 66444, Note_on_c, 6, 64, 101
7, 66544, Note_on_c, 6, 52, 0
7, 66548, Note_on_c, 6, 64, 0
7, 66548, Note_on_c, 6, 59, 0
7, 67196, Note_on_c, 6, 52, 99
7, 67200, Note_on_c, 6, 59, 109
7, 67204, Note_on_c, 6, 64, 103
7, 67296, Note_on_c, 6, 52, 0
7, 67304, Note_on_c, 6, 64, 0
7, 67304, Note_on_c, 6, 59, 0
7, 67584, Note_on_c, 6, 60, 124
7, 67772, Note_on_c, 6, 60, 0
7, 67772, Note_on_c, 6, 52, 121
7, 67956, Note_on_c, 6, 52, 0
7, 67976, Note_on_c, 6, 53, 120
7, 68140, Note_on_c, 6, 53, 0
7, 68164, Note_on_c, 6, 54, 119
7, 68352, Note_on_c, 6, 54, 0
7, 68352, Note_on_c, 6, 55, 115
7, 68520, Note_on_c, 6, 55, 0
7, 68552, Note_on_c, 6, 59, 125
7, 68704, Note_on_c, 6, 59, 0
7, 68748, Note_on_c, 6, 60, 121
7, 68924, Note_on_c, 6, 60, 0
7, 68940, Note_on_c, 6, 61, 123
7, 69112, Note_on_c, 6, 61, 0
7, 69120, Note_on_c, 6, 62, 120
7, 69300, Note_on_c, 6, 62, 0
7, 69320, Note_on_c, 6, 54, 117
7, 69504, Note_on_c, 6, 54, 0
7, 69504, Note_on_c, 6, 55, 111
7, 69668, Note_on_c, 6, 55, 0
7, 69696, Note_on_c, 6, 56, 116
7, 69880, Note_on_c, 6, 56, 0
7, 69900, Note_on_c, 6, 57, 117
7, 70064, Note_on_c, 6, 57, 0
7, 70092, Note_on_c, 6, 49, 99
7, 70260, Note_on_c, 6, 49, 0
7, 70284, Note_on_c, 6, 50, 103
7, 70436, Note_on_c, 6, 50, 0
7, 70476, Note_on_c, 6, 51, 99
7, 70628, Note_on_c, 6, 51, 0
7, 70660, Note_on_c, 6, 52, 100
7, 71028, Note_on_c, 6, 52, 0
7, 71040, Note_on_c, 6, 52, 104
7, 71048, Note_on_c, 6, 59, 116
7, 71056, Note_on_c, 6, 64, 94
7, 73008, Note_on_c, 6, 52, 0
7, 73500, Note_on_c, 6, 59, 0
7, 73508, Note_on_c, 6, 64, 0
7, 74116, Note_on_c, 6, 64, 113
7, 74120, Note_on_c, 6, 67, 113
7, 74124, Note_on_c, 6, 72, 114
7, 74224, Note_on_c, 6, 72, 0
7, 74228, Note_on_c, 6, 64, 0
7, 74232, Note_on_c, 6, 67, 0
7, 74856, Note_on_c, 6, 59, 85
7, 74868, Note_on_c, 6, 62, 113
7, 74876, Note_on_c, 6, 71, 113
7, 74876, Note_on_c, 6, 67, 107
7, 74980, Note_on_c, 6, 67, 0
7, 74984, Note_on_c, 6, 71, 0
7, 74984, Note_on_c, 6, 62, 0
7, 74988, Note_on_c, 6, 59, 0
7, 75632, Note_on_c, 6, 62, 92
7, 75640, Note_on_c, 6, 66, 111
7, 75644, Note_on_c, 6, 74, 112
7, 75648, Note_on_c, 6, 69, 108
7, 75744, Note_on_c, 6, 69, 0
7, 75748, Note_on_c, 6, 74, 0
7, 75752, Note_on_c, 6, 66, 0
7, 75752, Note_on_c, 6, 62, 0
7, 76416, Note_on_c, 6, 61, 99
7, 76420, Note_on_c, 6, 64, 109
7, 76428, Note_on_c, 6, 73, 109
7, 76432, Note_on_c, 6, 69, 107
7, 76512, Note_on_c, 6, 69, 0
7, 76516, Note_on_c, 6, 73, 0
7, 76520, Note_on_c, 6, 64, 0
7, 76524, Note_on_c, 6, 61, 0
7, 77184, Note_on_c, 6, 52, 79
7, 77196, Note_on_c, 6, 59, 119
7, 77200, Note_on_c, 6, 64, 115
7, 77292, Note_on_c, 6, 52, 0
7, 77312, Note_on_c, 6, 64, 0
7, 77316, Note_on_c, 6, 59, 0
7, 77948, Note_on_c, 6, 52, 109
7, 77956, Note_on_c, 6, 59, 120
7, 77960, Note_on_c, 6, 64, 112
7, 78056, Note_on_c, 6, 52, 0
7, 78072, Note_on_c, 6, 59, 0
7, 78076, Note_on_c, 6, 64, 0
7, 78724, Note_on_c, 6, 52, 107
7, 78728, Note_on_c, 6, 59, 117
7, 78732, Note_on_c, 6, 64, 113
7, 78832, Note_on_c, 6, 52, 0
7, 78836, Note_on_c, 6, 64, 0
7, 78836, Note_on_c, 6, 59, 0
7, 79484, Note_on_c, 6, 52, 111
7, 79488, Note_on_c, 6, 59, 121
7, 79492, Note_on_c, 6, 64, 115
7, 79584, Note_on_c, 6, 52, 0
7, 79592, Note_on_c, 6, 64, 0
7, 79592, Note_on_c, 6, 59, 0
7, 80260, Note_on_c, 6, 64, 101
7, 80264, Note_on_c, 6, 67, 101
7, 80268, Note_on_c, 6, 72, 102
7, 80368, Note_on_c, 6, 72, 0
7, 80372, Note_on_c, 6, 64, 0
7, 80376, Note_on_c, 6, 67, 0
7, 81000, Note_on_c, 6, 59, 73
7, 81012, Note_on_c, 6, 62, 101
7, 81020, Note_on_c, 6, 71, 101
7, 81020, Note_on_c, 6, 67, 95
7, 81124, Note_on_c, 6, 67, 0
7, 81128, Note_on_c, 6, 71, 0
7, 81128, Note_on_c, 6, 62, 0
7, 81132, Note_on_c, 6, 59, 0
7, 81776, Note_on_c, 6, 62, 80
7, 81784, Note_on_c, 6, 66, 99
7, 81788, Note_on_c, 6, 74, 100
7, 81792, Note_on_c, 6, 69, 96
7, 81888, Note_on_c, 6, 69, 0
7, 81892, Note_on_c, 6, 74, 0
7, 81896, Note_on_c, 6, 66, 0
7, 81896, Note_on_c, 6, 62, 0
7, 82560, Note_on_c, 6, 61, 87
7, 82564, Note_on_c, 6, 64, 97
7, 82572, Note_on_c, 6, 73, 97
7, 82576, Note_on_c, 6, 69, 95
7, 82656, Note_on_c, 6, 69, 0
7, 82660, Note_on_c, 6, 73, 0
7, 82664, Note_on_c, 6, 64, 0
7, 82668, Note_on_c, 6, 61, 0
7, 83328, Note_on_c, 6, 52, 67
7, 83340, Note_on_c, 6, 59, 107
7, 83344, Note_on_c, 6, 64, 103
7, 83436, Note_on_c, 6, 52, 0
7, 83456, Note_on_c, 6, 64, 0
7, 83460, Note_on_c, 6, 59, 0
7, 84092, Note_on_c, 6, 52, 97
7, 84100, Note_on_c, 6, 59, 108
7, 84104, Note_on_c, 6, 64, 100
7, 84200, Note_on_c, 6, 52, 0
7, 84216, Note_on_c, 6, 59, 0
7, 84220, Note_on_c, 6, 64, 0
7, 84868, Note_on_c, 6, 52, 95
7, 84872, Note_on_c, 6, 59, 105
7, 84876, Note_on_c, 6, 64, 101
7, 84976, Note_on_c, 6, 52, 0
7, 84980, Note_on_c, 6, 64, 0
7, 84980, Note_on_c, 6, 59, 0
7, 85628, Note_on_c, 6, 52, 99
7, 85632, Note_on_c, 6, 59, 109
7, 85636, Note_on_c, 6, 64, 103
7, 85728, Note_on_c, 6, 52, 0
7, 85736, Note_on_c, 6, 64, 0
7, 85736, Note_on_c, 6, 59, 0
7, 86404, Note_on_c, 6, 64, 101
7, 86408, Note_on_c, 6, 67, 101
7, 86412, Note_on_c, 6, 72, 102
7, 86512, Note_on_c, 6, 72, 0
7, 86516, Note_on_c, 6, 64, 0
7, 86520, Note_on_c, 6, 67, 0
7, 87144, Note_on_c, 6, 59, 73
7, 87156, Note_on_c, 6, 62, 101
7, 87164, Note_on_c, 6, 71, 101
7, 87164, Note_on_c, 6, 67, 95
7, 87268, Note_on_c, 6, 67, 0
7, 87272, Note_on_c, 6, 71, 0
7, 87272, Note_on_c, 6, 62, 0
7, 87276, Note_on_c, 6, 59, 0
7, 87920, Note_on_c, 6, 62, 80
7, 87928, Note_on_c, 6, 66, 99
7, 87932, Note_on_c, 6, 74, 100
7, 87936, Note_on_c, 6, 69, 96
7, 88032, Note_on_c, 6, 69, 0
7, 88036, Note_on_c, 6, 74, 0
7, 88040, Note_on_c, 6, 66, 0
7, 88040, Note_on_c, 6, 62, 0
7, 88704, Note_on_c, 6, 61, 87
7, 88708, Note_on_c, 6, 64, 97
7, 88716, Note_on_c, 6, 73, 97
7, 88720, Note_on_c, 6, 69, 95
7, 88800, Note_on_c, 6, 69, 0
7, 88804, Note_on_c, 6, 73, 0
7, 88808, Note_on_c, 6, 64, 0
7, 88812, Note_on_c, 6, 61, 0
7, 89472, Note_on_c, 6, 52, 67
7, 89484, Note_on_c, 6, 59, 107
7, 89488, Note_on_c, 6, 64, 103
7, 89580, Note_on_c, 6, 52, 0
7, 89600, Note_on_c, 6, 64, 0
7, 89604, Note_on_c, 6, 59, 0
7, 90236, Note_on_c, 6, 52, 97
7, 90244, Note_on_c, 6, 59, 108
7, 90248, Note_on_c, 6, 64, 100
7, 90344, Note_on_c, 6, 52, 0
7, 90360, Note_on_c, 6, 59, 0
7, 90364, Note_on_c, 6, 64, 0
7, 91012, Note_on_c, 6, 52, 95
7, 91016, Note_on_c, 6, 59, 105
7, 91020, Note_on_c, 6, 64, 101
7, 91120, Note_on_c, 6, 52, 0
7, 91124, Note_on_c, 6, 64, 0
7, 91124, Note_on_c, 6, 59, 0
7, 91772, Note_on_c, 6, 52, 99
7, 91776, Note_on_c, 6, 59, 109
7, 91780, Note_on_c, 6, 64, 103
7, 91872, Note_on_c, 6, 52, 0
7, 91880, Note_on_c, 6, 64, 0
7, 91880, Note_on_c, 6, 59, 0
7, 92160, Note_on_c, 6, 60, 112
7, 92348, Note_on_c, 6, 60, 0
7, 92348, Note_on_c, 6, 52, 109
7, 92532, Note_on_c, 6, 52, 0
7, 92552, Note_on_c, 6, 53, 108
7, 92716, Note_on_c, 6, 53, 0
7, 92740, Note_on_c, 6, 54, 107
7, 92928, Note_on_c, 6, 54, 0
7, 92928, Note_on_c, 6, 55, 103
7, 93096, Note_on_c, 6, 55, 0
7, 93128, Note_on_c, 6, 59, 113
7, 93280, Note_on_c, 6, 59, 0
7, 93324, Note_on_c, 6, 60, 109
7, 93500, Note_on_c, 6, 60, 0
7, 93516, Note_on_c, 6, 61, 111
7, 93688, Note_on_c, 6, 61, 0
7, 93696, Note_on_c, 6, 62, 108
7, 93876, Note_on_c, 6, 62, 0
7, 93896, Note_on_c, 6, 54, 105
7, 94080, Note_on_c, 6, 54, 0
7, 94080, Note_on_c, 6, 55, 99
7, 94244, Note_on_c, 6, 55, 0
7, 94272, Note_on_c, 6, 56, 104
7, 94456, Note_on_c, 6, 56, 0
7, 94476, Note_on_c, 6, 57, 105
7, 94640, Note_on_c, 6, 57, 0
7, 94668, Note_on_c, 6, 49, 87
7, 94836, Note_on_c, 6, 49, 0
7, 94860, Note_on_c, 6, 50, 91
7, 95012, Note_on_c, 6, 50, 0
7, 95052, Note_on_c, 6, 51, 87
7, 95204, Note_on_c, 6, 51, 0
7, 95236, Note_on_c, 6, 52, 88
7, 95604, Note_on_c, 6, 52, 0
7, 95616, Note_on_c, 6, 52, 92
7, 95624, Note_on_c, 6, 59, 104
7, 95632, Note_on_c, 6, 64, 82
7, 97584, Note_on_c, 6, 52, 0
7, 98076, Note_on_c, 6, 59, 0
7, 98084, Note_on_c, 6, 64, 0
7, 98304, Note_on_c, 6, 60, 112
7, 98492, Note_on_c, 6, 60, 0
7, 98492, Note_on_c, 6, 52, 109
7, 98676, Note_on_c, 6, 52, 0
7, 98696, Note_on_c, 6, 53, 108
7, 98860, Note_on_c, 6, 53, 0
7, 98884, Note_on_c, 6, 54, 107
7, 99072, Note_on_c, 6, 54, 0
7, 99072, Note_on_c, 6, 55, 103
7, 99240, Note_on_c, 6, 55, 0
7, 99272, Note_on_c, 6, 59, 113
7, 99424, Note_on_c, 6, 59, 0
7, 99468, Note_on_c, 6, 60, 109
7, 99644, Note_on_c, 6, 60, 0
7, 99660, Note_on_c, 6, 61, 111
7, 99832, Note_on_c, 6, 61, 0
7, 99840, Note_on_c, 6, 62, 108
7, 100020, Note_on_c, 6, 62, 0
7, 100040, Note_on_c, 6, 54, 105
7, 100224, Note_on_c, 6, 54, 0
7, 100224, Note_on_c, 6, 55, 99
7, 100388, Note_on_c, 6, 55, 0
7, 100416, Note_on_c, 6, 56, 104
7, 100600, Note_on_c, 6, 56, 0
7, 100620, Note_on_c, 6, 57, 105
7, 100784, Note_on_c, 6, 57, 0
7, 100812, Note_on_c, 6, 49, 87
7, 100980, Note_on_c, 6, 49, 0
7, 101004, Note_on_c, 6, 50, 91
7, 101156, Note_on_c, 6, 50, 0
7, 101196, Note_on_c, 6, 51, 87
7, 101348, Note_on_c, 6, 51, 0
7, 101380, Note_on_c, 6, 52, 88
7, 101748, Note_on_c, 6, 52, 0
7, 101760, Note_on_c, 6, 52, 92
7, 101768, Note_on_c, 6, 59, 104
7, 101776, Note_on_c, 6, 64, 82
7, 103728, Note_on_c, 6, 52, 0
7, 104220, Note_on_c, 6, 59, 0
7, 104228, Note_on_c, 6, 64, 0
7, 104448, Note_on_c, 6, 60, 112
7, 104636, Note_on_c, 6, 60, 0
7, 104636, Note_on_c, 6, 52, 109
7, 104820, Note_on_c, 6, 52, 0
7, 104840, Note_on_c, 6, 53, 108
7, 105004, Note_on_c, 6, 53, 0
7, 105028, Note_on_c, 6, 54, 107
7, 105216, Note_on_c, 6, 54, 0
7, 105216, Note_on_c, 6, 55, 103
7, 105384, Note_on_c, 6, 55, 0
7, 105416, Note_on_c, 6, 59, 113
7, 105568, Note_on_c, 6, 59, 0
7, 105612, Note_on_c, 6, 60, 109
7, 105788, Note_on_c, 6, 60, 0
7, 105804, Note_on_c, 6, 61, 111
7, 105976, Note_on_c, 6, 61, 0
7, 105984, Note_on_c, 6, 62, 108
7, 106164, Note_on_c, 6, 62, 0
7, 106184, Note_on_c, 6, 54, 105
7, 106368, Note_on_c, 6, 54, 0
7, 106368, Note_on_c, 6, 55, 99
7, 106532, Note_on_c, 6, 55, 0
7, 106560, Note_on_c, 6, 56, 104
7, 106744, Note_on_c, 6, 56, 0
7, 106764, Note_on_c, 6, 57, 105
7, 106928, Note_on_c, 6, 57, 0
7, 106956, Note_on_c, 6, 49, 87
7, 107124, Note_on_c, 6, 49, 0
7, 107148, Note_on_c, 6, 50, 91
7, 107300, Note_on_c, 6, 50, 0
7, 107340, Note_on_c, 6, 51, 87
7, 107492, Note_on_c, 6, 51, 0
7, 107524, Note_on_c, 6, 52, 88
7, 107892, Note_on_c, 6, 52, 0
7, 107904, Note_on_c, 6, 52, 92
7, 107912, Note_on_c, 6, 59, 104
7, 107920, Note_on_c, 6, 64, 82
7, 109872, Note_on_c, 6, 52, 0
7, 110364, Note_on_c, 6, 59, 0
7, 110372, Note_on_c, 6, 64, 0
7, 110592, Note_on_c, 6, 60, 112
7, 110780, Note_on_c, 6, 60, 0
7, 110780, Note_on_c, 6, 52, 109
7, 110964, Note_on_c, 6, 52, 0
7, 110984, Note_on_c, 6, 53, 108
7, 111148, Note_on_c, 6, 53, 0
7, 111172, Note_on_c, 6, 54, 107
7, 111360, Note_on_c, 6, 54, 0
7, 111360, Note_on_c, 6, 55, 103
7, 111528, Note_on_c, 6, 55, 0
7, 111560, Note_on_c, 6, 59, 113
7, 111712, Note_on_c, 6, 59, 0
7, 111756, Note_on_c, 6, 60, 109
7, 111932, Note_on_c, 6, 60, 0
7, 111948, Note_on_c, 6, 61, 111
7, 112120, Note_on_c, 6, 61, 0
7, 112128, Note_on_c, 6, 62, 108
7, 112308, Note_on_c, 6, 62, 0
7, 112328, Note_on_c, 6, 54, 105
7, 112512, Note_on_c, 6, 54, 0
7, 112512, Note_on_c, 6, 55, 99
7, 112676, Note_on_c, 6, 55, 0
7, 112704, Note_on_c, 6, 56, 104
7, 112888, Note_on_c, 6, 56, 0
7, 112908, Note_on_c, 6, 57, 105
7, 113072, Note_on_c, 6, 57, 0
7, 113100, Note_on_c, 6, 49, 87
7, 113268, Note_on_c, 6, 49, 0
7, 113292, Note_on_c, 6, 50, 91
7, 113444, Note_on_c, 6, 50, 0
7, 113484, Note_on_c, 6, 51, 87
7, 113636, Note_on_c, 6, 51, 0
7, 113664, Note_on_c, 6, 52, 50
7, 113664, Control_c, 6, 11, 127
7, 114180, Control_c, 6, 11, 124
7, 114244, Control_c, 6, 11, 110
7, 114304, Control_c, 6, 11, 100
7, 114364, Control_c, 6, 11, 86
7, 114428, Control_c, 6, 11, 74
7, 114488, Control_c, 6, 11, 64
7, 114548, Control_c, 6, 11, 56
7, 114608, Control_c, 6, 11, 42
7, 114668, Control_c, 6, 11, 25
7, 114728, Control_c, 6, 11, 7
7, 114792, Control_c, 6, 11, 4
7, 114856, Control_c, 6, 11, 2
7, 114956, Control_c, 6, 11, 0
7, 115140, Note_on_c, 6, 52, 0
7, 115444, Control_c, 6, 11, 127
7, 115444, End_track
8, 0, Start_track
8, 0, MIDI_port, 0
8, 0, Title_t, "CLEAN GTR"
8, 0, Control_c, 7, 0, 0
8, 0, Control_c, 7, 32, 0
8, 0, Program_c, 7, 27
8, 0, Control_c, 7, 7, 97
8, 0, Control_c, 7, 10, 64
8, 0, Control_c, 7, 91, 75
8, 0, Control_c, 7, 93, 35
8, 536, Control_c, 7, 11, 127
8, 788, Control_c, 7, 101, 0
8, 792, Control_c, 7, 100, 0
8, 796, Control_c, 7, 6, 12
8, 800, Control_c, 7, 101, 127
8, 804, Control_c, 7, 100, 127
8, 6144, Note_on_c, 7, 48, 115
8, 6324, Note_on_c, 7, 48, 0
8, 6348, Note_on_c, 7, 48, 90
8, 6536, Note_on_c, 7, 52, 121
8, 6548, Note_on_c, 7, 55, 123
8, 6548, Note_on_c, 7, 60, 118
8, 6708, Note_on_c, 7, 48, 0
8, 6732, Note_on_c, 7, 48, 107
8, 6828, Note_on_c, 7, 48, 0
8, 6848, Note_on_c, 7, 55, 0
8, 6856, Note_on_c, 7, 52, 0
8, 6912, Note_on_c, 7, 43, 98
8, 6920, Note_on_c, 7, 60, 0
8, 7108, Note_on_c, 7, 43, 0
8, 7112, Note_on_c, 7, 43, 80
8, 7280, Note_on_c, 7, 50, 98
8, 7292, Note_on_c, 7, 55, 121
8, 7296, Note_on_c, 7, 59, 123
8, 7300, Note_on_c, 7, 67, 107
8, 7492, Note_on_c, 7, 50, 0
8, 7504, Note_on_c, 7, 50, 105
8, 7524, Note_on_c, 7, 43, 0
8, 7576, Note_on_c, 7, 67, 0
8, 7648, Note_on_c, 7, 55, 0
8, 7652, Note_on_c, 7, 59, 0
8, 7668, Note_on_c, 7, 50, 0
8, 7676, Note_on_c, 7, 50, 126
8, 7680, Note_on_c, 7, 57, 127
8, 7684, Note_on_c, 7, 62, 117
8, 7864, Note_on_c, 7, 50, 0
8, 7868, Note_on_c, 7, 50, 107
8, 7876, Note_on_c, 7, 57, 0
8, 7880, Note_on_c, 7, 57, 100
8, 7968, Note_on_c, 7, 57, 0
8, 8064, Note_on_c, 7, 50, 0
8, 8064, Note_on_c, 7, 62, 0
8, 8068, Note_on_c, 7, 52, 121
8, 8252, Note_on_c, 7, 52, 0
8, 8268, Note_on_c, 7, 54, 123
8, 8432, Note_on_c, 7, 54, 0
8, 8452, Note_on_c, 7, 45, 115
8, 8632, Pitch_bend_c, 7, 6125
8, 8636, Note_on_c, 7, 45, 0
8, 8636, Pitch_bend_c, 7, 8223
8, 8644, Note_on_c, 7, 45, 103
8, 8832, Note_on_c, 7, 52, 122
8, 8836, Note_on_c, 7, 57, 95
8, 8884, Note_on_c, 7, 57, 0
8, 8928, Note_on_c, 7, 57, 122
8, 9008, Note_on_c, 7, 45, 0
8, 9032, Note_on_c, 7, 45, 110
8, 9092, Note_on_c, 7, 57, 0
8, 9204, Note_on_c, 7, 45, 0
8, 9204, Note_on_c, 7, 52, 0
8, 9216, Note_on_c, 7, 40, 100
8, 9600, Note_on_c, 7, 47, 81
8, 9608, Note_on_c, 7, 52, 120
8, 9612, Note_on_c, 7, 56, 105
8, 9620, Note_on_c, 7, 59, 90
8, 9784, Note_on_c, 7, 47, 0
8, 9856, Note_on_c, 7, 52, 0
8, 9880, Note_on_c, 7, 47, 71
8, 9888, Note_on_c, 7, 52, 90
8, 9932, Note_on_c, 7, 47, 0
8, 9976, Note_on_c, 7, 52, 0
8, 9976, Note_on_c, 7, 47, 110
8, 9984, Note_on_c, 7, 52, 114
8, 10156, Note_on_c, 7, 47, 0
8, 10180, Note_on_c, 7, 47, 101
8, 10184, Note_on_c, 7, 56, 0
8, 10248, Note_on_c, 7, 52, 0
8, 10268, Note_on_c, 7, 50, 127
8, 10276, Note_on_c, 7, 47, 0
8, 10284, Note_on_c, 7, 40, 0
8, 10480, Note_on_c, 7, 47, 98
8, 10560, Note_on_c, 7, 55, 127
8, 10756, Note_on_c, 7, 50, 0
8, 10760, Note_on_c, 7, 52, 125
8, 10768, Note_on_c, 7, 55, 0
8, 10956, Note_on_c, 7, 40, 89
8, 11016, Note_on_c, 7, 47, 0
8, 11136, Note_on_c, 7, 52, 0
8, 11144, Note_on_c, 7, 52, 121
8, 11160, Note_on_c, 7, 59, 0
8, 11160, Note_on_c, 7, 56, 127
8, 11296, Note_on_c, 7, 40, 0
8, 11352, Note_on_c, 7, 47, 86
8, 11504, Note_on_c, 7, 56, 0
8, 11508, Note_on_c, 7, 47, 0
8, 11512, Note_on_c, 7, 52, 0
8, 11536, Note_on_c, 7, 45, 112
8, 11624, Pitch_bend_c, 7, 9597
8, 11700, Note_on_c, 7, 45, 0
8, 11708, Pitch_bend_c, 7, 8192
8, 11712, Note_on_c, 7, 50, 127
8, 11812, Note_on_c, 7, 45, 113
8, 11916, Pitch_bend_c, 7, 9591
8, 11924, Note_on_c, 7, 50, 0
8, 11980, Pitch_bend_c, 7, 9565
8, 11992, Note_on_c, 7, 45, 0
8, 12000, Pitch_bend_c, 7, 8192
8, 12016, Note_on_c, 7, 50, 122
8, 12108, Note_on_c, 7, 45, 110
8, 12168, Note_on_c, 7, 45, 0
8, 12184, Note_on_c, 7, 50, 0
8, 12204, Note_on_c, 7, 47, 100
8, 12288, Note_on_c, 7, 47, 0
8, 12300, Note_on_c, 7, 48, 107
8, 12484, Note_on_c, 7, 52, 89
8, 12636, Note_on_c, 7, 52, 0
8, 12672, Note_on_c, 7, 52, 110
8, 12684, Note_on_c, 7, 55, 127
8, 12688, Note_on_c, 7, 60, 121
8, 12860, Note_on_c, 7, 48, 0
8, 12872, Note_on_c, 7, 48, 105
8, 12964, Note_on_c, 7, 48, 0
8, 13012, Note_on_c, 7, 52, 0
8, 13060, Note_on_c, 7, 43, 89
8, 13136, Note_on_c, 7, 60, 0
8, 13248, Note_on_c, 7, 50, 100
8, 13412, Note_on_c, 7, 50, 0
8, 13424, Note_on_c, 7, 50, 103
8, 13432, Note_on_c, 7, 55, 0
8, 13436, Note_on_c, 7, 55, 127
8, 13444, Note_on_c, 7, 59, 127
8, 13464, Note_on_c, 7, 67, 98
8, 13592, Note_on_c, 7, 43, 0
8, 13636, Note_on_c, 7, 50, 0
8, 13640, Note_on_c, 7, 50, 105
8, 13652, Note_on_c, 7, 55, 0
8, 13656, Note_on_c, 7, 55, 73
8, 13760, Note_on_c, 7, 67, 0
8, 13816, Note_on_c, 7, 55, 0
8, 13820, Note_on_c, 7, 59, 0
8, 13820, Note_on_c, 7, 50, 0
8, 13820, Note_on_c, 7, 62, 58
8, 13824, Note_on_c, 7, 50, 125
8, 14016, Note_on_c, 7, 57, 119
8, 14188, Note_on_c, 7, 66, 127
8, 14196, Note_on_c, 7, 62, 0
8, 14200, Note_on_c, 7, 62, 127
8, 14388, Note_on_c, 7, 50, 0
8, 14392, Note_on_c, 7, 50, 116
8, 14396, Note_on_c, 7, 57, 0
8, 14404, Note_on_c, 7, 57, 121
8, 14416, Note_on_c, 7, 66, 0
8, 14468, Note_on_c, 7, 62, 0
8, 14588, Note_on_c, 7, 45, 113
8, 14592, Note_on_c, 7, 50, 0
8, 14596, Note_on_c, 7, 52, 113
8, 14764, Note_on_c, 7, 45, 0
8, 14784, Note_on_c, 7, 52, 0
8, 14784, Note_on_c, 7, 45, 102
8, 14796, Note_on_c, 7, 52, 94
8, 14876, Note_on_c, 7, 64, 127
8, 15072, Note_on_c, 7, 61, 127
8, 15160, Note_on_c, 7, 52, 0
8, 15172, Note_on_c, 7, 52, 123
8, 15176, Note_on_c, 7, 57, 0
8, 15308, Note_on_c, 7, 61, 0
8, 15308, Note_on_c, 7, 52, 0
8, 15356, Note_on_c, 7, 45, 0
8, 15360, Note_on_c, 7, 40, 93
8, 15364, Note_on_c, 7, 47, 107
8, 15368, Note_on_c, 7, 52, 127
8, 15372, Note_on_c, 7, 56, 122
8, 15728, Note_on_c, 7, 52, 0
8, 15732, Note_on_c, 7, 52, 105
8, 15736, Note_on_c, 7, 56, 0
8, 15744, Note_on_c, 7, 56, 127
8, 15748, Note_on_c, 7, 59, 127
8, 15920, Note_on_c, 7, 47, 0
8, 15940, Note_on_c, 7, 47, 79
8, 16128, Note_on_c, 7, 52, 0
8, 16132, Note_on_c, 7, 52, 127
8, 16136, Note_on_c, 7, 56, 0
8, 16140, Note_on_c, 7, 56, 127
8, 16312, Note_on_c, 7, 47, 0
8, 16340, Note_on_c, 7, 47, 105
8, 16404, Note_on_c, 7, 56, 0
8, 16420, Note_on_c, 7, 52, 0
8, 16432, Note_on_c, 7, 47, 0
8, 16440, Note_on_c, 7, 50, 124
8, 16588, Note_on_c, 7, 40, 0
8, 16620, Note_on_c, 7, 64, 0
8, 16624, Note_on_c, 7, 47, 107
8, 16700, Note_on_c, 7, 55, 127
8, 16724, Note_on_c, 7, 59, 0
8, 16824, Note_on_c, 7, 47, 0
8, 16868, Note_on_c, 7, 50, 0
8, 16896, Note_on_c, 7, 52, 125
8, 16924, Note_on_c, 7, 55, 0
8, 17096, Note_on_c, 7, 40, 95
8, 17276, Note_on_c, 7, 56, 127
8, 17280, Note_on_c, 7, 59, 127
8, 17284, Note_on_c, 7, 64, 104
8, 17416, Note_on_c, 7, 52, 0
8, 17632, Note_on_c, 7, 64, 0
8, 17636, Note_on_c, 7, 56, 0
8, 17664, Note_on_c, 7, 45, 125
8, 17668, Note_on_c, 7, 59, 0
8, 17756, Note_on_c, 7, 45, 0
8, 17760, Note_on_c, 7, 47, 117
8, 17840, Note_on_c, 7, 47, 0
8, 17852, Note_on_c, 7, 50, 124
8, 17944, Note_on_c, 7, 50, 0
8, 17952, Note_on_c, 7, 45, 123
8, 18028, Note_on_c, 7, 45, 0
8, 18044, Note_on_c, 7, 47, 110
8, 18124, Note_on_c, 7, 47, 0
8, 18144, Note_on_c, 7, 50, 127
8, 18240, Note_on_c, 7, 47, 123
8, 18252, Note_on_c, 7, 50, 0
8, 18416, Note_on_c, 7, 47, 0
8, 18448, Note_on_c, 7, 48, 106
8, 18524, Note_on_c, 7, 40, 0
8, 18608, Note_on_c, 7, 48, 0
8, 18624, Note_on_c, 7, 48, 107
8, 18644, Note_on_c, 7, 52, 96
8, 18820, Note_on_c, 7, 55, 127
8, 18824, Note_on_c, 7, 60, 127
8, 19000, Note_on_c, 7, 48, 0
8, 19028, Note_on_c, 7, 48, 98
8, 19120, Note_on_c, 7, 48, 0
8, 19132, Note_on_c, 7, 52, 0
8, 19184, Note_on_c, 7, 60, 0
8, 19212, Note_on_c, 7, 43, 86
8, 19380, Note_on_c, 7, 50, 119
8, 19392, Note_on_c, 7, 55, 0
8, 19396, Note_on_c, 7, 55, 81
8, 19568, Note_on_c, 7, 55, 0
8, 19576, Note_on_c, 7, 55, 127
8, 19588, Note_on_c, 7, 59, 127
8, 19604, Note_on_c, 7, 67, 125
8, 19760, Note_on_c, 7, 43, 0
8, 19784, Note_on_c, 7, 50, 0
8, 19788, Note_on_c, 7, 50, 94
8, 19792, Note_on_c, 7, 55, 0
8, 19796, Note_on_c, 7, 55, 110
8, 19868, Note_on_c, 7, 59, 0
8, 19868, Note_on_c, 7, 59, 63
8, 19888, Note_on_c, 7, 67, 0
8, 19940, Note_on_c, 7, 59, 0
8, 19940, Note_on_c, 7, 62, 60
8, 19956, Note_on_c, 7, 55, 0
8, 19960, Note_on_c, 7, 50, 0
8, 19964, Note_on_c, 7, 50, 127
8, 19968, Note_on_c, 7, 57, 127
8, 20164, Note_on_c, 7, 50, 0
8, 20168, Note_on_c, 7, 50, 112
8, 20172, Note_on_c, 7, 57, 0
8, 20176, Note_on_c, 7, 57, 127
8, 20248, Note_on_c, 7, 57, 0
8, 20340, Note_on_c, 7, 62, 0
8, 20348, Note_on_c, 7, 50, 0
8, 20352, Note_on_c, 7, 52, 126
8, 20528, Note_on_c, 7, 52, 0
8, 20540, Note_on_c, 7, 54, 125
8, 20720, Note_on_c, 7, 54, 0
8, 20740, Note_on_c, 7, 45, 112
8, 20932, Note_on_c, 7, 52, 121
8, 21104, Note_on_c, 7, 45, 0
8, 21124, Note_on_c, 7, 45, 109
8, 21128, Note_on_c, 7, 52, 0
8, 21132, Note_on_c, 7, 52, 100
8, 21224, Note_on_c, 7, 57, 116
8, 21308, Note_on_c, 7, 52, 0
8, 21320, Note_on_c, 7, 52, 102
8, 21444, Note_on_c, 7, 52, 0
8, 21448, Note_on_c, 7, 57, 0
8, 21504, Note_on_c, 7, 45, 0
8, 21504, Note_on_c, 7, 40, 98
8, 21696, Note_on_c, 7, 52, 63
8, 21696, Note_on_c, 7, 47, 82
8, 21864, Note_on_c, 7, 47, 0
8, 21884, Note_on_c, 7, 64, 127
8, 22072, Note_on_c, 7, 56, 107
8, 22220, Note_on_c, 7, 52, 0
8, 22264, Note_on_c, 7, 47, 110
8, 22272, Note_on_c, 7, 52, 126
8, 22276, Note_on_c, 7, 56, 0
8, 22280, Note_on_c, 7, 56, 118
8, 22448, Note_on_c, 7, 47, 0
8, 22468, Note_on_c, 7, 47, 107
8, 22504, Note_on_c, 7, 56, 0
8, 22560, Note_on_c, 7, 52, 0
8, 22564, Note_on_c, 7, 50, 127
8, 22568, Note_on_c, 7, 47, 0
8, 22700, Note_on_c, 7, 40, 0
8, 22760, Note_on_c, 7, 47, 103
8, 22772, Note_on_c, 7, 50, 0
8, 22848, Note_on_c, 7, 55, 127
8, 23024, Note_on_c, 7, 52, 125
8, 23048, Note_on_c, 7, 55, 0
8, 23232, Note_on_c, 7, 40, 90
8, 23420, Note_on_c, 7, 56, 127
8, 23428, Note_on_c, 7, 59, 127
8, 23504, Note_on_c, 7, 47, 0
8, 23612, Note_on_c, 7, 56, 0
8, 23616, Note_on_c, 7, 56, 127
8, 23628, Note_on_c, 7, 59, 0
8, 23632, Note_on_c, 7, 59, 103
8, 23656, Note_on_c, 7, 52, 0
8, 23780, Note_on_c, 7, 56, 0
8, 23780, Note_on_c, 7, 59, 0
8, 23796, Note_on_c, 7, 57, 127
8, 23844, Pitch_bend_c, 7, 8896
8, 23876, Pitch_bend_c, 7, 9600
8, 23936, Note_on_c, 7, 64, 0
8, 23948, Note_on_c, 7, 57, 0
8, 23952, Pitch_bend_c, 7, 8192
8, 23960, Note_on_c, 7, 64, 127
8, 24088, Note_on_c, 7, 59, 127
8, 24156, Pitch_bend_c, 7, 6784
8, 24160, Note_on_c, 7, 64, 0
8, 24288, Note_on_c, 7, 59, 0
8, 24292, Pitch_bend_c, 7, 8192
8, 24300, Note_on_c, 7, 55, 111
8, 24316, Note_on_c, 7, 40, 0
8, 24388, Note_on_c, 7, 52, 125
8, 24392, Note_on_c, 7, 55, 0
8, 24480, Note_on_c, 7, 52, 0
8, 24480, Note_on_c, 7, 50, 81
8, 24568, Note_on_c, 7, 50, 0
8, 24576, Note_on_c, 7, 48, 110
8, 24968, Note_on_c, 7, 55, 127
8, 24972, Note_on_c, 7, 52, 102
8, 24976, Note_on_c, 7, 60, 127
8, 24980, Note_on_c, 7, 64, 100
8, 25136, Note_on_c, 7, 48, 0
8, 25152, Note_on_c, 7, 48, 96
8, 25160, Note_on_c, 7, 52, 0
8, 25164, Note_on_c, 7, 52, 112
8, 25268, Note_on_c, 7, 48, 0
8, 25284, Note_on_c, 7, 52, 0
8, 25288, Note_on_c, 7, 64, 0
8, 25336, Note_on_c, 7, 60, 0
8, 25352, Note_on_c, 7, 43, 94
8, 25372, Note_on_c, 7, 47, 85
8, 25448, Note_on_c, 7, 47, 0
8, 25520, Note_on_c, 7, 55, 0
8, 25540, Note_on_c, 7, 55, 127
8, 25552, Note_on_c, 7, 59, 110
8, 25724, Note_on_c, 7, 67, 127
8, 25732, Note_on_c, 7, 59, 0
8, 25736, Note_on_c, 7, 59, 107
8, 25920, Note_on_c, 7, 50, 113
8, 25924, Note_on_c, 7, 55, 0
8, 25932, Note_on_c, 7, 59, 0
8, 25932, Note_on_c, 7, 55, 127
8, 25936, Note_on_c, 7, 59, 90
8, 25968, Note_on_c, 7, 43, 0
8, 26056, Note_on_c, 7, 67, 0
8, 26112, Note_on_c, 7, 55, 0
8, 26116, Note_on_c, 7, 59, 0
8, 26120, Note_on_c, 7, 62, 69
8, 26124, Note_on_c, 7, 50, 0
8, 26128, Note_on_c, 7, 50, 127
8, 26132, Note_on_c, 7, 57, 105
8, 26292, Note_on_c, 7, 66, 127
8, 26460, Note_on_c, 7, 62, 0
8, 26476, Note_on_c, 7, 62, 127
8, 26600, Note_on_c, 7, 57, 0
8, 26692, Note_on_c, 7, 66, 0
8, 26696, Note_on_c, 7, 50, 0
8, 26700, Note_on_c, 7, 52, 126
8, 26712, Note_on_c, 7, 62, 0
8, 26804, Pitch_bend_c, 7, 9613
8, 26880, Pitch_bend_c, 7, 9383
8, 26896, Note_on_c, 7, 52, 0
8, 26904, Pitch_bend_c, 7, 8282
8, 26908, Note_on_c, 7, 45, 111
8, 27032, Pitch_bend_c, 7, 8192
8, 27088, Note_on_c, 7, 52, 123
8, 27164, Note_on_c, 7, 57, 57
8, 27288, Note_on_c, 7, 57, 0
8, 27292, Note_on_c, 7, 57, 123
8, 27368, Note_on_c, 7, 61, 127
8, 27464, Note_on_c, 7, 52, 0
8, 27468, Note_on_c, 7, 52, 117
8, 27472, Note_on_c, 7, 45, 0
8, 27476, Note_on_c, 7, 45, 57
8, 27540, Note_on_c, 7, 61, 0
8, 27580, Note_on_c, 7, 57, 0
8, 27620, Note_on_c, 7, 52, 0
8, 27644, Note_on_c, 7, 45, 0
8, 27652, Note_on_c, 7, 40, 92
8, 27660, Note_on_c, 7, 47, 101
8, 27700, Note_on_c, 7, 52, 74
8, 27848, Note_on_c, 7, 47, 0
8, 27856, Note_on_c, 7, 52, 0
8, 27856, Note_on_c, 7, 47, 83
8, 27860, Note_on_c, 7, 52, 82
8, 28032, Note_on_c, 7, 47, 0
8, 28036, Note_on_c, 7, 47, 100
8, 28040, Note_on_c, 7, 52, 0
8, 28040, Note_on_c, 7, 52, 123
8, 28052, Note_on_c, 7, 59, 127
8, 28060, Note_on_c, 7, 56, 127
8, 28060, Note_on_c, 7, 64, 90
8, 28232, Note_on_c, 7, 47, 0
8, 28404, Note_on_c, 7, 40, 0
8, 28408, Note_on_c, 7, 40, 78
8, 28416, Note_on_c, 7, 52, 0
8, 28420, Note_on_c, 7, 52, 116
8, 28428, Note_on_c, 7, 47, 100
8, 28592, Note_on_c, 7, 47, 0
8, 28624, Note_on_c, 7, 47, 101
8, 28696, Note_on_c, 7, 56, 0
8, 28712, Note_on_c, 7, 52, 0
8, 28712, Note_on_c, 7, 47, 0
8, 28716, Note_on_c, 7, 50, 125
8, 28724, Note_on_c, 7, 59, 0
8, 28916, Note_on_c, 7, 47, 100
8, 28936, Note_on_c, 7, 40, 0
8, 28980, Note_on_c, 7, 55, 127
8, 28984, Note_on_c, 7, 47, 0
8, 29000, Note_on_c, 7, 64, 0
8, 29188, Note_on_c, 7, 50, 0
8, 29192, Note_on_c, 7, 52, 127
8, 29196, Note_on_c, 7, 55, 0
8, 29384, Note_on_c, 7, 40, 94
8, 29572, Note_on_c, 7, 56, 127
8, 29576, Note_on_c, 7, 59, 127
8, 29828, Note_on_c, 7, 47, 64
8, 29948, Note_on_c, 7, 47, 0
8, 29948, Note_on_c, 7, 40, 0
8, 29956, Note_on_c, 7, 40, 95
8, 30140, Note_on_c, 7, 40, 0
8, 30144, Note_on_c, 7, 40, 90
8, 30148, Note_on_c, 7, 47, 96
8, 30244, Note_on_c, 7, 56, 0
8, 30260, Note_on_c, 7, 56, 60
8, 30320, Note_on_c, 7, 59, 0
8, 30424, Note_on_c, 7, 56, 0
8, 30436, Note_on_c, 7, 56, 127
8, 30528, Note_on_c, 7, 47, 0
8, 30532, Note_on_c, 7, 52, 0
8, 30536, Note_on_c, 7, 47, 105
8, 30540, Note_on_c, 7, 52, 105
8, 30608, Note_on_c, 7, 52, 0
8, 30624, Note_on_c, 7, 47, 0
8, 30624, Note_on_c, 7, 56, 0
8, 30648, Note_on_c, 7, 40, 0
8, 30720, Note_on_c, 7, 48, 115
8, 30900, Note_on_c, 7, 48, 0
8, 30924, Note_on_c, 7, 48, 90
8, 31112, Note_on_c, 7, 52, 121
8, 31124, Note_on_c, 7, 55, 123
8, 31124, Note_on_c, 7, 60, 118
8, 31284, Note_on_c, 7, 48, 0
8, 31308, Note_on_c, 7, 48, 107
8, 31404, Note_on_c, 7, 48, 0
8, 31424, Note_on_c, 7, 55, 0
8, 31432, Note_on_c, 7, 52, 0
8, 31488, Note_on_c, 7, 43, 98
8, 31496, Note_on_c, 7, 60, 0
8, 31684, Note_on_c, 7, 43, 0
8, 31688, Note_on_c, 7, 43, 80
8, 31856, Note_on_c, 7, 50, 98
8, 31868, Note_on_c, 7, 55, 121
8, 31872, Note_on_c, 7, 59, 123
8, 31876, Note_on_c, 7, 67, 107
8, 32068, Note_on_c, 7, 50, 0
8, 32080, Note_on_c, 7, 50, 105
8, 32100, Note_on_c, 7, 43, 0
8, 32152, Note_on_c, 7, 67, 0
8, 32224, Note_on_c, 7, 55, 0
8, 32228, Note_on_c, 7, 59, 0
8, 32244, Note_on_c, 7, 50, 0
8, 32252, Note_on_c, 7, 50, 126
8, 32256, Note_on_c, 7, 57, 127
8, 32260, Note_on_c, 7, 62, 117
8, 32440, Note_on_c, 7, 50, 0
8, 32444, Note_on_c, 7, 50, 107
8, 32452, Note_on_c, 7, 57, 0
8, 32456, Note_on_c, 7, 57, 100
8, 32544, Note_on_c, 7, 57, 0
8, 32640, Note_on_c, 7, 50, 0
8, 32640, Note_on_c, 7, 62, 0
8, 32644, Note_on_c, 7, 52, 121
8, 32828, Note_on_c, 7, 52, 0
8, 32844, Note_on_c, 7, 54, 123
8, 33008, Note_on_c, 7, 54, 0
8, 33028, Note_on_c, 7, 45, 115
8, 33208, Pitch_bend_c, 7, 6125
8, 33212, Note_on_c, 7, 45, 0
8, 33212, Pitch_bend_c, 7, 8223
8, 33220, Note_on_c, 7, 45, 103
8, 33408, Note_on_c, 7, 52, 122
8, 33412, Note_on_c, 7, 57, 95
8, 33460, Note_on_c, 7, 57, 0
8, 33504, Note_on_c, 7, 57, 122
8, 33584, Note_on_c, 7, 45, 0
8, 33608, Note_on_c, 7, 45, 110
8, 33668, Note_on_c, 7, 57, 0
8, 33780, Note_on_c, 7, 45, 0
8, 33780, Note_on_c, 7, 52, 0
8, 33792, Note_on_c, 7, 40, 100
8, 34176, Note_on_c, 7, 47, 81
8, 34184, Note_on_c, 7, 52, 120
8, 34188, Note_on_c, 7, 56, 105
8, 34196, Note_on_c, 7, 59, 90
8, 34360, Note_on_c, 7, 47, 0
8, 34432, Note_on_c, 7, 52, 0
8, 34456, Note_on_c, 7, 47, 71
8, 34464, Note_on_c, 7, 52, 90
8, 34508, Note_on_c, 7, 47, 0
8, 34552, Note_on_c, 7, 52, 0
8, 34552, Note_on_c, 7, 47, 110
8, 34560, Note_on_c, 7, 52, 114
8, 34732, Note_on_c, 7, 47, 0
8, 34756, Note_on_c, 7, 47, 101
8, 34760, Note_on_c, 7, 56, 0
8, 34824, Note_on_c, 7, 52, 0
8, 34844, Note_on_c, 7, 50, 127
8, 34852, Note_on_c, 7, 47, 0
8, 34860, Note_on_c, 7, 40, 0
8, 35056, Note_on_c, 7, 47, 98
8, 35136, Note_on_c, 7, 55, 127
8, 35332, Note_on_c, 7, 50, 0
8, 35336, Note_on_c, 7, 52, 125
8, 35344, Note_on_c, 7, 55, 0
8, 35532, Note_on_c, 7, 40, 89
8, 35592, Note_on_c, 7, 47, 0
8, 35712, Note_on_c, 7, 52, 0
8, 35720, Note_on_c, 7, 52, 121
8, 35736, Note_on_c, 7, 59, 0
8, 35736, Note_on_c, 7, 56, 127
8, 35872, Note_on_c, 7, 40, 0
8, 35928, Note_on_c, 7, 47, 86
8, 36080, Note_on_c, 7, 56, 0
8, 36084, Note_on_c, 7, 47, 0
8, 36088, Note_on_c, 7, 52, 0
8, 36112, Note_on_c, 7, 45, 112
8, 36200, Pitch_bend_c, 7, 9597
8, 36276, Note_on_c, 7, 45, 0
8, 36284, Pitch_bend_c, 7, 8192
8, 36288, Note_on_c, 7, 50, 127
8, 36388, Note_on_c, 7, 45, 113
8, 36492, Pitch_bend_c, 7, 9591
8, 36500, Note_on_c, 7, 50, 0
8, 36556, Pitch_bend_c, 7, 9565
8, 36568, Note_on_c, 7, 45, 0
8, 36576, Pitch_bend_c, 7, 8192
8, 36592, Note_on_c, 7, 50, 122
8, 36684, Note_on_c, 7, 45, 110
8, 36744, Note_on_c, 7, 45, 0
8, 36760, Note_on_c, 7, 50, 0
8, 36780, Note_on_c, 7, 47, 100
8, 36864, Note_on_c, 7, 47, 0
8, 36876, Note_on_c, 7, 48, 107
8, 37060, Note_on_c, 7, 52, 89
8, 37212, Note_on_c, 7, 52, 0
8, 37248, Note_on_c, 7, 52, 110
8, 37260, Note_on_c, 7, 55, 127
8, 37264, Note_on_c, 7, 60, 121
8, 37436, Note_on_c, 7, 48, 0
8, 37448, Note_on_c, 7, 48, 105
8, 37540, Note_on_c, 7, 48, 0
8, 37588, Note_on_c, 7, 52, 0
8, 37636, Note_on_c, 7, 43, 89
8, 37712, Note_on_c, 7, 60, 0
8, 37824, Note_on_c, 7, 50, 100
8, 37988, Note_on_c, 7, 50, 0
8, 38000, Note_on_c, 7, 50, 103
8, 38008, Note_on_c, 7, 55, 0
8, 38012, Note_on_c, 7, 55, 127
8, 38020, Note_on_c, 7, 59, 127
8, 38040, Note_on_c, 7, 67, 98
8, 38168, Note_on_c, 7, 43, 0
8, 38212, Note_on_c, 7, 50, 0
8, 38216, Note_on_c, 7, 50, 105
8, 38228, Note_on_c, 7, 55, 0
8, 38232, Note_on_c, 7, 55, 73
8, 38336, Note_on_c, 7, 67, 0
8, 38392, Note_on_c, 7, 55, 0
8, 38396, Note_on_c, 7, 59, 0
8, 38396, Note_on_c, 7, 50, 0
8, 38396, Note_on_c, 7, 62, 58
8, 38400, Note_on_c, 7, 50, 125
8, 38592, Note_on_c, 7, 57, 119
8, 38764, Note_on_c, 7, 66, 127
8, 38772, Note_on_c, 7, 62, 0
8, 38776, Note_on_c, 7, 62, 127
8, 38964, Note_on_c, 7, 50, 0
8, 38968, Note_on_c, 7, 50, 116
8, 38972, Note_on_c, 7, 57, 0
8, 38980, Note_on_c, 7, 57, 121
8, 38992, Note_on_c, 7, 66, 0
8, 39044, Note_on_c, 7, 62, 0
8, 39164, Note_on_c, 7, 45, 113
8, 39168, Note_on_c, 7, 50, 0
8, 39172, Note_on_c, 7, 52, 113
8, 39340, Note_on_c, 7, 45, 0
8, 39360, Note_on_c, 7, 52, 0
8, 39360, Note_on_c, 7, 45, 102
8, 39372, Note_on_c, 7, 52, 94
8, 39452, Note_on_c, 7, 64, 127
8, 39648, Note_on_c, 7, 61, 127
8, 39736, Note_on_c, 7, 52, 0
8, 39748, Note_on_c, 7, 52, 123
8, 39752, Note_on_c, 7, 57, 0
8, 39884, Note_on_c, 7, 61, 0
8, 39884, Note_on_c, 7, 52, 0
8, 39932, Note_on_c, 7, 45, 0
8, 39936, Note_on_c, 7, 40, 93
8, 39940, Note_on_c, 7, 47, 107
8, 39944, Note_on_c, 7, 52, 127
8, 39948, Note_on_c, 7, 56, 122
8, 40304, Note_on_c, 7, 52, 0
8, 40308, Note_on_c, 7, 52, 105
8, 40312, Note_on_c, 7, 56, 0
8, 40320, Note_on_c, 7, 56, 127
8, 40324, Note_on_c, 7, 59, 127
8, 40496, Note_on_c, 7, 47, 0
8, 40516, Note_on_c, 7, 47, 79
8, 40704, Note_on_c, 7, 52, 0
8, 40708, Note_on_c, 7, 52, 127
8, 40712, Note_on_c, 7, 56, 0
8, 40716, Note_on_c, 7, 56, 127
8, 40888, Note_on_c, 7, 47, 0
8, 40916, Note_on_c, 7, 47, 105
8, 40980, Note_on_c, 7, 56, 0
8, 40996, Note_on_c, 7, 52, 0
8, 41008, Note_on_c, 7, 47, 0
8, 41016, Note_on_c, 7, 50, 124
8, 41164, Note_on_c, 7, 40, 0
8, 41196, Note_on_c, 7, 64, 0
8, 41200, Note_on_c, 7, 47, 107
8, 41276, Note_on_c, 7, 55, 127
8, 41300, Note_on_c, 7, 59, 0
8, 41400, Note_on_c, 7, 47, 0
8, 41444, Note_on_c, 7, 50, 0
8, 41472, Note_on_c, 7, 52, 125
8, 41488, Note_on_c, 7, 55, 0
8, 41672, Note_on_c, 7, 40, 95
8, 41852, Note_on_c, 7, 56, 127
8, 41856, Note_on_c, 7, 59, 127
8, 41860, Note_on_c, 7, 64, 104
8, 41992, Note_on_c, 7, 52, 0
8, 42208, Note_on_c, 7, 64, 0
8, 42212, Note_on_c, 7, 56, 0
8, 42240, Note_on_c, 7, 45, 125
8, 42244, Note_on_c, 7, 59, 0
8, 42332, Note_on_c, 7, 45, 0
8, 42336, Note_on_c, 7, 47, 117
8, 42416, Note_on_c, 7, 47, 0
8, 42428, Note_on_c, 7, 50, 124
8, 42520, Note_on_c, 7, 50, 0
8, 42528, Note_on_c, 7, 45, 123
8, 42604, Note_on_c, 7, 45, 0
8, 42620, Note_on_c, 7, 47, 110
8, 42700, Note_on_c, 7, 47, 0
8, 42720, Note_on_c, 7, 50, 127
8, 42816, Note_on_c, 7, 47, 123
8, 42828, Note_on_c, 7, 50, 0
8, 42992, Note_on_c, 7, 47, 0
8, 43024, Note_on_c, 7, 48, 106
8, 43100, Note_on_c, 7, 40, 0
8, 43184, Note_on_c, 7, 48, 0
8, 43200, Note_on_c, 7, 48, 107
8, 43220, Note_on_c, 7, 52, 96
8, 43396, Note_on_c, 7, 55, 127
8, 43400, Note_on_c, 7, 60, 127
8, 43576, Note_on_c, 7, 48, 0
8, 43604, Note_on_c, 7, 48, 98
8, 43696, Note_on_c, 7, 48, 0
8, 43708, Note_on_c, 7, 52, 0
8, 43760, Note_on_c, 7, 60, 0
8, 43788, Note_on_c, 7, 43, 86
8, 43956, Note_on_c, 7, 50, 119
8, 43968, Note_on_c, 7, 55, 0
8, 43972, Note_on_c, 7, 55, 81
8, 44144, Note_on_c, 7, 55, 0
8, 44152, Note_on_c, 7, 55, 127
8, 44164, Note_on_c, 7, 59, 127
8, 44180, Note_on_c, 7, 67, 125
8, 44336, Note_on_c, 7, 43, 0
8, 44360, Note_on_c, 7, 50, 0
8, 44364, Note_on_c, 7, 50, 94
8, 44368, Note_on_c, 7, 55, 0
8, 44372, Note_on_c, 7, 55, 110
8, 44444, Note_on_c, 7, 59, 0
8, 44444, Note_on_c, 7, 59, 63
8, 44464, Note_on_c, 7, 67, 0
8, 44516, Note_on_c, 7, 59, 0
8, 44516, Note_on_c, 7, 62, 60
8, 44532, Note_on_c, 7, 55, 0
8, 44536, Note_on_c, 7, 50, 0
8, 44540, Note_on_c, 7, 50, 127
8, 44544, Note_on_c, 7, 57, 127
8, 44740, Note_on_c, 7, 50, 0
8, 44744, Note_on_c, 7, 50, 112
8, 44748, Note_on_c, 7, 57, 0
8, 44752, Note_on_c, 7, 57, 127
8, 44824, Note_on_c, 7, 57, 0
8, 44916, Note_on_c, 7, 62, 0
8, 44924, Note_on_c, 7, 50, 0
8, 44928, Note_on_c, 7, 52, 126
8, 45104, Note_on_c, 7, 52, 0
8, 45116, Note_on_c, 7, 54, 125
8, 45296, Note_on_c, 7, 54, 0
8, 45316, Note_on_c, 7, 45, 112
8, 45508, Note_on_c, 7, 52, 121
8, 45680, Note_on_c, 7, 45, 0
8, 45700, Note_on_c, 7, 45, 109
8, 45704, Note_on_c, 7, 52, 0
8, 45708, Note_on_c, 7, 52, 100
8, 45800, Note_on_c, 7, 57, 116
8, 45884, Note_on_c, 7, 52, 0
8, 45896, Note_on_c, 7, 52, 102
8, 46020, Note_on_c, 7, 52, 0
8, 46024, Note_on_c, 7, 57, 0
8, 46080, Note_on_c, 7, 45, 0
8, 46080, Note_on_c, 7, 40, 98
8, 46272, Note_on_c, 7, 52, 63
8, 46272, Note_on_c, 7, 47, 82
8, 46440, Note_on_c, 7, 47, 0
8, 46460, Note_on_c, 7, 64, 127
8, 46648, Note_on_c, 7, 56, 107
8, 46796, Note_on_c, 7, 52, 0
8, 46840, Note_on_c, 7, 47, 110
8, 46848, Note_on_c, 7, 52, 126
8, 46852, Note_on_c, 7, 56, 0
8, 46856, Note_on_c, 7, 56, 118
8, 47024, Note_on_c, 7, 47, 0
8, 47044, Note_on_c, 7, 47, 107
8, 47080, Note_on_c, 7, 56, 0
8, 47136, Note_on_c, 7, 52, 0
8, 47140, Note_on_c, 7, 50, 127
8, 47144, Note_on_c, 7, 47, 0
8, 47276, Note_on_c, 7, 40, 0
8, 47336, Note_on_c, 7, 47, 103
8, 47348, Note_on_c, 7, 50, 0
8, 47424, Note_on_c, 7, 55, 127
8, 47600, Note_on_c, 7, 52, 125
8, 47632, Note_on_c, 7, 55, 0
8, 47808, Note_on_c, 7, 40, 90
8, 47996, Note_on_c, 7, 56, 127
8, 48004, Note_on_c, 7, 59, 127
8, 48080, Note_on_c, 7, 47, 0
8, 48188, Note_on_c, 7, 56, 0
8, 48192, Note_on_c, 7, 56, 127
8, 48204, Note_on_c, 7, 59, 0
8, 48208, Note_on_c, 7, 59, 103
8, 48232, Note_on_c, 7, 52, 0
8, 48356, Note_on_c, 7, 56, 0
8, 48356, Note_on_c, 7, 59, 0
8, 48372, Note_on_c, 7, 57, 127
8, 48420, Pitch_bend_c, 7, 8896
8, 48452, Pitch_bend_c, 7, 9600
8, 48512, Note_on_c, 7, 64, 0
8, 48524, Note_on_c, 7, 57, 0
8, 48528, Pitch_bend_c, 7, 8192
8, 48536, Note_on_c, 7, 64, 127
8, 48664, Note_on_c, 7, 59, 127
8, 48732, Pitch_bend_c, 7, 6784
8, 48736, Note_on_c, 7, 64, 0
8, 48864, Note_on_c, 7, 59, 0
8, 48868, Pitch_bend_c, 7, 8192
8, 48876, Note_on_c, 7, 55, 111
8, 48892, Note_on_c, 7, 40, 0
8, 48964, Note_on_c, 7, 52, 125
8, 48968, Note_on_c, 7, 55, 0
8, 49056, Note_on_c, 7, 52, 0
8, 49056, Note_on_c, 7, 50, 81
8, 49144, Note_on_c, 7, 50, 0
8, 49152, Note_on_c, 7, 48, 110
8, 49544, Note_on_c, 7, 55, 127
8, 49548, Note_on_c, 7, 52, 102
8, 49552, Note_on_c, 7, 60, 127
8, 49556, Note_on_c, 7, 64, 100
8, 49712, Note_on_c, 7, 48, 0
8, 49728, Note_on_c, 7, 48, 96
8, 49736, Note_on_c, 7, 52, 0
8, 49740, Note_on_c, 7, 52, 112
8, 49844, Note_on_c, 7, 48, 0
8, 49860, Note_on_c, 7, 52, 0
8, 49864, Note_on_c, 7, 64, 0
8, 49912, Note_on_c, 7, 60, 0
8, 49928, Note_on_c, 7, 43, 94
8, 49948, Note_on_c, 7, 47, 85
8, 50024, Note_on_c, 7, 47, 0
8, 50096, Note_on_c, 7, 55, 0
8, 50116, Note_on_c, 7, 55, 127
8, 50128, Note_on_c, 7, 59, 110
8, 50300, Note_on_c, 7, 67, 127
8, 50308, Note_on_c, 7, 59, 0
8, 50312, Note_on_c, 7, 59, 107
8, 50496, Note_on_c, 7, 50, 113
8, 50500, Note_on_c, 7, 55, 0
8, 50508, Note_on_c, 7, 59, 0
8, 50508, Note_on_c, 7, 55, 127
8, 50512, Note_on_c, 7, 59, 90
8, 50544, Note_on_c, 7, 43, 0
8, 50632, Note_on_c, 7, 67, 0
8, 50688, Note_on_c, 7, 55, 0
8, 50692, Note_on_c, 7, 59, 0
8, 50696, Note_on_c, 7, 62, 69
8, 50700, Note_on_c, 7, 50, 0
8, 50704, Note_on_c, 7, 50, 127
8, 50708, Note_on_c, 7, 57, 105
8, 50868, Note_on_c, 7, 66, 127
8, 51036, Note_on_c, 7, 62, 0
8, 51052, Note_on_c, 7, 62, 127
8, 51176, Note_on_c, 7, 57, 0
8, 51268, Note_on_c, 7, 66, 0
8, 51272, Note_on_c, 7, 50, 0
8, 51276, Note_on_c, 7, 52, 126
8, 51288, Note_on_c, 7, 62, 0
8, 51380, Pitch_bend_c, 7, 9613
8, 51456, Pitch_bend_c, 7, 9383
8, 51472, Note_on_c, 7, 52, 0
8, 51480, Pitch_bend_c, 7, 8282
8, 51484, Note_on_c, 7, 45, 111
8, 51608, Pitch_bend_c, 7, 8192
8, 51664, Note_on_c, 7, 52, 123
8, 51740, Note_on_c, 7, 57, 57
8, 51864, Note_on_c, 7, 57, 0
8, 51868, Note_on_c, 7, 57, 123
8, 51944, Note_on_c, 7, 61, 127
8, 52040, Note_on_c, 7, 52, 0
8, 52044, Note_on_c, 7, 52, 117
8, 52048, Note_on_c, 7, 45, 0
8, 52052, Note_on_c, 7, 45, 57
8, 52116, Note_on_c, 7, 61, 0
8, 52156, Note_on_c, 7, 57, 0
8, 52196, Note_on_c, 7, 52, 0
8, 52220, Note_on_c, 7, 45, 0
8, 52228, Note_on_c, 7, 40, 92
8, 52236, Note_on_c, 7, 47, 101
8, 52276, Note_on_c, 7, 52, 74
8, 52424, Note_on_c, 7, 47, 0
8, 52432, Note_on_c, 7, 52, 0
8, 52432, Note_on_c, 7, 47, 83
8, 52436, Note_on_c, 7, 52, 82
8, 52608, Note_on_c, 7, 47, 0
8, 52612, Note_on_c, 7, 47, 100
8, 52616, Note_on_c, 7, 52, 0
8, 52616, Note_on_c, 7, 52, 123
8, 52628, Note_on_c, 7, 59, 127
8, 52636, Note_on_c, 7, 56, 127
8, 52636, Note_on_c, 7, 64, 90
8, 52808, Note_on_c, 7, 47, 0
8, 52980, Note_on_c, 7, 40, 0
8, 52984, Note_on_c, 7, 40, 78
8, 52992, Note_on_c, 7, 52, 0
8, 52996, Note_on_c, 7, 52, 116
8, 53004, Note_on_c, 7, 47, 100
8, 53168, Note_on_c, 7, 47, 0
8, 53200, Note_on_c, 7, 47, 101
8, 53272, Note_on_c, 7, 56, 0
8, 53288, Note_on_c, 7, 52, 0
8, 53288, Note_on_c, 7, 47, 0
8, 53292, Note_on_c, 7, 50, 125
8, 53300, Note_on_c, 7, 59, 0
8, 53492, Note_on_c, 7, 47, 100
8, 53512, Note_on_c, 7, 40, 0
8, 53556, Note_on_c, 7, 55, 127
8, 53560, Note_on_c, 7, 47, 0
8, 53576, Note_on_c, 7, 64, 0
8, 53764, Note_on_c, 7, 50, 0
8, 53768, Note_on_c, 7, 52, 127
8, 53772, Note_on_c, 7, 55, 0
8, 53960, Note_on_c, 7, 40, 94
8, 54148, Note_on_c, 7, 56, 127
8, 54152, Note_on_c, 7, 59, 127
8, 54404, Note_on_c, 7, 47, 64
8, 54524, Note_on_c, 7, 47, 0
8, 54524, Note_on_c, 7, 40, 0
8, 54532, Note_on_c, 7, 40, 95
8, 54716, Note_on_c, 7, 40, 0
8, 54720, Note_on_c, 7, 40, 90
8, 54724, Note_on_c, 7, 47, 96
8, 54820, Note_on_c, 7, 56, 0
8, 54836, Note_on_c, 7, 56, 60
8, 54896, Note_on_c, 7, 59, 0
8, 55000, Note_on_c, 7, 56, 0
8, 55012, Note_on_c, 7, 56, 127
8, 55104, Note_on_c, 7, 47, 0
8, 55108, Note_on_c, 7, 52, 0
8, 55112, Note_on_c, 7, 47, 105
8, 55116, Note_on_c, 7, 52, 105
8, 55184, Note_on_c, 7, 52, 0
8, 55200, Note_on_c, 7, 47, 0
8, 55200, Note_on_c, 7, 56, 0
8, 55224, Note_on_c, 7, 40, 0
8, 55296, Note_on_c, 7, 48, 115
8, 55476, Note_on_c, 7, 48, 0
8, 55500, Note_on_c, 7, 48, 90
8, 55688, Note_on_c, 7, 52, 121
8, 55700, Note_on_c, 7, 55, 123
8, 55700, Note_on_c, 7, 60, 118
8, 55860, Note_on_c, 7, 48, 0
8, 55884, Note_on_c, 7, 48, 107
8, 55980, Note_on_c, 7, 48, 0
8, 56000, Note_on_c, 7, 55, 0
8, 56008, Note_on_c, 7, 52, 0
8, 56064, Note_on_c, 7, 43, 98
8, 56072, Note_on_c, 7, 60, 0
8, 56260, Note_on_c, 7, 43, 0
8, 56264, Note_on_c, 7, 43, 80
8, 56432, Note_on_c, 7, 50, 98
8, 56444, Note_on_c, 7, 55, 121
8, 56448, Note_on_c, 7, 59, 123
8, 56452, Note_on_c, 7, 67, 107
8, 56644, Note_on_c, 7, 50, 0
8, 56656, Note_on_c, 7, 50, 105
8, 56676, Note_on_c, 7, 43, 0
8, 56728, Note_on_c, 7, 67, 0
8, 56800, Note_on_c, 7, 55, 0
8, 56804, Note_on_c, 7, 59, 0
8, 56820, Note_on_c, 7, 50, 0
8, 56828, Note_on_c, 7, 50, 126
8, 56832, Note_on_c, 7, 57, 127
8, 56836, Note_on_c, 7, 62, 117
8, 57016, Note_on_c, 7, 50, 0
8, 57020, Note_on_c, 7, 50, 107
8, 57028, Note_on_c, 7, 57, 0
8, 57032, Note_on_c, 7, 57, 100
8, 57120, Note_on_c, 7, 57, 0
8, 57216, Note_on_c, 7, 50, 0
8, 57216, Note_on_c, 7, 62, 0
8, 57220, Note_on_c, 7, 52, 121
8, 57404, Note_on_c, 7, 52, 0
8, 57420, Note_on_c, 7, 54, 123
8, 57584, Note_on_c, 7, 54, 0
8, 57604, Note_on_c, 7, 45, 115
8, 57784, Pitch_bend_c, 7, 6125
8, 57788, Note_on_c, 7, 45, 0
8, 57788, Pitch_bend_c, 7, 8223
8, 57796, Note_on_c, 7, 45, 103
8, 57984, Note_on_c, 7, 52, 122
8, 57988, Note_on_c, 7, 57, 95
8, 58036, Note_on_c, 7, 57, 0
8, 58080, Note_on_c, 7, 57, 122
8, 58160, Note_on_c, 7, 45, 0
8, 58184, Note_on_c, 7, 45, 110
8, 58244, Note_on_c, 7, 57, 0
8, 58356, Note_on_c, 7, 45, 0
8, 58356, Note_on_c, 7, 52, 0
8, 58368, Note_on_c, 7, 40, 100
8, 58752, Note_on_c, 7, 47, 81
8, 58760, Note_on_c, 7, 52, 120
8, 58764, Note_on_c, 7, 56, 105
8, 58772, Note_on_c, 7, 59, 90
8, 58936, Note_on_c, 7, 47, 0
8, 59008, Note_on_c, 7, 52, 0
8, 59032, Note_on_c, 7, 47, 71
8, 59040, Note_on_c, 7, 52, 90
8, 59084, Note_on_c, 7, 47, 0
8, 59128, Note_on_c, 7, 52, 0
8, 59128, Note_on_c, 7, 47, 110
8, 59136, Note_on_c, 7, 52, 114
8, 59308, Note_on_c, 7, 47, 0
8, 59332, Note_on_c, 7, 47, 101
8, 59336, Note_on_c, 7, 56, 0
8, 59400, Note_on_c, 7, 52, 0
8, 59420, Note_on_c, 7, 50, 127
8, 59428, Note_on_c, 7, 47, 0
8, 59436, Note_on_c, 7, 40, 0
8, 59632, Note_on_c, 7, 47, 98
8, 59712, Note_on_c, 7, 55, 127
8, 59908, Note_on_c, 7, 50, 0
8, 59912, Note_on_c, 7, 55, 0
8, 59912, Note_on_c, 7, 52, 125
8, 60108, Note_on_c, 7, 40, 89
8, 60168, Note_on_c, 7, 47, 0
8, 60288, Note_on_c, 7, 52, 0
8, 60296, Note_on_c, 7, 52, 121
8, 60312, Note_on_c, 7, 59, 0
8, 60312, Note_on_c, 7, 56, 127
8, 60448, Note_on_c, 7, 40, 0
8, 60504, Note_on_c, 7, 47, 86
8, 60656, Note_on_c, 7, 56, 0
8, 60660, Note_on_c, 7, 47, 0
8, 60664, Note_on_c, 7, 52, 0
8, 60688, Note_on_c, 7, 45, 112
8, 60776, Pitch_bend_c, 7, 9597
8, 60852, Note_on_c, 7, 45, 0
8, 60860, Pitch_bend_c, 7, 8192
8, 60864, Note_on_c, 7, 50, 127
8, 60964, Note_on_c, 7, 45, 113
8, 61068, Pitch_bend_c, 7, 9591
8, 61076, Note_on_c, 7, 50, 0
8, 61132, Pitch_bend_c, 7, 9565
8, 61144, Note_on_c, 7, 45, 0
8, 61152, Pitch_bend_c, 7, 8192
8, 61168, Note_on_c, 7, 50, 122
8, 61260, Note_on_c, 7, 45, 110
8, 61320, Note_on_c, 7, 45, 0
8, 61336, Note_on_c, 7, 50, 0
8, 61356, Note_on_c, 7, 47, 100
8, 61440, Note_on_c, 7, 47, 0
8, 61452, Note_on_c, 7, 48, 107
8, 61636, Note_on_c, 7, 52, 89
8, 61788, Note_on_c, 7, 52, 0
8, 61824, Note_on_c, 7, 52, 110
8, 61836, Note_on_c, 7, 55, 127
8, 61840, Note_on_c, 7, 60, 121
8, 62012, Note_on_c, 7, 48, 0
8, 62024, Note_on_c, 7, 48, 105
8, 62116, Note_on_c, 7, 48, 0
8, 62164, Note_on_c, 7, 52, 0
8, 62212, Note_on_c, 7, 43, 89
8, 62288, Note_on_c, 7, 60, 0
8, 62400, Note_on_c, 7, 50, 100
8, 62564, Note_on_c, 7, 50, 0
8, 62576, Note_on_c, 7, 50, 103
8, 62584, Note_on_c, 7, 55, 0
8, 62588, Note_on_c, 7, 55, 127
8, 62596, Note_on_c, 7, 59, 127
8, 62616, Note_on_c, 7, 67, 98
8, 62744, Note_on_c, 7, 43, 0
8, 62788, Note_on_c, 7, 50, 0
8, 62792, Note_on_c, 7, 50, 105
8, 62804, Note_on_c, 7, 55, 0
8, 62808, Note_on_c, 7, 55, 73
8, 62912, Note_on_c, 7, 67, 0
8, 62968, Note_on_c, 7, 55, 0
8, 62972, Note_on_c, 7, 59, 0
8, 62972, Note_on_c, 7, 50, 0
8, 62972, Note_on_c, 7, 62, 58
8, 62976, Note_on_c, 7, 50, 125
8, 63168, Note_on_c, 7, 57, 119
8, 63340, Note_on_c, 7, 66, 127
8, 63348, Note_on_c, 7, 62, 0
8, 63352, Note_on_c, 7, 62, 127
8, 63540, Note_on_c, 7, 50, 0
8, 63544, Note_on_c, 7, 50, 116
8, 63548, Note_on_c, 7, 57, 0
8, 63556, Note_on_c, 7, 57, 121
8, 63568, Note_on_c, 7, 66, 0
8, 63620, Note_on_c, 7, 62, 0
8, 63740, Note_on_c, 7, 45, 113
8, 63744, Note_on_c, 7, 50, 0
8, 63748, Note_on_c, 7, 52, 113
8, 63916, Note_on_c, 7, 45, 0
8, 63936, Note_on_c, 7, 52, 0
8, 63936, Note_on_c, 7, 45, 102
8, 63948, Note_on_c, 7, 52, 94
8, 64028, Note_on_c, 7, 64, 127
8, 64224, Note_on_c, 7, 61, 127
8, 64312, Note_on_c, 7, 52, 0
8, 64324, Note_on_c, 7, 52, 123
8, 64328, Note_on_c, 7, 57, 0
8, 64460, Note_on_c, 7, 61, 0
8, 64460, Note_on_c, 7, 52, 0
8, 64508, Note_on_c, 7, 45, 0
8, 64512, Note_on_c, 7, 40, 93
8, 64516, Note_on_c, 7, 47, 107
8, 64520, Note_on_c, 7, 52, 127
8, 64524, Note_on_c, 7, 56, 122
8, 64880, Note_on_c, 7, 52, 0
8, 64884, Note_on_c, 7, 52, 105
8, 64888, Note_on_c, 7, 56, 0
8, 64896, Note_on_c, 7, 56, 127
8, 64900, Note_on_c, 7, 59, 127
8, 65072, Note_on_c, 7, 47, 0
8, 65092, Note_on_c, 7, 47, 79
8, 65280, Note_on_c, 7, 52, 0
8, 65284, Note_on_c, 7, 52, 127
8, 65288, Note_on_c, 7, 56, 0
8, 65292, Note_on_c, 7, 56, 127
8, 65464, Note_on_c, 7, 47, 0
8, 65492, Note_on_c, 7, 47, 105
8, 65556, Note_on_c, 7, 56, 0
8, 65572, Note_on_c, 7, 52, 0
8, 65584, Note_on_c, 7, 47, 0
8, 65592, Note_on_c, 7, 50, 124
8, 65740, Note_on_c, 7, 40, 0
8, 65772, Note_on_c, 7, 64, 0
8, 65776, Note_on_c, 7, 47, 107
8, 65852, Note_on_c, 7, 55, 127
8, 65876, Note_on_c, 7, 59, 0
8, 65976, Note_on_c, 7, 47, 0
8, 66020, Note_on_c, 7, 50, 0
8, 66048, Note_on_c, 7, 52, 125
8, 66072, Note_on_c, 7, 55, 0
8, 66248, Note_on_c, 7, 40, 95
8, 66428, Note_on_c, 7, 56, 127
8, 66432, Note_on_c, 7, 59, 127
8, 66436, Note_on_c, 7, 64, 104
8, 66568, Note_on_c, 7, 52, 0
8, 66784, Note_on_c, 7, 64, 0
8, 66788, Note_on_c, 7, 56, 0
8, 66816, Note_on_c, 7, 45, 125
8, 66820, Note_on_c, 7, 59, 0
8, 66908, Note_on_c, 7, 45, 0
8, 66912, Note_on_c, 7, 47, 117
8, 66992, Note_on_c, 7, 47, 0
8, 67004, Note_on_c, 7, 50, 124
8, 67096, Note_on_c, 7, 50, 0
8, 67104, Note_on_c, 7, 45, 123
8, 67180, Note_on_c, 7, 45, 0
8, 67196, Note_on_c, 7, 47, 110
8, 67276, Note_on_c, 7, 47, 0
8, 67296, Note_on_c, 7, 50, 127
8, 67392, Note_on_c, 7, 47, 123
8, 67404, Note_on_c, 7, 50, 0
8, 67568, Note_on_c, 7, 47, 0
8, 67600, Note_on_c, 7, 48, 106
8, 67676, Note_on_c, 7, 40, 0
8, 67760, Note_on_c, 7, 48, 0
8, 67776, Note_on_c, 7, 48, 107
8, 67796, Note_on_c, 7, 52, 96
8, 67972, Note_on_c, 7, 55, 127
8, 67976, Note_on_c, 7, 60, 127
8, 68152, Note_on_c, 7, 48, 0
8, 68180, Note_on_c, 7, 48, 98
8, 68272, Note_on_c, 7, 48, 0
8, 68284, Note_on_c, 7, 52, 0
8, 68336, Note_on_c, 7, 60, 0
8, 68364, Note_on_c, 7, 43, 86
8, 68532, Note_on_c, 7, 50, 119
8, 68544, Note_on_c, 7, 55, 0
8, 68548, Note_on_c, 7, 55, 81
8, 68720, Note_on_c, 7, 55, 0
8, 68728, Note_on_c, 7, 55, 127
8, 68740, Note_on_c, 7, 59, 127
8, 68756, Note_on_c, 7, 67, 125
8, 68912, Note_on_c, 7, 43, 0
8, 68936, Note_on_c, 7, 50, 0
8, 68940, Note_on_c, 7, 50, 94
8, 68944, Note_on_c, 7, 55, 0
8, 68948, Note_on_c, 7, 55, 110
8, 69020, Note_on_c, 7, 59, 0
8, 69020, Note_on_c, 7, 59, 63
8, 69040, Note_on_c, 7, 67, 0
8, 69092, Note_on_c, 7, 59, 0
8, 69092, Note_on_c, 7, 62, 60
8, 69108, Note_on_c, 7, 55, 0
8, 69112, Note_on_c, 7, 50, 0
8, 69116, Note_on_c, 7, 50, 127
8, 69120, Note_on_c, 7, 57, 127
8, 69316, Note_on_c, 7, 50, 0
8, 69320, Note_on_c, 7, 50, 112
8, 69324, Note_on_c, 7, 57, 0
8, 69328, Note_on_c, 7, 57, 127
8, 69400, Note_on_c, 7, 57, 0
8, 69492, Note_on_c, 7, 62, 0
8, 69500, Note_on_c, 7, 50, 0
8, 69504, Note_on_c, 7, 52, 126
8, 69680, Note_on_c, 7, 52, 0
8, 69692, Note_on_c, 7, 54, 125
8, 69872, Note_on_c, 7, 54, 0
8, 69892, Note_on_c, 7, 45, 112
8, 70084, Note_on_c, 7, 52, 121
8, 70256, Note_on_c, 7, 45, 0
8, 70276, Note_on_c, 7, 45, 109
8, 70280, Note_on_c, 7, 52, 0
8, 70284, Note_on_c, 7, 52, 100
8, 70376, Note_on_c, 7, 57, 116
8, 70460, Note_on_c, 7, 52, 0
8, 70472, Note_on_c, 7, 52, 102
8, 70596, Note_on_c, 7, 52, 0
8, 70600, Note_on_c, 7, 57, 0
8, 70656, Note_on_c, 7, 45, 0
8, 70656, Note_on_c, 7, 40, 98
8, 70848, Note_on_c, 7, 52, 63
8, 70848, Note_on_c, 7, 47, 82
8, 71016, Note_on_c, 7, 47, 0
8, 71036, Note_on_c, 7, 64, 127
8, 71224, Note_on_c, 7, 56, 107
8, 71372, Note_on_c, 7, 52, 0
8, 71416, Note_on_c, 7, 47, 110
8, 71424, Note_on_c, 7, 52, 126
8, 71428, Note_on_c, 7, 56, 0
8, 71432, Note_on_c, 7, 56, 118
8, 71600, Note_on_c, 7, 47, 0
8, 71620, Note_on_c, 7, 47, 107
8, 71656, Note_on_c, 7, 56, 0
8, 71712, Note_on_c, 7, 52, 0
8, 71716, Note_on_c, 7, 50, 127
8, 71720, Note_on_c, 7, 47, 0
8, 71852, Note_on_c, 7, 40, 0
8, 71912, Note_on_c, 7, 47, 103
8, 71924, Note_on_c, 7, 50, 0
8, 72000, Note_on_c, 7, 55, 127
8, 72176, Note_on_c, 7, 52, 125
8, 72204, Note_on_c, 7, 55, 0
8, 72384, Note_on_c, 7, 40, 90
8, 72572, Note_on_c, 7, 56, 127
8, 72580, Note_on_c, 7, 59, 127
8, 72656, Note_on_c, 7, 47, 0
8, 72764, Note_on_c, 7, 56, 0
8, 72768, Note_on_c, 7, 56, 127
8, 72780, Note_on_c, 7, 59, 0
8, 72784, Note_on_c, 7, 59, 103
8, 72808, Note_on_c, 7, 52, 0
8, 72932, Note_on_c, 7, 56, 0
8, 72932, Note_on_c, 7, 59, 0
8, 72948, Note_on_c, 7, 57, 127
8, 72996, Pitch_bend_c, 7, 8896
8, 73028, Pitch_bend_c, 7, 9600
8, 73088, Note_on_c, 7, 64, 0
8, 73100, Note_on_c, 7, 57, 0
8, 73104, Pitch_bend_c, 7, 8192
8, 73112, Note_on_c, 7, 64, 127
8, 73240, Note_on_c, 7, 59, 127
8, 73308, Pitch_bend_c, 7, 6784
8, 73312, Note_on_c, 7, 64, 0
8, 73440, Note_on_c, 7, 59, 0
8, 73444, Pitch_bend_c, 7, 8192
8, 73452, Note_on_c, 7, 55, 111
8, 73468, Note_on_c, 7, 40, 0
8, 73540, Note_on_c, 7, 52, 125
8, 73544, Note_on_c, 7, 55, 0
8, 73632, Note_on_c, 7, 52, 0
8, 73632, Note_on_c, 7, 50, 81
8, 73720, Note_on_c, 7, 50, 0
8, 73728, Note_on_c, 7, 48, 110
8, 74120, Note_on_c, 7, 55, 127
8, 74124, Note_on_c, 7, 52, 102
8, 74128, Note_on_c, 7, 60, 127
8, 74132, Note_on_c, 7, 64, 100
8, 74288, Note_on_c, 7, 48, 0
8, 74304, Note_on_c, 7, 48, 96
8, 74312, Note_on_c, 7, 52, 0
8, 74316, Note_on_c, 7, 52, 112
8, 74420, Note_on_c, 7, 48, 0
8, 74436, Note_on_c, 7, 52, 0
8, 74440, Note_on_c, 7, 64, 0
8, 74488, Note_on_c, 7, 60, 0
8, 74504, Note_on_c, 7, 43, 94
8, 74524, Note_on_c, 7, 47, 85
8, 74600, Note_on_c, 7, 47, 0
8, 74672, Note_on_c, 7, 55, 0
8, 74692, Note_on_c, 7, 55, 127
8, 74704, Note_on_c, 7, 59, 110
8, 74876, Note_on_c, 7, 67, 127
8, 74884, Note_on_c, 7, 59, 0
8, 74888, Note_on_c, 7, 59, 107
8, 75072, Note_on_c, 7, 50, 113
8, 75076, Note_on_c, 7, 55, 0
8, 75084, Note_on_c, 7, 59, 0
8, 75084, Note_on_c, 7, 55, 127
8, 75088, Note_on_c, 7, 59, 90
8, 75120, Note_on_c, 7, 43, 0
8, 75208, Note_on_c, 7, 67, 0
8, 75264, Note_on_c, 7, 55, 0
8, 75268, Note_on_c, 7, 59, 0
8, 75272, Note_on_c, 7, 62, 69
8, 75276, Note_on_c, 7, 50, 0
8, 75280, Note_on_c, 7, 50, 127
8, 75284, Note_on_c, 7, 57, 105
8, 75444, Note_on_c, 7, 66, 127
8, 75612, Note_on_c, 7, 62, 0
8, 75628, Note_on_c, 7, 62, 127
8, 75752, Note_on_c, 7, 57, 0
8, 75844, Note_on_c, 7, 66, 0
8, 75848, Note_on_c, 7, 50, 0
8, 75852, Note_on_c, 7, 52, 126
8, 75864, Note_on_c, 7, 62, 0
8, 75956, Pitch_bend_c, 7, 9613
8, 76032, Pitch_bend_c, 7, 9383
8, 76048, Note_on_c, 7, 52, 0
8, 76056, Pitch_bend_c, 7, 8282
8, 76060, Note_on_c, 7, 45, 111
8, 76184, Pitch_bend_c, 7, 8192
8, 76240, Note_on_c, 7, 52, 123
8, 76316, Note_on_c, 7, 57, 57
8, 76440, Note_on_c, 7, 57, 0
8, 76444, Note_on_c, 7, 57, 123
8, 76520, Note_on_c, 7, 61, 127
8, 76616, Note_on_c, 7, 52, 0
8, 76620, Note_on_c, 7, 52, 117
8, 76624, Note_on_c, 7, 45, 0
8, 76628, Note_on_c, 7, 45, 57
8, 76692, Note_on_c, 7, 61, 0
8, 76732, Note_on_c, 7, 57, 0
8, 76772, Note_on_c, 7, 52, 0
8, 76796, Note_on_c, 7, 45, 0
8, 76804, Note_on_c, 7, 40, 92
8, 76812, Note_on_c, 7, 47, 101
8, 76852, Note_on_c, 7, 52, 74
8, 77000, Note_on_c, 7, 47, 0
8, 77008, Note_on_c, 7, 52, 0
8, 77008, Note_on_c, 7, 47, 83
8, 77012, Note_on_c, 7, 52, 82
8, 77184, Note_on_c, 7, 47, 0
8, 77188, Note_on_c, 7, 47, 100
8, 77192, Note_on_c, 7, 52, 0
8, 77192, Note_on_c, 7, 52, 123
8, 77204, Note_on_c, 7, 59, 127
8, 77212, Note_on_c, 7, 56, 127
8, 77212, Note_on_c, 7, 64, 90
8, 77384, Note_on_c, 7, 47, 0
8, 77556, Note_on_c, 7, 40, 0
8, 77560, Note_on_c, 7, 40, 78
8, 77568, Note_on_c, 7, 52, 0
8, 77572, Note_on_c, 7, 52, 116
8, 77580, Note_on_c, 7, 47, 100
8, 77744, Note_on_c, 7, 47, 0
8, 77776, Note_on_c, 7, 47, 101
8, 77848, Note_on_c, 7, 56, 0
8, 77864, Note_on_c, 7, 52, 0
8, 77864, Note_on_c, 7, 47, 0
8, 77868, Note_on_c, 7, 50, 125
8, 77876, Note_on_c, 7, 59, 0
8, 78068, Note_on_c, 7, 47, 100
8, 78088, Note_on_c, 7, 40, 0
8, 78132, Note_on_c, 7, 55, 127
8, 78136, Note_on_c, 7, 47, 0
8, 78152, Note_on_c, 7, 64, 0
8, 78340, Note_on_c, 7, 50, 0
8, 78344, Note_on_c, 7, 52, 127
8, 78348, Note_on_c, 7, 55, 0
8, 78536, Note_on_c, 7, 40, 94
8, 78724, Note_on_c, 7, 56, 127
8, 78728, Note_on_c, 7, 59, 127
8, 78980, Note_on_c, 7, 47, 64
8, 79100, Note_on_c, 7, 47, 0
8, 79100, Note_on_c, 7, 40, 0
8, 79108, Note_on_c, 7, 40, 95
8, 79292, Note_on_c, 7, 40, 0
8, 79296, Note_on_c, 7, 40, 90
8, 79300, Note_on_c, 7, 47, 96
8, 79396, Note_on_c, 7, 56, 0
8, 79412, Note_on_c, 7, 56, 60
8, 79472, Note_on_c, 7, 59, 0
8, 79576, Note_on_c, 7, 56, 0
8, 79588, Note_on_c, 7, 56, 127
8, 79680, Note_on_c, 7, 47, 0
8, 79684, Note_on_c, 7, 52, 0
8, 79688, Note_on_c, 7, 47, 105
8, 79692, Note_on_c, 7, 52, 105
8, 79760, Note_on_c, 7, 52, 0
8, 79776, Note_on_c, 7, 47, 0
8, 79776, Note_on_c, 7, 56, 0
8, 79800, Note_on_c, 7, 40, 0
8, 79872, Note_on_c, 7, 48, 115
8, 80052, Note_on_c, 7, 48, 0
8, 80076, Note_on_c, 7, 48, 90
8, 80264, Note_on_c, 7, 52, 121
8, 80276, Note_on_c, 7, 55, 123
8, 80276, Note_on_c, 7, 60, 118
8, 80436, Note_on_c, 7, 48, 0
8, 80460, Note_on_c, 7, 48, 107
8, 80556, Note_on_c, 7, 48, 0
8, 80576, Note_on_c, 7, 55, 0
8, 80584, Note_on_c, 7, 52, 0
8, 80640, Note_on_c, 7, 43, 98
8, 80648, Note_on_c, 7, 60, 0
8, 80836, Note_on_c, 7, 43, 0
8, 80840, Note_on_c, 7, 43, 80
8, 81008, Note_on_c, 7, 50, 98
8, 81020, Note_on_c, 7, 55, 121
8, 81024, Note_on_c, 7, 59, 123
8, 81028, Note_on_c, 7, 67, 107
8, 81220, Note_on_c, 7, 50, 0
8, 81232, Note_on_c, 7, 50, 105
8, 81252, Note_on_c, 7, 43, 0
8, 81304, Note_on_c, 7, 67, 0
8, 81376, Note_on_c, 7, 55, 0
8, 81380, Note_on_c, 7, 59, 0
8, 81396, Note_on_c, 7, 50, 0
8, 81404, Note_on_c, 7, 50, 126
8, 81408, Note_on_c, 7, 57, 127
8, 81412, Note_on_c, 7, 62, 117
8, 81592, Note_on_c, 7, 50, 0
8, 81596, Note_on_c, 7, 50, 107
8, 81604, Note_on_c, 7, 57, 0
8, 81608, Note_on_c, 7, 57, 100
8, 81696, Note_on_c, 7, 57, 0
8, 81792, Note_on_c, 7, 50, 0
8, 81792, Note_on_c, 7, 62, 0
8, 81796, Note_on_c, 7, 52, 121
8, 81980, Note_on_c, 7, 52, 0
8, 81996, Note_on_c, 7, 54, 123
8, 82160, Note_on_c, 7, 54, 0
8, 82180, Note_on_c, 7, 45, 115
8, 82360, Pitch_bend_c, 7, 6125
8, 82364, Note_on_c, 7, 45, 0
8, 82364, Pitch_bend_c, 7, 8223
8, 82372, Note_on_c, 7, 45, 103
8, 82560, Note_on_c, 7, 52, 122
8, 82564, Note_on_c, 7, 57, 95
8, 82612, Note_on_c, 7, 57, 0
8, 82656, Note_on_c, 7, 57, 122
8, 82736, Note_on_c, 7, 45, 0
8, 82760, Note_on_c, 7, 45, 110
8, 82820, Note_on_c, 7, 57, 0
8, 82932, Note_on_c, 7, 45, 0
8, 82932, Note_on_c, 7, 52, 0
8, 82944, Note_on_c, 7, 40, 100
8, 83328, Note_on_c, 7, 47, 81
8, 83336, Note_on_c, 7, 52, 120
8, 83340, Note_on_c, 7, 56, 105
8, 83348, Note_on_c, 7, 59, 90
8, 83512, Note_on_c, 7, 47, 0
8, 83584, Note_on_c, 7, 52, 0
8, 83608, Note_on_c, 7, 47, 71
8, 83616, Note_on_c, 7, 52, 90
8, 83660, Note_on_c, 7, 47, 0
8, 83704, Note_on_c, 7, 52, 0
8, 83704, Note_on_c, 7, 47, 110
8, 83712, Note_on_c, 7, 52, 114
8, 83884, Note_on_c, 7, 47, 0
8, 83908, Note_on_c, 7, 47, 101
8, 83912, Note_on_c, 7, 56, 0
8, 83976, Note_on_c, 7, 52, 0
8, 83996, Note_on_c, 7, 50, 127
8, 84004, Note_on_c, 7, 47, 0
8, 84012, Note_on_c, 7, 40, 0
8, 84208, Note_on_c, 7, 47, 98
8, 84288, Note_on_c, 7, 55, 127
8, 84484, Note_on_c, 7, 50, 0
8, 84488, Note_on_c, 7, 52, 125
8, 84504, Note_on_c, 7, 55, 0
8, 84684, Note_on_c, 7, 40, 89
8, 84744, Note_on_c, 7, 47, 0
8, 84864, Note_on_c, 7, 52, 0
8, 84872, Note_on_c, 7, 52, 121
8, 84888, Note_on_c, 7, 59, 0
8, 84888, Note_on_c, 7, 56, 127
8, 85024, Note_on_c, 7, 40, 0
8, 85080, Note_on_c, 7, 47, 86
8, 85232, Note_on_c, 7, 56, 0
8, 85236, Note_on_c, 7, 47, 0
8, 85240, Note_on_c, 7, 52, 0
8, 85264, Note_on_c, 7, 45, 112
8, 85352, Pitch_bend_c, 7, 9597
8, 85428, Note_on_c, 7, 45, 0
8, 85436, Pitch_bend_c, 7, 8192
8, 85440, Note_on_c, 7, 50, 127
8, 85540, Note_on_c, 7, 45, 113
8, 85644, Pitch_bend_c, 7, 9591
8, 85652, Note_on_c, 7, 50, 0
8, 85708, Pitch_bend_c, 7, 9565
8, 85720, Note_on_c, 7, 45, 0
8, 85728, Pitch_bend_c, 7, 8192
8, 85744, Note_on_c, 7, 50, 122
8, 85836, Note_on_c, 7, 45, 110
8, 85896, Note_on_c, 7, 45, 0
8, 85912, Note_on_c, 7, 50, 0
8, 85932, Note_on_c, 7, 47, 100
8, 86016, Note_on_c, 7, 47, 0
8, 86028, Note_on_c, 7, 48, 107
8, 86212, Note_on_c, 7, 52, 89
8, 86364, Note_on_c, 7, 52, 0
8, 86400, Note_on_c, 7, 52, 110
8, 86412, Note_on_c, 7, 55, 127
8, 86416, Note_on_c, 7, 60, 121
8, 86588, Note_on_c, 7, 48, 0
8, 86600, Note_on_c, 7, 48, 105
8, 86692, Note_on_c, 7, 48, 0
8, 86740, Note_on_c, 7, 52, 0
8, 86788, Note_on_c, 7, 43, 89
8, 86864, Note_on_c, 7, 60, 0
8, 86976, Note_on_c, 7, 50, 100
8, 87140, Note_on_c, 7, 50, 0
8, 87152, Note_on_c, 7, 50, 103
8, 87160, Note_on_c, 7, 55, 0
8, 87164, Note_on_c, 7, 55, 127
8, 87172, Note_on_c, 7, 59, 127
8, 87192, Note_on_c, 7, 67, 98
8, 87320, Note_on_c, 7, 43, 0
8, 87364, Note_on_c, 7, 50, 0
8, 87368, Note_on_c, 7, 50, 105
8, 87380, Note_on_c, 7, 55, 0
8, 87384, Note_on_c, 7, 55, 73
8, 87488, Note_on_c, 7, 67, 0
8, 87544, Note_on_c, 7, 55, 0
8, 87548, Note_on_c, 7, 59, 0
8, 87548, Note_on_c, 7, 50, 0
8, 87548, Note_on_c, 7, 62, 58
8, 87552, Note_on_c, 7, 50, 125
8, 87744, Note_on_c, 7, 57, 119
8, 87916, Note_on_c, 7, 66, 127
8, 87924, Note_on_c, 7, 62, 0
8, 87928, Note_on_c, 7, 62, 127
8, 88116, Note_on_c, 7, 50, 0
8, 88120, Note_on_c, 7, 50, 116
8, 88124, Note_on_c, 7, 57, 0
8, 88132, Note_on_c, 7, 57, 121
8, 88144, Note_on_c, 7, 66, 0
8, 88196, Note_on_c, 7, 62, 0
8, 88316, Note_on_c, 7, 45, 113
8, 88320, Note_on_c, 7, 50, 0
8, 88324, Note_on_c, 7, 52, 113
8, 88492, Note_on_c, 7, 45, 0
8, 88512, Note_on_c, 7, 52, 0
8, 88512, Note_on_c, 7, 45, 102
8, 88524, Note_on_c, 7, 52, 94
8, 88604, Note_on_c, 7, 64, 127
8, 88800, Note_on_c, 7, 61, 127
8, 88888, Note_on_c, 7, 52, 0
8, 88900, Note_on_c, 7, 52, 123
8, 88904, Note_on_c, 7, 57, 0
8, 89036, Note_on_c, 7, 61, 0
8, 89036, Note_on_c, 7, 52, 0
8, 89084, Note_on_c, 7, 45, 0
8, 89088, Note_on_c, 7, 40, 93
8, 89092, Note_on_c, 7, 47, 107
8, 89096, Note_on_c, 7, 52, 127
8, 89100, Note_on_c, 7, 56, 122
8, 89456, Note_on_c, 7, 52, 0
8, 89460, Note_on_c, 7, 52, 105
8, 89464, Note_on_c, 7, 56, 0
8, 89472, Note_on_c, 7, 56, 127
8, 89476, Note_on_c, 7, 59, 127
8, 89648, Note_on_c, 7, 47, 0
8, 89668, Note_on_c, 7, 47, 79
8, 89856, Note_on_c, 7, 52, 0
8, 89860, Note_on_c, 7, 52, 127
8, 89864, Note_on_c, 7, 56, 0
8, 89868, Note_on_c, 7, 56, 127
8, 90040, Note_on_c, 7, 47, 0
8, 90068, Note_on_c, 7, 47, 105
8, 90132, Note_on_c, 7, 56, 0
8, 90148, Note_on_c, 7, 52, 0
8, 90160, Note_on_c, 7, 47, 0
8, 90168, Note_on_c, 7, 50, 124
8, 90316, Note_on_c, 7, 40, 0
8, 90348, Note_on_c, 7, 64, 0
8, 90352, Note_on_c, 7, 47, 107
8, 90428, Note_on_c, 7, 55, 127
8, 90452, Note_on_c, 7, 59, 0
8, 90552, Note_on_c, 7, 47, 0
8, 90596, Note_on_c, 7, 50, 0
8, 90624, Note_on_c, 7, 52, 125
8, 90628, Note_on_c, 7, 55, 0
8, 90824, Note_on_c, 7, 40, 95
8, 91004, Note_on_c, 7, 56, 127
8, 91008, Note_on_c, 7, 59, 127
8, 91012, Note_on_c, 7, 64, 104
8, 91144, Note_on_c, 7, 52, 0
8, 91360, Note_on_c, 7, 64, 0
8, 91364, Note_on_c, 7, 56, 0
8, 91392, Note_on_c, 7, 45, 125
8, 91396, Note_on_c, 7, 59, 0
8, 91484, Note_on_c, 7, 45, 0
8, 91488, Note_on_c, 7, 47, 117
8, 91568, Note_on_c, 7, 47, 0
8, 91580, Note_on_c, 7, 50, 124
8, 91672, Note_on_c, 7, 50, 0
8, 91680, Note_on_c, 7, 45, 123
8, 91756, Note_on_c, 7, 45, 0
8, 91772, Note_on_c, 7, 47, 110
8, 91852, Note_on_c, 7, 47, 0
8, 91872, Note_on_c, 7, 50, 127
8, 91968, Note_on_c, 7, 47, 123
8, 91980, Note_on_c, 7, 50, 0
8, 92144, Note_on_c, 7, 47, 0
8, 92176, Note_on_c, 7, 48, 106
8, 92252, Note_on_c, 7, 40, 0
8, 92336, Note_on_c, 7, 48, 0
8, 92352, Note_on_c, 7, 48, 107
8, 92372, Note_on_c, 7, 52, 96
8, 92548, Note_on_c, 7, 55, 127
8, 92552, Note_on_c, 7, 60, 127
8, 92728, Note_on_c, 7, 48, 0
8, 92756, Note_on_c, 7, 48, 98
8, 92848, Note_on_c, 7, 48, 0
8, 92860, Note_on_c, 7, 52, 0
8, 92912, Note_on_c, 7, 60, 0
8, 92940, Note_on_c, 7, 43, 86
8, 93108, Note_on_c, 7, 50, 119
8, 93120, Note_on_c, 7, 55, 0
8, 93124, Note_on_c, 7, 55, 81
8, 93296, Note_on_c, 7, 55, 0
8, 93304, Note_on_c, 7, 55, 127
8, 93316, Note_on_c, 7, 59, 127
8, 93332, Note_on_c, 7, 67, 125
8, 93488, Note_on_c, 7, 43, 0
8, 93512, Note_on_c, 7, 50, 0
8, 93516, Note_on_c, 7, 50, 94
8, 93520, Note_on_c, 7, 55, 0
8, 93524, Note_on_c, 7, 55, 110
8, 93596, Note_on_c, 7, 59, 0
8, 93596, Note_on_c, 7, 59, 63
8, 93616, Note_on_c, 7, 67, 0
8, 93668, Note_on_c, 7, 59, 0
8, 93668, Note_on_c, 7, 62, 60
8, 93684, Note_on_c, 7, 55, 0
8, 93688, Note_on_c, 7, 50, 0
8, 93692, Note_on_c, 7, 50, 127
8, 93696, Note_on_c, 7, 57, 127
8, 93892, Note_on_c, 7, 50, 0
8, 93896, Note_on_c, 7, 50, 112
8, 93900, Note_on_c, 7, 57, 0
8, 93904, Note_on_c, 7, 57, 127
8, 93976, Note_on_c, 7, 57, 0
8, 94068, Note_on_c, 7, 62, 0
8, 94076, Note_on_c, 7, 50, 0
8, 94080, Note_on_c, 7, 52, 126
8, 94256, Note_on_c, 7, 52, 0
8, 94268, Note_on_c, 7, 54, 125
8, 94448, Note_on_c, 7, 54, 0
8, 94468, Note_on_c, 7, 45, 112
8, 94660, Note_on_c, 7, 52, 121
8, 94832, Note_on_c, 7, 45, 0
8, 94852, Note_on_c, 7, 45, 109
8, 94856, Note_on_c, 7, 52, 0
8, 94860, Note_on_c, 7, 52, 100
8, 94952, Note_on_c, 7, 57, 116
8, 95036, Note_on_c, 7, 52, 0
8, 95048, Note_on_c, 7, 52, 102
8, 95172, Note_on_c, 7, 52, 0
8, 95176, Note_on_c, 7, 57, 0
8, 95232, Note_on_c, 7, 45, 0
8, 95232, Note_on_c, 7, 40, 98
8, 95424, Note_on_c, 7, 52, 63
8, 95424, Note_on_c, 7, 47, 82
8, 95592, Note_on_c, 7, 47, 0
8, 95612, Note_on_c, 7, 64, 127
8, 95800, Note_on_c, 7, 56, 107
8, 95948, Note_on_c, 7, 52, 0
8, 95992, Note_on_c, 7, 47, 110
8, 96000, Note_on_c, 7, 52, 126
8, 96004, Note_on_c, 7, 56, 0
8, 96008, Note_on_c, 7, 56, 118
8, 96176, Note_on_c, 7, 47, 0
8, 96196, Note_on_c, 7, 47, 107
8, 96232, Note_on_c, 7, 56, 0
8, 96288, Note_on_c, 7, 52, 0
8, 96292, Note_on_c, 7, 50, 127
8, 96296, Note_on_c, 7, 47, 0
8, 96428, Note_on_c, 7, 40, 0
8, 96488, Note_on_c, 7, 47, 103
8, 96500, Note_on_c, 7, 50, 0
8, 96576, Note_on_c, 7, 55, 127
8, 96752, Note_on_c, 7, 52, 125
8, 96784, Note_on_c, 7, 55, 0
8, 96960, Note_on_c, 7, 40, 90
8, 97148, Note_on_c, 7, 56, 127
8, 97156, Note_on_c, 7, 59, 127
8, 97232, Note_on_c, 7, 47, 0
8, 97340, Note_on_c, 7, 56, 0
8, 97344, Note_on_c, 7, 56, 127
8, 97356, Note_on_c, 7, 59, 0
8, 97360, Note_on_c, 7, 59, 103
8, 97384, Note_on_c, 7, 52, 0
8, 97508, Note_on_c, 7, 56, 0
8, 97508, Note_on_c, 7, 59, 0
8, 97524, Note_on_c, 7, 57, 127
8, 97572, Pitch_bend_c, 7, 8896
8, 97604, Pitch_bend_c, 7, 9600
8, 97664, Note_on_c, 7, 64, 0
8, 97676, Note_on_c, 7, 57, 0
8, 97680, Pitch_bend_c, 7, 8192
8, 97688, Note_on_c, 7, 64, 127
8, 97816, Note_on_c, 7, 59, 127
8, 97884, Pitch_bend_c, 7, 6784
8, 97888, Note_on_c, 7, 64, 0
8, 98016, Note_on_c, 7, 59, 0
8, 98020, Pitch_bend_c, 7, 8192
8, 98028, Note_on_c, 7, 55, 111
8, 98044, Note_on_c, 7, 40, 0
8, 98116, Note_on_c, 7, 52, 125
8, 98120, Note_on_c, 7, 55, 0
8, 98208, Note_on_c, 7, 52, 0
8, 98208, Note_on_c, 7, 50, 81
8, 98296, Note_on_c, 7, 50, 0
8, 98304, Note_on_c, 7, 48, 110
8, 98696, Note_on_c, 7, 55, 127
8, 98700, Note_on_c, 7, 52, 102
8, 98704, Note_on_c, 7, 60, 127
8, 98708, Note_on_c, 7, 64, 100
8, 98864, Note_on_c, 7, 48, 0
8, 98880, Note_on_c, 7, 48, 96
8, 98888, Note_on_c, 7, 52, 0
8, 98892, Note_on_c, 7, 52, 112
8, 98996, Note_on_c, 7, 48, 0
8, 99012, Note_on_c, 7, 52, 0
8, 99016, Note_on_c, 7, 64, 0
8, 99064, Note_on_c, 7, 60, 0
8, 99080, Note_on_c, 7, 43, 94
8, 99100, Note_on_c, 7, 47, 85
8, 99176, Note_on_c, 7, 47, 0
8, 99248, Note_on_c, 7, 55, 0
8, 99268, Note_on_c, 7, 55, 127
8, 99280, Note_on_c, 7, 59, 110
8, 99452, Note_on_c, 7, 67, 127
8, 99460, Note_on_c, 7, 59, 0
8, 99464, Note_on_c, 7, 59, 107
8, 99648, Note_on_c, 7, 50, 113
8, 99652, Note_on_c, 7, 55, 0
8, 99660, Note_on_c, 7, 59, 0
8, 99660, Note_on_c, 7, 55, 127
8, 99664, Note_on_c, 7, 59, 90
8, 99696, Note_on_c, 7, 43, 0
8, 99784, Note_on_c, 7, 67, 0
8, 99840, Note_on_c, 7, 55, 0
8, 99844, Note_on_c, 7, 59, 0
8, 99848, Note_on_c, 7, 62, 69
8, 99852, Note_on_c, 7, 50, 0
8, 99856, Note_on_c, 7, 50, 127
8, 99860, Note_on_c, 7, 57, 105
8, 100020, Note_on_c, 7, 66, 127
8, 100188, Note_on_c, 7, 62, 0
8, 100204, Note_on_c, 7, 62, 127
8, 100328, Note_on_c, 7, 57, 0
8, 100420, Note_on_c, 7, 66, 0
8, 100424, Note_on_c, 7, 50, 0
8, 100428, Note_on_c, 7, 52, 126
8, 100440, Note_on_c, 7, 62, 0
8, 100532, Pitch_bend_c, 7, 9613
8, 100608, Pitch_bend_c, 7, 9383
8, 100624, Note_on_c, 7, 52, 0
8, 100632, Pitch_bend_c, 7, 8282
8, 100636, Note_on_c, 7, 45, 111
8, 100760, Pitch_bend_c, 7, 8192
8, 100816, Note_on_c, 7, 52, 123
8, 100892, Note_on_c, 7, 57, 57
8, 101016, Note_on_c, 7, 57, 0
8, 101020, Note_on_c, 7, 57, 123
8, 101096, Note_on_c, 7, 61, 127
8, 101192, Note_on_c, 7, 52, 0
8, 101196, Note_on_c, 7, 52, 117
8, 101200, Note_on_c, 7, 45, 0
8, 101204, Note_on_c, 7, 45, 57
8, 101268, Note_on_c, 7, 61, 0
8, 101308, Note_on_c, 7, 57, 0
8, 101348, Note_on_c, 7, 52, 0
8, 101372, Note_on_c, 7, 45, 0
8, 101380, Note_on_c, 7, 40, 92
8, 101388, Note_on_c, 7, 47, 101
8, 101428, Note_on_c, 7, 52, 74
8, 101576, Note_on_c, 7, 47, 0
8, 101584, Note_on_c, 7, 52, 0
8, 101584, Note_on_c, 7, 47, 83
8, 101588, Note_on_c, 7, 52, 82
8, 101760, Note_on_c, 7, 47, 0
8, 101764, Note_on_c, 7, 47, 100
8, 101768, Note_on_c, 7, 52, 0
8, 101768, Note_on_c, 7, 52, 123
8, 101780, Note_on_c, 7, 59, 127
8, 101788, Note_on_c, 7, 56, 127
8, 101788, Note_on_c, 7, 64, 90
8, 101960, Note_on_c, 7, 47, 0
8, 102132, Note_on_c, 7, 40, 0
8, 102136, Note_on_c, 7, 40, 78
8, 102144, Note_on_c, 7, 52, 0
8, 102148, Note_on_c, 7, 52, 116
8, 102156, Note_on_c, 7, 47, 100
8, 102320, Note_on_c, 7, 47, 0
8, 102352, Note_on_c, 7, 47, 101
8, 102424, Note_on_c, 7, 56, 0
8, 102440, Note_on_c, 7, 52, 0
8, 102440, Note_on_c, 7, 47, 0
8, 102444, Note_on_c, 7, 50, 125
8, 102452, Note_on_c, 7, 59, 0
8, 102644, Note_on_c, 7, 47, 100
8, 102664, Note_on_c, 7, 40, 0
8, 102708, Note_on_c, 7, 55, 127
8, 102712, Note_on_c, 7, 47, 0
8, 102728, Note_on_c, 7, 64, 0
8, 102916, Note_on_c, 7, 50, 0
8, 102920, Note_on_c, 7, 52, 127
8, 102924, Note_on_c, 7, 55, 0
8, 103112, Note_on_c, 7, 40, 94
8, 103300, Note_on_c, 7, 56, 127
8, 103304, Note_on_c, 7, 59, 127
8, 103556, Note_on_c, 7, 47, 64
8, 103676, Note_on_c, 7, 47, 0
8, 103676, Note_on_c, 7, 40, 0
8, 103684, Note_on_c, 7, 40, 95
8, 103868, Note_on_c, 7, 40, 0
8, 103872, Note_on_c, 7, 40, 90
8, 103876, Note_on_c, 7, 47, 96
8, 103972, Note_on_c, 7, 56, 0
8, 103988, Note_on_c, 7, 56, 60
8, 104048, Note_on_c, 7, 59, 0
8, 104152, Note_on_c, 7, 56, 0
8, 104164, Note_on_c, 7, 56, 127
8, 104256, Note_on_c, 7, 47, 0
8, 104260, Note_on_c, 7, 52, 0
8, 104264, Note_on_c, 7, 47, 105
8, 104268, Note_on_c, 7, 52, 105
8, 104336, Note_on_c, 7, 52, 0
8, 104352, Note_on_c, 7, 47, 0
8, 104352, Note_on_c, 7, 56, 0
8, 104376, Note_on_c, 7, 40, 0
8, 104448, Note_on_c, 7, 48, 115
8, 104628, Note_on_c, 7, 48, 0
8, 104652, Note_on_c, 7, 48, 90
8, 104840, Note_on_c, 7, 52, 121
8, 104852, Note_on_c, 7, 55, 123
8, 104852, Note_on_c, 7, 60, 118
8, 105012, Note_on_c, 7, 48, 0
8, 105036, Note_on_c, 7, 48, 107
8, 105132, Note_on_c, 7, 48, 0
8, 105152, Note_on_c, 7, 55, 0
8, 105160, Note_on_c, 7, 52, 0
8, 105216, Note_on_c, 7, 43, 98
8, 105224, Note_on_c, 7, 60, 0
8, 105412, Note_on_c, 7, 43, 0
8, 105416, Note_on_c, 7, 43, 80
8, 105584, Note_on_c, 7, 50, 98
8, 105596, Note_on_c, 7, 55, 121
8, 105600, Note_on_c, 7, 59, 123
8, 105604, Note_on_c, 7, 67, 107
8, 105796, Note_on_c, 7, 50, 0
8, 105808, Note_on_c, 7, 50, 105
8, 105828, Note_on_c, 7, 43, 0
8, 105880, Note_on_c, 7, 67, 0
8, 105952, Note_on_c, 7, 55, 0
8, 105956, Note_on_c, 7, 59, 0
8, 105972, Note_on_c, 7, 50, 0
8, 105980, Note_on_c, 7, 50, 126
8, 105984, Note_on_c, 7, 57, 127
8, 105988, Note_on_c, 7, 62, 117
8, 106168, Note_on_c, 7, 50, 0
8, 106172, Note_on_c, 7, 50, 107
8, 106180, Note_on_c, 7, 57, 0
8, 106184, Note_on_c, 7, 57, 100
8, 106272, Note_on_c, 7, 57, 0
8, 106368, Note_on_c, 7, 50, 0
8, 106368, Note_on_c, 7, 62, 0
8, 106372, Note_on_c, 7, 52, 121
8, 106556, Note_on_c, 7, 52, 0
8, 106572, Note_on_c, 7, 54, 123
8, 106736, Note_on_c, 7, 54, 0
8, 106756, Note_on_c, 7, 45, 115
8, 106936, Pitch_bend_c, 7, 6125
8, 106940, Note_on_c, 7, 45, 0
8, 106940, Pitch_bend_c, 7, 8223
8, 106948, Note_on_c, 7, 45, 103
8, 107136, Note_on_c, 7, 52, 122
8, 107140, Note_on_c, 7, 57, 95
8, 107188, Note_on_c, 7, 57, 0
8, 107232, Note_on_c, 7, 57, 122
8, 107312, Note_on_c, 7, 45, 0
8, 107336, Note_on_c, 7, 45, 110
8, 107396, Note_on_c, 7, 57, 0
8, 107508, Note_on_c, 7, 45, 0
8, 107508, Note_on_c, 7, 52, 0
8, 107520, Note_on_c, 7, 40, 100
8, 107904, Note_on_c, 7, 47, 81
8, 107912, Note_on_c, 7, 52, 120
8, 107916, Note_on_c, 7, 56, 105
8, 107924, Note_on_c, 7, 59, 90
8, 108088, Note_on_c, 7, 47, 0
8, 108160, Note_on_c, 7, 52, 0
8, 108184, Note_on_c, 7, 47, 71
8, 108192, Note_on_c, 7, 52, 90
8, 108236, Note_on_c, 7, 47, 0
8, 108280, Note_on_c, 7, 52, 0
8, 108280, Note_on_c, 7, 47, 110
8, 108288, Note_on_c, 7, 52, 114
8, 108460, Note_on_c, 7, 47, 0
8, 108484, Note_on_c, 7, 47, 101
8, 108488, Note_on_c, 7, 56, 0
8, 108552, Note_on_c, 7, 52, 0
8, 108572, Note_on_c, 7, 50, 127
8, 108580, Note_on_c, 7, 47, 0
8, 108588, Note_on_c, 7, 40, 0
8, 108784, Note_on_c, 7, 47, 98
8, 108864, Note_on_c, 7, 55, 127
8, 109060, Note_on_c, 7, 50, 0
8, 109064, Note_on_c, 7, 52, 125
8, 109072, Note_on_c, 7, 55, 0
8, 109260, Note_on_c, 7, 40, 89
8, 109320, Note_on_c, 7, 47, 0
8, 109440, Note_on_c, 7, 52, 0
8, 109448, Note_on_c, 7, 52, 121
8, 109464, Note_on_c, 7, 59, 0
8, 109464, Note_on_c, 7, 56, 127
8, 109600, Note_on_c, 7, 40, 0
8, 109656, Note_on_c, 7, 47, 86
8, 109808, Note_on_c, 7, 56, 0
8, 109812, Note_on_c, 7, 47, 0
8, 109816, Note_on_c, 7, 52, 0
8, 109840, Note_on_c, 7, 45, 112
8, 109928, Pitch_bend_c, 7, 9597
8, 110004, Note_on_c, 7, 45, 0
8, 110012, Pitch_bend_c, 7, 8192
8, 110016, Note_on_c, 7, 50, 127
8, 110116, Note_on_c, 7, 45, 113
8, 110220, Pitch_bend_c, 7, 9591
8, 110228, Note_on_c, 7, 50, 0
8, 110284, Pitch_bend_c, 7, 9565
8, 110296, Note_on_c, 7, 45, 0
8, 110304, Pitch_bend_c, 7, 8192
8, 110320, Note_on_c, 7, 50, 122
8, 110412, Note_on_c, 7, 45, 110
8, 110472, Note_on_c, 7, 45, 0
8, 110488, Note_on_c, 7, 50, 0
8, 110508, Note_on_c, 7, 47, 100
8, 110592, Note_on_c, 7, 47, 0
8, 110608, Note_on_c, 7, 48, 106
8, 110768, Note_on_c, 7, 48, 0
8, 110784, Note_on_c, 7, 48, 107
8, 110804, Note_on_c, 7, 52, 96
8, 110980, Note_on_c, 7, 55, 127
8, 110984, Note_on_c, 7, 60, 127
8, 111160, Note_on_c, 7, 48, 0
8, 111188, Note_on_c, 7, 48, 98
8, 111280, Note_on_c, 7, 48, 0
8, 111292, Note_on_c, 7, 52, 0
8, 111344, Note_on_c, 7, 60, 0
8, 111372, Note_on_c, 7, 43, 86
8, 111540, Note_on_c, 7, 50, 119
8, 111552, Note_on_c, 7, 55, 0
8, 111556, Note_on_c, 7, 55, 81
8, 111728, Note_on_c, 7, 55, 0
8, 111736, Note_on_c, 7, 55, 127
8, 111748, Note_on_c, 7, 59, 127
8, 111764, Note_on_c, 7, 67, 125
8, 111920, Note_on_c, 7, 43, 0
8, 111944, Note_on_c, 7, 50, 0
8, 111948, Note_on_c, 7, 50, 94
8, 111952, Note_on_c, 7, 55, 0
8, 111956, Note_on_c, 7, 55, 110
8, 112028, Note_on_c, 7, 59, 0
8, 112028, Note_on_c, 7, 59, 63
8, 112048, Note_on_c, 7, 67, 0
8, 112100, Note_on_c, 7, 59, 0
8, 112100, Note_on_c, 7, 62, 60
8, 112116, Note_on_c, 7, 55, 0
8, 112120, Note_on_c, 7, 50, 0
8, 112124, Note_on_c, 7, 50, 127
8, 112128, Note_on_c, 7, 57, 127
8, 112324, Note_on_c, 7, 50, 0
8, 112328, Note_on_c, 7, 50, 112
8, 112332, Note_on_c, 7, 57, 0
8, 112336, Note_on_c, 7, 57, 127
8, 112408, Note_on_c, 7, 57, 0
8, 112500, Note_on_c, 7, 62, 0
8, 112508, Note_on_c, 7, 50, 0
8, 112512, Note_on_c, 7, 52, 126
8, 112688, Note_on_c, 7, 52, 0
8, 112700, Note_on_c, 7, 54, 125
8, 112880, Note_on_c, 7, 54, 0
8, 112900, Note_on_c, 7, 45, 112
8, 113092, Note_on_c, 7, 52, 121
8, 113264, Note_on_c, 7, 45, 0
8, 113284, Note_on_c, 7, 45, 109
8, 113288, Note_on_c, 7, 52, 0
8, 113292, Note_on_c, 7, 52, 100
8, 113384, Note_on_c, 7, 57, 116
8, 113468, Note_on_c, 7, 52, 0
8, 113480, Note_on_c, 7, 52, 102
8, 113604, Note_on_c, 7, 52, 0
8, 113608, Note_on_c, 7, 57, 0
8, 113664, Note_on_c, 7, 45, 0
8, 113664, Note_on_c, 7, 40, 66
8, 113664, Note_on_c, 7, 47, 85
8, 113672, Note_on_c, 7, 52, 105
8, 113684, Note_on_c, 7, 56, 114
8, 113692, Note_on_c, 7, 59, 108
8, 113704, Note_on_c, 7, 64, 106
8, 114852, Note_on_c, 7, 52, 0
8, 115124, Note_on_c, 7, 40, 0
8, 115124, Note_on_c, 7, 47, 0
8, 115128, Note_on_c, 7, 56, 0
8, 115152, Note_on_c, 7, 59, 0
8, 115152, Note_on_c, 7, 64, 0
8, 115152, End_track
9, 0, Start_track
9, 0, MIDI_port, 0
9, 0, Title_t, "JAZZ GTR"
9, 0, Control_c, 8, 0, 0
9, 0, Control_c, 8, 32, 0
9, 0, Program_c, 8, 26
9, 0, Control_c, 8, 7, 120
9, 0, Control_c, 8, 10, 64
9, 0, Control_c, 8, 91, 100
9, 0, Control_c, 8, 93, 32
9, 556, Control_c, 8, 11, 85
9, 808, Control_c, 8, 101, 0
9, 812, Control_c, 8, 100, 0
9, 816, Control_c, 8, 6, 12
9, 820, Control_c, 8, 101, 127
9, 824, Control_c, 8, 100, 127
9, 2312, Note_on_c, 8, 64, 107
9, 2696, Note_on_c, 8, 64, 0
9, 3076, Note_on_c, 8, 47, 50
9, 3472, Note_on_c, 8, 64, 50
9, 3636, Note_on_c, 8, 47, 0
9, 3664, Note_on_c, 8, 47, 40
9, 3816, Note_on_c, 8, 64, 0
9, 3832, Note_on_c, 8, 47, 0
9, 3836, Note_on_c, 8, 54, 85
9, 3888, Pitch_bend_c, 8, 8896
9, 3912, Pitch_bend_c, 8, 8832
9, 3936, Pitch_bend_c, 8, 8896
9, 3960, Pitch_bend_c, 8, 8822
9, 3988, Pitch_bend_c, 8, 8896
9, 4020, Note_on_c, 8, 54, 0
9, 4020, Pitch_bend_c, 8, 8827
9, 4032, Pitch_bend_c, 8, 8207
9, 4044, Note_on_c, 8, 52, 51
9, 4108, Note_on_c, 8, 52, 0
9, 4116, Note_on_c, 8, 54, 60
9, 4160, Pitch_bend_c, 8, 8801
9, 4184, Pitch_bend_c, 8, 8876
9, 4292, Note_on_c, 8, 54, 0
9, 4324, Pitch_bend_c, 8, 8234
9, 4332, Note_on_c, 8, 52, 46
9, 4348, Pitch_bend_c, 8, 8223
9, 4376, Note_on_c, 8, 52, 0
9, 4404, Note_on_c, 8, 54, 68
9, 4572, Note_on_c, 8, 54, 0
9, 4604, Note_on_c, 8, 52, 80
9, 4984, Note_on_c, 8, 52, 0
9, 5364, Note_on_c, 8, 52, 110
9, 5864, Note_on_c, 8, 52, 0
9, 5864, End_track
10, 0, Start_track
10, 0, MIDI_port, 0
10, 0, Title_t, "DRUMS"
10, 0, Control_c, 9, 0, 0
10, 0, Control_c, 9, 32, 0
10, 0, Program_c, 9, 32
10, 0, Control_c, 9, 7, 120
10, 0, Control_c, 9, 91, 66
10, 0, Control_c, 9, 93, 0
10, 576, Control_c, 9, 11, 127
10, 1536, Note_on_c, 9, 42, 120
10, 1552, Note_on_c, 9, 42, 0
10, 1728, Note_on_c, 9, 42, 100
10, 1744, Note_on_c, 9, 42, 0
10, 1824, Note_on_c, 9, 42, 90
10, 1840, Note_on_c, 9, 42, 0
10, 1920, Note_on_c, 9, 46, 100
10, 1936, Note_on_c, 9, 46, 0
10, 2112, Note_on_c, 9, 42, 100
10, 2128, Note_on_c, 9, 42, 0
10, 2304, Note_on_c, 9, 42, 120
10, 2320, Note_on_c, 9, 42, 0
10, 2688, Note_on_c, 9, 42, 127
10, 2704, Note_on_c, 9, 42, 0
10, 3072, Note_on_c, 9, 42, 120
10, 3088, Note_on_c, 9, 42, 0
10, 3264, Note_on_c, 9, 42, 100
10, 3280, Note_on_c, 9, 42, 0
10, 3360, Note_on_c, 9, 42, 90
10, 3376, Note_on_c, 9, 42, 0
10, 3456, Note_on_c, 9, 46, 100
10, 3472, Note_on_c, 9, 46, 0
10, 3648, Note_on_c, 9, 42, 100
10, 3664, Note_on_c, 9, 42, 0
10, 3840, Note_on_c, 9, 42, 120
10, 3856, Note_on_c, 9, 42, 0
10, 4224, Note_on_c, 9, 42, 127
10, 4240, Note_on_c, 9, 42, 0
10, 4608, Note_on_c, 9, 35, 100
10, 4608, Note_on_c, 9, 42, 120
10, 4624, Note_on_c, 9, 42, 0
10, 4624, Note_on_c, 9, 35, 0
10, 4992, Note_on_c, 9, 42, 127
10, 5008, Note_on_c, 9, 42, 0
10, 5184, Note_on_c, 9, 35, 100
10, 5200, Note_on_c, 9, 35, 0
10, 5376, Note_on_c, 9, 35, 110
10, 5376, Note_on_c, 9, 38, 120
10, 5376, Note_on_c, 9, 42, 120
10, 5392, Note_on_c, 9, 42, 0
10, 5392, Note_on_c, 9, 38, 0
10, 5392, Note_on_c, 9, 35, 0
10, 5472, Note_on_c, 9, 38, 110
10, 5488, Note_on_c, 9, 38, 0
10, 5568, Note_on_c, 9, 38, 100
10, 5584, Note_on_c, 9, 38, 0
10, 5664, Note_on_c, 9, 38, 80
10, 5680, Note_on_c, 9, 38, 0
10, 5760, Note_on_c, 9, 38, 90
10, 5760, Note_on_c, 9, 42, 127
10, 5776, Note_on_c, 9, 42, 0
10, 5776, Note_on_c, 9, 38, 0
10, 5856, Note_on_c, 9, 38, 110
10, 5872, Note_on_c, 9, 38, 0
10, 5952, Note_on_c, 9, 38, 120
10, 5952, Note_on_c, 9, 46, 110
10, 5968, Note_on_c, 9, 46, 0
10, 5968, Note_on_c, 9, 38, 0
10, 6144, Note_on_c, 9, 35, 120
10, 6144, Note_on_c, 9, 42, 120
10, 6144, Note_on_c, 9, 51, 127
10, 6144, Note_on_c, 9, 49, 120
10, 6160, Note_on_c, 9, 49, 0
10, 6160, Note_on_c, 9, 35, 0
10, 6160, Note_on_c, 9, 42, 0
10, 6160, Note_on_c, 9, 51, 0
10, 6336, Note_on_c, 9, 42, 110
10, 6336, Note_on_c, 9, 51, 90
10, 6352, Note_on_c, 9, 51, 0
10, 6352, Note_on_c, 9, 42, 0
10, 6528, Note_on_c, 9, 38, 120
10, 6528, Note_on_c, 9, 42, 120
10, 6528, Note_on_c, 9, 51, 127
10, 6528, Note_on_c, 9, 39, 90
10, 6544, Note_on_c, 9, 39, 0
10, 6544, Note_on_c, 9, 38, 0
10, 6544, Note_on_c, 9, 42, 0
10, 6544, Note_on_c, 9, 51, 0
10, 6720, Note_on_c, 9, 35, 100
10, 6720, Note_on_c, 9, 42, 110
10, 6720, Note_on_c, 9, 51, 90
10, 6736, Note_on_c, 9, 51, 0
10, 6736, Note_on_c, 9, 42, 0
10, 6736, Note_on_c, 9, 35, 0
10, 6912, Note_on_c, 9, 35, 120
10, 6912, Note_on_c, 9, 42, 120
10, 6912, Note_on_c, 9, 51, 127
10, 6928, Note_on_c, 9, 51, 0
10, 6928, Note_on_c, 9, 42, 0
10, 6928, Note_on_c, 9, 35, 0
10, 7104, Note_on_c, 9, 42, 110
10, 7104, Note_on_c, 9, 51, 90
10, 7120, Note_on_c, 9, 51, 0
10, 7120, Note_on_c, 9, 42, 0
10, 7296, Note_on_c, 9, 38, 120
10, 7296, Note_on_c, 9, 42, 120
10, 7296, Note_on_c, 9, 51, 127
10, 7296, Note_on_c, 9, 39, 90
10, 7312, Note_on_c, 9, 39, 0
10, 7312, Note_on_c, 9, 38, 0
10, 7312, Note_on_c, 9, 42, 0
10, 7312, Note_on_c, 9, 51, 0
10, 7488, Note_on_c, 9, 35, 100
10, 7488, Note_on_c, 9, 42, 110
10, 7488, Note_on_c, 9, 51, 90
10, 7504, Note_on_c, 9, 51, 0
10, 7504, Note_on_c, 9, 42, 0
10, 7504, Note_on_c, 9, 35, 0
10, 7680, Note_on_c, 9, 35, 120
10, 7680, Note_on_c, 9, 46, 100
10, 7680, Note_on_c, 9, 51, 127
10, 7696, Note_on_c, 9, 51, 0
10, 7696, Note_on_c, 9, 46, 0
10, 7696, Note_on_c, 9, 35, 0
10, 7872, Note_on_c, 9, 46, 90
10, 7872, Note_on_c, 9, 51, 90
10, 7888, Note_on_c, 9, 51, 0
10, 7888, Note_on_c, 9, 46, 0
10, 8064, Note_on_c, 9, 38, 120
10, 8064, Note_on_c, 9, 42, 120
10, 8064, Note_on_c, 9, 51, 127
10, 8064, Note_on_c, 9, 39, 90
10, 8080, Note_on_c, 9, 39, 0
10, 8080, Note_on_c, 9, 38, 0
10, 8080, Note_on_c, 9, 42, 0
10, 8080, Note_on_c, 9, 51, 0
10, 8256, Note_on_c, 9, 35, 100
10, 8256, Note_on_c, 9, 42, 110
10, 8256, Note_on_c, 9, 51, 90
10, 8272, Note_on_c, 9, 51, 0
10, 8272, Note_on_c, 9, 42, 0
10, 8272, Note_on_c, 9, 35, 0
10, 8448, Note_on_c, 9, 35, 120
10, 8448, Note_on_c, 9, 46, 100
10, 8448, Note_on_c, 9, 51, 127
10, 8464, Note_on_c, 9, 51, 0
10, 8464, Note_on_c, 9, 46, 0
10, 8464, Note_on_c, 9, 35, 0
10, 8640, Note_on_c, 9, 42, 110
10, 8640, Note_on_c, 9, 51, 90
10, 8656, Note_on_c, 9, 51, 0
10, 8656, Note_on_c, 9, 42, 0
10, 8832, Note_on_c, 9, 38, 120
10, 8832, Note_on_c, 9, 42, 120
10, 8832, Note_on_c, 9, 51, 127
10, 8832, Note_on_c, 9, 39, 90
10, 8848, Note_on_c, 9, 39, 0
10, 8848, Note_on_c, 9, 38, 0
10, 8848, Note_on_c, 9, 42, 0
10, 8848, Note_on_c, 9, 51, 0
10, 9024, Note_on_c, 9, 35, 100
10, 9024, Note_on_c, 9, 46, 90
10, 9024, Note_on_c, 9, 51, 90
10, 9040, Note_on_c, 9, 51, 0
10, 9040, Note_on_c, 9, 46, 0
10, 9040, Note_on_c, 9, 35, 0
10, 9216, Note_on_c, 9, 35, 120
10, 9216, Note_on_c, 9, 42, 120
10, 9216, Note_on_c, 9, 51, 127
10, 9232, Note_on_c, 9, 51, 0
10, 9232, Note_on_c, 9, 42, 0
10, 9232, Note_on_c, 9, 35, 0
10, 9408, Note_on_c, 9, 42, 110
10, 9408, Note_on_c, 9, 51, 90
10, 9424, Note_on_c, 9, 51, 0
10, 9424, Note_on_c, 9, 42, 0
10, 9600, Note_on_c, 9, 38, 120
10, 9600, Note_on_c, 9, 42, 120
10, 9600, Note_on_c, 9, 51, 127
10, 9600, Note_on_c, 9, 39, 90
10, 9616, Note_on_c, 9, 39, 0
10, 9616, Note_on_c, 9, 38, 0
10, 9616, Note_on_c, 9, 42, 0
10, 9616, Note_on_c, 9, 51, 0
10, 9792, Note_on_c, 9, 42, 110
10, 9792, Note_on_c, 9, 51, 90
10, 9808, Note_on_c, 9, 51, 0
10, 9808, Note_on_c, 9, 42, 0
10, 9888, Note_on_c, 9, 35, 110
10, 9888, Note_on_c, 9, 38, 80
10, 9904, Note_on_c, 9, 38, 0
10, 9904, Note_on_c, 9, 35, 0
10, 9984, Note_on_c, 9, 35, 120
10, 9984, Note_on_c, 9, 38, 100
10, 9984, Note_on_c, 9, 42, 120
10, 9984, Note_on_c, 9, 51, 127
10, 10000, Note_on_c, 9, 51, 0
10, 10000, Note_on_c, 9, 35, 0
10, 10000, Note_on_c, 9, 38, 0
10, 10000, Note_on_c, 9, 42, 0
10, 10176, Note_on_c, 9, 38, 110
10, 10176, Note_on_c, 9, 42, 110
10, 10176, Note_on_c, 9, 51, 90
10, 10192, Note_on_c, 9, 51, 0
10, 10192, Note_on_c, 9, 42, 0
10, 10192, Note_on_c, 9, 38, 0
10, 10272, Note_on_c, 9, 38, 120
10, 10288, Note_on_c, 9, 38, 0
10, 10368, Note_on_c, 9, 42, 120
10, 10368, Note_on_c, 9, 51, 127
10, 10384, Note_on_c, 9, 51, 0
10, 10384, Note_on_c, 9, 42, 0
10, 10464, Note_on_c, 9, 38, 90
10, 10480, Note_on_c, 9, 38, 0
10, 10560, Note_on_c, 9, 35, 100
10, 10560, Note_on_c, 9, 38, 120
10, 10560, Note_on_c, 9, 42, 110
10, 10560, Note_on_c, 9, 51, 90
10, 10576, Note_on_c, 9, 51, 0
10, 10576, Note_on_c, 9, 35, 0
10, 10576, Note_on_c, 9, 38, 0
10, 10576, Note_on_c, 9, 42, 0
10, 10752, Note_on_c, 9, 35, 120
10, 10752, Note_on_c, 9, 42, 120
10, 10752, Note_on_c, 9, 51, 127
10, 10768, Note_on_c, 9, 51, 0
10, 10768, Note_on_c, 9, 42, 0
10, 10768, Note_on_c, 9, 35, 0
10, 10944, Note_on_c, 9, 42, 110
10, 10944, Note_on_c, 9, 51, 90
10, 10960, Note_on_c, 9, 51, 0
10, 10960, Note_on_c, 9, 42, 0
10, 11136, Note_on_c, 9, 38, 120
10, 11136, Note_on_c, 9, 42, 120
10, 11136, Note_on_c, 9, 51, 127
10, 11136, Note_on_c, 9, 39, 90
10, 11152, Note_on_c, 9, 39, 0
10, 11152, Note_on_c, 9, 38, 0
10, 11152, Note_on_c, 9, 42, 0
10, 11152, Note_on_c, 9, 51, 0
10, 11328, Note_on_c, 9, 42, 110
10, 11328, Note_on_c, 9, 51, 90
10, 11344, Note_on_c, 9, 51, 0
10, 11344, Note_on_c, 9, 42, 0
10, 11424, Note_on_c, 9, 35, 110
10, 11424, Note_on_c, 9, 38, 100
10, 11440, Note_on_c, 9, 38, 0
10, 11440, Note_on_c, 9, 35, 0
10, 11520, Note_on_c, 9, 35, 120
10, 11520, Note_on_c, 9, 38, 120
10, 11520, Note_on_c, 9, 42, 120
10, 11520, Note_on_c, 9, 51, 127
10, 11536, Note_on_c, 9, 51, 0
10, 11536, Note_on_c, 9, 35, 0
10, 11536, Note_on_c, 9, 38, 0
10, 11536, Note_on_c, 9, 42, 0
10, 11712, Note_on_c, 9, 38, 80
10, 11712, Note_on_c, 9, 42, 110
10, 11712, Note_on_c, 9, 51, 90
10, 11728, Note_on_c, 9, 51, 0
10, 11728, Note_on_c, 9, 42, 0
10, 11728, Note_on_c, 9, 38, 0
10, 11760, Note_on_c, 9, 38, 90
10, 11776, Note_on_c, 9, 38, 0
10, 11808, Note_on_c, 9, 38, 120
10, 11824, Note_on_c, 9, 38, 0
10, 11904, Note_on_c, 9, 42, 120
10, 11904, Note_on_c, 9, 51, 127
10, 11904, Note_on_c, 9, 48, 100
10, 11920, Note_on_c, 9, 48, 0
10, 11920, Note_on_c, 9, 51, 0
10, 11920, Note_on_c, 9, 42, 0
10, 12000, Note_on_c, 9, 38, 110
10, 12016, Note_on_c, 9, 38, 0
10, 12096, Note_on_c, 9, 35, 100
10, 12096, Note_on_c, 9, 42, 110
10, 12096, Note_on_c, 9, 46, 120
10, 12096, Note_on_c, 9, 51, 90
10, 12112, Note_on_c, 9, 51, 0
10, 12112, Note_on_c, 9, 35, 0
10, 12112, Note_on_c, 9, 42, 0
10, 12112, Note_on_c, 9, 46, 0
10, 12288, Note_on_c, 9, 35, 120
10, 12288, Note_on_c, 9, 42, 120
10, 12288, Note_on_c, 9, 51, 127
10, 12288, Note_on_c, 9, 49, 120
10, 12304, Note_on_c, 9, 49, 0
10, 12304, Note_on_c, 9, 35, 0
10, 12304, Note_on_c, 9, 42, 0
10, 12304, Note_on_c, 9, 51, 0
10, 12480, Note_on_c, 9, 42, 110
10, 12480, Note_on_c, 9, 51, 90
10, 12496, Note_on_c, 9, 51, 0
10, 12496, Note_on_c, 9, 42, 0
10, 12672, Note_on_c, 9, 38, 120
10, 12672, Note_on_c, 9, 42, 120
10, 12672, Note_on_c, 9, 51, 127
10, 12672, Note_on_c, 9, 39, 90
10, 12688, Note_on_c, 9, 39, 0
10, 12688, Note_on_c, 9, 38, 0
10, 12688, Note_on_c, 9, 42, 0
10, 12688, Note_on_c, 9, 51, 0
10, 12864, Note_on_c, 9, 35, 100
10, 12864, Note_on_c, 9, 42, 110
10, 12864, Note_on_c, 9, 51, 90
10, 12880, Note_on_c, 9, 51, 0
10, 12880, Note_on_c, 9, 42, 0
10, 12880, Note_on_c, 9, 35, 0
10, 13056, Note_on_c, 9, 35, 120
10, 13056, Note_on_c, 9, 42, 120
10, 13056, Note_on_c, 9, 51, 127
10, 13072, Note_on_c, 9, 51, 0
10, 13072, Note_on_c, 9, 42, 0
10, 13072, Note_on_c, 9, 35, 0
10, 13248, Note_on_c, 9, 42, 110
10, 13248, Note_on_c, 9, 51, 90
10, 13264, Note_on_c, 9, 51, 0
10, 13264, Note_on_c, 9, 42, 0
10, 13440, Note_on_c, 9, 38, 120
10, 13440, Note_on_c, 9, 42, 120
10, 13440, Note_on_c, 9, 51, 127
10, 13440, Note_on_c, 9, 39, 90
10, 13456, Note_on_c, 9, 39, 0
10, 13456, Note_on_c, 9, 38, 0
10, 13456, Note_on_c, 9, 42, 0
10, 13456, Note_on_c, 9, 51, 0
10, 13632, Note_on_c, 9, 35, 100
10, 13632, Note_on_c, 9, 42, 110
10, 13632, Note_on_c, 9, 51, 90
10, 13648, Note_on_c, 9, 51, 0
10, 13648, Note_on_c, 9, 42, 0
10, 13648, Note_on_c, 9, 35, 0
10, 13824, Note_on_c, 9, 35, 120
10, 13824, Note_on_c, 9, 46, 100
10, 13824, Note_on_c, 9, 51, 127
10, 13840, Note_on_c, 9, 51, 0
10, 13840, Note_on_c, 9, 46, 0
10, 13840, Note_on_c, 9, 35, 0
10, 14016, Note_on_c, 9, 46, 90
10, 14016, Note_on_c, 9, 51, 90
10, 14032, Note_on_c, 9, 51, 0
10, 14032, Note_on_c, 9, 46, 0
10, 14208, Note_on_c, 9, 38, 120
10, 14208, Note_on_c, 9, 42, 120
10, 14208, Note_on_c, 9, 51, 127
10, 14208, Note_on_c, 9, 39, 90
10, 14224, Note_on_c, 9, 39, 0
10, 14224, Note_on_c, 9, 38, 0
10, 14224, Note_on_c, 9, 42, 0
10, 14224, Note_on_c, 9, 51, 0
10, 14400, Note_on_c, 9, 35, 100
10, 14400, Note_on_c, 9, 42, 110
10, 14400, Note_on_c, 9, 51, 90
10, 14416, Note_on_c, 9, 51, 0
10, 14416, Note_on_c, 9, 42, 0
10, 14416, Note_on_c, 9, 35, 0
10, 14592, Note_on_c, 9, 35, 120
10, 14592, Note_on_c, 9, 46, 100
10, 14592, Note_on_c, 9, 51, 127
10, 14608, Note_on_c, 9, 51, 0
10, 14608, Note_on_c, 9, 46, 0
10, 14608, Note_on_c, 9, 35, 0
10, 14784, Note_on_c, 9, 42, 110
10, 14784, Note_on_c, 9, 51, 90
10, 14800, Note_on_c, 9, 51, 0
10, 14800, Note_on_c, 9, 42, 0
10, 14976, Note_on_c, 9, 38, 120
10, 14976, Note_on_c, 9, 42, 120
10, 14976, Note_on_c, 9, 51, 127
10, 14976, Note_on_c, 9, 39, 90
10, 14992, Note_on_c, 9, 39, 0
10, 14992, Note_on_c, 9, 38, 0
10, 14992, Note_on_c, 9, 42, 0
10, 14992, Note_on_c, 9, 51, 0
10, 15168, Note_on_c, 9, 35, 100
10, 15168, Note_on_c, 9, 46, 90
10, 15168, Note_on_c, 9, 51, 90
10, 15184, Note_on_c, 9, 51, 0
10, 15184, Note_on_c, 9, 46, 0
10, 15184, Note_on_c, 9, 35, 0
10, 15360, Note_on_c, 9, 35, 120
10, 15360, Note_on_c, 9, 42, 120
10, 15360, Note_on_c, 9, 51, 127
10, 15376, Note_on_c, 9, 51, 0
10, 15376, Note_on_c, 9, 42, 0
10, 15376, Note_on_c, 9, 35, 0
10, 15552, Note_on_c, 9, 42, 110
10, 15552, Note_on_c, 9, 51, 90
10, 15568, Note_on_c, 9, 51, 0
10, 15568, Note_on_c, 9, 42, 0
10, 15744, Note_on_c, 9, 38, 120
10, 15744, Note_on_c, 9, 42, 120
10, 15744, Note_on_c, 9, 51, 127
10, 15744, Note_on_c, 9, 39, 90
10, 15760, Note_on_c, 9, 39, 0
10, 15760, Note_on_c, 9, 38, 0
10, 15760, Note_on_c, 9, 42, 0
10, 15760, Note_on_c, 9, 51, 0
10, 15936, Note_on_c, 9, 42, 110
10, 15936, Note_on_c, 9, 51, 90
10, 15952, Note_on_c, 9, 51, 0
10, 15952, Note_on_c, 9, 42, 0
10, 16032, Note_on_c, 9, 35, 110
10, 16032, Note_on_c, 9, 38, 80
10, 16048, Note_on_c, 9, 38, 0
10, 16048, Note_on_c, 9, 35, 0
10, 16128, Note_on_c, 9, 35, 120
10, 16128, Note_on_c, 9, 38, 100
10, 16128, Note_on_c, 9, 42, 120
10, 16128, Note_on_c, 9, 51, 127
10, 16144, Note_on_c, 9, 51, 0
10, 16144, Note_on_c, 9, 35, 0
10, 16144, Note_on_c, 9, 38, 0
10, 16144, Note_on_c, 9, 42, 0
10, 16320, Note_on_c, 9, 38, 110
10, 16320, Note_on_c, 9, 42, 110
10, 16320, Note_on_c, 9, 51, 90
10, 16336, Note_on_c, 9, 51, 0
10, 16336, Note_on_c, 9, 42, 0
10, 16336, Note_on_c, 9, 38, 0
10, 16416, Note_on_c, 9, 38, 120
10, 16432, Note_on_c, 9, 38, 0
10, 16512, Note_on_c, 9, 42, 120
10, 16512, Note_on_c, 9, 51, 127
10, 16528, Note_on_c, 9, 51, 0
10, 16528, Note_on_c, 9, 42, 0
10, 16608, Note_on_c, 9, 38, 90
10, 16624, Note_on_c, 9, 38, 0
10, 16704, Note_on_c, 9, 35, 100
10, 16704, Note_on_c, 9, 38, 120
10, 16704, Note_on_c, 9, 42, 110
10, 16704, Note_on_c, 9, 51, 90
10, 16720, Note_on_c, 9, 51, 0
10, 16720, Note_on_c, 9, 35, 0
10, 16720, Note_on_c, 9, 38, 0
10, 16720, Note_on_c, 9, 42, 0
10, 16896, Note_on_c, 9, 35, 120
10, 16896, Note_on_c, 9, 42, 120
10, 16896, Note_on_c, 9, 51, 127
10, 16912, Note_on_c, 9, 51, 0
10, 16912, Note_on_c, 9, 42, 0
10, 16912, Note_on_c, 9, 35, 0
10, 17088, Note_on_c, 9, 42, 110
10, 17088, Note_on_c, 9, 51, 90
10, 17104, Note_on_c, 9, 51, 0
10, 17104, Note_on_c, 9, 42, 0
10, 17280, Note_on_c, 9, 38, 120
10, 17280, Note_on_c, 9, 42, 120
10, 17280, Note_on_c, 9, 51, 127
10, 17280, Note_on_c, 9, 39, 90
10, 17296, Note_on_c, 9, 39, 0
10, 17296, Note_on_c, 9, 38, 0
10, 17296, Note_on_c, 9, 42, 0
10, 17296, Note_on_c, 9, 51, 0
10, 17472, Note_on_c, 9, 42, 110
10, 17472, Note_on_c, 9, 51, 90
10, 17488, Note_on_c, 9, 51, 0
10, 17488, Note_on_c, 9, 42, 0
10, 17568, Note_on_c, 9, 35, 110
10, 17568, Note_on_c, 9, 38, 100
10, 17584, Note_on_c, 9, 38, 0
10, 17584, Note_on_c, 9, 35, 0
10, 17664, Note_on_c, 9, 35, 120
10, 17664, Note_on_c, 9, 38, 110
10, 17664, Note_on_c, 9, 42, 120
10, 17664, Note_on_c, 9, 51, 127
10, 17680, Note_on_c, 9, 51, 0
10, 17680, Note_on_c, 9, 35, 0
10, 17680, Note_on_c, 9, 38, 0
10, 17680, Note_on_c, 9, 42, 0
10, 17712, Note_on_c, 9, 38, 90
10, 17728, Note_on_c, 9, 38, 0
10, 17760, Note_on_c, 9, 38, 110
10, 17776, Note_on_c, 9, 38, 0
10, 17856, Note_on_c, 9, 38, 110
10, 17856, Note_on_c, 9, 42, 110
10, 17856, Note_on_c, 9, 51, 90
10, 17872, Note_on_c, 9, 51, 0
10, 17872, Note_on_c, 9, 42, 0
10, 17872, Note_on_c, 9, 38, 0
10, 18000, Note_on_c, 9, 38, 100
10, 18016, Note_on_c, 9, 38, 0
10, 18048, Note_on_c, 9, 42, 120
10, 18048, Note_on_c, 9, 51, 127
10, 18048, Note_on_c, 9, 48, 100
10, 18064, Note_on_c, 9, 48, 0
10, 18064, Note_on_c, 9, 51, 0
10, 18064, Note_on_c, 9, 42, 0
10, 18192, Note_on_c, 9, 38, 100
10, 18208, Note_on_c, 9, 38, 0
10, 18240, Note_on_c, 9, 35, 100
10, 18240, Note_on_c, 9, 42, 110
10, 18240, Note_on_c, 9, 46, 120
10, 18240, Note_on_c, 9, 51, 90
10, 18240, Note_on_c, 9, 45, 100
10, 18256, Note_on_c, 9, 45, 0
10, 18256, Note_on_c, 9, 46, 0
10, 18256, Note_on_c, 9, 35, 0
10, 18256, Note_on_c, 9, 42, 0
10, 18256, Note_on_c, 9, 51, 0
10, 18384, Note_on_c, 9, 41, 100
10, 18400, Note_on_c, 9, 41, 0
10, 18432, Note_on_c, 9, 35, 120
10, 18432, Note_on_c, 9, 42, 120
10, 18432, Note_on_c, 9, 51, 127
10, 18432, Note_on_c, 9, 49, 120
10, 18448, Note_on_c, 9, 49, 0
10, 18448, Note_on_c, 9, 35, 0
10, 18448, Note_on_c, 9, 42, 0
10, 18448, Note_on_c, 9, 51, 0
10, 18624, Note_on_c, 9, 42, 110
10, 18624, Note_on_c, 9, 51, 90
10, 18640, Note_on_c, 9, 51, 0
10, 18640, Note_on_c, 9, 42, 0
10, 18816, Note_on_c, 9, 38, 120
10, 18816, Note_on_c, 9, 42, 120
10, 18816, Note_on_c, 9, 51, 127
10, 18816, Note_on_c, 9, 39, 90
10, 18832, Note_on_c, 9, 39, 0
10, 18832, Note_on_c, 9, 38, 0
10, 18832, Note_on_c, 9, 42, 0
10, 18832, Note_on_c, 9, 51, 0
10, 19008, Note_on_c, 9, 35, 100
10, 19008, Note_on_c, 9, 42, 110
10, 19008, Note_on_c, 9, 51, 90
10, 19024, Note_on_c, 9, 51, 0
10, 19024, Note_on_c, 9, 42, 0
10, 19024, Note_on_c, 9, 35, 0
10, 19200, Note_on_c, 9, 35, 120
10, 19200, Note_on_c, 9, 42, 120
10, 19200, Note_on_c, 9, 51, 127
10, 19216, Note_on_c, 9, 51, 0
10, 19216, Note_on_c, 9, 42, 0
10, 19216, Note_on_c, 9, 35, 0
10, 19392, Note_on_c, 9, 42, 110
10, 19392, Note_on_c, 9, 51, 90
10, 19408, Note_on_c, 9, 51, 0
10, 19408, Note_on_c, 9, 42, 0
10, 19584, Note_on_c, 9, 38, 120
10, 19584, Note_on_c, 9, 42, 120
10, 19584, Note_on_c, 9, 51, 127
10, 19584, Note_on_c, 9, 39, 90
10, 19600, Note_on_c, 9, 39, 0
10, 19600, Note_on_c, 9, 38, 0
10, 19600, Note_on_c, 9, 42, 0
10, 19600, Note_on_c, 9, 51, 0
10, 19776, Note_on_c, 9, 35, 100
10, 19776, Note_on_c, 9, 42, 110
10, 19776, Note_on_c, 9, 51, 90
10, 19792, Note_on_c, 9, 51, 0
10, 19792, Note_on_c, 9, 42, 0
10, 19792, Note_on_c, 9, 35, 0
10, 19968, Note_on_c, 9, 35, 120
10, 19968, Note_on_c, 9, 46, 100
10, 19968, Note_on_c, 9, 51, 127
10, 19984, Note_on_c, 9, 51, 0
10, 19984, Note_on_c, 9, 46, 0
10, 19984, Note_on_c, 9, 35, 0
10, 20160, Note_on_c, 9, 46, 90
10, 20160, Note_on_c, 9, 51, 90
10, 20176, Note_on_c, 9, 51, 0
10, 20176, Note_on_c, 9, 46, 0
10, 20352, Note_on_c, 9, 38, 120
10, 20352, Note_on_c, 9, 42, 120
10, 20352, Note_on_c, 9, 51, 127
10, 20352, Note_on_c, 9, 39, 90
10, 20368, Note_on_c, 9, 39, 0
10, 20368, Note_on_c, 9, 38, 0
10, 20368, Note_on_c, 9, 42, 0
10, 20368, Note_on_c, 9, 51, 0
10, 20544, Note_on_c, 9, 35, 100
10, 20544, Note_on_c, 9, 42, 110
10, 20544, Note_on_c, 9, 51, 90
10, 20560, Note_on_c, 9, 51, 0
10, 20560, Note_on_c, 9, 42, 0
10, 20560, Note_on_c, 9, 35, 0
10, 20736, Note_on_c, 9, 35, 120
10, 20736, Note_on_c, 9, 46, 100
10, 20736, Note_on_c, 9, 51, 127
10, 20752, Note_on_c, 9, 51, 0
10, 20752, Note_on_c, 9, 46, 0
10, 20752, Note_on_c, 9, 35, 0
10, 20928, Note_on_c, 9, 42, 110
10, 20928, Note_on_c, 9, 51, 90
10, 20944, Note_on_c, 9, 51, 0
10, 20944, Note_on_c, 9, 42, 0
10, 21120, Note_on_c, 9, 38, 120
10, 21120, Note_on_c, 9, 42, 120
10, 21120, Note_on_c, 9, 51, 127
10, 21120, Note_on_c, 9, 39, 90
10, 21136, Note_on_c, 9, 39, 0
10, 21136, Note_on_c, 9, 38, 0
10, 21136, Note_on_c, 9, 42, 0
10, 21136, Note_on_c, 9, 51, 0
10, 21312, Note_on_c, 9, 35, 100
10, 21312, Note_on_c, 9, 46, 90
10, 21312, Note_on_c, 9, 51, 90
10, 21328, Note_on_c, 9, 51, 0
10, 21328, Note_on_c, 9, 46, 0
10, 21328, Note_on_c, 9, 35, 0
10, 21504, Note_on_c, 9, 35, 120
10, 21504, Note_on_c, 9, 42, 120
10, 21504, Note_on_c, 9, 51, 127
10, 21520, Note_on_c, 9, 51, 0
10, 21520, Note_on_c, 9, 42, 0
10, 21520, Note_on_c, 9, 35, 0
10, 21696, Note_on_c, 9, 42, 110
10, 21696, Note_on_c, 9, 51, 90
10, 21712, Note_on_c, 9, 51, 0
10, 21712, Note_on_c, 9, 42, 0
10, 21888, Note_on_c, 9, 38, 120
10, 21888, Note_on_c, 9, 42, 120
10, 21888, Note_on_c, 9, 51, 127
10, 21888, Note_on_c, 9, 39, 90
10, 21904, Note_on_c, 9, 39, 0
10, 21904, Note_on_c, 9, 38, 0
10, 21904, Note_on_c, 9, 42, 0
10, 21904, Note_on_c, 9, 51, 0
10, 22080, Note_on_c, 9, 42, 110
10, 22080, Note_on_c, 9, 51, 90
10, 22096, Note_on_c, 9, 51, 0
10, 22096, Note_on_c, 9, 42, 0
10, 22176, Note_on_c, 9, 35, 110
10, 22176, Note_on_c, 9, 38, 80
10, 22192, Note_on_c, 9, 38, 0
10, 22192, Note_on_c, 9, 35, 0
10, 22272, Note_on_c, 9, 35, 120
10, 22272, Note_on_c, 9, 38, 100
10, 22272, Note_on_c, 9, 42, 120
10, 22272, Note_on_c, 9, 51, 127
10, 22288, Note_on_c, 9, 51, 0
10, 22288, Note_on_c, 9, 35, 0
10, 22288, Note_on_c, 9, 38, 0
10, 22288, Note_on_c, 9, 42, 0
10, 22464, Note_on_c, 9, 38, 110
10, 22464, Note_on_c, 9, 42, 110
10, 22464, Note_on_c, 9, 51, 90
10, 22480, Note_on_c, 9, 51, 0
10, 22480, Note_on_c, 9, 42, 0
10, 22480, Note_on_c, 9, 38, 0
10, 22560, Note_on_c, 9, 38, 120
10, 22576, Note_on_c, 9, 38, 0
10, 22656, Note_on_c, 9, 42, 120
10, 22656, Note_on_c, 9, 51, 127
10, 22672, Note_on_c, 9, 51, 0
10, 22672, Note_on_c, 9, 42, 0
10, 22752, Note_on_c, 9, 38, 90
10, 22768, Note_on_c, 9, 38, 0
10, 22848, Note_on_c, 9, 35, 100
10, 22848, Note_on_c, 9, 38, 120
10, 22848, Note_on_c, 9, 42, 110
10, 22848, Note_on_c, 9, 51, 90
10, 22864, Note_on_c, 9, 51, 0
10, 22864, Note_on_c, 9, 35, 0
10, 22864, Note_on_c, 9, 38, 0
10, 22864, Note_on_c, 9, 42, 0
10, 23040, Note_on_c, 9, 35, 120
10, 23040, Note_on_c, 9, 42, 120
10, 23040, Note_on_c, 9, 51, 127
10, 23056, Note_on_c, 9, 51, 0
10, 23056, Note_on_c, 9, 42, 0
10, 23056, Note_on_c, 9, 35, 0
10, 23232, Note_on_c, 9, 42, 110
10, 23232, Note_on_c, 9, 51, 90
10, 23248, Note_on_c, 9, 51, 0
10, 23248, Note_on_c, 9, 42, 0
10, 23424, Note_on_c, 9, 38, 120
10, 23424, Note_on_c, 9, 42, 120
10, 23424, Note_on_c, 9, 51, 127
10, 23424, Note_on_c, 9, 39, 90
10, 23440, Note_on_c, 9, 39, 0
10, 23440, Note_on_c, 9, 38, 0
10, 23440, Note_on_c, 9, 42, 0
10, 23440, Note_on_c, 9, 51, 0
10, 23616, Note_on_c, 9, 42, 110
10, 23616, Note_on_c, 9, 51, 90
10, 23632, Note_on_c, 9, 51, 0
10, 23632, Note_on_c, 9, 42, 0
10, 23712, Note_on_c, 9, 35, 110
10, 23712, Note_on_c, 9, 38, 80
10, 23728, Note_on_c, 9, 38, 0
10, 23728, Note_on_c, 9, 35, 0
10, 23760, Note_on_c, 9, 38, 90
10, 23776, Note_on_c, 9, 38, 0
10, 23808, Note_on_c, 9, 35, 120
10, 23808, Note_on_c, 9, 38, 120
10, 23808, Note_on_c, 9, 42, 120
10, 23808, Note_on_c, 9, 51, 127
10, 23824, Note_on_c, 9, 51, 0
10, 23824, Note_on_c, 9, 35, 0
10, 23824, Note_on_c, 9, 38, 0
10, 23824, Note_on_c, 9, 42, 0
10, 23856, Note_on_c, 9, 38, 80
10, 23872, Note_on_c, 9, 38, 0
10, 23904, Note_on_c, 9, 38, 90
10, 23920, Note_on_c, 9, 38, 0
10, 23952, Note_on_c, 9, 38, 100
10, 23968, Note_on_c, 9, 38, 0
10, 24000, Note_on_c, 9, 38, 120
10, 24000, Note_on_c, 9, 42, 110
10, 24000, Note_on_c, 9, 51, 90
10, 24016, Note_on_c, 9, 51, 0
10, 24016, Note_on_c, 9, 42, 0
10, 24016, Note_on_c, 9, 38, 0
10, 24048, Note_on_c, 9, 38, 80
10, 24064, Note_on_c, 9, 38, 0
10, 24096, Note_on_c, 9, 38, 90
10, 24112, Note_on_c, 9, 38, 0
10, 24144, Note_on_c, 9, 38, 110
10, 24160, Note_on_c, 9, 38, 0
10, 24192, Note_on_c, 9, 46, 120
10, 24192, Note_on_c, 9, 51, 127
10, 24192, Note_on_c, 9, 48, 110
10, 24208, Note_on_c, 9, 48, 0
10, 24208, Note_on_c, 9, 51, 0
10, 24208, Note_on_c, 9, 46, 0
10, 24240, Note_on_c, 9, 48, 90
10, 24256, Note_on_c, 9, 48, 0
10, 24288, Note_on_c, 9, 48, 100
10, 24304, Note_on_c, 9, 48, 0
10, 24336, Note_on_c, 9, 48, 110
10, 24352, Note_on_c, 9, 48, 0
10, 24384, Note_on_c, 9, 35, 100
10, 24384, Note_on_c, 9, 46, 120
10, 24384, Note_on_c, 9, 51, 90
10, 24384, Note_on_c, 9, 45, 100
10, 24400, Note_on_c, 9, 45, 0
10, 24400, Note_on_c, 9, 35, 0
10, 24400, Note_on_c, 9, 46, 0
10, 24400, Note_on_c, 9, 51, 0
10, 24432, Note_on_c, 9, 45, 80
10, 24448, Note_on_c, 9, 45, 0
10, 24480, Note_on_c, 9, 45, 90
10, 24496, Note_on_c, 9, 45, 0
10, 24528, Note_on_c, 9, 41, 100
10, 24544, Note_on_c, 9, 41, 0
10, 24576, Note_on_c, 9, 35, 120
10, 24576, Note_on_c, 9, 42, 120
10, 24576, Note_on_c, 9, 51, 127
10, 24576, Note_on_c, 9, 49, 120
10, 24592, Note_on_c, 9, 49, 0
10, 24592, Note_on_c, 9, 35, 0
10, 24592, Note_on_c, 9, 42, 0
10, 24592, Note_on_c, 9, 51, 0
10, 24768, Note_on_c, 9, 42, 110
10, 24768, Note_on_c, 9, 51, 90
10, 24784, Note_on_c, 9, 51, 0
10, 24784, Note_on_c, 9, 42, 0
10, 24960, Note_on_c, 9, 38, 120
10, 24960, Note_on_c, 9, 42, 120
10, 24960, Note_on_c, 9, 51, 127
10, 24960, Note_on_c, 9, 39, 90
10, 24976, Note_on_c, 9, 39, 0
10, 24976, Note_on_c, 9, 38, 0
10, 24976, Note_on_c, 9, 42, 0
10, 24976, Note_on_c, 9, 51, 0
10, 25152, Note_on_c, 9, 35, 100
10, 25152, Note_on_c, 9, 42, 110
10, 25152, Note_on_c, 9, 51, 90
10, 25168, Note_on_c, 9, 51, 0
10, 25168, Note_on_c, 9, 42, 0
10, 25168, Note_on_c, 9, 35, 0
10, 25344, Note_on_c, 9, 35, 120
10, 25344, Note_on_c, 9, 42, 120
10, 25344, Note_on_c, 9, 51, 127
10, 25360, Note_on_c, 9, 51, 0
10, 25360, Note_on_c, 9, 42, 0
10, 25360, Note_on_c, 9, 35, 0
10, 25536, Note_on_c, 9, 42, 110
10, 25536, Note_on_c, 9, 51, 90
10, 25552, Note_on_c, 9, 51, 0
10, 25552, Note_on_c, 9, 42, 0
10, 25728, Note_on_c, 9, 38, 120
10, 25728, Note_on_c, 9, 42, 120
10, 25728, Note_on_c, 9, 51, 127
10, 25728, Note_on_c, 9, 39, 90
10, 25744, Note_on_c, 9, 39, 0
10, 25744, Note_on_c, 9, 38, 0
10, 25744, Note_on_c, 9, 42, 0
10, 25744, Note_on_c, 9, 51, 0
10, 25920, Note_on_c, 9, 35, 100
10, 25920, Note_on_c, 9, 42, 110
10, 25920, Note_on_c, 9, 51, 90
10, 25936, Note_on_c, 9, 51, 0
10, 25936, Note_on_c, 9, 42, 0
10, 25936, Note_on_c, 9, 35, 0
10, 26112, Note_on_c, 9, 35, 120
10, 26112, Note_on_c, 9, 46, 100
10, 26112, Note_on_c, 9, 51, 127
10, 26128, Note_on_c, 9, 51, 0
10, 26128, Note_on_c, 9, 46, 0
10, 26128, Note_on_c, 9, 35, 0
10, 26304, Note_on_c, 9, 46, 90
10, 26304, Note_on_c, 9, 51, 90
10, 26320, Note_on_c, 9, 51, 0
10, 26320, Note_on_c, 9, 46, 0
10, 26496, Note_on_c, 9, 38, 120
10, 26496, Note_on_c, 9, 42, 120
10, 26496, Note_on_c, 9, 51, 127
10, 26496, Note_on_c, 9, 39, 90
10, 26512, Note_on_c, 9, 39, 0
10, 26512, Note_on_c, 9, 38, 0
10, 26512, Note_on_c, 9, 42, 0
10, 26512, Note_on_c, 9, 51, 0
10, 26688, Note_on_c, 9, 35, 100
10, 26688, Note_on_c, 9, 42, 110
10, 26688, Note_on_c, 9, 51, 90
10, 26704, Note_on_c, 9, 51, 0
10, 26704, Note_on_c, 9, 42, 0
10, 26704, Note_on_c, 9, 35, 0
10, 26880, Note_on_c, 9, 35, 120
10, 26880, Note_on_c, 9, 46, 100
10, 26880, Note_on_c, 9, 51, 127
10, 26896, Note_on_c, 9, 51, 0
10, 26896, Note_on_c, 9, 46, 0
10, 26896, Note_on_c, 9, 35, 0
10, 27072, Note_on_c, 9, 42, 110
10, 27072, Note_on_c, 9, 51, 90
10, 27088, Note_on_c, 9, 51, 0
10, 27088, Note_on_c, 9, 42, 0
10, 27264, Note_on_c, 9, 38, 120
10, 27264, Note_on_c, 9, 42, 120
10, 27264, Note_on_c, 9, 51, 127
10, 27264, Note_on_c, 9, 39, 90
10, 27280, Note_on_c, 9, 39, 0
10, 27280, Note_on_c, 9, 38, 0
10, 27280, Note_on_c, 9, 42, 0
10, 27280, Note_on_c, 9, 51, 0
10, 27456, Note_on_c, 9, 35, 100
10, 27456, Note_on_c, 9, 46, 90
10, 27456, Note_on_c, 9, 51, 90
10, 27472, Note_on_c, 9, 51, 0
10, 27472, Note_on_c, 9, 46, 0
10, 27472, Note_on_c, 9, 35, 0
10, 27648, Note_on_c, 9, 35, 120
10, 27648, Note_on_c, 9, 42, 120
10, 27648, Note_on_c, 9, 51, 127
10, 27664, Note_on_c, 9, 51, 0
10, 27664, Note_on_c, 9, 42, 0
10, 27664, Note_on_c, 9, 35, 0
10, 27840, Note_on_c, 9, 42, 110
10, 27840, Note_on_c, 9, 51, 90
10, 27856, Note_on_c, 9, 51, 0
10, 27856, Note_on_c, 9, 42, 0
10, 28032, Note_on_c, 9, 38, 120
10, 28032, Note_on_c, 9, 42, 120
10, 28032, Note_on_c, 9, 51, 127
10, 28032, Note_on_c, 9, 39, 90
10, 28048, Note_on_c, 9, 39, 0
10, 28048, Note_on_c, 9, 38, 0
10, 28048, Note_on_c, 9, 42, 0
10, 28048, Note_on_c, 9, 51, 0
10, 28224, Note_on_c, 9, 42, 110
10, 28224, Note_on_c, 9, 51, 90
10, 28240, Note_on_c, 9, 51, 0
10, 28240, Note_on_c, 9, 42, 0
10, 28320, Note_on_c, 9, 35, 110
10, 28320, Note_on_c, 9, 38, 120
10, 28320, Note_on_c, 9, 46, 120
10, 28336, Note_on_c, 9, 46, 0
10, 28336, Note_on_c, 9, 38, 0
10, 28336, Note_on_c, 9, 35, 0
10, 28416, Note_on_c, 9, 35, 120
10, 28416, Note_on_c, 9, 42, 120
10, 28416, Note_on_c, 9, 51, 127
10, 28432, Note_on_c, 9, 51, 0
10, 28432, Note_on_c, 9, 42, 0
10, 28432, Note_on_c, 9, 35, 0
10, 28608, Note_on_c, 9, 38, 90
10, 28608, Note_on_c, 9, 42, 110
10, 28608, Note_on_c, 9, 51, 90
10, 28624, Note_on_c, 9, 51, 0
10, 28624, Note_on_c, 9, 42, 0
10, 28624, Note_on_c, 9, 38, 0
10, 28704, Note_on_c, 9, 38, 120
10, 28720, Note_on_c, 9, 38, 0
10, 28800, Note_on_c, 9, 42, 120
10, 28800, Note_on_c, 9, 51, 127
10, 28816, Note_on_c, 9, 51, 0
10, 28816, Note_on_c, 9, 42, 0
10, 28896, Note_on_c, 9, 38, 90
10, 28912, Note_on_c, 9, 38, 0
10, 28992, Note_on_c, 9, 35, 100
10, 28992, Note_on_c, 9, 38, 100
10, 28992, Note_on_c, 9, 42, 110
10, 28992, Note_on_c, 9, 51, 90
10, 29008, Note_on_c, 9, 51, 0
10, 29008, Note_on_c, 9, 35, 0
10, 29008, Note_on_c, 9, 38, 0
10, 29008, Note_on_c, 9, 42, 0
10, 29184, Note_on_c, 9, 35, 120
10, 29184, Note_on_c, 9, 42, 120
10, 29184, Note_on_c, 9, 51, 127
10, 29200, Note_on_c, 9, 51, 0
10, 29200, Note_on_c, 9, 42, 0
10, 29200, Note_on_c, 9, 35, 0
10, 29376, Note_on_c, 9, 42, 110
10, 29376, Note_on_c, 9, 51, 90
10, 29392, Note_on_c, 9, 51, 0
10, 29392, Note_on_c, 9, 42, 0
10, 29568, Note_on_c, 9, 38, 120
10, 29568, Note_on_c, 9, 42, 120
10, 29568, Note_on_c, 9, 51, 127
10, 29568, Note_on_c, 9, 39, 90
10, 29584, Note_on_c, 9, 39, 0
10, 29584, Note_on_c, 9, 38, 0
10, 29584, Note_on_c, 9, 42, 0
10, 29584, Note_on_c, 9, 51, 0
10, 29760, Note_on_c, 9, 42, 110
10, 29760, Note_on_c, 9, 51, 90
10, 29776, Note_on_c, 9, 51, 0
10, 29776, Note_on_c, 9, 42, 0
10, 29856, Note_on_c, 9, 35, 110
10, 29856, Note_on_c, 9, 38, 100
10, 29872, Note_on_c, 9, 38, 0
10, 29872, Note_on_c, 9, 35, 0
10, 29952, Note_on_c, 9, 35, 120
10, 29952, Note_on_c, 9, 38, 120
10, 29952, Note_on_c, 9, 42, 120
10, 29952, Note_on_c, 9, 51, 127
10, 29968, Note_on_c, 9, 51, 0
10, 29968, Note_on_c, 9, 35, 0
10, 29968, Note_on_c, 9, 38, 0
10, 29968, Note_on_c, 9, 42, 0
10, 30144, Note_on_c, 9, 38, 80
10, 30144, Note_on_c, 9, 42, 110
10, 30144, Note_on_c, 9, 51, 90
10, 30160, Note_on_c, 9, 51, 0
10, 30160, Note_on_c, 9, 42, 0
10, 30160, Note_on_c, 9, 38, 0
10, 30192, Note_on_c, 9, 38, 90
10, 30208, Note_on_c, 9, 38, 0
10, 30240, Note_on_c, 9, 38, 120
10, 30256, Note_on_c, 9, 38, 0
10, 30336, Note_on_c, 9, 42, 120
10, 30336, Note_on_c, 9, 51, 127
10, 30336, Note_on_c, 9, 48, 100
10, 30352, Note_on_c, 9, 48, 0
10, 30352, Note_on_c, 9, 51, 0
10, 30352, Note_on_c, 9, 42, 0
10, 30432, Note_on_c, 9, 38, 110
10, 30448, Note_on_c, 9, 38, 0
10, 30528, Note_on_c, 9, 35, 100
10, 30528, Note_on_c, 9, 42, 110
10, 30528, Note_on_c, 9, 46, 120
10, 30528, Note_on_c, 9, 51, 90
10, 30544, Note_on_c, 9, 51, 0
10, 30544, Note_on_c, 9, 35, 0
10, 30544, Note_on_c, 9, 42, 0
10, 30544, Note_on_c, 9, 46, 0
10, 30720, Note_on_c, 9, 35, 120
10, 30720, Note_on_c, 9, 42, 120
10, 30720, Note_on_c, 9, 51, 127
10, 30720, Note_on_c, 9, 49, 120
10, 30736, Note_on_c, 9, 49, 0
10, 30736, Note_on_c, 9, 35, 0
10, 30736, Note_on_c, 9, 42, 0
10, 30736, Note_on_c, 9, 51, 0
10, 30912, Note_on_c, 9, 42, 110
10, 30912, Note_on_c, 9, 51, 90
10, 30928, Note_on_c, 9, 51, 0
10, 30928, Note_on_c, 9, 42, 0
10, 31104, Note_on_c, 9, 38, 120
10, 31104, Note_on_c, 9, 42, 120
10, 31104, Note_on_c, 9, 51, 127
10, 31104, Note_on_c, 9, 39, 90
10, 31120, Note_on_c, 9, 39, 0
10, 31120, Note_on_c, 9, 38, 0
10, 31120, Note_on_c, 9, 42, 0
10, 31120, Note_on_c, 9, 51, 0
10, 31296, Note_on_c, 9, 35, 100
10, 31296, Note_on_c, 9, 42, 110
10, 31296, Note_on_c, 9, 51, 90
10, 31312, Note_on_c, 9, 51, 0
10, 31312, Note_on_c, 9, 42, 0
10, 31312, Note_on_c, 9, 35, 0
10, 31488, Note_on_c, 9, 35, 120
10, 31488, Note_on_c, 9, 42, 120
10, 31488, Note_on_c, 9, 51, 127
10, 31504, Note_on_c, 9, 51, 0
10, 31504, Note_on_c, 9, 42, 0
10, 31504, Note_on_c, 9, 35, 0
10, 31680, Note_on_c, 9, 42, 110
10, 31680, Note_on_c, 9, 51, 90
10, 31696, Note_on_c, 9, 51, 0
10, 31696, Note_on_c, 9, 42, 0
10, 31872, Note_on_c, 9, 38, 120
10, 31872, Note_on_c, 9, 42, 120
10, 31872, Note_on_c, 9, 51, 127
10, 31872, Note_on_c, 9, 39, 90
10, 31888, Note_on_c, 9, 39, 0
10, 31888, Note_on_c, 9, 38, 0
10, 31888, Note_on_c, 9, 42, 0
10, 31888, Note_on_c, 9, 51, 0
10, 32064, Note_on_c, 9, 35, 100
10, 32064, Note_on_c, 9, 42, 110
10, 32064, Note_on_c, 9, 51, 90
10, 32080, Note_on_c, 9, 51, 0
10, 32080, Note_on_c, 9, 42, 0
10, 32080, Note_on_c, 9, 35, 0
10, 32256, Note_on_c, 9, 35, 120
10, 32256, Note_on_c, 9, 46, 100
10, 32256, Note_on_c, 9, 51, 127
10, 32272, Note_on_c, 9, 51, 0
10, 32272, Note_on_c, 9, 46, 0
10, 32272, Note_on_c, 9, 35, 0
10, 32448, Note_on_c, 9, 46, 90
10, 32448, Note_on_c, 9, 51, 90
10, 32464, Note_on_c, 9, 51, 0
10, 32464, Note_on_c, 9, 46, 0
10, 32640, Note_on_c, 9, 38, 120
10, 32640, Note_on_c, 9, 42, 120
10, 32640, Note_on_c, 9, 51, 127
10, 32640, Note_on_c, 9, 39, 90
10, 32656, Note_on_c, 9, 39, 0
10, 32656, Note_on_c, 9, 38, 0
10, 32656, Note_on_c, 9, 42, 0
10, 32656, Note_on_c, 9, 51, 0
10, 32832, Note_on_c, 9, 35, 100
10, 32832, Note_on_c, 9, 42, 110
10, 32832, Note_on_c, 9, 51, 90
10, 32848, Note_on_c, 9, 51, 0
10, 32848, Note_on_c, 9, 42, 0
10, 32848, Note_on_c, 9, 35, 0
10, 33024, Note_on_c, 9, 35, 120
10, 33024, Note_on_c, 9, 46, 100
10, 33024, Note_on_c, 9, 51, 127
10, 33040, Note_on_c, 9, 51, 0
10, 33040, Note_on_c, 9, 46, 0
10, 33040, Note_on_c, 9, 35, 0
10, 33216, Note_on_c, 9, 42, 110
10, 33216, Note_on_c, 9, 51, 90
10, 33232, Note_on_c, 9, 51, 0
10, 33232, Note_on_c, 9, 42, 0
10, 33408, Note_on_c, 9, 38, 120
10, 33408, Note_on_c, 9, 42, 120
10, 33408, Note_on_c, 9, 51, 127
10, 33408, Note_on_c, 9, 39, 90
10, 33424, Note_on_c, 9, 39, 0
10, 33424, Note_on_c, 9, 38, 0
10, 33424, Note_on_c, 9, 42, 0
10, 33424, Note_on_c, 9, 51, 0
10, 33600, Note_on_c, 9, 35, 100
10, 33600, Note_on_c, 9, 46, 90
10, 33600, Note_on_c, 9, 51, 90
10, 33616, Note_on_c, 9, 51, 0
10, 33616, Note_on_c, 9, 46, 0
10, 33616, Note_on_c, 9, 35, 0
10, 33792, Note_on_c, 9, 35, 120
10, 33792, Note_on_c, 9, 42, 120
10, 33792, Note_on_c, 9, 51, 127
10, 33808, Note_on_c, 9, 51, 0
10, 33808, Note_on_c, 9, 42, 0
10, 33808, Note_on_c, 9, 35, 0
10, 33984, Note_on_c, 9, 42, 110
10, 33984, Note_on_c, 9, 51, 90
10, 34000, Note_on_c, 9, 51, 0
10, 34000, Note_on_c, 9, 42, 0
10, 34176, Note_on_c, 9, 38, 120
10, 34176, Note_on_c, 9, 42, 120
10, 34176, Note_on_c, 9, 51, 127
10, 34176, Note_on_c, 9, 39, 90
10, 34192, Note_on_c, 9, 39, 0
10, 34192, Note_on_c, 9, 38, 0
10, 34192, Note_on_c, 9, 42, 0
10, 34192, Note_on_c, 9, 51, 0
10, 34368, Note_on_c, 9, 42, 110
10, 34368, Note_on_c, 9, 51, 90
10, 34384, Note_on_c, 9, 51, 0
10, 34384, Note_on_c, 9, 42, 0
10, 34464, Note_on_c, 9, 35, 110
10, 34464, Note_on_c, 9, 38, 80
10, 34480, Note_on_c, 9, 38, 0
10, 34480, Note_on_c, 9, 35, 0
10, 34560, Note_on_c, 9, 35, 120
10, 34560, Note_on_c, 9, 38, 100
10, 34560, Note_on_c, 9, 42, 120
10, 34560, Note_on_c, 9, 51, 127
10, 34576, Note_on_c, 9, 51, 0
10, 34576, Note_on_c, 9, 35, 0
10, 34576, Note_on_c, 9, 38, 0
10, 34576, Note_on_c, 9, 42, 0
10, 34752, Note_on_c, 9, 38, 110
10, 34752, Note_on_c, 9, 42, 110
10, 34752, Note_on_c, 9, 51, 90
10, 34768, Note_on_c, 9, 51, 0
10, 34768, Note_on_c, 9, 42, 0
10, 34768, Note_on_c, 9, 38, 0
10, 34848, Note_on_c, 9, 38, 120
10, 34864, Note_on_c, 9, 38, 0
10, 34944, Note_on_c, 9, 42, 120
10, 34944, Note_on_c, 9, 51, 127
10, 34960, Note_on_c, 9, 51, 0
10, 34960, Note_on_c, 9, 42, 0
10, 35040, Note_on_c, 9, 38, 90
10, 35056, Note_on_c, 9, 38, 0
10, 35136, Note_on_c, 9, 35, 100
10, 35136, Note_on_c, 9, 38, 120
10, 35136, Note_on_c, 9, 42, 110
10, 35136, Note_on_c, 9, 51, 90
10, 35152, Note_on_c, 9, 51, 0
10, 35152, Note_on_c, 9, 35, 0
10, 35152, Note_on_c, 9, 38, 0
10, 35152, Note_on_c, 9, 42, 0
10, 35328, Note_on_c, 9, 35, 120
10, 35328, Note_on_c, 9, 42, 120
10, 35328, Note_on_c, 9, 51, 127
10, 35344, Note_on_c, 9, 51, 0
10, 35344, Note_on_c, 9, 42, 0
10, 35344, Note_on_c, 9, 35, 0
10, 35424, Note_on_c, 9, 38, 110
10, 35440, Note_on_c, 9, 38, 0
10, 35520, Note_on_c, 9, 42, 110
10, 35520, Note_on_c, 9, 51, 90
10, 35536, Note_on_c, 9, 51, 0
10, 35536, Note_on_c, 9, 42, 0
10, 35616, Note_on_c, 9, 38, 90
10, 35632, Note_on_c, 9, 38, 0
10, 35712, Note_on_c, 9, 38, 120
10, 35712, Note_on_c, 9, 42, 120
10, 35712, Note_on_c, 9, 51, 127
10, 35712, Note_on_c, 9, 39, 90
10, 35728, Note_on_c, 9, 39, 0
10, 35728, Note_on_c, 9, 38, 0
10, 35728, Note_on_c, 9, 42, 0
10, 35728, Note_on_c, 9, 51, 0
10, 35904, Note_on_c, 9, 42, 110
10, 35904, Note_on_c, 9, 51, 90
10, 35920, Note_on_c, 9, 51, 0
10, 35920, Note_on_c, 9, 42, 0
10, 36000, Note_on_c, 9, 35, 110
10, 36000, Note_on_c, 9, 38, 120
10, 36016, Note_on_c, 9, 38, 0
10, 36016, Note_on_c, 9, 35, 0
10, 36096, Note_on_c, 9, 35, 120
10, 36096, Note_on_c, 9, 42, 120
10, 36096, Note_on_c, 9, 51, 127
10, 36112, Note_on_c, 9, 51, 0
10, 36112, Note_on_c, 9, 42, 0
10, 36112, Note_on_c, 9, 35, 0
10, 36192, Note_on_c, 9, 38, 110
10, 36208, Note_on_c, 9, 38, 0
10, 36288, Note_on_c, 9, 42, 110
10, 36288, Note_on_c, 9, 51, 90
10, 36304, Note_on_c, 9, 51, 0
10, 36304, Note_on_c, 9, 42, 0
10, 36384, Note_on_c, 9, 38, 110
10, 36400, Note_on_c, 9, 38, 0
10, 36480, Note_on_c, 9, 46, 120
10, 36480, Note_on_c, 9, 51, 127
10, 36480, Note_on_c, 9, 48, 100
10, 36496, Note_on_c, 9, 48, 0
10, 36496, Note_on_c, 9, 51, 0
10, 36496, Note_on_c, 9, 46, 0
10, 36496, Note_on_c, 9, 48, 100
10, 36512, Note_on_c, 9, 48, 0
10, 36576, Note_on_c, 9, 41, 100
10, 36592, Note_on_c, 9, 41, 0
10, 36672, Note_on_c, 9, 35, 100
10, 36672, Note_on_c, 9, 46, 120
10, 36672, Note_on_c, 9, 51, 90
10, 36672, Note_on_c, 9, 45, 90
10, 36688, Note_on_c, 9, 45, 0
10, 36688, Note_on_c, 9, 35, 0
10, 36688, Note_on_c, 9, 46, 0
10, 36688, Note_on_c, 9, 51, 0
10, 36688, Note_on_c, 9, 45, 90
10, 36704, Note_on_c, 9, 45, 0
10, 36864, Note_on_c, 9, 35, 120
10, 36864, Note_on_c, 9, 42, 120
10, 36864, Note_on_c, 9, 51, 127
10, 36864, Note_on_c, 9, 49, 120
10, 36880, Note_on_c, 9, 49, 0
10, 36880, Note_on_c, 9, 35, 0
10, 36880, Note_on_c, 9, 42, 0
10, 36880, Note_on_c, 9, 51, 0
10, 37056, Note_on_c, 9, 42, 110
10, 37056, Note_on_c, 9, 51, 90
10, 37072, Note_on_c, 9, 51, 0
10, 37072, Note_on_c, 9, 42, 0
10, 37248, Note_on_c, 9, 38, 120
10, 37248, Note_on_c, 9, 42, 120
10, 37248, Note_on_c, 9, 51, 127
10, 37248, Note_on_c, 9, 39, 90
10, 37264, Note_on_c, 9, 39, 0
10, 37264, Note_on_c, 9, 38, 0
10, 37264, Note_on_c, 9, 42, 0
10, 37264, Note_on_c, 9, 51, 0
10, 37440, Note_on_c, 9, 35, 100
10, 37440, Note_on_c, 9, 42, 110
10, 37440, Note_on_c, 9, 51, 90
10, 37456, Note_on_c, 9, 51, 0
10, 37456, Note_on_c, 9, 42, 0
10, 37456, Note_on_c, 9, 35, 0
10, 37632, Note_on_c, 9, 35, 120
10, 37632, Note_on_c, 9, 42, 120
10, 37632, Note_on_c, 9, 51, 127
10, 37648, Note_on_c, 9, 51, 0
10, 37648, Note_on_c, 9, 42, 0
10, 37648, Note_on_c, 9, 35, 0
10, 37824, Note_on_c, 9, 42, 110
10, 37824, Note_on_c, 9, 51, 90
10, 37840, Note_on_c, 9, 51, 0
10, 37840, Note_on_c, 9, 42, 0
10, 38016, Note_on_c, 9, 38, 120
10, 38016, Note_on_c, 9, 42, 120
10, 38016, Note_on_c, 9, 51, 127
10, 38016, Note_on_c, 9, 39, 90
10, 38032, Note_on_c, 9, 39, 0
10, 38032, Note_on_c, 9, 38, 0
10, 38032, Note_on_c, 9, 42, 0
10, 38032, Note_on_c, 9, 51, 0
10, 38208, Note_on_c, 9, 35, 100
10, 38208, Note_on_c, 9, 42, 110
10, 38208, Note_on_c, 9, 51, 90
10, 38224, Note_on_c, 9, 51, 0
10, 38224, Note_on_c, 9, 42, 0
10, 38224, Note_on_c, 9, 35, 0
10, 38400, Note_on_c, 9, 35, 120
10, 38400, Note_on_c, 9, 46, 100
10, 38400, Note_on_c, 9, 51, 127
10, 38416, Note_on_c, 9, 51, 0
10, 38416, Note_on_c, 9, 46, 0
10, 38416, Note_on_c, 9, 35, 0
10, 38592, Note_on_c, 9, 46, 90
10, 38592, Note_on_c, 9, 51, 90
10, 38608, Note_on_c, 9, 51, 0
10, 38608, Note_on_c, 9, 46, 0
10, 38784, Note_on_c, 9, 38, 120
10, 38784, Note_on_c, 9, 42, 120
10, 38784, Note_on_c, 9, 51, 127
10, 38784, Note_on_c, 9, 39, 90
10, 38800, Note_on_c, 9, 39, 0
10, 38800, Note_on_c, 9, 38, 0
10, 38800, Note_on_c, 9, 42, 0
10, 38800, Note_on_c, 9, 51, 0
10, 38976, Note_on_c, 9, 35, 100
10, 38976, Note_on_c, 9, 42, 110
10, 38976, Note_on_c, 9, 51, 90
10, 38992, Note_on_c, 9, 51, 0
10, 38992, Note_on_c, 9, 42, 0
10, 38992, Note_on_c, 9, 35, 0
10, 39168, Note_on_c, 9, 35, 120
10, 39168, Note_on_c, 9, 46, 100
10, 39168, Note_on_c, 9, 51, 127
10, 39184, Note_on_c, 9, 51, 0
10, 39184, Note_on_c, 9, 46, 0
10, 39184, Note_on_c, 9, 35, 0
10, 39360, Note_on_c, 9, 38, 110
10, 39360, Note_on_c, 9, 42, 110
10, 39360, Note_on_c, 9, 51, 90
10, 39376, Note_on_c, 9, 51, 0
10, 39376, Note_on_c, 9, 42, 0
10, 39376, Note_on_c, 9, 38, 0
10, 39376, Note_on_c, 9, 38, 110
10, 39392, Note_on_c, 9, 38, 0
10, 39552, Note_on_c, 9, 42, 120
10, 39552, Note_on_c, 9, 51, 127
10, 39552, Note_on_c, 9, 45, 100
10, 39552, Note_on_c, 9, 39, 90
10, 39568, Note_on_c, 9, 39, 0
10, 39568, Note_on_c, 9, 42, 0
10, 39568, Note_on_c, 9, 51, 0
10, 39568, Note_on_c, 9, 45, 0
10, 39744, Note_on_c, 9, 35, 100
10, 39744, Note_on_c, 9, 46, 90
10, 39744, Note_on_c, 9, 51, 90
10, 39744, Note_on_c, 9, 41, 100
10, 39760, Note_on_c, 9, 41, 0
10, 39760, Note_on_c, 9, 35, 0
10, 39760, Note_on_c, 9, 46, 0
10, 39760, Note_on_c, 9, 51, 0
10, 39936, Note_on_c, 9, 35, 120
10, 39936, Note_on_c, 9, 42, 120
10, 39936, Note_on_c, 9, 51, 127
10, 39952, Note_on_c, 9, 51, 0
10, 39952, Note_on_c, 9, 42, 0
10, 39952, Note_on_c, 9, 35, 0
10, 40128, Note_on_c, 9, 42, 110
10, 40128, Note_on_c, 9, 51, 90
10, 40144, Note_on_c, 9, 51, 0
10, 40144, Note_on_c, 9, 42, 0
10, 40320, Note_on_c, 9, 38, 120
10, 40320, Note_on_c, 9, 42, 120
10, 40320, Note_on_c, 9, 51, 127
10, 40320, Note_on_c, 9, 39, 90
10, 40336, Note_on_c, 9, 39, 0
10, 40336, Note_on_c, 9, 38, 0
10, 40336, Note_on_c, 9, 42, 0
10, 40336, Note_on_c, 9, 51, 0
10, 40512, Note_on_c, 9, 42, 110
10, 40512, Note_on_c, 9, 51, 90
10, 40528, Note_on_c, 9, 51, 0
10, 40528, Note_on_c, 9, 42, 0
10, 40608, Note_on_c, 9, 35, 110
10, 40608, Note_on_c, 9, 38, 120
10, 40608, Note_on_c, 9, 46, 120
10, 40624, Note_on_c, 9, 46, 0
10, 40624, Note_on_c, 9, 38, 0
10, 40624, Note_on_c, 9, 35, 0
10, 40704, Note_on_c, 9, 35, 120
10, 40704, Note_on_c, 9, 42, 120
10, 40704, Note_on_c, 9, 51, 127
10, 40720, Note_on_c, 9, 51, 0
10, 40720, Note_on_c, 9, 42, 0
10, 40720, Note_on_c, 9, 35, 0
10, 40896, Note_on_c, 9, 38, 90
10, 40896, Note_on_c, 9, 42, 110
10, 40896, Note_on_c, 9, 51, 90
10, 40912, Note_on_c, 9, 51, 0
10, 40912, Note_on_c, 9, 42, 0
10, 40912, Note_on_c, 9, 38, 0
10, 40992, Note_on_c, 9, 38, 120
10, 41008, Note_on_c, 9, 38, 0
10, 41088, Note_on_c, 9, 42, 120
10, 41088, Note_on_c, 9, 51, 127
10, 41104, Note_on_c, 9, 51, 0
10, 41104, Note_on_c, 9, 42, 0
10, 41184, Note_on_c, 9, 38, 90
10, 41200, Note_on_c, 9, 38, 0
10, 41280, Note_on_c, 9, 35, 100
10, 41280, Note_on_c, 9, 38, 100
10, 41280, Note_on_c, 9, 42, 110
10, 41280, Note_on_c, 9, 51, 90
10, 41296, Note_on_c, 9, 51, 0
10, 41296, Note_on_c, 9, 35, 0
10, 41296, Note_on_c, 9, 38, 0
10, 41296, Note_on_c, 9, 42, 0
10, 41472, Note_on_c, 9, 35, 120
10, 41472, Note_on_c, 9, 42, 120
10, 41472, Note_on_c, 9, 51, 127
10, 41488, Note_on_c, 9, 51, 0
10, 41488, Note_on_c, 9, 42, 0
10, 41488, Note_on_c, 9, 35, 0
10, 41664, Note_on_c, 9, 42, 110
10, 41664, Note_on_c, 9, 51, 90
10, 41680, Note_on_c, 9, 51, 0
10, 41680, Note_on_c, 9, 42, 0
10, 41856, Note_on_c, 9, 38, 120
10, 41856, Note_on_c, 9, 42, 120
10, 41856, Note_on_c, 9, 51, 127
10, 41856, Note_on_c, 9, 39, 90
10, 41872, Note_on_c, 9, 39, 0
10, 41872, Note_on_c, 9, 38, 0
10, 41872, Note_on_c, 9, 42, 0
10, 41872, Note_on_c, 9, 51, 0
10, 42048, Note_on_c, 9, 42, 110
10, 42048, Note_on_c, 9, 51, 90
10, 42064, Note_on_c, 9, 51, 0
10, 42064, Note_on_c, 9, 42, 0
10, 42144, Note_on_c, 9, 35, 110
10, 42144, Note_on_c, 9, 38, 80
10, 42160, Note_on_c, 9, 38, 0
10, 42160, Note_on_c, 9, 35, 0
10, 42192, Note_on_c, 9, 38, 80
10, 42208, Note_on_c, 9, 38, 0
10, 42240, Note_on_c, 9, 35, 120
10, 42240, Note_on_c, 9, 38, 120
10, 42240, Note_on_c, 9, 42, 120
10, 42240, Note_on_c, 9, 51, 127
10, 42256, Note_on_c, 9, 51, 0
10, 42256, Note_on_c, 9, 35, 0
10, 42256, Note_on_c, 9, 38, 0
10, 42256, Note_on_c, 9, 42, 0
10, 42432, Note_on_c, 9, 38, 80
10, 42432, Note_on_c, 9, 42, 110
10, 42432, Note_on_c, 9, 51, 90
10, 42448, Note_on_c, 9, 51, 0
10, 42448, Note_on_c, 9, 42, 0
10, 42448, Note_on_c, 9, 38, 0
10, 42480, Note_on_c, 9, 38, 90
10, 42496, Note_on_c, 9, 38, 0
10, 42528, Note_on_c, 9, 38, 120
10, 42544, Note_on_c, 9, 38, 0
10, 42624, Note_on_c, 9, 42, 120
10, 42624, Note_on_c, 9, 51, 127
10, 42624, Note_on_c, 9, 48, 100
10, 42640, Note_on_c, 9, 48, 0
10, 42640, Note_on_c, 9, 51, 0
10, 42640, Note_on_c, 9, 42, 0
10, 42720, Note_on_c, 9, 38, 110
10, 42736, Note_on_c, 9, 38, 0
10, 42816, Note_on_c, 9, 35, 100
10, 42816, Note_on_c, 9, 42, 110
10, 42816, Note_on_c, 9, 46, 120
10, 42816, Note_on_c, 9, 51, 90
10, 42816, Note_on_c, 9, 41, 100
10, 42832, Note_on_c, 9, 41, 0
10, 42832, Note_on_c, 9, 46, 0
10, 42832, Note_on_c, 9, 35, 0
10, 42832, Note_on_c, 9, 42, 0
10, 42832, Note_on_c, 9, 51, 0
10, 43008, Note_on_c, 9, 35, 120
10, 43008, Note_on_c, 9, 42, 120
10, 43008, Note_on_c, 9, 51, 127
10, 43008, Note_on_c, 9, 49, 120
10, 43024, Note_on_c, 9, 49, 0
10, 43024, Note_on_c, 9, 35, 0
10, 43024, Note_on_c, 9, 42, 0
10, 43024, Note_on_c, 9, 51, 0
10, 43200, Note_on_c, 9, 42, 110
10, 43200, Note_on_c, 9, 51, 90
10, 43216, Note_on_c, 9, 51, 0
10, 43216, Note_on_c, 9, 42, 0
10, 43392, Note_on_c, 9, 38, 120
10, 43392, Note_on_c, 9, 42, 120
10, 43392, Note_on_c, 9, 51, 127
10, 43392, Note_on_c, 9, 39, 90
10, 43408, Note_on_c, 9, 39, 0
10, 43408, Note_on_c, 9, 38, 0
10, 43408, Note_on_c, 9, 42, 0
10, 43408, Note_on_c, 9, 51, 0
10, 43584, Note_on_c, 9, 35, 100
10, 43584, Note_on_c, 9, 42, 110
10, 43584, Note_on_c, 9, 51, 90
10, 43600, Note_on_c, 9, 51, 0
10, 43600, Note_on_c, 9, 42, 0
10, 43600, Note_on_c, 9, 35, 0
10, 43776, Note_on_c, 9, 35, 120
10, 43776, Note_on_c, 9, 42, 120
10, 43776, Note_on_c, 9, 51, 127
10, 43792, Note_on_c, 9, 51, 0
10, 43792, Note_on_c, 9, 42, 0
10, 43792, Note_on_c, 9, 35, 0
10, 43968, Note_on_c, 9, 42, 110
10, 43968, Note_on_c, 9, 51, 90
10, 43984, Note_on_c, 9, 51, 0
10, 43984, Note_on_c, 9, 42, 0
10, 44160, Note_on_c, 9, 38, 120
10, 44160, Note_on_c, 9, 42, 120
10, 44160, Note_on_c, 9, 51, 127
10, 44160, Note_on_c, 9, 39, 90
10, 44176, Note_on_c, 9, 39, 0
10, 44176, Note_on_c, 9, 38, 0
10, 44176, Note_on_c, 9, 42, 0
10, 44176, Note_on_c, 9, 51, 0
10, 44352, Note_on_c, 9, 35, 100
10, 44352, Note_on_c, 9, 42, 110
10, 44352, Note_on_c, 9, 51, 90
10, 44368, Note_on_c, 9, 51, 0
10, 44368, Note_on_c, 9, 42, 0
10, 44368, Note_on_c, 9, 35, 0
10, 44544, Note_on_c, 9, 35, 120
10, 44544, Note_on_c, 9, 46, 100
10, 44544, Note_on_c, 9, 51, 127
10, 44560, Note_on_c, 9, 51, 0
10, 44560, Note_on_c, 9, 46, 0
10, 44560, Note_on_c, 9, 35, 0
10, 44736, Note_on_c, 9, 46, 90
10, 44736, Note_on_c, 9, 51, 90
10, 44752, Note_on_c, 9, 51, 0
10, 44752, Note_on_c, 9, 46, 0
10, 44928, Note_on_c, 9, 38, 120
10, 44928, Note_on_c, 9, 42, 120
10, 44928, Note_on_c, 9, 51, 127
10, 44928, Note_on_c, 9, 39, 90
10, 44944, Note_on_c, 9, 39, 0
10, 44944, Note_on_c, 9, 38, 0
10, 44944, Note_on_c, 9, 42, 0
10, 44944, Note_on_c, 9, 51, 0
10, 45120, Note_on_c, 9, 35, 100
10, 45120, Note_on_c, 9, 42, 110
10, 45120, Note_on_c, 9, 51, 90
10, 45136, Note_on_c, 9, 51, 0
10, 45136, Note_on_c, 9, 42, 0
10, 45136, Note_on_c, 9, 35, 0
10, 45312, Note_on_c, 9, 35, 120
10, 45312, Note_on_c, 9, 46, 100
10, 45312, Note_on_c, 9, 51, 127
10, 45328, Note_on_c, 9, 51, 0
10, 45328, Note_on_c, 9, 46, 0
10, 45328, Note_on_c, 9, 35, 0
10, 45504, Note_on_c, 9, 42, 110
10, 45504, Note_on_c, 9, 51, 90
10, 45520, Note_on_c, 9, 51, 0
10, 45520, Note_on_c, 9, 42, 0
10, 45696, Note_on_c, 9, 38, 120
10, 45696, Note_on_c, 9, 42, 120
10, 45696, Note_on_c, 9, 51, 127
10, 45696, Note_on_c, 9, 39, 90
10, 45712, Note_on_c, 9, 39, 0
10, 45712, Note_on_c, 9, 38, 0
10, 45712, Note_on_c, 9, 42, 0
10, 45712, Note_on_c, 9, 51, 0
10, 45888, Note_on_c, 9, 35, 100
10, 45888, Note_on_c, 9, 46, 90
10, 45888, Note_on_c, 9, 51, 90
10, 45904, Note_on_c, 9, 51, 0
10, 45904, Note_on_c, 9, 46, 0
10, 45904, Note_on_c, 9, 35, 0
10, 46080, Note_on_c, 9, 35, 120
10, 46080, Note_on_c, 9, 42, 120
10, 46080, Note_on_c, 9, 51, 127
10, 46096, Note_on_c, 9, 51, 0
10, 46096, Note_on_c, 9, 42, 0
10, 46096, Note_on_c, 9, 35, 0
10, 46272, Note_on_c, 9, 42, 110
10, 46272, Note_on_c, 9, 51, 90
10, 46288, Note_on_c, 9, 51, 0
10, 46288, Note_on_c, 9, 42, 0
10, 46464, Note_on_c, 9, 38, 120
10, 46464, Note_on_c, 9, 42, 120
10, 46464, Note_on_c, 9, 51, 127
10, 46464, Note_on_c, 9, 39, 90
10, 46480, Note_on_c, 9, 39, 0
10, 46480, Note_on_c, 9, 38, 0
10, 46480, Note_on_c, 9, 42, 0
10, 46480, Note_on_c, 9, 51, 0
10, 46656, Note_on_c, 9, 42, 110
10, 46656, Note_on_c, 9, 51, 90
10, 46672, Note_on_c, 9, 51, 0
10, 46672, Note_on_c, 9, 42, 0
10, 46752, Note_on_c, 9, 35, 110
10, 46752, Note_on_c, 9, 38, 80
10, 46768, Note_on_c, 9, 38, 0
10, 46768, Note_on_c, 9, 35, 0
10, 46848, Note_on_c, 9, 35, 120
10, 46848, Note_on_c, 9, 38, 100
10, 46848, Note_on_c, 9, 42, 120
10, 46848, Note_on_c, 9, 51, 127
10, 46864, Note_on_c, 9, 51, 0
10, 46864, Note_on_c, 9, 35, 0
10, 46864, Note_on_c, 9, 38, 0
10, 46864, Note_on_c, 9, 42, 0
10, 47040, Note_on_c, 9, 38, 110
10, 47040, Note_on_c, 9, 42, 110
10, 47040, Note_on_c, 9, 51, 90
10, 47056, Note_on_c, 9, 51, 0
10, 47056, Note_on_c, 9, 42, 0
10, 47056, Note_on_c, 9, 38, 0
10, 47136, Note_on_c, 9, 38, 120
10, 47152, Note_on_c, 9, 38, 0
10, 47232, Note_on_c, 9, 42, 120
10, 47232, Note_on_c, 9, 51, 127
10, 47248, Note_on_c, 9, 51, 0
10, 47248, Note_on_c, 9, 42, 0
10, 47328, Note_on_c, 9, 38, 90
10, 47344, Note_on_c, 9, 38, 0
10, 47424, Note_on_c, 9, 35, 100
10, 47424, Note_on_c, 9, 38, 120
10, 47424, Note_on_c, 9, 42, 110
10, 47424, Note_on_c, 9, 51, 90
10, 47440, Note_on_c, 9, 51, 0
10, 47440, Note_on_c, 9, 35, 0
10, 47440, Note_on_c, 9, 38, 0
10, 47440, Note_on_c, 9, 42, 0
10, 47616, Note_on_c, 9, 35, 120
10, 47616, Note_on_c, 9, 42, 120
10, 47616, Note_on_c, 9, 51, 127
10, 47632, Note_on_c, 9, 51, 0
10, 47632, Note_on_c, 9, 42, 0
10, 47632, Note_on_c, 9, 35, 0
10, 47808, Note_on_c, 9, 42, 110
10, 47808, Note_on_c, 9, 51, 90
10, 47824, Note_on_c, 9, 51, 0
10, 47824, Note_on_c, 9, 42, 0
10, 48000, Note_on_c, 9, 38, 120
10, 48000, Note_on_c, 9, 42, 120
10, 48000, Note_on_c, 9, 51, 127
10, 48000, Note_on_c, 9, 39, 90
10, 48016, Note_on_c, 9, 39, 0
10, 48016, Note_on_c, 9, 38, 0
10, 48016, Note_on_c, 9, 42, 0
10, 48016, Note_on_c, 9, 51, 0
10, 48192, Note_on_c, 9, 42, 110
10, 48192, Note_on_c, 9, 51, 90
10, 48208, Note_on_c, 9, 51, 0
10, 48208, Note_on_c, 9, 42, 0
10, 48288, Note_on_c, 9, 35, 110
10, 48288, Note_on_c, 9, 38, 80
10, 48304, Note_on_c, 9, 38, 0
10, 48304, Note_on_c, 9, 35, 0
10, 48336, Note_on_c, 9, 38, 90
10, 48352, Note_on_c, 9, 38, 0
10, 48384, Note_on_c, 9, 35, 120
10, 48384, Note_on_c, 9, 38, 120
10, 48384, Note_on_c, 9, 42, 120
10, 48384, Note_on_c, 9, 51, 127
10, 48400, Note_on_c, 9, 51, 0
10, 48400, Note_on_c, 9, 35, 0
10, 48400, Note_on_c, 9, 38, 0
10, 48400, Note_on_c, 9, 42, 0
10, 48432, Note_on_c, 9, 38, 80
10, 48448, Note_on_c, 9, 38, 0
10, 48480, Note_on_c, 9, 38, 90
10, 48496, Note_on_c, 9, 38, 0
10, 48528, Note_on_c, 9, 38, 100
10, 48544, Note_on_c, 9, 38, 0
10, 48576, Note_on_c, 9, 38, 120
10, 48576, Note_on_c, 9, 42, 110
10, 48576, Note_on_c, 9, 51, 90
10, 48592, Note_on_c, 9, 51, 0
10, 48592, Note_on_c, 9, 42, 0
10, 48592, Note_on_c, 9, 38, 0
10, 48624, Note_on_c, 9, 38, 80
10, 48640, Note_on_c, 9, 38, 0
10, 48672, Note_on_c, 9, 38, 90
10, 48688, Note_on_c, 9, 38, 0
10, 48720, Note_on_c, 9, 38, 110
10, 48736, Note_on_c, 9, 38, 0
10, 48768, Note_on_c, 9, 46, 120
10, 48768, Note_on_c, 9, 51, 127
10, 48768, Note_on_c, 9, 48, 110
10, 48784, Note_on_c, 9, 48, 0
10, 48784, Note_on_c, 9, 51, 0
10, 48784, Note_on_c, 9, 46, 0
10, 48816, Note_on_c, 9, 48, 90
10, 48832, Note_on_c, 9, 48, 0
10, 48864, Note_on_c, 9, 48, 100
10, 48880, Note_on_c, 9, 48, 0
10, 48912, Note_on_c, 9, 48, 110
10, 48928, Note_on_c, 9, 48, 0
10, 48960, Note_on_c, 9, 35, 100
10, 48960, Note_on_c, 9, 46, 120
10, 48960, Note_on_c, 9, 51, 90
10, 48960, Note_on_c, 9, 45, 100
10, 48976, Note_on_c, 9, 45, 0
10, 48976, Note_on_c, 9, 35, 0
10, 48976, Note_on_c, 9, 46, 0
10, 48976, Note_on_c, 9, 51, 0
10, 49008, Note_on_c, 9, 45, 80
10, 49024, Note_on_c, 9, 45, 0
10, 49056, Note_on_c, 9, 45, 90
10, 49072, Note_on_c, 9, 45, 0
10, 49104, Note_on_c, 9, 41, 100
10, 49120, Note_on_c, 9, 41, 0
10, 49152, Note_on_c, 9, 35, 120
10, 49152, Note_on_c, 9, 42, 120
10, 49152, Note_on_c, 9, 51, 127
10, 49152, Note_on_c, 9, 49, 120
10, 49168, Note_on_c, 9, 49, 0
10, 49168, Note_on_c, 9, 35, 0
10, 49168, Note_on_c, 9, 42, 0
10, 49168, Note_on_c, 9, 51, 0
10, 49344, Note_on_c, 9, 42, 110
10, 49344, Note_on_c, 9, 51, 90
10, 49360, Note_on_c, 9, 51, 0
10, 49360, Note_on_c, 9, 42, 0
10, 49536, Note_on_c, 9, 38, 120
10, 49536, Note_on_c, 9, 42, 120
10, 49536, Note_on_c, 9, 51, 127
10, 49536, Note_on_c, 9, 39, 90
10, 49552, Note_on_c, 9, 39, 0
10, 49552, Note_on_c, 9, 38, 0
10, 49552, Note_on_c, 9, 42, 0
10, 49552, Note_on_c, 9, 51, 0
10, 49728, Note_on_c, 9, 35, 100
10, 49728, Note_on_c, 9, 42, 110
10, 49728, Note_on_c, 9, 51, 90
10, 49744, Note_on_c, 9, 51, 0
10, 49744, Note_on_c, 9, 42, 0
10, 49744, Note_on_c, 9, 35, 0
10, 49920, Note_on_c, 9, 35, 120
10, 49920, Note_on_c, 9, 42, 120
10, 49920, Note_on_c, 9, 51, 127
10, 49936, Note_on_c, 9, 51, 0
10, 49936, Note_on_c, 9, 42, 0
10, 49936, Note_on_c, 9, 35, 0
10, 50112, Note_on_c, 9, 42, 110
10, 50112, Note_on_c, 9, 51, 90
10, 50128, Note_on_c, 9, 51, 0
10, 50128, Note_on_c, 9, 42, 0
10, 50304, Note_on_c, 9, 38, 120
10, 50304, Note_on_c, 9, 42, 120
10, 50304, Note_on_c, 9, 51, 127
10, 50304, Note_on_c, 9, 39, 90
10, 50320, Note_on_c, 9, 39, 0
10, 50320, Note_on_c, 9, 38, 0
10, 50320, Note_on_c, 9, 42, 0
10, 50320, Note_on_c, 9, 51, 0
10, 50496, Note_on_c, 9, 35, 100
10, 50496, Note_on_c, 9, 42, 110
10, 50496, Note_on_c, 9, 51, 90
10, 50512, Note_on_c, 9, 51, 0
10, 50512, Note_on_c, 9, 42, 0
10, 50512, Note_on_c, 9, 35, 0
10, 50688, Note_on_c, 9, 35, 120
10, 50688, Note_on_c, 9, 46, 100
10, 50688, Note_on_c, 9, 51, 127
10, 50704, Note_on_c, 9, 51, 0
10, 50704, Note_on_c, 9, 46, 0
10, 50704, Note_on_c, 9, 35, 0
10, 50880, Note_on_c, 9, 46, 90
10, 50880, Note_on_c, 9, 51, 90
10, 50896, Note_on_c, 9, 51, 0
10, 50896, Note_on_c, 9, 46, 0
10, 51072, Note_on_c, 9, 38, 120
10, 51072, Note_on_c, 9, 42, 120
10, 51072, Note_on_c, 9, 51, 127
10, 51072, Note_on_c, 9, 39, 90
10, 51088, Note_on_c, 9, 39, 0
10, 51088, Note_on_c, 9, 38, 0
10, 51088, Note_on_c, 9, 42, 0
10, 51088, Note_on_c, 9, 51, 0
10, 51264, Note_on_c, 9, 35, 100
10, 51264, Note_on_c, 9, 42, 110
10, 51264, Note_on_c, 9, 51, 90
10, 51280, Note_on_c, 9, 51, 0
10, 51280, Note_on_c, 9, 42, 0
10, 51280, Note_on_c, 9, 35, 0
10, 51456, Note_on_c, 9, 35, 120
10, 51456, Note_on_c, 9, 46, 100
10, 51456, Note_on_c, 9, 51, 127
10, 51472, Note_on_c, 9, 51, 0
10, 51472, Note_on_c, 9, 46, 0
10, 51472, Note_on_c, 9, 35, 0
10, 51648, Note_on_c, 9, 42, 110
10, 51648, Note_on_c, 9, 51, 90
10, 51664, Note_on_c, 9, 51, 0
10, 51664, Note_on_c, 9, 42, 0
10, 51840, Note_on_c, 9, 38, 120
10, 51840, Note_on_c, 9, 42, 120
10, 51840, Note_on_c, 9, 51, 127
10, 51840, Note_on_c, 9, 39, 90
10, 51856, Note_on_c, 9, 39, 0
10, 51856, Note_on_c, 9, 38, 0
10, 51856, Note_on_c, 9, 42, 0
10, 51856, Note_on_c, 9, 51, 0
10, 52032, Note_on_c, 9, 35, 100
10, 52032, Note_on_c, 9, 46, 90
10, 52032, Note_on_c, 9, 51, 90
10, 52048, Note_on_c, 9, 51, 0
10, 52048, Note_on_c, 9, 46, 0
10, 52048, Note_on_c, 9, 35, 0
10, 52224, Note_on_c, 9, 35, 120
10, 52224, Note_on_c, 9, 42, 120
10, 52224, Note_on_c, 9, 51, 127
10, 52240, Note_on_c, 9, 51, 0
10, 52240, Note_on_c, 9, 42, 0
10, 52240, Note_on_c, 9, 35, 0
10, 52416, Note_on_c, 9, 42, 110
10, 52416, Note_on_c, 9, 51, 90
10, 52432, Note_on_c, 9, 51, 0
10, 52432, Note_on_c, 9, 42, 0
10, 52608, Note_on_c, 9, 38, 120
10, 52608, Note_on_c, 9, 42, 120
10, 52608, Note_on_c, 9, 51, 127
10, 52608, Note_on_c, 9, 39, 90
10, 52624, Note_on_c, 9, 39, 0
10, 52624, Note_on_c, 9, 38, 0
10, 52624, Note_on_c, 9, 42, 0
10, 52624, Note_on_c, 9, 51, 0
10, 52800, Note_on_c, 9, 42, 110
10, 52800, Note_on_c, 9, 51, 90
10, 52816, Note_on_c, 9, 51, 0
10, 52816, Note_on_c, 9, 42, 0
10, 52896, Note_on_c, 9, 35, 110
10, 52896, Note_on_c, 9, 38, 80
10, 52912, Note_on_c, 9, 38, 0
10, 52912, Note_on_c, 9, 35, 0
10, 52992, Note_on_c, 9, 35, 120
10, 52992, Note_on_c, 9, 38, 100
10, 52992, Note_on_c, 9, 42, 120
10, 52992, Note_on_c, 9, 51, 127
10, 53008, Note_on_c, 9, 51, 0
10, 53008, Note_on_c, 9, 35, 0
10, 53008, Note_on_c, 9, 38, 0
10, 53008, Note_on_c, 9, 42, 0
10, 53184, Note_on_c, 9, 38, 110
10, 53184, Note_on_c, 9, 42, 110
10, 53184, Note_on_c, 9, 51, 90
10, 53200, Note_on_c, 9, 51, 0
10, 53200, Note_on_c, 9, 42, 0
10, 53200, Note_on_c, 9, 38, 0
10, 53280, Note_on_c, 9, 38, 120
10, 53296, Note_on_c, 9, 38, 0
10, 53376, Note_on_c, 9, 42, 120
10, 53376, Note_on_c, 9, 51, 127
10, 53392, Note_on_c, 9, 51, 0
10, 53392, Note_on_c, 9, 42, 0
10, 53472, Note_on_c, 9, 38, 90
10, 53488, Note_on_c, 9, 38, 0
10, 53568, Note_on_c, 9, 35, 100
10, 53568, Note_on_c, 9, 38, 120
10, 53568, Note_on_c, 9, 42, 110
10, 53568, Note_on_c, 9, 51, 90
10, 53584, Note_on_c, 9, 51, 0
10, 53584, Note_on_c, 9, 35, 0
10, 53584, Note_on_c, 9, 38, 0
10, 53584, Note_on_c, 9, 42, 0
10, 53760, Note_on_c, 9, 35, 120
10, 53760, Note_on_c, 9, 38, 110
10, 53760, Note_on_c, 9, 42, 120
10, 53760, Note_on_c, 9, 51, 127
10, 53776, Note_on_c, 9, 51, 0
10, 53776, Note_on_c, 9, 35, 0
10, 53776, Note_on_c, 9, 38, 0
10, 53776, Note_on_c, 9, 42, 0
10, 53856, Note_on_c, 9, 38, 80
10, 53872, Note_on_c, 9, 38, 0
10, 53904, Note_on_c, 9, 38, 80
10, 53920, Note_on_c, 9, 38, 0
10, 53952, Note_on_c, 9, 38, 127
10, 53952, Note_on_c, 9, 42, 110
10, 53952, Note_on_c, 9, 51, 90
10, 53968, Note_on_c, 9, 51, 0
10, 53968, Note_on_c, 9, 42, 0
10, 53968, Note_on_c, 9, 38, 0
10, 54048, Note_on_c, 9, 38, 120
10, 54064, Note_on_c, 9, 38, 0
10, 54144, Note_on_c, 9, 38, 80
10, 54144, Note_on_c, 9, 42, 120
10, 54144, Note_on_c, 9, 51, 127
10, 54144, Note_on_c, 9, 39, 90
10, 54160, Note_on_c, 9, 39, 0
10, 54160, Note_on_c, 9, 38, 0
10, 54160, Note_on_c, 9, 42, 0
10, 54160, Note_on_c, 9, 51, 0
10, 54192, Note_on_c, 9, 38, 90
10, 54208, Note_on_c, 9, 38, 0
10, 54240, Note_on_c, 9, 38, 100
10, 54256, Note_on_c, 9, 38, 0
10, 54336, Note_on_c, 9, 38, 127
10, 54336, Note_on_c, 9, 42, 110
10, 54336, Note_on_c, 9, 51, 90
10, 54352, Note_on_c, 9, 51, 0
10, 54352, Note_on_c, 9, 42, 0
10, 54352, Note_on_c, 9, 38, 0
10, 54432, Note_on_c, 9, 35, 110
10, 54432, Note_on_c, 9, 38, 80
10, 54448, Note_on_c, 9, 38, 0
10, 54448, Note_on_c, 9, 35, 0
10, 54480, Note_on_c, 9, 38, 80
10, 54496, Note_on_c, 9, 38, 0
10, 54528, Note_on_c, 9, 35, 120
10, 54528, Note_on_c, 9, 38, 100
10, 54528, Note_on_c, 9, 42, 120
10, 54528, Note_on_c, 9, 51, 127
10, 54544, Note_on_c, 9, 51, 0
10, 54544, Note_on_c, 9, 35, 0
10, 54544, Note_on_c, 9, 38, 0
10, 54544, Note_on_c, 9, 42, 0
10, 54624, Note_on_c, 9, 38, 127
10, 54640, Note_on_c, 9, 38, 0
10, 54720, Note_on_c, 9, 38, 80
10, 54720, Note_on_c, 9, 42, 110
10, 54720, Note_on_c, 9, 51, 90
10, 54736, Note_on_c, 9, 51, 0
10, 54736, Note_on_c, 9, 42, 0
10, 54736, Note_on_c, 9, 38, 0
10, 54768, Note_on_c, 9, 38, 80
10, 54784, Note_on_c, 9, 38, 0
10, 54816, Note_on_c, 9, 38, 120
10, 54832, Note_on_c, 9, 38, 0
10, 54912, Note_on_c, 9, 38, 127
10, 54912, Note_on_c, 9, 42, 120
10, 54912, Note_on_c, 9, 51, 127
10, 54928, Note_on_c, 9, 51, 0
10, 54928, Note_on_c, 9, 42, 0
10, 54928, Note_on_c, 9, 38, 0
10, 54960, Note_on_c, 9, 38, 80
10, 54976, Note_on_c, 9, 38, 0
10, 55008, Note_on_c, 9, 38, 110
10, 55024, Note_on_c, 9, 38, 0
10, 55056, Note_on_c, 9, 38, 80
10, 55072, Note_on_c, 9, 38, 0
10, 55104, Note_on_c, 9, 35, 100
10, 55104, Note_on_c, 9, 38, 80
10, 55104, Note_on_c, 9, 42, 110
10, 55104, Note_on_c, 9, 46, 120
10, 55104, Note_on_c, 9, 51, 90
10, 55120, Note_on_c, 9, 51, 0
10, 55120, Note_on_c, 9, 42, 0
10, 55120, Note_on_c, 9, 35, 0
10, 55120, Note_on_c, 9, 38, 0
10, 55120, Note_on_c, 9, 46, 0
10, 55152, Note_on_c, 9, 38, 80
10, 55168, Note_on_c, 9, 38, 0
10, 55200, Note_on_c, 9, 38, 110
10, 55216, Note_on_c, 9, 38, 0
10, 55248, Note_on_c, 9, 38, 90
10, 55264, Note_on_c, 9, 38, 0
10, 55296, Note_on_c, 9, 35, 120
10, 55296, Note_on_c, 9, 42, 120
10, 55296, Note_on_c, 9, 51, 127
10, 55296, Note_on_c, 9, 49, 120
10, 55312, Note_on_c, 9, 49, 0
10, 55312, Note_on_c, 9, 35, 0
10, 55312, Note_on_c, 9, 42, 0
10, 55312, Note_on_c, 9, 51, 0
10, 55488, Note_on_c, 9, 42, 110
10, 55488, Note_on_c, 9, 51, 90
10, 55504, Note_on_c, 9, 51, 0
10, 55504, Note_on_c, 9, 42, 0
10, 55680, Note_on_c, 9, 38, 120
10, 55680, Note_on_c, 9, 42, 120
10, 55680, Note_on_c, 9, 51, 127
10, 55680, Note_on_c, 9, 39, 90
10, 55696, Note_on_c, 9, 39, 0
10, 55696, Note_on_c, 9, 38, 0
10, 55696, Note_on_c, 9, 42, 0
10, 55696, Note_on_c, 9, 51, 0
10, 55872, Note_on_c, 9, 35, 100
10, 55872, Note_on_c, 9, 42, 110
10, 55872, Note_on_c, 9, 51, 90
10, 55888, Note_on_c, 9, 51, 0
10, 55888, Note_on_c, 9, 42, 0
10, 55888, Note_on_c, 9, 35, 0
10, 56064, Note_on_c, 9, 35, 120
10, 56064, Note_on_c, 9, 42, 120
10, 56064, Note_on_c, 9, 51, 127
10, 56080, Note_on_c, 9, 51, 0
10, 56080, Note_on_c, 9, 42, 0
10, 56080, Note_on_c, 9, 35, 0
10, 56256, Note_on_c, 9, 42, 110
10, 56256, Note_on_c, 9, 51, 90
10, 56272, Note_on_c, 9, 51, 0
10, 56272, Note_on_c, 9, 42, 0
10, 56448, Note_on_c, 9, 38, 120
10, 56448, Note_on_c, 9, 42, 120
10, 56448, Note_on_c, 9, 51, 127
10, 56448, Note_on_c, 9, 39, 90
10, 56464, Note_on_c, 9, 39, 0
10, 56464, Note_on_c, 9, 38, 0
10, 56464, Note_on_c, 9, 42, 0
10, 56464, Note_on_c, 9, 51, 0
10, 56640, Note_on_c, 9, 35, 100
10, 56640, Note_on_c, 9, 42, 110
10, 56640, Note_on_c, 9, 51, 90
10, 56656, Note_on_c, 9, 51, 0
10, 56656, Note_on_c, 9, 42, 0
10, 56656, Note_on_c, 9, 35, 0
10, 56736, Note_on_c, 9, 38, 80
10, 56752, Note_on_c, 9, 38, 0
10, 56784, Note_on_c, 9, 38, 90
10, 56800, Note_on_c, 9, 38, 0
10, 56832, Note_on_c, 9, 35, 120
10, 56832, Note_on_c, 9, 38, 120
10, 56832, Note_on_c, 9, 46, 100
10, 56832, Note_on_c, 9, 51, 127
10, 56848, Note_on_c, 9, 51, 0
10, 56848, Note_on_c, 9, 35, 0
10, 56848, Note_on_c, 9, 38, 0
10, 56848, Note_on_c, 9, 46, 0
10, 57024, Note_on_c, 9, 46, 90
10, 57024, Note_on_c, 9, 51, 90
10, 57040, Note_on_c, 9, 51, 0
10, 57040, Note_on_c, 9, 46, 0
10, 57216, Note_on_c, 9, 38, 120
10, 57216, Note_on_c, 9, 42, 120
10, 57216, Note_on_c, 9, 51, 127
10, 57216, Note_on_c, 9, 39, 90
10, 57232, Note_on_c, 9, 39, 0
10, 57232, Note_on_c, 9, 38, 0
10, 57232, Note_on_c, 9, 42, 0
10, 57232, Note_on_c, 9, 51, 0
10, 57408, Note_on_c, 9, 35, 100
10, 57408, Note_on_c, 9, 42, 110
10, 57408, Note_on_c, 9, 51, 90
10, 57424, Note_on_c, 9, 51, 0
10, 57424, Note_on_c, 9, 42, 0
10, 57424, Note_on_c, 9, 35, 0
10, 57600, Note_on_c, 9, 35, 120
10, 57600, Note_on_c, 9, 38, 120
10, 57600, Note_on_c, 9, 46, 100
10, 57600, Note_on_c, 9, 51, 127
10, 57616, Note_on_c, 9, 51, 0
10, 57616, Note_on_c, 9, 35, 0
10, 57616, Note_on_c, 9, 38, 0
10, 57616, Note_on_c, 9, 46, 0
10, 57792, Note_on_c, 9, 42, 110
10, 57792, Note_on_c, 9, 51, 90
10, 57808, Note_on_c, 9, 51, 0
10, 57808, Note_on_c, 9, 42, 0
10, 57888, Note_on_c, 9, 38, 100
10, 57904, Note_on_c, 9, 38, 0
10, 57984, Note_on_c, 9, 42, 120
10, 57984, Note_on_c, 9, 51, 127
10, 57984, Note_on_c, 9, 45, 100
10, 57984, Note_on_c, 9, 39, 90
10, 58000, Note_on_c, 9, 39, 0
10, 58000, Note_on_c, 9, 42, 0
10, 58000, Note_on_c, 9, 51, 0
10, 58000, Note_on_c, 9, 45, 0
10, 58000, Note_on_c, 9, 45, 100
10, 58016, Note_on_c, 9, 45, 0
10, 58176, Note_on_c, 9, 35, 100
10, 58176, Note_on_c, 9, 46, 90
10, 58176, Note_on_c, 9, 51, 90
10, 58176, Note_on_c, 9, 41, 100
10, 58192, Note_on_c, 9, 41, 0
10, 58192, Note_on_c, 9, 35, 0
10, 58192, Note_on_c, 9, 46, 0
10, 58192, Note_on_c, 9, 51, 0
10, 58192, Note_on_c, 9, 41, 100
10, 58208, Note_on_c, 9, 41, 0
10, 58368, Note_on_c, 9, 35, 120
10, 58368, Note_on_c, 9, 42, 120
10, 58368, Note_on_c, 9, 51, 127
10, 58384, Note_on_c, 9, 51, 0
10, 58384, Note_on_c, 9, 42, 0
10, 58384, Note_on_c, 9, 35, 0
10, 58560, Note_on_c, 9, 42, 110
10, 58560, Note_on_c, 9, 51, 90
10, 58576, Note_on_c, 9, 51, 0
10, 58576, Note_on_c, 9, 42, 0
10, 58752, Note_on_c, 9, 38, 120
10, 58752, Note_on_c, 9, 42, 120
10, 58752, Note_on_c, 9, 51, 127
10, 58752, Note_on_c, 9, 39, 90
10, 58768, Note_on_c, 9, 39, 0
10, 58768, Note_on_c, 9, 38, 0
10, 58768, Note_on_c, 9, 42, 0
10, 58768, Note_on_c, 9, 51, 0
10, 58944, Note_on_c, 9, 42, 110
10, 58944, Note_on_c, 9, 51, 90
10, 58960, Note_on_c, 9, 51, 0
10, 58960, Note_on_c, 9, 42, 0
10, 59040, Note_on_c, 9, 35, 110
10, 59040, Note_on_c, 9, 38, 80
10, 59056, Note_on_c, 9, 38, 0
10, 59056, Note_on_c, 9, 35, 0
10, 59136, Note_on_c, 9, 35, 120
10, 59136, Note_on_c, 9, 38, 100
10, 59136, Note_on_c, 9, 42, 120
10, 59136, Note_on_c, 9, 51, 127
10, 59152, Note_on_c, 9, 51, 0
10, 59152, Note_on_c, 9, 35, 0
10, 59152, Note_on_c, 9, 38, 0
10, 59152, Note_on_c, 9, 42, 0
10, 59328, Note_on_c, 9, 38, 110
10, 59328, Note_on_c, 9, 42, 110
10, 59328, Note_on_c, 9, 51, 90
10, 59344, Note_on_c, 9, 51, 0
10, 59344, Note_on_c, 9, 42, 0
10, 59344, Note_on_c, 9, 38, 0
10, 59424, Note_on_c, 9, 38, 120
10, 59440, Note_on_c, 9, 38, 0
10, 59520, Note_on_c, 9, 42, 120
10, 59520, Note_on_c, 9, 51, 127
10, 59536, Note_on_c, 9, 51, 0
10, 59536, Note_on_c, 9, 42, 0
10, 59616, Note_on_c, 9, 38, 90
10, 59632, Note_on_c, 9, 38, 0
10, 59712, Note_on_c, 9, 35, 100
10, 59712, Note_on_c, 9, 38, 120
10, 59712, Note_on_c, 9, 42, 110
10, 59712, Note_on_c, 9, 51, 90
10, 59728, Note_on_c, 9, 51, 0
10, 59728, Note_on_c, 9, 35, 0
10, 59728, Note_on_c, 9, 38, 0
10, 59728, Note_on_c, 9, 42, 0
10, 59904, Note_on_c, 9, 35, 120
10, 59904, Note_on_c, 9, 42, 120
10, 59904, Note_on_c, 9, 51, 127
10, 59920, Note_on_c, 9, 51, 0
10, 59920, Note_on_c, 9, 42, 0
10, 59920, Note_on_c, 9, 35, 0
10, 60096, Note_on_c, 9, 42, 110
10, 60096, Note_on_c, 9, 51, 90
10, 60112, Note_on_c, 9, 51, 0
10, 60112, Note_on_c, 9, 42, 0
10, 60288, Note_on_c, 9, 38, 120
10, 60288, Note_on_c, 9, 42, 120
10, 60288, Note_on_c, 9, 51, 127
10, 60288, Note_on_c, 9, 39, 90
10, 60304, Note_on_c, 9, 39, 0
10, 60304, Note_on_c, 9, 38, 0
10, 60304, Note_on_c, 9, 42, 0
10, 60304, Note_on_c, 9, 51, 0
10, 60480, Note_on_c, 9, 42, 110
10, 60480, Note_on_c, 9, 51, 90
10, 60496, Note_on_c, 9, 51, 0
10, 60496, Note_on_c, 9, 42, 0
10, 60576, Note_on_c, 9, 35, 110
10, 60576, Note_on_c, 9, 38, 80
10, 60592, Note_on_c, 9, 38, 0
10, 60592, Note_on_c, 9, 35, 0
10, 60624, Note_on_c, 9, 38, 90
10, 60640, Note_on_c, 9, 38, 0
10, 60672, Note_on_c, 9, 35, 120
10, 60672, Note_on_c, 9, 38, 120
10, 60672, Note_on_c, 9, 42, 120
10, 60672, Note_on_c, 9, 51, 127
10, 60688, Note_on_c, 9, 51, 0
10, 60688, Note_on_c, 9, 35, 0
10, 60688, Note_on_c, 9, 38, 0
10, 60688, Note_on_c, 9, 42, 0
10, 60720, Note_on_c, 9, 38, 80
10, 60736, Note_on_c, 9, 38, 0
10, 60768, Note_on_c, 9, 38, 90
10, 60784, Note_on_c, 9, 38, 0
10, 60816, Note_on_c, 9, 38, 100
10, 60832, Note_on_c, 9, 38, 0
10, 60864, Note_on_c, 9, 38, 120
10, 60864, Note_on_c, 9, 42, 110
10, 60864, Note_on_c, 9, 51, 90
10, 60880, Note_on_c, 9, 51, 0
10, 60880, Note_on_c, 9, 42, 0
10, 60880, Note_on_c, 9, 38, 0
10, 60912, Note_on_c, 9, 38, 80
10, 60928, Note_on_c, 9, 38, 0
10, 60960, Note_on_c, 9, 38, 90
10, 60976, Note_on_c, 9, 38, 0
10, 61008, Note_on_c, 9, 38, 110
10, 61024, Note_on_c, 9, 38, 0
10, 61056, Note_on_c, 9, 46, 120
10, 61056, Note_on_c, 9, 51, 127
10, 61056, Note_on_c, 9, 48, 110
10, 61072, Note_on_c, 9, 48, 0
10, 61072, Note_on_c, 9, 51, 0
10, 61072, Note_on_c, 9, 46, 0
10, 61104, Note_on_c, 9, 48, 90
10, 61120, Note_on_c, 9, 48, 0
10, 61152, Note_on_c, 9, 48, 100
10, 61168, Note_on_c, 9, 48, 0
10, 61200, Note_on_c, 9, 48, 110
10, 61216, Note_on_c, 9, 48, 0
10, 61248, Note_on_c, 9, 35, 100
10, 61248, Note_on_c, 9, 46, 120
10, 61248, Note_on_c, 9, 51, 90
10, 61248, Note_on_c, 9, 45, 100
10, 61264, Note_on_c, 9, 45, 0
10, 61264, Note_on_c, 9, 35, 0
10, 61264, Note_on_c, 9, 46, 0
10, 61264, Note_on_c, 9, 51, 0
10, 61296, Note_on_c, 9, 45, 80
10, 61312, Note_on_c, 9, 45, 0
10, 61344, Note_on_c, 9, 45, 90
10, 61360, Note_on_c, 9, 45, 0
10, 61392, Note_on_c, 9, 41, 100
10, 61408, Note_on_c, 9, 41, 0
10, 61440, Note_on_c, 9, 35, 120
10, 61440, Note_on_c, 9, 46, 100
10, 61440, Note_on_c, 9, 51, 127
10, 61456, Note_on_c, 9, 51, 0
10, 61456, Note_on_c, 9, 46, 0
10, 61456, Note_on_c, 9, 35, 0
10, 61632, Note_on_c, 9, 46, 90
10, 61632, Note_on_c, 9, 51, 90
10, 61648, Note_on_c, 9, 51, 0
10, 61648, Note_on_c, 9, 46, 0
10, 61824, Note_on_c, 9, 38, 120
10, 61824, Note_on_c, 9, 42, 120
10, 61824, Note_on_c, 9, 51, 127
10, 61824, Note_on_c, 9, 39, 90
10, 61840, Note_on_c, 9, 39, 0
10, 61840, Note_on_c, 9, 38, 0
10, 61840, Note_on_c, 9, 42, 0
10, 61840, Note_on_c, 9, 51, 0
10, 62016, Note_on_c, 9, 35, 100
10, 62016, Note_on_c, 9, 42, 110
10, 62016, Note_on_c, 9, 51, 90
10, 62032, Note_on_c, 9, 51, 0
10, 62032, Note_on_c, 9, 42, 0
10, 62032, Note_on_c, 9, 35, 0
10, 62208, Note_on_c, 9, 35, 120
10, 62208, Note_on_c, 9, 46, 100
10, 62208, Note_on_c, 9, 51, 127
10, 62224, Note_on_c, 9, 51, 0
10, 62224, Note_on_c, 9, 46, 0
10, 62224, Note_on_c, 9, 35, 0
10, 62400, Note_on_c, 9, 38, 110
10, 62400, Note_on_c, 9, 42, 110
10, 62400, Note_on_c, 9, 51, 90
10, 62416, Note_on_c, 9, 51, 0
10, 62416, Note_on_c, 9, 42, 0
10, 62416, Note_on_c, 9, 38, 0
10, 62416, Note_on_c, 9, 38, 110
10, 62432, Note_on_c, 9, 38, 0
10, 62592, Note_on_c, 9, 42, 120
10, 62592, Note_on_c, 9, 51, 127
10, 62592, Note_on_c, 9, 45, 100
10, 62592, Note_on_c, 9, 39, 90
10, 62608, Note_on_c, 9, 39, 0
10, 62608, Note_on_c, 9, 42, 0
10, 62608, Note_on_c, 9, 51, 0
10, 62608, Note_on_c, 9, 45, 0
10, 62784, Note_on_c, 9, 35, 100
10, 62784, Note_on_c, 9, 46, 90
10, 62784, Note_on_c, 9, 51, 90
10, 62784, Note_on_c, 9, 41, 100
10, 62800, Note_on_c, 9, 41, 0
10, 62800, Note_on_c, 9, 35, 0
10, 62800, Note_on_c, 9, 46, 0
10, 62800, Note_on_c, 9, 51, 0
10, 62976, Note_on_c, 9, 35, 120
10, 62976, Note_on_c, 9, 42, 120
10, 62976, Note_on_c, 9, 51, 127
10, 62976, Note_on_c, 9, 49, 120
10, 62992, Note_on_c, 9, 49, 0
10, 62992, Note_on_c, 9, 35, 0
10, 62992, Note_on_c, 9, 42, 0
10, 62992, Note_on_c, 9, 51, 0
10, 63168, Note_on_c, 9, 42, 110
10, 63168, Note_on_c, 9, 51, 90
10, 63184, Note_on_c, 9, 51, 0
10, 63184, Note_on_c, 9, 42, 0
10, 63360, Note_on_c, 9, 38, 120
10, 63360, Note_on_c, 9, 42, 120
10, 63360, Note_on_c, 9, 51, 127
10, 63360, Note_on_c, 9, 39, 90
10, 63376, Note_on_c, 9, 39, 0
10, 63376, Note_on_c, 9, 38, 0
10, 63376, Note_on_c, 9, 42, 0
10, 63376, Note_on_c, 9, 51, 0
10, 63552, Note_on_c, 9, 35, 100
10, 63552, Note_on_c, 9, 42, 110
10, 63552, Note_on_c, 9, 51, 90
10, 63568, Note_on_c, 9, 51, 0
10, 63568, Note_on_c, 9, 42, 0
10, 63568, Note_on_c, 9, 35, 0
10, 63744, Note_on_c, 9, 35, 120
10, 63744, Note_on_c, 9, 42, 120
10, 63744, Note_on_c, 9, 51, 127
10, 63760, Note_on_c, 9, 51, 0
10, 63760, Note_on_c, 9, 42, 0
10, 63760, Note_on_c, 9, 35, 0
10, 63936, Note_on_c, 9, 42, 110
10, 63936, Note_on_c, 9, 51, 90
10, 63952, Note_on_c, 9, 51, 0
10, 63952, Note_on_c, 9, 42, 0
10, 64128, Note_on_c, 9, 38, 120
10, 64128, Note_on_c, 9, 42, 120
10, 64128, Note_on_c, 9, 51, 127
10, 64128, Note_on_c, 9, 39, 90
10, 64144, Note_on_c, 9, 39, 0
10, 64144, Note_on_c, 9, 38, 0
10, 64144, Note_on_c, 9, 42, 0
10, 64144, Note_on_c, 9, 51, 0
10, 64320, Note_on_c, 9, 35, 100
10, 64320, Note_on_c, 9, 42, 110
10, 64320, Note_on_c, 9, 51, 90
10, 64336, Note_on_c, 9, 51, 0
10, 64336, Note_on_c, 9, 42, 0
10, 64336, Note_on_c, 9, 35, 0
10, 64416, Note_on_c, 9, 38, 80
10, 64432, Note_on_c, 9, 38, 0
10, 64464, Note_on_c, 9, 38, 90
10, 64480, Note_on_c, 9, 38, 0
10, 64512, Note_on_c, 9, 35, 120
10, 64512, Note_on_c, 9, 42, 120
10, 64512, Note_on_c, 9, 51, 127
10, 64528, Note_on_c, 9, 51, 0
10, 64528, Note_on_c, 9, 42, 0
10, 64528, Note_on_c, 9, 35, 0
10, 64704, Note_on_c, 9, 42, 110
10, 64704, Note_on_c, 9, 51, 90
10, 64720, Note_on_c, 9, 51, 0
10, 64720, Note_on_c, 9, 42, 0
10, 64896, Note_on_c, 9, 38, 120
10, 64896, Note_on_c, 9, 42, 120
10, 64896, Note_on_c, 9, 51, 127
10, 64896, Note_on_c, 9, 39, 90
10, 64912, Note_on_c, 9, 39, 0
10, 64912, Note_on_c, 9, 38, 0
10, 64912, Note_on_c, 9, 42, 0
10, 64912, Note_on_c, 9, 51, 0
10, 65088, Note_on_c, 9, 42, 110
10, 65088, Note_on_c, 9, 51, 90
10, 65104, Note_on_c, 9, 51, 0
10, 65104, Note_on_c, 9, 42, 0
10, 65184, Note_on_c, 9, 35, 110
10, 65184, Note_on_c, 9, 38, 120
10, 65184, Note_on_c, 9, 46, 120
10, 65200, Note_on_c, 9, 46, 0
10, 65200, Note_on_c, 9, 38, 0
10, 65200, Note_on_c, 9, 35, 0
10, 65280, Note_on_c, 9, 35, 120
10, 65280, Note_on_c, 9, 42, 120
10, 65280, Note_on_c, 9, 51, 127
10, 65296, Note_on_c, 9, 51, 0
10, 65296, Note_on_c, 9, 42, 0
10, 65296, Note_on_c, 9, 35, 0
10, 65472, Note_on_c, 9, 38, 90
10, 65472, Note_on_c, 9, 42, 110
10, 65472, Note_on_c, 9, 51, 90
10, 65488, Note_on_c, 9, 51, 0
10, 65488, Note_on_c, 9, 42, 0
10, 65488, Note_on_c, 9, 38, 0
10, 65568, Note_on_c, 9, 38, 120
10, 65584, Note_on_c, 9, 38, 0
10, 65664, Note_on_c, 9, 42, 120
10, 65664, Note_on_c, 9, 51, 127
10, 65680, Note_on_c, 9, 51, 0
10, 65680, Note_on_c, 9, 42, 0
10, 65760, Note_on_c, 9, 38, 90
10, 65776, Note_on_c, 9, 38, 0
10, 65856, Note_on_c, 9, 35, 100
10, 65856, Note_on_c, 9, 38, 100
10, 65856, Note_on_c, 9, 42, 110
10, 65856, Note_on_c, 9, 51, 90
10, 65872, Note_on_c, 9, 51, 0
10, 65872, Note_on_c, 9, 35, 0
10, 65872, Note_on_c, 9, 38, 0
10, 65872, Note_on_c, 9, 42, 0
10, 66048, Note_on_c, 9, 35, 120
10, 66048, Note_on_c, 9, 42, 120
10, 66048, Note_on_c, 9, 51, 127
10, 66064, Note_on_c, 9, 51, 0
10, 66064, Note_on_c, 9, 42, 0
10, 66064, Note_on_c, 9, 35, 0
10, 66240, Note_on_c, 9, 42, 110
10, 66240, Note_on_c, 9, 51, 90
10, 66256, Note_on_c, 9, 51, 0
10, 66256, Note_on_c, 9, 42, 0
10, 66432, Note_on_c, 9, 38, 120
10, 66432, Note_on_c, 9, 42, 120
10, 66432, Note_on_c, 9, 51, 127
10, 66432, Note_on_c, 9, 39, 90
10, 66448, Note_on_c, 9, 39, 0
10, 66448, Note_on_c, 9, 38, 0
10, 66448, Note_on_c, 9, 42, 0
10, 66448, Note_on_c, 9, 51, 0
10, 66624, Note_on_c, 9, 42, 110
10, 66624, Note_on_c, 9, 51, 90
10, 66640, Note_on_c, 9, 51, 0
10, 66640, Note_on_c, 9, 42, 0
10, 66720, Note_on_c, 9, 35, 110
10, 66720, Note_on_c, 9, 38, 100
10, 66736, Note_on_c, 9, 38, 0
10, 66736, Note_on_c, 9, 35, 0
10, 66816, Note_on_c, 9, 35, 120
10, 66816, Note_on_c, 9, 38, 110
10, 66816, Note_on_c, 9, 42, 120
10, 66816, Note_on_c, 9, 51, 127
10, 66832, Note_on_c, 9, 51, 0
10, 66832, Note_on_c, 9, 35, 0
10, 66832, Note_on_c, 9, 38, 0
10, 66832, Note_on_c, 9, 42, 0
10, 66864, Note_on_c, 9, 38, 90
10, 66880, Note_on_c, 9, 38, 0
10, 66912, Note_on_c, 9, 38, 110
10, 66928, Note_on_c, 9, 38, 0
10, 67008, Note_on_c, 9, 38, 110
10, 67008, Note_on_c, 9, 42, 110
10, 67008, Note_on_c, 9, 51, 90
10, 67024, Note_on_c, 9, 51, 0
10, 67024, Note_on_c, 9, 42, 0
10, 67024, Note_on_c, 9, 38, 0
10, 67152, Note_on_c, 9, 38, 100
10, 67168, Note_on_c, 9, 38, 0
10, 67200, Note_on_c, 9, 42, 120
10, 67200, Note_on_c, 9, 51, 127
10, 67200, Note_on_c, 9, 48, 100
10, 67216, Note_on_c, 9, 48, 0
10, 67216, Note_on_c, 9, 51, 0
10, 67216, Note_on_c, 9, 42, 0
10, 67344, Note_on_c, 9, 38, 100
10, 67360, Note_on_c, 9, 38, 0
10, 67392, Note_on_c, 9, 35, 100
10, 67392, Note_on_c, 9, 42, 110
10, 67392, Note_on_c, 9, 46, 120
10, 67392, Note_on_c, 9, 51, 90
10, 67392, Note_on_c, 9, 45, 100
10, 67408, Note_on_c, 9, 45, 0
10, 67408, Note_on_c, 9, 46, 0
10, 67408, Note_on_c, 9, 35, 0
10, 67408, Note_on_c, 9, 42, 0
10, 67408, Note_on_c, 9, 51, 0
10, 67536, Note_on_c, 9, 41, 100
10, 67552, Note_on_c, 9, 41, 0
10, 67584, Note_on_c, 9, 35, 120
10, 67584, Note_on_c, 9, 42, 120
10, 67584, Note_on_c, 9, 49, 120
10, 67600, Note_on_c, 9, 49, 0
10, 67600, Note_on_c, 9, 42, 0
10, 67600, Note_on_c, 9, 35, 0
10, 67776, Note_on_c, 9, 42, 110
10, 67776, Note_on_c, 9, 51, 120
10, 67792, Note_on_c, 9, 51, 0
10, 67792, Note_on_c, 9, 42, 0
10, 67968, Note_on_c, 9, 38, 120
10, 67968, Note_on_c, 9, 42, 120
10, 67968, Note_on_c, 9, 51, 127
10, 67968, Note_on_c, 9, 39, 90
10, 67984, Note_on_c, 9, 39, 0
10, 67984, Note_on_c, 9, 38, 0
10, 67984, Note_on_c, 9, 42, 0
10, 67984, Note_on_c, 9, 51, 0
10, 68160, Note_on_c, 9, 35, 100
10, 68160, Note_on_c, 9, 42, 110
10, 68160, Note_on_c, 9, 51, 120
10, 68176, Note_on_c, 9, 51, 0
10, 68176, Note_on_c, 9, 42, 0
10, 68176, Note_on_c, 9, 35, 0
10, 68256, Note_on_c, 9, 38, 80
10, 68272, Note_on_c, 9, 38, 0
10, 68304, Note_on_c, 9, 38, 80
10, 68320, Note_on_c, 9, 38, 0
10, 68352, Note_on_c, 9, 35, 120
10, 68352, Note_on_c, 9, 38, 100
10, 68352, Note_on_c, 9, 42, 120
10, 68352, Note_on_c, 9, 49, 120
10, 68368, Note_on_c, 9, 49, 0
10, 68368, Note_on_c, 9, 35, 0
10, 68368, Note_on_c, 9, 38, 0
10, 68368, Note_on_c, 9, 42, 0
10, 68448, Note_on_c, 9, 38, 100
10, 68464, Note_on_c, 9, 38, 0
10, 68544, Note_on_c, 9, 42, 110
10, 68544, Note_on_c, 9, 49, 100
10, 68560, Note_on_c, 9, 49, 0
10, 68560, Note_on_c, 9, 42, 0
10, 68640, Note_on_c, 9, 38, 100
10, 68656, Note_on_c, 9, 38, 0
10, 68736, Note_on_c, 9, 38, 120
10, 68736, Note_on_c, 9, 42, 120
10, 68736, Note_on_c, 9, 51, 120
10, 68736, Note_on_c, 9, 39, 90
10, 68752, Note_on_c, 9, 39, 0
10, 68752, Note_on_c, 9, 38, 0
10, 68752, Note_on_c, 9, 42, 0
10, 68752, Note_on_c, 9, 51, 0
10, 68880, Note_on_c, 9, 38, 100
10, 68896, Note_on_c, 9, 38, 0
10, 68928, Note_on_c, 9, 35, 100
10, 68928, Note_on_c, 9, 42, 110
10, 68928, Note_on_c, 9, 51, 127
10, 68928, Note_on_c, 9, 45, 100
10, 68944, Note_on_c, 9, 45, 0
10, 68944, Note_on_c, 9, 35, 0
10, 68944, Note_on_c, 9, 42, 0
10, 68944, Note_on_c, 9, 51, 0
10, 69024, Note_on_c, 9, 41, 100
10, 69040, Note_on_c, 9, 41, 0
10, 69120, Note_on_c, 9, 35, 120
10, 69120, Note_on_c, 9, 42, 120
10, 69120, Note_on_c, 9, 49, 120
10, 69136, Note_on_c, 9, 49, 0
10, 69136, Note_on_c, 9, 42, 0
10, 69136, Note_on_c, 9, 35, 0
10, 69312, Note_on_c, 9, 42, 110
10, 69312, Note_on_c, 9, 51, 120
10, 69328, Note_on_c, 9, 51, 0
10, 69328, Note_on_c, 9, 42, 0
10, 69504, Note_on_c, 9, 38, 120
10, 69504, Note_on_c, 9, 42, 120
10, 69504, Note_on_c, 9, 51, 127
10, 69504, Note_on_c, 9, 39, 90
10, 69520, Note_on_c, 9, 39, 0
10, 69520, Note_on_c, 9, 38, 0
10, 69520, Note_on_c, 9, 42, 0
10, 69520, Note_on_c, 9, 51, 0
10, 69696, Note_on_c, 9, 35, 100
10, 69696, Note_on_c, 9, 42, 110
10, 69696, Note_on_c, 9, 51, 127
10, 69712, Note_on_c, 9, 51, 0
10, 69712, Note_on_c, 9, 42, 0
10, 69712, Note_on_c, 9, 35, 0
10, 69888, Note_on_c, 9, 35, 120
10, 69888, Note_on_c, 9, 42, 120
10, 69888, Note_on_c, 9, 51, 127
10, 69904, Note_on_c, 9, 51, 0
10, 69904, Note_on_c, 9, 42, 0
10, 69904, Note_on_c, 9, 35, 0
10, 70080, Note_on_c, 9, 38, 90
10, 70080, Note_on_c, 9, 42, 110
10, 70080, Note_on_c, 9, 51, 120
10, 70080, Note_on_c, 9, 41, 80
10, 70096, Note_on_c, 9, 41, 0
10, 70096, Note_on_c, 9, 38, 0
10, 70096, Note_on_c, 9, 42, 0
10, 70096, Note_on_c, 9, 51, 0
10, 70176, Note_on_c, 9, 35, 110
10, 70176, Note_on_c, 9, 46, 100
10, 70192, Note_on_c, 9, 46, 0
10, 70192, Note_on_c, 9, 35, 0
10, 70272, Note_on_c, 9, 38, 100
10, 70272, Note_on_c, 9, 42, 120
10, 70272, Note_on_c, 9, 51, 127
10, 70272, Note_on_c, 9, 41, 90
10, 70272, Note_on_c, 9, 39, 90
10, 70288, Note_on_c, 9, 39, 0
10, 70288, Note_on_c, 9, 51, 0
10, 70288, Note_on_c, 9, 38, 0
10, 70288, Note_on_c, 9, 42, 0
10, 70288, Note_on_c, 9, 41, 0
10, 70368, Note_on_c, 9, 35, 120
10, 70368, Note_on_c, 9, 46, 100
10, 70384, Note_on_c, 9, 46, 0
10, 70384, Note_on_c, 9, 35, 0
10, 70464, Note_on_c, 9, 38, 120
10, 70464, Note_on_c, 9, 42, 110
10, 70464, Note_on_c, 9, 51, 127
10, 70464, Note_on_c, 9, 41, 100
10, 70480, Note_on_c, 9, 41, 0
10, 70480, Note_on_c, 9, 38, 0
10, 70480, Note_on_c, 9, 42, 0
10, 70480, Note_on_c, 9, 51, 0
10, 70560, Note_on_c, 9, 35, 120
10, 70560, Note_on_c, 9, 46, 100
10, 70576, Note_on_c, 9, 46, 0
10, 70576, Note_on_c, 9, 35, 0
10, 70656, Note_on_c, 9, 35, 120
10, 70656, Note_on_c, 9, 42, 120
10, 70656, Note_on_c, 9, 49, 120
10, 70672, Note_on_c, 9, 49, 0
10, 70672, Note_on_c, 9, 42, 0
10, 70672, Note_on_c, 9, 35, 0
10, 70848, Note_on_c, 9, 42, 110
10, 70848, Note_on_c, 9, 57, 110
10, 70864, Note_on_c, 9, 57, 0
10, 70864, Note_on_c, 9, 42, 0
10, 71040, Note_on_c, 9, 38, 120
10, 71040, Note_on_c, 9, 42, 120
10, 71040, Note_on_c, 9, 49, 100
10, 71040, Note_on_c, 9, 39, 90
10, 71056, Note_on_c, 9, 39, 0
10, 71056, Note_on_c, 9, 38, 0
10, 71056, Note_on_c, 9, 42, 0
10, 71056, Note_on_c, 9, 49, 0
10, 71232, Note_on_c, 9, 42, 110
10, 71232, Note_on_c, 9, 57, 100
10, 71248, Note_on_c, 9, 57, 0
10, 71248, Note_on_c, 9, 42, 0
10, 71280, Note_on_c, 9, 38, 80
10, 71296, Note_on_c, 9, 38, 0
10, 71328, Note_on_c, 9, 35, 110
10, 71328, Note_on_c, 9, 38, 90
10, 71344, Note_on_c, 9, 38, 0
10, 71344, Note_on_c, 9, 35, 0
10, 71376, Note_on_c, 9, 38, 80
10, 71392, Note_on_c, 9, 38, 0
10, 71424, Note_on_c, 9, 35, 120
10, 71424, Note_on_c, 9, 38, 100
10, 71424, Note_on_c, 9, 42, 120
10, 71424, Note_on_c, 9, 49, 110
10, 71440, Note_on_c, 9, 49, 0
10, 71440, Note_on_c, 9, 35, 0
10, 71440, Note_on_c, 9, 38, 0
10, 71440, Note_on_c, 9, 42, 0
10, 71616, Note_on_c, 9, 38, 80
10, 71616, Note_on_c, 9, 42, 110
10, 71616, Note_on_c, 9, 57, 110
10, 71616, Note_on_c, 9, 41, 80
10, 71632, Note_on_c, 9, 41, 0
10, 71632, Note_on_c, 9, 38, 0
10, 71632, Note_on_c, 9, 42, 0
10, 71632, Note_on_c, 9, 57, 0
10, 71664, Note_on_c, 9, 38, 90
10, 71680, Note_on_c, 9, 38, 0
10, 71712, Note_on_c, 9, 38, 120
10, 71728, Note_on_c, 9, 38, 0
10, 71808, Note_on_c, 9, 38, 100
10, 71808, Note_on_c, 9, 42, 120
10, 71808, Note_on_c, 9, 49, 120
10, 71808, Note_on_c, 9, 41, 90
10, 71824, Note_on_c, 9, 41, 0
10, 71824, Note_on_c, 9, 38, 0
10, 71824, Note_on_c, 9, 42, 0
10, 71824, Note_on_c, 9, 49, 0
10, 71904, Note_on_c, 9, 38, 110
10, 71920, Note_on_c, 9, 38, 0
10, 72000, Note_on_c, 9, 35, 100
10, 72000, Note_on_c, 9, 38, 120
10, 72000, Note_on_c, 9, 42, 110
10, 72000, Note_on_c, 9, 57, 90
10, 72000, Note_on_c, 9, 41, 120
10, 72016, Note_on_c, 9, 41, 0
10, 72016, Note_on_c, 9, 42, 0
10, 72016, Note_on_c, 9, 35, 0
10, 72016, Note_on_c, 9, 38, 0
10, 72016, Note_on_c, 9, 57, 0
10, 72096, Note_on_c, 9, 38, 127
10, 72112, Note_on_c, 9, 38, 0
10, 72192, Note_on_c, 9, 35, 120
10, 72192, Note_on_c, 9, 38, 110
10, 72192, Note_on_c, 9, 42, 120
10, 72192, Note_on_c, 9, 51, 127
10, 72208, Note_on_c, 9, 51, 0
10, 72208, Note_on_c, 9, 35, 0
10, 72208, Note_on_c, 9, 38, 0
10, 72208, Note_on_c, 9, 42, 0
10, 72288, Note_on_c, 9, 38, 80
10, 72304, Note_on_c, 9, 38, 0
10, 72336, Note_on_c, 9, 38, 80
10, 72352, Note_on_c, 9, 38, 0
10, 72384, Note_on_c, 9, 38, 127
10, 72384, Note_on_c, 9, 42, 110
10, 72384, Note_on_c, 9, 51, 90
10, 72400, Note_on_c, 9, 51, 0
10, 72400, Note_on_c, 9, 42, 0
10, 72400, Note_on_c, 9, 38, 0
10, 72480, Note_on_c, 9, 38, 120
10, 72496, Note_on_c, 9, 38, 0
10, 72576, Note_on_c, 9, 38, 80
10, 72576, Note_on_c, 9, 42, 120
10, 72576, Note_on_c, 9, 51, 127
10, 72576, Note_on_c, 9, 39, 90
10, 72592, Note_on_c, 9, 39, 0
10, 72592, Note_on_c, 9, 38, 0
10, 72592, Note_on_c, 9, 42, 0
10, 72592, Note_on_c, 9, 51, 0
10, 72624, Note_on_c, 9, 38, 90
10, 72640, Note_on_c, 9, 38, 0
10, 72672, Note_on_c, 9, 38, 100
10, 72688, Note_on_c, 9, 38, 0
10, 72768, Note_on_c, 9, 38, 127
10, 72768, Note_on_c, 9, 42, 110
10, 72768, Note_on_c, 9, 51, 90
10, 72784, Note_on_c, 9, 51, 0
10, 72784, Note_on_c, 9, 42, 0
10, 72784, Note_on_c, 9, 38, 0
10, 72864, Note_on_c, 9, 35, 110
10, 72864, Note_on_c, 9, 38, 80
10, 72880, Note_on_c, 9, 38, 0
10, 72880, Note_on_c, 9, 35, 0
10, 72912, Note_on_c, 9, 38, 80
10, 72928, Note_on_c, 9, 38, 0
10, 72960, Note_on_c, 9, 35, 120
10, 72960, Note_on_c, 9, 38, 100
10, 72960, Note_on_c, 9, 42, 120
10, 72960, Note_on_c, 9, 51, 127
10, 72976, Note_on_c, 9, 51, 0
10, 72976, Note_on_c, 9, 35, 0
10, 72976, Note_on_c, 9, 38, 0
10, 72976, Note_on_c, 9, 42, 0
10, 73056, Note_on_c, 9, 38, 127
10, 73072, Note_on_c, 9, 38, 0
10, 73152, Note_on_c, 9, 38, 80
10, 73152, Note_on_c, 9, 42, 110
10, 73152, Note_on_c, 9, 51, 90
10, 73168, Note_on_c, 9, 51, 0
10, 73168, Note_on_c, 9, 42, 0
10, 73168, Note_on_c, 9, 38, 0
10, 73200, Note_on_c, 9, 38, 80
10, 73216, Note_on_c, 9, 38, 0
10, 73248, Note_on_c, 9, 38, 120
10, 73264, Note_on_c, 9, 38, 0
10, 73344, Note_on_c, 9, 38, 127
10, 73344, Note_on_c, 9, 42, 120
10, 73344, Note_on_c, 9, 51, 127
10, 73360, Note_on_c, 9, 51, 0
10, 73360, Note_on_c, 9, 42, 0
10, 73360, Note_on_c, 9, 38, 0
10, 73392, Note_on_c, 9, 38, 80
10, 73408, Note_on_c, 9, 38, 0
10, 73440, Note_on_c, 9, 38, 110
10, 73456, Note_on_c, 9, 38, 0
10, 73488, Note_on_c, 9, 38, 80
10, 73504, Note_on_c, 9, 38, 0
10, 73536, Note_on_c, 9, 35, 100
10, 73536, Note_on_c, 9, 38, 80
10, 73536, Note_on_c, 9, 42, 110
10, 73536, Note_on_c, 9, 46, 120
10, 73536, Note_on_c, 9, 51, 90
10, 73552, Note_on_c, 9, 51, 0
10, 73552, Note_on_c, 9, 42, 0
10, 73552, Note_on_c, 9, 35, 0
10, 73552, Note_on_c, 9, 38, 0
10, 73552, Note_on_c, 9, 46, 0
10, 73584, Note_on_c, 9, 38, 80
10, 73600, Note_on_c, 9, 38, 0
10, 73632, Note_on_c, 9, 38, 110
10, 73648, Note_on_c, 9, 38, 0
10, 73680, Note_on_c, 9, 38, 90
10, 73696, Note_on_c, 9, 38, 0
10, 73728, Note_on_c, 9, 35, 120
10, 73728, Note_on_c, 9, 42, 120
10, 73728, Note_on_c, 9, 51, 127
10, 73728, Note_on_c, 9, 49, 120
10, 73744, Note_on_c, 9, 49, 0
10, 73744, Note_on_c, 9, 35, 0
10, 73744, Note_on_c, 9, 42, 0
10, 73744, Note_on_c, 9, 51, 0
10, 73920, Note_on_c, 9, 42, 110
10, 73920, Note_on_c, 9, 51, 90
10, 73936, Note_on_c, 9, 51, 0
10, 73936, Note_on_c, 9, 42, 0
10, 74112, Note_on_c, 9, 38, 120
10, 74112, Note_on_c, 9, 42, 120
10, 74112, Note_on_c, 9, 51, 127
10, 74112, Note_on_c, 9, 39, 90
10, 74128, Note_on_c, 9, 39, 0
10, 74128, Note_on_c, 9, 38, 0
10, 74128, Note_on_c, 9, 42, 0
10, 74128, Note_on_c, 9, 51, 0
10, 74304, Note_on_c, 9, 35, 100
10, 74304, Note_on_c, 9, 42, 110
10, 74304, Note_on_c, 9, 51, 90
10, 74320, Note_on_c, 9, 51, 0
10, 74320, Note_on_c, 9, 42, 0
10, 74320, Note_on_c, 9, 35, 0
10, 74496, Note_on_c, 9, 35, 120
10, 74496, Note_on_c, 9, 42, 120
10, 74496, Note_on_c, 9, 51, 127
10, 74512, Note_on_c, 9, 51, 0
10, 74512, Note_on_c, 9, 42, 0
10, 74512, Note_on_c, 9, 35, 0
10, 74688, Note_on_c, 9, 42, 110
10, 74688, Note_on_c, 9, 51, 90
10, 74704, Note_on_c, 9, 51, 0
10, 74704, Note_on_c, 9, 42, 0
10, 74880, Note_on_c, 9, 38, 120
10, 74880, Note_on_c, 9, 42, 120
10, 74880, Note_on_c, 9, 51, 127
10, 74880, Note_on_c, 9, 39, 90
10, 74896, Note_on_c, 9, 39, 0
10, 74896, Note_on_c, 9, 38, 0
10, 74896, Note_on_c, 9, 42, 0
10, 74896, Note_on_c, 9, 51, 0
10, 75072, Note_on_c, 9, 35, 100
10, 75072, Note_on_c, 9, 42, 110
10, 75072, Note_on_c, 9, 51, 90
10, 75088, Note_on_c, 9, 51, 0
10, 75088, Note_on_c, 9, 42, 0
10, 75088, Note_on_c, 9, 35, 0
10, 75264, Note_on_c, 9, 35, 120
10, 75264, Note_on_c, 9, 46, 100
10, 75264, Note_on_c, 9, 51, 127
10, 75280, Note_on_c, 9, 51, 0
10, 75280, Note_on_c, 9, 46, 0
10, 75280, Note_on_c, 9, 35, 0
10, 75456, Note_on_c, 9, 46, 90
10, 75456, Note_on_c, 9, 51, 90
10, 75472, Note_on_c, 9, 51, 0
10, 75472, Note_on_c, 9, 46, 0
10, 75648, Note_on_c, 9, 38, 120
10, 75648, Note_on_c, 9, 42, 120
10, 75648, Note_on_c, 9, 51, 127
10, 75648, Note_on_c, 9, 39, 90
10, 75664, Note_on_c, 9, 39, 0
10, 75664, Note_on_c, 9, 38, 0
10, 75664, Note_on_c, 9, 42, 0
10, 75664, Note_on_c, 9, 51, 0
10, 75840, Note_on_c, 9, 35, 100
10, 75840, Note_on_c, 9, 42, 110
10, 75840, Note_on_c, 9, 51, 90
10, 75856, Note_on_c, 9, 51, 0
10, 75856, Note_on_c, 9, 42, 0
10, 75856, Note_on_c, 9, 35, 0
10, 76032, Note_on_c, 9, 35, 120
10, 76032, Note_on_c, 9, 46, 100
10, 76032, Note_on_c, 9, 51, 127
10, 76048, Note_on_c, 9, 51, 0
10, 76048, Note_on_c, 9, 46, 0
10, 76048, Note_on_c, 9, 35, 0
10, 76224, Note_on_c, 9, 38, 110
10, 76224, Note_on_c, 9, 42, 110
10, 76224, Note_on_c, 9, 51, 90
10, 76240, Note_on_c, 9, 51, 0
10, 76240, Note_on_c, 9, 42, 0
10, 76240, Note_on_c, 9, 38, 0
10, 76240, Note_on_c, 9, 38, 110
10, 76256, Note_on_c, 9, 38, 0
10, 76416, Note_on_c, 9, 42, 120
10, 76416, Note_on_c, 9, 51, 127
10, 76416, Note_on_c, 9, 45, 100
10, 76416, Note_on_c, 9, 39, 90
10, 76432, Note_on_c, 9, 39, 0
10, 76432, Note_on_c, 9, 42, 0
10, 76432, Note_on_c, 9, 51, 0
10, 76432, Note_on_c, 9, 45, 0
10, 76608, Note_on_c, 9, 35, 100
10, 76608, Note_on_c, 9, 46, 90
10, 76608, Note_on_c, 9, 51, 90
10, 76608, Note_on_c, 9, 41, 100
10, 76624, Note_on_c, 9, 41, 0
10, 76624, Note_on_c, 9, 35, 0
10, 76624, Note_on_c, 9, 46, 0
10, 76624, Note_on_c, 9, 51, 0
10, 76800, Note_on_c, 9, 35, 120
10, 76800, Note_on_c, 9, 42, 120
10, 76800, Note_on_c, 9, 51, 127
10, 76816, Note_on_c, 9, 51, 0
10, 76816, Note_on_c, 9, 42, 0
10, 76816, Note_on_c, 9, 35, 0
10, 76992, Note_on_c, 9, 42, 110
10, 76992, Note_on_c, 9, 51, 90
10, 77008, Note_on_c, 9, 51, 0
10, 77008, Note_on_c, 9, 42, 0
10, 77184, Note_on_c, 9, 38, 120
10, 77184, Note_on_c, 9, 42, 120
10, 77184, Note_on_c, 9, 51, 127
10, 77184, Note_on_c, 9, 39, 90
10, 77200, Note_on_c, 9, 39, 0
10, 77200, Note_on_c, 9, 38, 0
10, 77200, Note_on_c, 9, 42, 0
10, 77200, Note_on_c, 9, 51, 0
10, 77376, Note_on_c, 9, 42, 110
10, 77376, Note_on_c, 9, 51, 90
10, 77392, Note_on_c, 9, 51, 0
10, 77392, Note_on_c, 9, 42, 0
10, 77472, Note_on_c, 9, 35, 110
10, 77472, Note_on_c, 9, 38, 120
10, 77472, Note_on_c, 9, 46, 120
10, 77488, Note_on_c, 9, 46, 0
10, 77488, Note_on_c, 9, 38, 0
10, 77488, Note_on_c, 9, 35, 0
10, 77568, Note_on_c, 9, 35, 120
10, 77568, Note_on_c, 9, 42, 120
10, 77568, Note_on_c, 9, 51, 127
10, 77584, Note_on_c, 9, 51, 0
10, 77584, Note_on_c, 9, 42, 0
10, 77584, Note_on_c, 9, 35, 0
10, 77760, Note_on_c, 9, 38, 90
10, 77760, Note_on_c, 9, 42, 110
10, 77760, Note_on_c, 9, 51, 90
10, 77776, Note_on_c, 9, 51, 0
10, 77776, Note_on_c, 9, 42, 0
10, 77776, Note_on_c, 9, 38, 0
10, 77856, Note_on_c, 9, 38, 120
10, 77872, Note_on_c, 9, 38, 0
10, 77952, Note_on_c, 9, 42, 120
10, 77952, Note_on_c, 9, 51, 127
10, 77968, Note_on_c, 9, 51, 0
10, 77968, Note_on_c, 9, 42, 0
10, 78048, Note_on_c, 9, 38, 90
10, 78064, Note_on_c, 9, 38, 0
10, 78144, Note_on_c, 9, 35, 100
10, 78144, Note_on_c, 9, 38, 100
10, 78144, Note_on_c, 9, 42, 110
10, 78144, Note_on_c, 9, 51, 90
10, 78160, Note_on_c, 9, 51, 0
10, 78160, Note_on_c, 9, 35, 0
10, 78160, Note_on_c, 9, 38, 0
10, 78160, Note_on_c, 9, 42, 0
10, 78336, Note_on_c, 9, 35, 120
10, 78336, Note_on_c, 9, 42, 120
10, 78336, Note_on_c, 9, 51, 127
10, 78352, Note_on_c, 9, 51, 0
10, 78352, Note_on_c, 9, 42, 0
10, 78352, Note_on_c, 9, 35, 0
10, 78528, Note_on_c, 9, 42, 110
10, 78528, Note_on_c, 9, 51, 90
10, 78544, Note_on_c, 9, 51, 0
10, 78544, Note_on_c, 9, 42, 0
10, 78720, Note_on_c, 9, 38, 120
10, 78720, Note_on_c, 9, 42, 120
10, 78720, Note_on_c, 9, 51, 127
10, 78720, Note_on_c, 9, 39, 90
10, 78736, Note_on_c, 9, 39, 0
10, 78736, Note_on_c, 9, 38, 0
10, 78736, Note_on_c, 9, 42, 0
10, 78736, Note_on_c, 9, 51, 0
10, 78912, Note_on_c, 9, 42, 110
10, 78912, Note_on_c, 9, 51, 90
10, 78928, Note_on_c, 9, 51, 0
10, 78928, Note_on_c, 9, 42, 0
10, 79008, Note_on_c, 9, 35, 110
10, 79008, Note_on_c, 9, 38, 80
10, 79024, Note_on_c, 9, 38, 0
10, 79024, Note_on_c, 9, 35, 0
10, 79056, Note_on_c, 9, 38, 90
10, 79072, Note_on_c, 9, 38, 0
10, 79104, Note_on_c, 9, 35, 120
10, 79104, Note_on_c, 9, 38, 120
10, 79104, Note_on_c, 9, 42, 120
10, 79104, Note_on_c, 9, 51, 127
10, 79120, Note_on_c, 9, 51, 0
10, 79120, Note_on_c, 9, 35, 0
10, 79120, Note_on_c, 9, 38, 0
10, 79120, Note_on_c, 9, 42, 0
10, 79152, Note_on_c, 9, 38, 80
10, 79168, Note_on_c, 9, 38, 0
10, 79200, Note_on_c, 9, 38, 90
10, 79216, Note_on_c, 9, 38, 0
10, 79248, Note_on_c, 9, 38, 100
10, 79264, Note_on_c, 9, 38, 0
10, 79296, Note_on_c, 9, 38, 120
10, 79296, Note_on_c, 9, 42, 110
10, 79296, Note_on_c, 9, 51, 90
10, 79312, Note_on_c, 9, 51, 0
10, 79312, Note_on_c, 9, 42, 0
10, 79312, Note_on_c, 9, 38, 0
10, 79344, Note_on_c, 9, 38, 80
10, 79360, Note_on_c, 9, 38, 0
10, 79392, Note_on_c, 9, 38, 90
10, 79408, Note_on_c, 9, 38, 0
10, 79440, Note_on_c, 9, 38, 110
10, 79456, Note_on_c, 9, 38, 0
10, 79488, Note_on_c, 9, 46, 120
10, 79488, Note_on_c, 9, 51, 127
10, 79488, Note_on_c, 9, 48, 110
10, 79504, Note_on_c, 9, 48, 0
10, 79504, Note_on_c, 9, 51, 0
10, 79504, Note_on_c, 9, 46, 0
10, 79536, Note_on_c, 9, 48, 90
10, 79552, Note_on_c, 9, 48, 0
10, 79584, Note_on_c, 9, 48, 100
10, 79600, Note_on_c, 9, 48, 0
10, 79632, Note_on_c, 9, 48, 110
10, 79648, Note_on_c, 9, 48, 0
10, 79680, Note_on_c, 9, 35, 100
10, 79680, Note_on_c, 9, 46, 120
10, 79680, Note_on_c, 9, 51, 90
10, 79680, Note_on_c, 9, 45, 100
10, 79696, Note_on_c, 9, 45, 0
10, 79696, Note_on_c, 9, 35, 0
10, 79696, Note_on_c, 9, 46, 0
10, 79696, Note_on_c, 9, 51, 0
10, 79728, Note_on_c, 9, 45, 80
10, 79744, Note_on_c, 9, 45, 0
10, 79776, Note_on_c, 9, 45, 90
10, 79792, Note_on_c, 9, 45, 0
10, 79824, Note_on_c, 9, 41, 100
10, 79840, Note_on_c, 9, 41, 0
10, 79872, Note_on_c, 9, 35, 120
10, 79872, Note_on_c, 9, 42, 120
10, 79872, Note_on_c, 9, 51, 127
10, 79872, Note_on_c, 9, 49, 120
10, 79888, Note_on_c, 9, 49, 0
10, 79888, Note_on_c, 9, 35, 0
10, 79888, Note_on_c, 9, 42, 0
10, 79888, Note_on_c, 9, 51, 0
10, 80064, Note_on_c, 9, 42, 110
10, 80064, Note_on_c, 9, 51, 90
10, 80080, Note_on_c, 9, 51, 0
10, 80080, Note_on_c, 9, 42, 0
10, 80256, Note_on_c, 9, 38, 120
10, 80256, Note_on_c, 9, 42, 120
10, 80256, Note_on_c, 9, 51, 127
10, 80256, Note_on_c, 9, 39, 90
10, 80272, Note_on_c, 9, 39, 0
10, 80272, Note_on_c, 9, 38, 0
10, 80272, Note_on_c, 9, 42, 0
10, 80272, Note_on_c, 9, 51, 0
10, 80448, Note_on_c, 9, 35, 100
10, 80448, Note_on_c, 9, 42, 110
10, 80448, Note_on_c, 9, 51, 90
10, 80464, Note_on_c, 9, 51, 0
10, 80464, Note_on_c, 9, 42, 0
10, 80464, Note_on_c, 9, 35, 0
10, 80640, Note_on_c, 9, 35, 120
10, 80640, Note_on_c, 9, 42, 120
10, 80640, Note_on_c, 9, 51, 127
10, 80656, Note_on_c, 9, 51, 0
10, 80656, Note_on_c, 9, 42, 0
10, 80656, Note_on_c, 9, 35, 0
10, 80832, Note_on_c, 9, 42, 110
10, 80832, Note_on_c, 9, 51, 90
10, 80848, Note_on_c, 9, 51, 0
10, 80848, Note_on_c, 9, 42, 0
10, 81024, Note_on_c, 9, 38, 120
10, 81024, Note_on_c, 9, 42, 120
10, 81024, Note_on_c, 9, 51, 127
10, 81024, Note_on_c, 9, 39, 90
10, 81040, Note_on_c, 9, 39, 0
10, 81040, Note_on_c, 9, 38, 0
10, 81040, Note_on_c, 9, 42, 0
10, 81040, Note_on_c, 9, 51, 0
10, 81216, Note_on_c, 9, 35, 100
10, 81216, Note_on_c, 9, 42, 110
10, 81216, Note_on_c, 9, 51, 90
10, 81232, Note_on_c, 9, 51, 0
10, 81232, Note_on_c, 9, 42, 0
10, 81232, Note_on_c, 9, 35, 0
10, 81408, Note_on_c, 9, 35, 120
10, 81408, Note_on_c, 9, 42, 120
10, 81408, Note_on_c, 9, 51, 127
10, 81408, Note_on_c, 9, 49, 120
10, 81424, Note_on_c, 9, 49, 0
10, 81424, Note_on_c, 9, 35, 0
10, 81424, Note_on_c, 9, 42, 0
10, 81424, Note_on_c, 9, 51, 0
10, 81600, Note_on_c, 9, 38, 80
10, 81600, Note_on_c, 9, 42, 110
10, 81600, Note_on_c, 9, 51, 90
10, 81600, Note_on_c, 9, 41, 80
10, 81616, Note_on_c, 9, 41, 0
10, 81616, Note_on_c, 9, 38, 0
10, 81616, Note_on_c, 9, 42, 0
10, 81616, Note_on_c, 9, 51, 0
10, 81792, Note_on_c, 9, 38, 90
10, 81792, Note_on_c, 9, 42, 120
10, 81792, Note_on_c, 9, 51, 127
10, 81792, Note_on_c, 9, 41, 80
10, 81792, Note_on_c, 9, 39, 90
10, 81808, Note_on_c, 9, 39, 0
10, 81808, Note_on_c, 9, 51, 0
10, 81808, Note_on_c, 9, 38, 0
10, 81808, Note_on_c, 9, 42, 0
10, 81808, Note_on_c, 9, 41, 0
10, 81984, Note_on_c, 9, 38, 90
10, 81984, Note_on_c, 9, 42, 110
10, 81984, Note_on_c, 9, 51, 90
10, 81984, Note_on_c, 9, 41, 90
10, 82000, Note_on_c, 9, 41, 0
10, 82000, Note_on_c, 9, 38, 0
10, 82000, Note_on_c, 9, 42, 0
10, 82000, Note_on_c, 9, 51, 0
10, 82080, Note_on_c, 9, 35, 100
10, 82096, Note_on_c, 9, 35, 0
10, 82176, Note_on_c, 9, 38, 100
10, 82176, Note_on_c, 9, 42, 120
10, 82176, Note_on_c, 9, 51, 127
10, 82176, Note_on_c, 9, 41, 90
10, 82192, Note_on_c, 9, 41, 0
10, 82192, Note_on_c, 9, 38, 0
10, 82192, Note_on_c, 9, 42, 0
10, 82192, Note_on_c, 9, 51, 0
10, 82272, Note_on_c, 9, 35, 100
10, 82288, Note_on_c, 9, 35, 0
10, 82368, Note_on_c, 9, 38, 100
10, 82368, Note_on_c, 9, 42, 110
10, 82368, Note_on_c, 9, 51, 90
10, 82368, Note_on_c, 9, 41, 100
10, 82384, Note_on_c, 9, 41, 0
10, 82384, Note_on_c, 9, 38, 0
10, 82384, Note_on_c, 9, 42, 0
10, 82384, Note_on_c, 9, 51, 0
10, 82464, Note_on_c, 9, 35, 110
10, 82480, Note_on_c, 9, 35, 0
10, 82560, Note_on_c, 9, 38, 110
10, 82560, Note_on_c, 9, 42, 120
10, 82560, Note_on_c, 9, 51, 127
10, 82560, Note_on_c, 9, 41, 100
10, 82560, Note_on_c, 9, 39, 90
10, 82576, Note_on_c, 9, 39, 0
10, 82576, Note_on_c, 9, 51, 0
10, 82576, Note_on_c, 9, 38, 0
10, 82576, Note_on_c, 9, 42, 0
10, 82576, Note_on_c, 9, 41, 0
10, 82656, Note_on_c, 9, 35, 120
10, 82672, Note_on_c, 9, 35, 0
10, 82752, Note_on_c, 9, 38, 127
10, 82752, Note_on_c, 9, 42, 110
10, 82752, Note_on_c, 9, 51, 90
10, 82752, Note_on_c, 9, 41, 110
10, 82768, Note_on_c, 9, 41, 0
10, 82768, Note_on_c, 9, 38, 0
10, 82768, Note_on_c, 9, 42, 0
10, 82768, Note_on_c, 9, 51, 0
10, 82944, Note_on_c, 9, 35, 120
10, 82944, Note_on_c, 9, 42, 120
10, 82944, Note_on_c, 9, 49, 120
10, 82960, Note_on_c, 9, 49, 0
10, 82960, Note_on_c, 9, 42, 0
10, 82960, Note_on_c, 9, 35, 0
10, 83136, Note_on_c, 9, 42, 110
10, 83136, Note_on_c, 9, 57, 110
10, 83152, Note_on_c, 9, 57, 0
10, 83152, Note_on_c, 9, 42, 0
10, 83328, Note_on_c, 9, 38, 120
10, 83328, Note_on_c, 9, 42, 120
10, 83328, Note_on_c, 9, 49, 100
10, 83328, Note_on_c, 9, 39, 90
10, 83344, Note_on_c, 9, 39, 0
10, 83344, Note_on_c, 9, 38, 0
10, 83344, Note_on_c, 9, 42, 0
10, 83344, Note_on_c, 9, 49, 0
10, 83520, Note_on_c, 9, 42, 110
10, 83520, Note_on_c, 9, 57, 100
10, 83536, Note_on_c, 9, 57, 0
10, 83536, Note_on_c, 9, 42, 0
10, 83568, Note_on_c, 9, 38, 80
10, 83584, Note_on_c, 9, 38, 0
10, 83616, Note_on_c, 9, 35, 110
10, 83616, Note_on_c, 9, 38, 90
10, 83632, Note_on_c, 9, 38, 0
10, 83632, Note_on_c, 9, 35, 0
10, 83664, Note_on_c, 9, 38, 80
10, 83680, Note_on_c, 9, 38, 0
10, 83712, Note_on_c, 9, 35, 120
10, 83712, Note_on_c, 9, 38, 100
10, 83712, Note_on_c, 9, 42, 120
10, 83712, Note_on_c, 9, 49, 110
10, 83728, Note_on_c, 9, 49, 0
10, 83728, Note_on_c, 9, 35, 0
10, 83728, Note_on_c, 9, 38, 0
10, 83728, Note_on_c, 9, 42, 0
10, 83904, Note_on_c, 9, 38, 80
10, 83904, Note_on_c, 9, 42, 110
10, 83904, Note_on_c, 9, 57, 110
10, 83904, Note_on_c, 9, 41, 80
10, 83920, Note_on_c, 9, 41, 0
10, 83920, Note_on_c, 9, 38, 0
10, 83920, Note_on_c, 9, 42, 0
10, 83920, Note_on_c, 9, 57, 0
10, 83952, Note_on_c, 9, 38, 90
10, 83968, Note_on_c, 9, 38, 0
10, 84000, Note_on_c, 9, 38, 120
10, 84016, Note_on_c, 9, 38, 0
10, 84096, Note_on_c, 9, 38, 100
10, 84096, Note_on_c, 9, 42, 120
10, 84096, Note_on_c, 9, 49, 120
10, 84096, Note_on_c, 9, 41, 90
10, 84112, Note_on_c, 9, 41, 0
10, 84112, Note_on_c, 9, 38, 0
10, 84112, Note_on_c, 9, 42, 0
10, 84112, Note_on_c, 9, 49, 0
10, 84192, Note_on_c, 9, 38, 110
10, 84208, Note_on_c, 9, 38, 0
10, 84288, Note_on_c, 9, 35, 100
10, 84288, Note_on_c, 9, 38, 120
10, 84288, Note_on_c, 9, 42, 110
10, 84288, Note_on_c, 9, 57, 90
10, 84288, Note_on_c, 9, 41, 120
10, 84304, Note_on_c, 9, 41, 0
10, 84304, Note_on_c, 9, 42, 0
10, 84304, Note_on_c, 9, 35, 0
10, 84304, Note_on_c, 9, 38, 0
10, 84304, Note_on_c, 9, 57, 0
10, 84384, Note_on_c, 9, 38, 127
10, 84400, Note_on_c, 9, 38, 0
10, 84480, Note_on_c, 9, 35, 120
10, 84480, Note_on_c, 9, 38, 120
10, 84480, Note_on_c, 9, 42, 120
10, 84480, Note_on_c, 9, 51, 127
10, 84480, Note_on_c, 9, 49, 120
10, 84496, Note_on_c, 9, 49, 0
10, 84496, Note_on_c, 9, 42, 0
10, 84496, Note_on_c, 9, 35, 0
10, 84496, Note_on_c, 9, 38, 0
10, 84496, Note_on_c, 9, 51, 0
10, 84576, Note_on_c, 9, 41, 100
10, 84592, Note_on_c, 9, 41, 0
10, 84672, Note_on_c, 9, 35, 120
10, 84672, Note_on_c, 9, 42, 110
10, 84672, Note_on_c, 9, 51, 90
10, 84688, Note_on_c, 9, 51, 0
10, 84688, Note_on_c, 9, 42, 0
10, 84688, Note_on_c, 9, 35, 0
10, 84768, Note_on_c, 9, 38, 120
10, 84784, Note_on_c, 9, 38, 0
10, 84864, Note_on_c, 9, 42, 120
10, 84864, Note_on_c, 9, 51, 127
10, 84864, Note_on_c, 9, 57, 100
10, 84864, Note_on_c, 9, 41, 100
10, 84864, Note_on_c, 9, 39, 90
10, 84880, Note_on_c, 9, 39, 0
10, 84880, Note_on_c, 9, 57, 0
10, 84880, Note_on_c, 9, 42, 0
10, 84880, Note_on_c, 9, 51, 0
10, 84880, Note_on_c, 9, 41, 0
10, 84960, Note_on_c, 9, 35, 120
10, 84976, Note_on_c, 9, 35, 0
10, 85056, Note_on_c, 9, 38, 120
10, 85056, Note_on_c, 9, 42, 110
10, 85056, Note_on_c, 9, 51, 90
10, 85072, Note_on_c, 9, 51, 0
10, 85072, Note_on_c, 9, 42, 0
10, 85072, Note_on_c, 9, 38, 0
10, 85152, Note_on_c, 9, 41, 100
10, 85168, Note_on_c, 9, 41, 0
10, 85248, Note_on_c, 9, 35, 120
10, 85248, Note_on_c, 9, 38, 120
10, 85248, Note_on_c, 9, 42, 120
10, 85248, Note_on_c, 9, 51, 127
10, 85248, Note_on_c, 9, 49, 100
10, 85264, Note_on_c, 9, 49, 0
10, 85264, Note_on_c, 9, 42, 0
10, 85264, Note_on_c, 9, 35, 0
10, 85264, Note_on_c, 9, 38, 0
10, 85264, Note_on_c, 9, 51, 0
10, 85296, Note_on_c, 9, 35, 120
10, 85312, Note_on_c, 9, 35, 0
10, 85344, Note_on_c, 9, 41, 100
10, 85360, Note_on_c, 9, 41, 0
10, 85440, Note_on_c, 9, 35, 120
10, 85440, Note_on_c, 9, 42, 110
10, 85440, Note_on_c, 9, 51, 90
10, 85456, Note_on_c, 9, 51, 0
10, 85456, Note_on_c, 9, 42, 0
10, 85456, Note_on_c, 9, 35, 0
10, 85488, Note_on_c, 9, 35, 100
10, 85504, Note_on_c, 9, 35, 0
10, 85536, Note_on_c, 9, 38, 120
10, 85552, Note_on_c, 9, 38, 0
10, 85632, Note_on_c, 9, 42, 120
10, 85632, Note_on_c, 9, 51, 127
10, 85632, Note_on_c, 9, 57, 100
10, 85632, Note_on_c, 9, 41, 100
10, 85632, Note_on_c, 9, 39, 90
10, 85648, Note_on_c, 9, 39, 0
10, 85648, Note_on_c, 9, 57, 0
10, 85648, Note_on_c, 9, 42, 0
10, 85648, Note_on_c, 9, 51, 0
10, 85648, Note_on_c, 9, 41, 0
10, 85728, Note_on_c, 9, 35, 120
10, 85744, Note_on_c, 9, 35, 0
10, 85776, Note_on_c, 9, 35, 100
10, 85792, Note_on_c, 9, 35, 0
10, 85824, Note_on_c, 9, 38, 120
10, 85824, Note_on_c, 9, 42, 110
10, 85824, Note_on_c, 9, 51, 90
10, 85840, Note_on_c, 9, 51, 0
10, 85840, Note_on_c, 9, 42, 0
10, 85840, Note_on_c, 9, 38, 0
10, 85920, Note_on_c, 9, 41, 80
10, 85936, Note_on_c, 9, 41, 0
10, 86016, Note_on_c, 9, 35, 120
10, 86016, Note_on_c, 9, 42, 120
10, 86016, Note_on_c, 9, 51, 127
10, 86016, Note_on_c, 9, 49, 120
10, 86032, Note_on_c, 9, 49, 0
10, 86032, Note_on_c, 9, 35, 0
10, 86032, Note_on_c, 9, 42, 0
10, 86032, Note_on_c, 9, 51, 0
10, 86208, Note_on_c, 9, 42, 110
10, 86208, Note_on_c, 9, 51, 90
10, 86224, Note_on_c, 9, 51, 0
10, 86224, Note_on_c, 9, 42, 0
10, 86400, Note_on_c, 9, 38, 120
10, 86400, Note_on_c, 9, 42, 120
10, 86400, Note_on_c, 9, 51, 127
10, 86400, Note_on_c, 9, 39, 90
10, 86416, Note_on_c, 9, 39, 0
10, 86416, Note_on_c, 9, 38, 0
10, 86416, Note_on_c, 9, 42, 0
10, 86416, Note_on_c, 9, 51, 0
10, 86592, Note_on_c, 9, 35, 100
10, 86592, Note_on_c, 9, 42, 110
10, 86592, Note_on_c, 9, 51, 90
10, 86608, Note_on_c, 9, 51, 0
10, 86608, Note_on_c, 9, 42, 0
10, 86608, Note_on_c, 9, 35, 0
10, 86784, Note_on_c, 9, 35, 120
10, 86784, Note_on_c, 9, 42, 120
10, 86784, Note_on_c, 9, 51, 127
10, 86800, Note_on_c, 9, 51, 0
10, 86800, Note_on_c, 9, 42, 0
10, 86800, Note_on_c, 9, 35, 0
10, 86976, Note_on_c, 9, 42, 110
10, 86976, Note_on_c, 9, 51, 90
10, 86992, Note_on_c, 9, 51, 0
10, 86992, Note_on_c, 9, 42, 0
10, 87168, Note_on_c, 9, 38, 120
10, 87168, Note_on_c, 9, 42, 120
10, 87168, Note_on_c, 9, 51, 127
10, 87168, Note_on_c, 9, 39, 90
10, 87184, Note_on_c, 9, 39, 0
10, 87184, Note_on_c, 9, 38, 0
10, 87184, Note_on_c, 9, 42, 0
10, 87184, Note_on_c, 9, 51, 0
10, 87360, Note_on_c, 9, 35, 100
10, 87360, Note_on_c, 9, 42, 110
10, 87360, Note_on_c, 9, 51, 90
10, 87376, Note_on_c, 9, 51, 0
10, 87376, Note_on_c, 9, 42, 0
10, 87376, Note_on_c, 9, 35, 0
10, 87552, Note_on_c, 9, 35, 120
10, 87552, Note_on_c, 9, 46, 100
10, 87552, Note_on_c, 9, 51, 127
10, 87568, Note_on_c, 9, 51, 0
10, 87568, Note_on_c, 9, 46, 0
10, 87568, Note_on_c, 9, 35, 0
10, 87744, Note_on_c, 9, 46, 90
10, 87744, Note_on_c, 9, 51, 90
10, 87760, Note_on_c, 9, 51, 0
10, 87760, Note_on_c, 9, 46, 0
10, 87936, Note_on_c, 9, 38, 120
10, 87936, Note_on_c, 9, 42, 120
10, 87936, Note_on_c, 9, 51, 127
10, 87936, Note_on_c, 9, 39, 90
10, 87952, Note_on_c, 9, 39, 0
10, 87952, Note_on_c, 9, 38, 0
10, 87952, Note_on_c, 9, 42, 0
10, 87952, Note_on_c, 9, 51, 0
10, 88128, Note_on_c, 9, 35, 100
10, 88128, Note_on_c, 9, 42, 110
10, 88128, Note_on_c, 9, 51, 90
10, 88144, Note_on_c, 9, 51, 0
10, 88144, Note_on_c, 9, 42, 0
10, 88144, Note_on_c, 9, 35, 0
10, 88320, Note_on_c, 9, 35, 120
10, 88320, Note_on_c, 9, 46, 100
10, 88320, Note_on_c, 9, 51, 127
10, 88336, Note_on_c, 9, 51, 0
10, 88336, Note_on_c, 9, 46, 0
10, 88336, Note_on_c, 9, 35, 0
10, 88512, Note_on_c, 9, 38, 110
10, 88512, Note_on_c, 9, 42, 110
10, 88512, Note_on_c, 9, 51, 90
10, 88528, Note_on_c, 9, 51, 0
10, 88528, Note_on_c, 9, 42, 0
10, 88528, Note_on_c, 9, 38, 0
10, 88528, Note_on_c, 9, 38, 110
10, 88544, Note_on_c, 9, 38, 0
10, 88704, Note_on_c, 9, 42, 120
10, 88704, Note_on_c, 9, 51, 127
10, 88704, Note_on_c, 9, 45, 100
10, 88704, Note_on_c, 9, 39, 90
10, 88720, Note_on_c, 9, 39, 0
10, 88720, Note_on_c, 9, 42, 0
10, 88720, Note_on_c, 9, 51, 0
10, 88720, Note_on_c, 9, 45, 0
10, 88896, Note_on_c, 9, 35, 100
10, 88896, Note_on_c, 9, 46, 90
10, 88896, Note_on_c, 9, 51, 90
10, 88896, Note_on_c, 9, 41, 100
10, 88912, Note_on_c, 9, 41, 0
10, 88912, Note_on_c, 9, 35, 0
10, 88912, Note_on_c, 9, 46, 0
10, 88912, Note_on_c, 9, 51, 0
10, 89088, Note_on_c, 9, 35, 120
10, 89088, Note_on_c, 9, 42, 120
10, 89088, Note_on_c, 9, 51, 127
10, 89088, Note_on_c, 9, 49, 120
10, 89104, Note_on_c, 9, 49, 0
10, 89104, Note_on_c, 9, 35, 0
10, 89104, Note_on_c, 9, 42, 0
10, 89104, Note_on_c, 9, 51, 0
10, 89280, Note_on_c, 9, 42, 110
10, 89280, Note_on_c, 9, 51, 90
10, 89296, Note_on_c, 9, 51, 0
10, 89296, Note_on_c, 9, 42, 0
10, 89472, Note_on_c, 9, 38, 120
10, 89472, Note_on_c, 9, 42, 120
10, 89472, Note_on_c, 9, 51, 127
10, 89472, Note_on_c, 9, 39, 90
10, 89488, Note_on_c, 9, 39, 0
10, 89488, Note_on_c, 9, 38, 0
10, 89488, Note_on_c, 9, 42, 0
10, 89488, Note_on_c, 9, 51, 0
10, 89664, Note_on_c, 9, 35, 100
10, 89664, Note_on_c, 9, 42, 110
10, 89664, Note_on_c, 9, 51, 90
10, 89680, Note_on_c, 9, 51, 0
10, 89680, Note_on_c, 9, 42, 0
10, 89680, Note_on_c, 9, 35, 0
10, 89856, Note_on_c, 9, 35, 120
10, 89856, Note_on_c, 9, 42, 120
10, 89856, Note_on_c, 9, 51, 127
10, 89872, Note_on_c, 9, 51, 0
10, 89872, Note_on_c, 9, 42, 0
10, 89872, Note_on_c, 9, 35, 0
10, 90048, Note_on_c, 9, 42, 110
10, 90048, Note_on_c, 9, 51, 90
10, 90064, Note_on_c, 9, 51, 0
10, 90064, Note_on_c, 9, 42, 0
10, 90240, Note_on_c, 9, 38, 120
10, 90240, Note_on_c, 9, 42, 120
10, 90240, Note_on_c, 9, 51, 127
10, 90240, Note_on_c, 9, 39, 90
10, 90256, Note_on_c, 9, 39, 0
10, 90256, Note_on_c, 9, 38, 0
10, 90256, Note_on_c, 9, 42, 0
10, 90256, Note_on_c, 9, 51, 0
10, 90432, Note_on_c, 9, 35, 100
10, 90432, Note_on_c, 9, 42, 110
10, 90432, Note_on_c, 9, 51, 90
10, 90448, Note_on_c, 9, 51, 0
10, 90448, Note_on_c, 9, 42, 0
10, 90448, Note_on_c, 9, 35, 0
10, 90528, Note_on_c, 9, 38, 80
10, 90544, Note_on_c, 9, 38, 0
10, 90576, Note_on_c, 9, 38, 90
10, 90592, Note_on_c, 9, 38, 0
10, 90624, Note_on_c, 9, 35, 120
10, 90624, Note_on_c, 9, 42, 120
10, 90624, Note_on_c, 9, 49, 120
10, 90640, Note_on_c, 9, 49, 0
10, 90640, Note_on_c, 9, 42, 0
10, 90640, Note_on_c, 9, 35, 0
10, 90816, Note_on_c, 9, 42, 110
10, 90816, Note_on_c, 9, 51, 120
10, 90832, Note_on_c, 9, 51, 0
10, 90832, Note_on_c, 9, 42, 0
10, 91008, Note_on_c, 9, 38, 120
10, 91008, Note_on_c, 9, 42, 120
10, 91008, Note_on_c, 9, 51, 127
10, 91008, Note_on_c, 9, 39, 90
10, 91024, Note_on_c, 9, 39, 0
10, 91024, Note_on_c, 9, 38, 0
10, 91024, Note_on_c, 9, 42, 0
10, 91024, Note_on_c, 9, 51, 0
10, 91200, Note_on_c, 9, 35, 100
10, 91200, Note_on_c, 9, 42, 110
10, 91200, Note_on_c, 9, 51, 120
10, 91216, Note_on_c, 9, 51, 0
10, 91216, Note_on_c, 9, 42, 0
10, 91216, Note_on_c, 9, 35, 0
10, 91296, Note_on_c, 9, 38, 80
10, 91312, Note_on_c, 9, 38, 0
10, 91344, Note_on_c, 9, 38, 80
10, 91360, Note_on_c, 9, 38, 0
10, 91392, Note_on_c, 9, 35, 120
10, 91392, Note_on_c, 9, 38, 100
10, 91392, Note_on_c, 9, 42, 120
10, 91392, Note_on_c, 9, 49, 120
10, 91408, Note_on_c, 9, 49, 0
10, 91408, Note_on_c, 9, 35, 0
10, 91408, Note_on_c, 9, 38, 0
10, 91408, Note_on_c, 9, 42, 0
10, 91488, Note_on_c, 9, 38, 100
10, 91504, Note_on_c, 9, 38, 0
10, 91584, Note_on_c, 9, 42, 110
10, 91584, Note_on_c, 9, 49, 100
10, 91600, Note_on_c, 9, 49, 0
10, 91600, Note_on_c, 9, 42, 0
10, 91680, Note_on_c, 9, 38, 100
10, 91696, Note_on_c, 9, 38, 0
10, 91776, Note_on_c, 9, 38, 120
10, 91776, Note_on_c, 9, 42, 120
10, 91776, Note_on_c, 9, 51, 120
10, 91776, Note_on_c, 9, 39, 90
10, 91792, Note_on_c, 9, 39, 0
10, 91792, Note_on_c, 9, 38, 0
10, 91792, Note_on_c, 9, 42, 0
10, 91792, Note_on_c, 9, 51, 0
10, 91920, Note_on_c, 9, 38, 100
10, 91936, Note_on_c, 9, 38, 0
10, 91968, Note_on_c, 9, 35, 100
10, 91968, Note_on_c, 9, 42, 110
10, 91968, Note_on_c, 9, 51, 127
10, 91968, Note_on_c, 9, 45, 100
10, 91984, Note_on_c, 9, 45, 0
10, 91984, Note_on_c, 9, 35, 0
10, 91984, Note_on_c, 9, 42, 0
10, 91984, Note_on_c, 9, 51, 0
10, 92064, Note_on_c, 9, 41, 100
10, 92080, Note_on_c, 9, 41, 0
10, 92160, Note_on_c, 9, 35, 120
10, 92160, Note_on_c, 9, 42, 120
10, 92160, Note_on_c, 9, 49, 120
10, 92176, Note_on_c, 9, 49, 0
10, 92176, Note_on_c, 9, 42, 0
10, 92176, Note_on_c, 9, 35, 0
10, 92352, Note_on_c, 9, 42, 110
10, 92352, Note_on_c, 9, 51, 120
10, 92368, Note_on_c, 9, 51, 0
10, 92368, Note_on_c, 9, 42, 0
10, 92544, Note_on_c, 9, 38, 120
10, 92544, Note_on_c, 9, 42, 120
10, 92544, Note_on_c, 9, 51, 127
10, 92544, Note_on_c, 9, 39, 90
10, 92560, Note_on_c, 9, 39, 0
10, 92560, Note_on_c, 9, 38, 0
10, 92560, Note_on_c, 9, 42, 0
10, 92560, Note_on_c, 9, 51, 0
10, 92736, Note_on_c, 9, 35, 100
10, 92736, Note_on_c, 9, 42, 110
10, 92736, Note_on_c, 9, 51, 120
10, 92752, Note_on_c, 9, 51, 0
10, 92752, Note_on_c, 9, 42, 0
10, 92752, Note_on_c, 9, 35, 0
10, 92832, Note_on_c, 9, 38, 80
10, 92848, Note_on_c, 9, 38, 0
10, 92880, Note_on_c, 9, 38, 80
10, 92896, Note_on_c, 9, 38, 0
10, 92928, Note_on_c, 9, 35, 120
10, 92928, Note_on_c, 9, 38, 100
10, 92928, Note_on_c, 9, 42, 120
10, 92928, Note_on_c, 9, 49, 120
10, 92944, Note_on_c, 9, 49, 0
10, 92944, Note_on_c, 9, 35, 0
10, 92944, Note_on_c, 9, 38, 0
10, 92944, Note_on_c, 9, 42, 0
10, 93024, Note_on_c, 9, 38, 100
10, 93040, Note_on_c, 9, 38, 0
10, 93120, Note_on_c, 9, 42, 110
10, 93120, Note_on_c, 9, 49, 100
10, 93136, Note_on_c, 9, 49, 0
10, 93136, Note_on_c, 9, 42, 0
10, 93216, Note_on_c, 9, 38, 100
10, 93232, Note_on_c, 9, 38, 0
10, 93312, Note_on_c, 9, 38, 120
10, 93312, Note_on_c, 9, 42, 120
10, 93312, Note_on_c, 9, 51, 120
10, 93312, Note_on_c, 9, 39, 90
10, 93328, Note_on_c, 9, 39, 0
10, 93328, Note_on_c, 9, 38, 0
10, 93328, Note_on_c, 9, 42, 0
10, 93328, Note_on_c, 9, 51, 0
10, 93456, Note_on_c, 9, 38, 100
10, 93472, Note_on_c, 9, 38, 0
10, 93504, Note_on_c, 9, 35, 100
10, 93504, Note_on_c, 9, 42, 110
10, 93504, Note_on_c, 9, 51, 127
10, 93504, Note_on_c, 9, 45, 100
10, 93520, Note_on_c, 9, 45, 0
10, 93520, Note_on_c, 9, 35, 0
10, 93520, Note_on_c, 9, 42, 0
10, 93520, Note_on_c, 9, 51, 0
10, 93600, Note_on_c, 9, 41, 100
10, 93616, Note_on_c, 9, 41, 0
10, 93696, Note_on_c, 9, 35, 120
10, 93696, Note_on_c, 9, 42, 120
10, 93696, Note_on_c, 9, 49, 120
10, 93712, Note_on_c, 9, 49, 0
10, 93712, Note_on_c, 9, 42, 0
10, 93712, Note_on_c, 9, 35, 0
10, 93888, Note_on_c, 9, 42, 110
10, 93888, Note_on_c, 9, 51, 120
10, 93904, Note_on_c, 9, 51, 0
10, 93904, Note_on_c, 9, 42, 0
10, 94080, Note_on_c, 9, 38, 120
10, 94080, Note_on_c, 9, 42, 120
10, 94080, Note_on_c, 9, 51, 127
10, 94080, Note_on_c, 9, 39, 90
10, 94096, Note_on_c, 9, 39, 0
10, 94096, Note_on_c, 9, 38, 0
10, 94096, Note_on_c, 9, 42, 0
10, 94096, Note_on_c, 9, 51, 0
10, 94272, Note_on_c, 9, 35, 100
10, 94272, Note_on_c, 9, 42, 110
10, 94272, Note_on_c, 9, 51, 127
10, 94288, Note_on_c, 9, 51, 0
10, 94288, Note_on_c, 9, 42, 0
10, 94288, Note_on_c, 9, 35, 0
10, 94464, Note_on_c, 9, 35, 120
10, 94464, Note_on_c, 9, 42, 120
10, 94464, Note_on_c, 9, 51, 127
10, 94480, Note_on_c, 9, 51, 0
10, 94480, Note_on_c, 9, 42, 0
10, 94480, Note_on_c, 9, 35, 0
10, 94656, Note_on_c, 9, 38, 90
10, 94656, Note_on_c, 9, 42, 110
10, 94656, Note_on_c, 9, 51, 120
10, 94656, Note_on_c, 9, 41, 80
10, 94672, Note_on_c, 9, 41, 0
10, 94672, Note_on_c, 9, 38, 0
10, 94672, Note_on_c, 9, 42, 0
10, 94672, Note_on_c, 9, 51, 0
10, 94752, Note_on_c, 9, 35, 110
10, 94752, Note_on_c, 9, 46, 100
10, 94768, Note_on_c, 9, 46, 0
10, 94768, Note_on_c, 9, 35, 0
10, 94848, Note_on_c, 9, 38, 100
10, 94848, Note_on_c, 9, 42, 120
10, 94848, Note_on_c, 9, 51, 127
10, 94848, Note_on_c, 9, 41, 90
10, 94848, Note_on_c, 9, 39, 90
10, 94864, Note_on_c, 9, 39, 0
10, 94864, Note_on_c, 9, 51, 0
10, 94864, Note_on_c, 9, 38, 0
10, 94864, Note_on_c, 9, 42, 0
10, 94864, Note_on_c, 9, 41, 0
10, 94944, Note_on_c, 9, 35, 120
10, 94944, Note_on_c, 9, 46, 100
10, 94960, Note_on_c, 9, 46, 0
10, 94960, Note_on_c, 9, 35, 0
10, 95040, Note_on_c, 9, 38, 120
10, 95040, Note_on_c, 9, 42, 110
10, 95040, Note_on_c, 9, 51, 127
10, 95040, Note_on_c, 9, 41, 100
10, 95056, Note_on_c, 9, 41, 0
10, 95056, Note_on_c, 9, 38, 0
10, 95056, Note_on_c, 9, 42, 0
10, 95056, Note_on_c, 9, 51, 0
10, 95136, Note_on_c, 9, 35, 120
10, 95136, Note_on_c, 9, 46, 100
10, 95152, Note_on_c, 9, 46, 0
10, 95152, Note_on_c, 9, 35, 0
10, 95232, Note_on_c, 9, 35, 120
10, 95232, Note_on_c, 9, 42, 120
10, 95232, Note_on_c, 9, 49, 120
10, 95248, Note_on_c, 9, 49, 0
10, 95248, Note_on_c, 9, 42, 0
10, 95248, Note_on_c, 9, 35, 0
10, 95424, Note_on_c, 9, 42, 110
10, 95424, Note_on_c, 9, 57, 110
10, 95440, Note_on_c, 9, 57, 0
10, 95440, Note_on_c, 9, 42, 0
10, 95616, Note_on_c, 9, 38, 120
10, 95616, Note_on_c, 9, 42, 120
10, 95616, Note_on_c, 9, 49, 100
10, 95616, Note_on_c, 9, 39, 90
10, 95632, Note_on_c, 9, 39, 0
10, 95632, Note_on_c, 9, 38, 0
10, 95632, Note_on_c, 9, 42, 0
10, 95632, Note_on_c, 9, 49, 0
10, 95808, Note_on_c, 9, 42, 110
10, 95808, Note_on_c, 9, 57, 100
10, 95824, Note_on_c, 9, 57, 0
10, 95824, Note_on_c, 9, 42, 0
10, 95856, Note_on_c, 9, 38, 80
10, 95872, Note_on_c, 9, 38, 0
10, 95904, Note_on_c, 9, 35, 110
10, 95904, Note_on_c, 9, 38, 90
10, 95920, Note_on_c, 9, 38, 0
10, 95920, Note_on_c, 9, 35, 0
10, 95952, Note_on_c, 9, 38, 80
10, 95968, Note_on_c, 9, 38, 0
10, 96000, Note_on_c, 9, 35, 120
10, 96000, Note_on_c, 9, 38, 100
10, 96000, Note_on_c, 9, 42, 120
10, 96000, Note_on_c, 9, 49, 110
10, 96016, Note_on_c, 9, 49, 0
10, 96016, Note_on_c, 9, 35, 0
10, 96016, Note_on_c, 9, 38, 0
10, 96016, Note_on_c, 9, 42, 0
10, 96192, Note_on_c, 9, 38, 80
10, 96192, Note_on_c, 9, 42, 110
10, 96192, Note_on_c, 9, 57, 110
10, 96192, Note_on_c, 9, 41, 80
10, 96208, Note_on_c, 9, 41, 0
10, 96208, Note_on_c, 9, 38, 0
10, 96208, Note_on_c, 9, 42, 0
10, 96208, Note_on_c, 9, 57, 0
10, 96240, Note_on_c, 9, 38, 90
10, 96256, Note_on_c, 9, 38, 0
10, 96288, Note_on_c, 9, 38, 120
10, 96304, Note_on_c, 9, 38, 0
10, 96384, Note_on_c, 9, 38, 100
10, 96384, Note_on_c, 9, 42, 120
10, 96384, Note_on_c, 9, 49, 120
10, 96384, Note_on_c, 9, 41, 90
10, 96400, Note_on_c, 9, 41, 0
10, 96400, Note_on_c, 9, 38, 0
10, 96400, Note_on_c, 9, 42, 0
10, 96400, Note_on_c, 9, 49, 0
10, 96480, Note_on_c, 9, 38, 110
10, 96496, Note_on_c, 9, 38, 0
10, 96576, Note_on_c, 9, 35, 100
10, 96576, Note_on_c, 9, 38, 120
10, 96576, Note_on_c, 9, 42, 110
10, 96576, Note_on_c, 9, 57, 90
10, 96576, Note_on_c, 9, 41, 120
10, 96592, Note_on_c, 9, 41, 0
10, 96592, Note_on_c, 9, 42, 0
10, 96592, Note_on_c, 9, 35, 0
10, 96592, Note_on_c, 9, 38, 0
10, 96592, Note_on_c, 9, 57, 0
10, 96672, Note_on_c, 9, 38, 127
10, 96688, Note_on_c, 9, 38, 0
10, 96768, Note_on_c, 9, 35, 120
10, 96768, Note_on_c, 9, 38, 110
10, 96768, Note_on_c, 9, 42, 120
10, 96768, Note_on_c, 9, 51, 127
10, 96784, Note_on_c, 9, 51, 0
10, 96784, Note_on_c, 9, 35, 0
10, 96784, Note_on_c, 9, 38, 0
10, 96784, Note_on_c, 9, 42, 0
10, 96864, Note_on_c, 9, 38, 80
10, 96880, Note_on_c, 9, 38, 0
10, 96912, Note_on_c, 9, 38, 80
10, 96928, Note_on_c, 9, 38, 0
10, 96960, Note_on_c, 9, 38, 127
10, 96960, Note_on_c, 9, 42, 110
10, 96960, Note_on_c, 9, 51, 90
10, 96976, Note_on_c, 9, 51, 0
10, 96976, Note_on_c, 9, 42, 0
10, 96976, Note_on_c, 9, 38, 0
10, 97056, Note_on_c, 9, 38, 120
10, 97072, Note_on_c, 9, 38, 0
10, 97152, Note_on_c, 9, 38, 80
10, 97152, Note_on_c, 9, 42, 120
10, 97152, Note_on_c, 9, 51, 127
10, 97152, Note_on_c, 9, 39, 90
10, 97168, Note_on_c, 9, 39, 0
10, 97168, Note_on_c, 9, 38, 0
10, 97168, Note_on_c, 9, 42, 0
10, 97168, Note_on_c, 9, 51, 0
10, 97200, Note_on_c, 9, 38, 90
10, 97216, Note_on_c, 9, 38, 0
10, 97248, Note_on_c, 9, 38, 100
10, 97264, Note_on_c, 9, 38, 0
10, 97344, Note_on_c, 9, 38, 127
10, 97344, Note_on_c, 9, 42, 110
10, 97344, Note_on_c, 9, 51, 90
10, 97360, Note_on_c, 9, 51, 0
10, 97360, Note_on_c, 9, 42, 0
10, 97360, Note_on_c, 9, 38, 0
10, 97440, Note_on_c, 9, 35, 110
10, 97440, Note_on_c, 9, 38, 80
10, 97456, Note_on_c, 9, 38, 0
10, 97456, Note_on_c, 9, 35, 0
10, 97488, Note_on_c, 9, 38, 80
10, 97504, Note_on_c, 9, 38, 0
10, 97536, Note_on_c, 9, 35, 120
10, 97536, Note_on_c, 9, 38, 100
10, 97536, Note_on_c, 9, 42, 120
10, 97536, Note_on_c, 9, 51, 127
10, 97552, Note_on_c, 9, 51, 0
10, 97552, Note_on_c, 9, 35, 0
10, 97552, Note_on_c, 9, 38, 0
10, 97552, Note_on_c, 9, 42, 0
10, 97632, Note_on_c, 9, 38, 127
10, 97648, Note_on_c, 9, 38, 0
10, 97728, Note_on_c, 9, 38, 80
10, 97728, Note_on_c, 9, 42, 110
10, 97728, Note_on_c, 9, 51, 90
10, 97744, Note_on_c, 9, 51, 0
10, 97744, Note_on_c, 9, 42, 0
10, 97744, Note_on_c, 9, 38, 0
10, 97776, Note_on_c, 9, 38, 80
10, 97792, Note_on_c, 9, 38, 0
10, 97824, Note_on_c, 9, 38, 120
10, 97840, Note_on_c, 9, 38, 0
10, 97920, Note_on_c, 9, 38, 127
10, 97920, Note_on_c, 9, 42, 120
10, 97920, Note_on_c, 9, 51, 127
10, 97936, Note_on_c, 9, 51, 0
10, 97936, Note_on_c, 9, 42, 0
10, 97936, Note_on_c, 9, 38, 0
10, 97968, Note_on_c, 9, 38, 80
10, 97984, Note_on_c, 9, 38, 0
10, 98016, Note_on_c, 9, 38, 110
10, 98032, Note_on_c, 9, 38, 0
10, 98064, Note_on_c, 9, 38, 80
10, 98080, Note_on_c, 9, 38, 0
10, 98112, Note_on_c, 9, 35, 100
10, 98112, Note_on_c, 9, 38, 80
10, 98112, Note_on_c, 9, 42, 110
10, 98112, Note_on_c, 9, 46, 120
10, 98112, Note_on_c, 9, 51, 90
10, 98128, Note_on_c, 9, 51, 0
10, 98128, Note_on_c, 9, 42, 0
10, 98128, Note_on_c, 9, 35, 0
10, 98128, Note_on_c, 9, 38, 0
10, 98128, Note_on_c, 9, 46, 0
10, 98160, Note_on_c, 9, 38, 80
10, 98176, Note_on_c, 9, 38, 0
10, 98208, Note_on_c, 9, 38, 110
10, 98224, Note_on_c, 9, 38, 0
10, 98256, Note_on_c, 9, 38, 90
10, 98272, Note_on_c, 9, 38, 0
10, 98304, Note_on_c, 9, 35, 120
10, 98304, Note_on_c, 9, 42, 120
10, 98304, Note_on_c, 9, 49, 120
10, 98320, Note_on_c, 9, 49, 0
10, 98320, Note_on_c, 9, 42, 0
10, 98320, Note_on_c, 9, 35, 0
10, 98496, Note_on_c, 9, 42, 110
10, 98496, Note_on_c, 9, 51, 120
10, 98512, Note_on_c, 9, 51, 0
10, 98512, Note_on_c, 9, 42, 0
10, 98688, Note_on_c, 9, 38, 120
10, 98688, Note_on_c, 9, 42, 120
10, 98688, Note_on_c, 9, 51, 127
10, 98688, Note_on_c, 9, 39, 90
10, 98704, Note_on_c, 9, 39, 0
10, 98704, Note_on_c, 9, 38, 0
10, 98704, Note_on_c, 9, 42, 0
10, 98704, Note_on_c, 9, 51, 0
10, 98880, Note_on_c, 9, 35, 100
10, 98880, Note_on_c, 9, 42, 110
10, 98880, Note_on_c, 9, 51, 120
10, 98896, Note_on_c, 9, 51, 0
10, 98896, Note_on_c, 9, 42, 0
10, 98896, Note_on_c, 9, 35, 0
10, 98976, Note_on_c, 9, 38, 80
10, 98992, Note_on_c, 9, 38, 0
10, 99024, Note_on_c, 9, 38, 80
10, 99040, Note_on_c, 9, 38, 0
10, 99072, Note_on_c, 9, 35, 120
10, 99072, Note_on_c, 9, 38, 100
10, 99072, Note_on_c, 9, 42, 120
10, 99072, Note_on_c, 9, 49, 120
10, 99088, Note_on_c, 9, 49, 0
10, 99088, Note_on_c, 9, 35, 0
10, 99088, Note_on_c, 9, 38, 0
10, 99088, Note_on_c, 9, 42, 0
10, 99168, Note_on_c, 9, 38, 100
10, 99184, Note_on_c, 9, 38, 0
10, 99264, Note_on_c, 9, 42, 110
10, 99264, Note_on_c, 9, 49, 100
10, 99280, Note_on_c, 9, 49, 0
10, 99280, Note_on_c, 9, 42, 0
10, 99360, Note_on_c, 9, 38, 100
10, 99376, Note_on_c, 9, 38, 0
10, 99456, Note_on_c, 9, 38, 120
10, 99456, Note_on_c, 9, 42, 120
10, 99456, Note_on_c, 9, 51, 120
10, 99456, Note_on_c, 9, 39, 90
10, 99472, Note_on_c, 9, 39, 0
10, 99472, Note_on_c, 9, 38, 0
10, 99472, Note_on_c, 9, 42, 0
10, 99472, Note_on_c, 9, 51, 0
10, 99600, Note_on_c, 9, 38, 100
10, 99616, Note_on_c, 9, 38, 0
10, 99648, Note_on_c, 9, 35, 100
10, 99648, Note_on_c, 9, 42, 110
10, 99648, Note_on_c, 9, 51, 127
10, 99648, Note_on_c, 9, 45, 100
10, 99664, Note_on_c, 9, 45, 0
10, 99664, Note_on_c, 9, 35, 0
10, 99664, Note_on_c, 9, 42, 0
10, 99664, Note_on_c, 9, 51, 0
10, 99744, Note_on_c, 9, 41, 100
10, 99760, Note_on_c, 9, 41, 0
10, 99840, Note_on_c, 9, 35, 120
10, 99840, Note_on_c, 9, 42, 120
10, 99840, Note_on_c, 9, 49, 120
10, 99856, Note_on_c, 9, 49, 0
10, 99856, Note_on_c, 9, 42, 0
10, 99856, Note_on_c, 9, 35, 0
10, 100032, Note_on_c, 9, 42, 110
10, 100032, Note_on_c, 9, 51, 120
10, 100048, Note_on_c, 9, 51, 0
10, 100048, Note_on_c, 9, 42, 0
10, 100224, Note_on_c, 9, 38, 120
10, 100224, Note_on_c, 9, 42, 120
10, 100224, Note_on_c, 9, 51, 127
10, 100224, Note_on_c, 9, 39, 90
10, 100240, Note_on_c, 9, 39, 0
10, 100240, Note_on_c, 9, 38, 0
10, 100240, Note_on_c, 9, 42, 0
10, 100240, Note_on_c, 9, 51, 0
10, 100416, Note_on_c, 9, 35, 100
10, 100416, Note_on_c, 9, 42, 110
10, 100416, Note_on_c, 9, 51, 127
10, 100432, Note_on_c, 9, 51, 0
10, 100432, Note_on_c, 9, 42, 0
10, 100432, Note_on_c, 9, 35, 0
10, 100608, Note_on_c, 9, 35, 120
10, 100608, Note_on_c, 9, 42, 120
10, 100608, Note_on_c, 9, 51, 127
10, 100624, Note_on_c, 9, 51, 0
10, 100624, Note_on_c, 9, 42, 0
10, 100624, Note_on_c, 9, 35, 0
10, 100800, Note_on_c, 9, 38, 90
10, 100800, Note_on_c, 9, 42, 110
10, 100800, Note_on_c, 9, 51, 120
10, 100800, Note_on_c, 9, 41, 80
10, 100816, Note_on_c, 9, 41, 0
10, 100816, Note_on_c, 9, 38, 0
10, 100816, Note_on_c, 9, 42, 0
10, 100816, Note_on_c, 9, 51, 0
10, 100896, Note_on_c, 9, 35, 110
10, 100896, Note_on_c, 9, 46, 100
10, 100912, Note_on_c, 9, 46, 0
10, 100912, Note_on_c, 9, 35, 0
10, 100992, Note_on_c, 9, 38, 100
10, 100992, Note_on_c, 9, 42, 120
10, 100992, Note_on_c, 9, 51, 127
10, 100992, Note_on_c, 9, 41, 90
10, 100992, Note_on_c, 9, 39, 90
10, 101008, Note_on_c, 9, 39, 0
10, 101008, Note_on_c, 9, 51, 0
10, 101008, Note_on_c, 9, 38, 0
10, 101008, Note_on_c, 9, 42, 0
10, 101008, Note_on_c, 9, 41, 0
10, 101088, Note_on_c, 9, 35, 120
10, 101088, Note_on_c, 9, 46, 100
10, 101104, Note_on_c, 9, 46, 0
10, 101104, Note_on_c, 9, 35, 0
10, 101184, Note_on_c, 9, 38, 120
10, 101184, Note_on_c, 9, 42, 110
10, 101184, Note_on_c, 9, 51, 127
10, 101184, Note_on_c, 9, 41, 100
10, 101200, Note_on_c, 9, 41, 0
10, 101200, Note_on_c, 9, 38, 0
10, 101200, Note_on_c, 9, 42, 0
10, 101200, Note_on_c, 9, 51, 0
10, 101280, Note_on_c, 9, 35, 120
10, 101280, Note_on_c, 9, 46, 100
10, 101296, Note_on_c, 9, 46, 0
10, 101296, Note_on_c, 9, 35, 0
10, 101376, Note_on_c, 9, 35, 120
10, 101376, Note_on_c, 9, 42, 120
10, 101376, Note_on_c, 9, 49, 120
10, 101392, Note_on_c, 9, 49, 0
10, 101392, Note_on_c, 9, 42, 0
10, 101392, Note_on_c, 9, 35, 0
10, 101568, Note_on_c, 9, 42, 110
10, 101568, Note_on_c, 9, 57, 110
10, 101584, Note_on_c, 9, 57, 0
10, 101584, Note_on_c, 9, 42, 0
10, 101760, Note_on_c, 9, 38, 120
10, 101760, Note_on_c, 9, 42, 120
10, 101760, Note_on_c, 9, 49, 100
10, 101760, Note_on_c, 9, 39, 90
10, 101776, Note_on_c, 9, 39, 0
10, 101776, Note_on_c, 9, 38, 0
10, 101776, Note_on_c, 9, 42, 0
10, 101776, Note_on_c, 9, 49, 0
10, 101952, Note_on_c, 9, 42, 110
10, 101952, Note_on_c, 9, 57, 100
10, 101968, Note_on_c, 9, 57, 0
10, 101968, Note_on_c, 9, 42, 0
10, 102000, Note_on_c, 9, 38, 80
10, 102016, Note_on_c, 9, 38, 0
10, 102048, Note_on_c, 9, 35, 110
10, 102048, Note_on_c, 9, 38, 90
10, 102064, Note_on_c, 9, 38, 0
10, 102064, Note_on_c, 9, 35, 0
10, 102096, Note_on_c, 9, 38, 80
10, 102112, Note_on_c, 9, 38, 0
10, 102144, Note_on_c, 9, 35, 120
10, 102144, Note_on_c, 9, 38, 100
10, 102144, Note_on_c, 9, 42, 120
10, 102144, Note_on_c, 9, 49, 110
10, 102160, Note_on_c, 9, 49, 0
10, 102160, Note_on_c, 9, 35, 0
10, 102160, Note_on_c, 9, 38, 0
10, 102160, Note_on_c, 9, 42, 0
10, 102336, Note_on_c, 9, 38, 80
10, 102336, Note_on_c, 9, 42, 110
10, 102336, Note_on_c, 9, 57, 110
10, 102336, Note_on_c, 9, 41, 80
10, 102352, Note_on_c, 9, 41, 0
10, 102352, Note_on_c, 9, 38, 0
10, 102352, Note_on_c, 9, 42, 0
10, 102352, Note_on_c, 9, 57, 0
10, 102384, Note_on_c, 9, 38, 90
10, 102400, Note_on_c, 9, 38, 0
10, 102432, Note_on_c, 9, 38, 120
10, 102448, Note_on_c, 9, 38, 0
10, 102528, Note_on_c, 9, 38, 100
10, 102528, Note_on_c, 9, 42, 120
10, 102528, Note_on_c, 9, 49, 120
10, 102528, Note_on_c, 9, 41, 90
10, 102544, Note_on_c, 9, 41, 0
10, 102544, Note_on_c, 9, 38, 0
10, 102544, Note_on_c, 9, 42, 0
10, 102544, Note_on_c, 9, 49, 0
10, 102624, Note_on_c, 9, 38, 110
10, 102640, Note_on_c, 9, 38, 0
10, 102720, Note_on_c, 9, 35, 100
10, 102720, Note_on_c, 9, 38, 120
10, 102720, Note_on_c, 9, 42, 110
10, 102720, Note_on_c, 9, 57, 90
10, 102720, Note_on_c, 9, 41, 120
10, 102736, Note_on_c, 9, 41, 0
10, 102736, Note_on_c, 9, 42, 0
10, 102736, Note_on_c, 9, 35, 0
10, 102736, Note_on_c, 9, 38, 0
10, 102736, Note_on_c, 9, 57, 0
10, 102816, Note_on_c, 9, 38, 127
10, 102832, Note_on_c, 9, 38, 0
10, 102912, Note_on_c, 9, 35, 120
10, 102912, Note_on_c, 9, 42, 120
10, 102912, Note_on_c, 9, 51, 127
10, 102912, Note_on_c, 9, 49, 120
10, 102928, Note_on_c, 9, 49, 0
10, 102928, Note_on_c, 9, 35, 0
10, 102928, Note_on_c, 9, 42, 0
10, 102928, Note_on_c, 9, 51, 0
10, 103104, Note_on_c, 9, 38, 80
10, 103104, Note_on_c, 9, 42, 110
10, 103104, Note_on_c, 9, 51, 90
10, 103104, Note_on_c, 9, 41, 80
10, 103120, Note_on_c, 9, 41, 0
10, 103120, Note_on_c, 9, 38, 0
10, 103120, Note_on_c, 9, 42, 0
10, 103120, Note_on_c, 9, 51, 0
10, 103296, Note_on_c, 9, 38, 90
10, 103296, Note_on_c, 9, 42, 120
10, 103296, Note_on_c, 9, 51, 127
10, 103296, Note_on_c, 9, 41, 80
10, 103296, Note_on_c, 9, 39, 90
10, 103312, Note_on_c, 9, 39, 0
10, 103312, Note_on_c, 9, 51, 0
10, 103312, Note_on_c, 9, 38, 0
10, 103312, Note_on_c, 9, 42, 0
10, 103312, Note_on_c, 9, 41, 0
10, 103488, Note_on_c, 9, 38, 90
10, 103488, Note_on_c, 9, 42, 110
10, 103488, Note_on_c, 9, 51, 90
10, 103488, Note_on_c, 9, 41, 90
10, 103504, Note_on_c, 9, 41, 0
10, 103504, Note_on_c, 9, 38, 0
10, 103504, Note_on_c, 9, 42, 0
10, 103504, Note_on_c, 9, 51, 0
10, 103584, Note_on_c, 9, 35, 100
10, 103600, Note_on_c, 9, 35, 0
10, 103680, Note_on_c, 9, 38, 100
10, 103680, Note_on_c, 9, 42, 120
10, 103680, Note_on_c, 9, 51, 127
10, 103680, Note_on_c, 9, 41, 90
10, 103696, Note_on_c, 9, 41, 0
10, 103696, Note_on_c, 9, 38, 0
10, 103696, Note_on_c, 9, 42, 0
10, 103696, Note_on_c, 9, 51, 0
10, 103776, Note_on_c, 9, 35, 100
10, 103792, Note_on_c, 9, 35, 0
10, 103872, Note_on_c, 9, 38, 100
10, 103872, Note_on_c, 9, 42, 110
10, 103872, Note_on_c, 9, 51, 90
10, 103872, Note_on_c, 9, 41, 100
10, 103888, Note_on_c, 9, 41, 0
10, 103888, Note_on_c, 9, 38, 0
10, 103888, Note_on_c, 9, 42, 0
10, 103888, Note_on_c, 9, 51, 0
10, 103968, Note_on_c, 9, 35, 110
10, 103984, Note_on_c, 9, 35, 0
10, 104064, Note_on_c, 9, 38, 110
10, 104064, Note_on_c, 9, 42, 120
10, 104064, Note_on_c, 9, 51, 127
10, 104064, Note_on_c, 9, 41, 100
10, 104064, Note_on_c, 9, 39, 90
10, 104080, Note_on_c, 9, 39, 0
10, 104080, Note_on_c, 9, 51, 0
10, 104080, Note_on_c, 9, 38, 0
10, 104080, Note_on_c, 9, 42, 0
10, 104080, Note_on_c, 9, 41, 0
10, 104160, Note_on_c, 9, 35, 120
10, 104176, Note_on_c, 9, 35, 0
10, 104256, Note_on_c, 9, 38, 127
10, 104256, Note_on_c, 9, 42, 110
10, 104256, Note_on_c, 9, 51, 90
10, 104256, Note_on_c, 9, 41, 110
10, 104272, Note_on_c, 9, 41, 0
10, 104272, Note_on_c, 9, 38, 0
10, 104272, Note_on_c, 9, 42, 0
10, 104272, Note_on_c, 9, 51, 0
10, 104448, Note_on_c, 9, 35, 120
10, 104448, Note_on_c, 9, 42, 120
10, 104448, Note_on_c, 9, 51, 127
10, 104448, Note_on_c, 9, 49, 120
10, 104464, Note_on_c, 9, 49, 0
10, 104464, Note_on_c, 9, 35, 0
10, 104464, Note_on_c, 9, 42, 0
10, 104464, Note_on_c, 9, 51, 0
10, 104640, Note_on_c, 9, 42, 110
10, 104640, Note_on_c, 9, 51, 90
10, 104656, Note_on_c, 9, 51, 0
10, 104656, Note_on_c, 9, 42, 0
10, 104832, Note_on_c, 9, 38, 120
10, 104832, Note_on_c, 9, 42, 120
10, 104832, Note_on_c, 9, 51, 127
10, 104832, Note_on_c, 9, 39, 90
10, 104848, Note_on_c, 9, 39, 0
10, 104848, Note_on_c, 9, 38, 0
10, 104848, Note_on_c, 9, 42, 0
10, 104848, Note_on_c, 9, 51, 0
10, 105024, Note_on_c, 9, 35, 100
10, 105024, Note_on_c, 9, 42, 110
10, 105024, Note_on_c, 9, 51, 90
10, 105040, Note_on_c, 9, 51, 0
10, 105040, Note_on_c, 9, 42, 0
10, 105040, Note_on_c, 9, 35, 0
10, 105216, Note_on_c, 9, 35, 120
10, 105216, Note_on_c, 9, 42, 120
10, 105216, Note_on_c, 9, 51, 127
10, 105232, Note_on_c, 9, 51, 0
10, 105232, Note_on_c, 9, 42, 0
10, 105232, Note_on_c, 9, 35, 0
10, 105408, Note_on_c, 9, 42, 110
10, 105408, Note_on_c, 9, 51, 90
10, 105424, Note_on_c, 9, 51, 0
10, 105424, Note_on_c, 9, 42, 0
10, 105600, Note_on_c, 9, 38, 120
10, 105600, Note_on_c, 9, 42, 120
10, 105600, Note_on_c, 9, 51, 127
10, 105600, Note_on_c, 9, 39, 90
10, 105616, Note_on_c, 9, 39, 0
10, 105616, Note_on_c, 9, 38, 0
10, 105616, Note_on_c, 9, 42, 0
10, 105616, Note_on_c, 9, 51, 0
10, 105792, Note_on_c, 9, 35, 100
10, 105792, Note_on_c, 9, 42, 110
10, 105792, Note_on_c, 9, 51, 90
10, 105808, Note_on_c, 9, 51, 0
10, 105808, Note_on_c, 9, 42, 0
10, 105808, Note_on_c, 9, 35, 0
10, 105888, Note_on_c, 9, 38, 80
10, 105904, Note_on_c, 9, 38, 0
10, 105936, Note_on_c, 9, 38, 90
10, 105952, Note_on_c, 9, 38, 0
10, 105984, Note_on_c, 9, 35, 120
10, 105984, Note_on_c, 9, 42, 120
10, 105984, Note_on_c, 9, 51, 127
10, 106000, Note_on_c, 9, 51, 0
10, 106000, Note_on_c, 9, 42, 0
10, 106000, Note_on_c, 9, 35, 0
10, 106176, Note_on_c, 9, 42, 110
10, 106176, Note_on_c, 9, 51, 90
10, 106192, Note_on_c, 9, 51, 0
10, 106192, Note_on_c, 9, 42, 0
10, 106368, Note_on_c, 9, 38, 120
10, 106368, Note_on_c, 9, 42, 120
10, 106368, Note_on_c, 9, 51, 127
10, 106368, Note_on_c, 9, 39, 90
10, 106384, Note_on_c, 9, 39, 0
10, 106384, Note_on_c, 9, 38, 0
10, 106384, Note_on_c, 9, 42, 0
10, 106384, Note_on_c, 9, 51, 0
10, 106560, Note_on_c, 9, 42, 110
10, 106560, Note_on_c, 9, 51, 90
10, 106576, Note_on_c, 9, 51, 0
10, 106576, Note_on_c, 9, 42, 0
10, 106656, Note_on_c, 9, 35, 110
10, 106656, Note_on_c, 9, 38, 80
10, 106672, Note_on_c, 9, 38, 0
10, 106672, Note_on_c, 9, 35, 0
10, 106704, Note_on_c, 9, 38, 80
10, 106720, Note_on_c, 9, 38, 0
10, 106752, Note_on_c, 9, 35, 120
10, 106752, Note_on_c, 9, 38, 120
10, 106752, Note_on_c, 9, 42, 120
10, 106752, Note_on_c, 9, 51, 127
10, 106768, Note_on_c, 9, 51, 0
10, 106768, Note_on_c, 9, 35, 0
10, 106768, Note_on_c, 9, 38, 0
10, 106768, Note_on_c, 9, 42, 0
10, 106944, Note_on_c, 9, 38, 80
10, 106944, Note_on_c, 9, 42, 110
10, 106944, Note_on_c, 9, 51, 90
10, 106960, Note_on_c, 9, 51, 0
10, 106960, Note_on_c, 9, 42, 0
10, 106960, Note_on_c, 9, 38, 0
10, 106992, Note_on_c, 9, 38, 90
10, 107008, Note_on_c, 9, 38, 0
10, 107040, Note_on_c, 9, 38, 120
10, 107056, Note_on_c, 9, 38, 0
10, 107136, Note_on_c, 9, 42, 120
10, 107136, Note_on_c, 9, 51, 127
10, 107136, Note_on_c, 9, 48, 100
10, 107152, Note_on_c, 9, 48, 0
10, 107152, Note_on_c, 9, 51, 0
10, 107152, Note_on_c, 9, 42, 0
10, 107232, Note_on_c, 9, 38, 110
10, 107248, Note_on_c, 9, 38, 0
10, 107328, Note_on_c, 9, 35, 100
10, 107328, Note_on_c, 9, 42, 110
10, 107328, Note_on_c, 9, 46, 120
10, 107328, Note_on_c, 9, 51, 90
10, 107328, Note_on_c, 9, 41, 100
10, 107344, Note_on_c, 9, 41, 0
10, 107344, Note_on_c, 9, 46, 0
10, 107344, Note_on_c, 9, 35, 0
10, 107344, Note_on_c, 9, 42, 0
10, 107344, Note_on_c, 9, 51, 0
10, 107520, Note_on_c, 9, 35, 120
10, 107520, Note_on_c, 9, 38, 120
10, 107520, Note_on_c, 9, 42, 120
10, 107520, Note_on_c, 9, 51, 127
10, 107520, Note_on_c, 9, 49, 120
10, 107536, Note_on_c, 9, 49, 0
10, 107536, Note_on_c, 9, 42, 0
10, 107536, Note_on_c, 9, 35, 0
10, 107536, Note_on_c, 9, 38, 0
10, 107536, Note_on_c, 9, 51, 0
10, 107616, Note_on_c, 9, 41, 100
10, 107632, Note_on_c, 9, 41, 0
10, 107712, Note_on_c, 9, 35, 120
10, 107712, Note_on_c, 9, 42, 110
10, 107712, Note_on_c, 9, 51, 90
10, 107728, Note_on_c, 9, 51, 0
10, 107728, Note_on_c, 9, 42, 0
10, 107728, Note_on_c, 9, 35, 0
10, 107808, Note_on_c, 9, 38, 120
10, 107824, Note_on_c, 9, 38, 0
10, 107904, Note_on_c, 9, 42, 120
10, 107904, Note_on_c, 9, 51, 127
10, 107904, Note_on_c, 9, 57, 100
10, 107904, Note_on_c, 9, 41, 100
10, 107904, Note_on_c, 9, 39, 90
10, 107920, Note_on_c, 9, 39, 0
10, 107920, Note_on_c, 9, 57, 0
10, 107920, Note_on_c, 9, 42, 0
10, 107920, Note_on_c, 9, 51, 0
10, 107920, Note_on_c, 9, 41, 0
10, 108000, Note_on_c, 9, 35, 120
10, 108016, Note_on_c, 9, 35, 0
10, 108096, Note_on_c, 9, 38, 120
10, 108096, Note_on_c, 9, 42, 110
10, 108096, Note_on_c, 9, 51, 90
10, 108112, Note_on_c, 9, 51, 0
10, 108112, Note_on_c, 9, 42, 0
10, 108112, Note_on_c, 9, 38, 0
10, 108192, Note_on_c, 9, 41, 100
10, 108208, Note_on_c, 9, 41, 0
10, 108288, Note_on_c, 9, 35, 120
10, 108288, Note_on_c, 9, 38, 120
10, 108288, Note_on_c, 9, 42, 120
10, 108288, Note_on_c, 9, 51, 127
10, 108288, Note_on_c, 9, 49, 100
10, 108304, Note_on_c, 9, 49, 0
10, 108304, Note_on_c, 9, 42, 0
10, 108304, Note_on_c, 9, 35, 0
10, 108304, Note_on_c, 9, 38, 0
10, 108304, Note_on_c, 9, 51, 0
10, 108336, Note_on_c, 9, 35, 120
10, 108352, Note_on_c, 9, 35, 0
10, 108384, Note_on_c, 9, 41, 100
10, 108400, Note_on_c, 9, 41, 0
10, 108480, Note_on_c, 9, 35, 120
10, 108480, Note_on_c, 9, 42, 110
10, 108480, Note_on_c, 9, 51, 90
10, 108496, Note_on_c, 9, 51, 0
10, 108496, Note_on_c, 9, 42, 0
10, 108496, Note_on_c, 9, 35, 0
10, 108528, Note_on_c, 9, 35, 100
10, 108544, Note_on_c, 9, 35, 0
10, 108576, Note_on_c, 9, 38, 120
10, 108592, Note_on_c, 9, 38, 0
10, 108672, Note_on_c, 9, 42, 120
10, 108672, Note_on_c, 9, 51, 127
10, 108672, Note_on_c, 9, 57, 100
10, 108672, Note_on_c, 9, 41, 100
10, 108672, Note_on_c, 9, 39, 90
10, 108688, Note_on_c, 9, 39, 0
10, 108688, Note_on_c, 9, 57, 0
10, 108688, Note_on_c, 9, 42, 0
10, 108688, Note_on_c, 9, 51, 0
10, 108688, Note_on_c, 9, 41, 0
10, 108768, Note_on_c, 9, 35, 120
10, 108784, Note_on_c, 9, 35, 0
10, 108816, Note_on_c, 9, 35, 100
10, 108832, Note_on_c, 9, 35, 0
10, 108864, Note_on_c, 9, 38, 120
10, 108864, Note_on_c, 9, 42, 110
10, 108864, Note_on_c, 9, 51, 90
10, 108880, Note_on_c, 9, 51, 0
10, 108880, Note_on_c, 9, 42, 0
10, 108880, Note_on_c, 9, 38, 0
10, 108960, Note_on_c, 9, 41, 80
10, 108976, Note_on_c, 9, 41, 0
10, 109056, Note_on_c, 9, 35, 120
10, 109056, Note_on_c, 9, 38, 120
10, 109056, Note_on_c, 9, 42, 120
10, 109056, Note_on_c, 9, 51, 127
10, 109056, Note_on_c, 9, 49, 120
10, 109072, Note_on_c, 9, 49, 0
10, 109072, Note_on_c, 9, 42, 0
10, 109072, Note_on_c, 9, 35, 0
10, 109072, Note_on_c, 9, 38, 0
10, 109072, Note_on_c, 9, 51, 0
10, 109152, Note_on_c, 9, 41, 100
10, 109168, Note_on_c, 9, 41, 0
10, 109248, Note_on_c, 9, 35, 120
10, 109248, Note_on_c, 9, 42, 110
10, 109248, Note_on_c, 9, 51, 90
10, 109264, Note_on_c, 9, 51, 0
10, 109264, Note_on_c, 9, 42, 0
10, 109264, Note_on_c, 9, 35, 0
10, 109344, Note_on_c, 9, 38, 120
10, 109360, Note_on_c, 9, 38, 0
10, 109440, Note_on_c, 9, 42, 120
10, 109440, Note_on_c, 9, 51, 127
10, 109440, Note_on_c, 9, 57, 100
10, 109440, Note_on_c, 9, 41, 100
10, 109440, Note_on_c, 9, 39, 90
10, 109456, Note_on_c, 9, 39, 0
10, 109456, Note_on_c, 9, 57, 0
10, 109456, Note_on_c, 9, 42, 0
10, 109456, Note_on_c, 9, 51, 0
10, 109456, Note_on_c, 9, 41, 0
10, 109536, Note_on_c, 9, 35, 120
10, 109552, Note_on_c, 9, 35, 0
10, 109632, Note_on_c, 9, 38, 120
10, 109632, Note_on_c, 9, 42, 110
10, 109632, Note_on_c, 9, 51, 90
10, 109648, Note_on_c, 9, 51, 0
10, 109648, Note_on_c, 9, 42, 0
10, 109648, Note_on_c, 9, 38, 0
10, 109728, Note_on_c, 9, 41, 100
10, 109744, Note_on_c, 9, 41, 0
10, 109824, Note_on_c, 9, 35, 120
10, 109824, Note_on_c, 9, 38, 120
10, 109824, Note_on_c, 9, 42, 120
10, 109824, Note_on_c, 9, 51, 127
10, 109824, Note_on_c, 9, 49, 100
10, 109840, Note_on_c, 9, 49, 0
10, 109840, Note_on_c, 9, 42, 0
10, 109840, Note_on_c, 9, 35, 0
10, 109840, Note_on_c, 9, 38, 0
10, 109840, Note_on_c, 9, 51, 0
10, 109872, Note_on_c, 9, 35, 120
10, 109888, Note_on_c, 9, 35, 0
10, 109920, Note_on_c, 9, 41, 100
10, 109936, Note_on_c, 9, 41, 0
10, 110016, Note_on_c, 9, 35, 120
10, 110016, Note_on_c, 9, 42, 110
10, 110016, Note_on_c, 9, 51, 90
10, 110032, Note_on_c, 9, 51, 0
10, 110032, Note_on_c, 9, 42, 0
10, 110032, Note_on_c, 9, 35, 0
10, 110064, Note_on_c, 9, 35, 100
10, 110080, Note_on_c, 9, 35, 0
10, 110112, Note_on_c, 9, 38, 120
10, 110128, Note_on_c, 9, 38, 0
10, 110208, Note_on_c, 9, 42, 120
10, 110208, Note_on_c, 9, 51, 127
10, 110208, Note_on_c, 9, 57, 100
10, 110208, Note_on_c, 9, 41, 100
10, 110208, Note_on_c, 9, 39, 90
10, 110224, Note_on_c, 9, 39, 0
10, 110224, Note_on_c, 9, 57, 0
10, 110224, Note_on_c, 9, 42, 0
10, 110224, Note_on_c, 9, 51, 0
10, 110224, Note_on_c, 9, 41, 0
10, 110304, Note_on_c, 9, 35, 120
10, 110320, Note_on_c, 9, 35, 0
10, 110352, Note_on_c, 9, 35, 100
10, 110368, Note_on_c, 9, 35, 0
10, 110400, Note_on_c, 9, 38, 120
10, 110400, Note_on_c, 9, 42, 110
10, 110400, Note_on_c, 9, 51, 90
10, 110416, Note_on_c, 9, 51, 0
10, 110416, Note_on_c, 9, 42, 0
10, 110416, Note_on_c, 9, 38, 0
10, 110496, Note_on_c, 9, 41, 80
10, 110512, Note_on_c, 9, 41, 0
10, 110592, Note_on_c, 9, 35, 120
10, 110592, Note_on_c, 9, 42, 120
10, 110592, Note_on_c, 9, 51, 127
10, 110592, Note_on_c, 9, 49, 120
10, 110608, Note_on_c, 9, 49, 0
10, 110608, Note_on_c, 9, 35, 0
10, 110608, Note_on_c, 9, 42, 0
10, 110608, Note_on_c, 9, 51, 0
10, 110784, Note_on_c, 9, 42, 110
10, 110784, Note_on_c, 9, 51, 90
10, 110800, Note_on_c, 9, 51, 0
10, 110800, Note_on_c, 9, 42, 0
10, 110976, Note_on_c, 9, 38, 120
10, 110976, Note_on_c, 9, 42, 120
10, 110976, Note_on_c, 9, 51, 127
10, 110976, Note_on_c, 9, 39, 90
10, 110992, Note_on_c, 9, 39, 0
10, 110992, Note_on_c, 9, 38, 0
10, 110992, Note_on_c, 9, 42, 0
10, 110992, Note_on_c, 9, 51, 0
10, 111168, Note_on_c, 9, 35, 100
10, 111168, Note_on_c, 9, 42, 110
10, 111168, Note_on_c, 9, 51, 90
10, 111184, Note_on_c, 9, 51, 0
10, 111184, Note_on_c, 9, 42, 0
10, 111184, Note_on_c, 9, 35, 0
10, 111360, Note_on_c, 9, 35, 120
10, 111360, Note_on_c, 9, 42, 120
10, 111360, Note_on_c, 9, 51, 127
10, 111376, Note_on_c, 9, 51, 0
10, 111376, Note_on_c, 9, 42, 0
10, 111376, Note_on_c, 9, 35, 0
10, 111552, Note_on_c, 9, 42, 110
10, 111552, Note_on_c, 9, 51, 90
10, 111568, Note_on_c, 9, 51, 0
10, 111568, Note_on_c, 9, 42, 0
10, 111744, Note_on_c, 9, 38, 120
10, 111744, Note_on_c, 9, 42, 120
10, 111744, Note_on_c, 9, 51, 127
10, 111744, Note_on_c, 9, 39, 90
10, 111760, Note_on_c, 9, 39, 0
10, 111760, Note_on_c, 9, 38, 0
10, 111760, Note_on_c, 9, 42, 0
10, 111760, Note_on_c, 9, 51, 0
10, 111936, Note_on_c, 9, 35, 100
10, 111936, Note_on_c, 9, 42, 110
10, 111936, Note_on_c, 9, 51, 90
10, 111952, Note_on_c, 9, 51, 0
10, 111952, Note_on_c, 9, 42, 0
10, 111952, Note_on_c, 9, 35, 0
10, 112128, Note_on_c, 9, 35, 120
10, 112128, Note_on_c, 9, 38, 110
10, 112128, Note_on_c, 9, 42, 120
10, 112128, Note_on_c, 9, 51, 127
10, 112144, Note_on_c, 9, 51, 0
10, 112144, Note_on_c, 9, 35, 0
10, 112144, Note_on_c, 9, 38, 0
10, 112144, Note_on_c, 9, 42, 0
10, 112224, Note_on_c, 9, 38, 80
10, 112240, Note_on_c, 9, 38, 0
10, 112272, Note_on_c, 9, 38, 80
10, 112288, Note_on_c, 9, 38, 0
10, 112320, Note_on_c, 9, 38, 127
10, 112320, Note_on_c, 9, 42, 110
10, 112320, Note_on_c, 9, 51, 90
10, 112336, Note_on_c, 9, 51, 0
10, 112336, Note_on_c, 9, 42, 0
10, 112336, Note_on_c, 9, 38, 0
10, 112416, Note_on_c, 9, 38, 120
10, 112432, Note_on_c, 9, 38, 0
10, 112512, Note_on_c, 9, 38, 80
10, 112512, Note_on_c, 9, 42, 120
10, 112512, Note_on_c, 9, 51, 127
10, 112512, Note_on_c, 9, 39, 90
10, 112528, Note_on_c, 9, 39, 0
10, 112528, Note_on_c, 9, 38, 0
10, 112528, Note_on_c, 9, 42, 0
10, 112528, Note_on_c, 9, 51, 0
10, 112560, Note_on_c, 9, 38, 90
10, 112576, Note_on_c, 9, 38, 0
10, 112608, Note_on_c, 9, 38, 100
10, 112624, Note_on_c, 9, 38, 0
10, 112704, Note_on_c, 9, 38, 127
10, 112704, Note_on_c, 9, 42, 110
10, 112704, Note_on_c, 9, 51, 90
10, 112720, Note_on_c, 9, 51, 0
10, 112720, Note_on_c, 9, 42, 0
10, 112720, Note_on_c, 9, 38, 0
10, 112800, Note_on_c, 9, 35, 110
10, 112800, Note_on_c, 9, 38, 80
10, 112816, Note_on_c, 9, 38, 0
10, 112816, Note_on_c, 9, 35, 0
10, 112848, Note_on_c, 9, 38, 80
10, 112864, Note_on_c, 9, 38, 0
10, 112896, Note_on_c, 9, 35, 120
10, 112896, Note_on_c, 9, 38, 100
10, 112896, Note_on_c, 9, 42, 120
10, 112896, Note_on_c, 9, 51, 127
10, 112912, Note_on_c, 9, 51, 0
10, 112912, Note_on_c, 9, 35, 0
10, 112912, Note_on_c, 9, 38, 0
10, 112912, Note_on_c, 9, 42, 0
10, 112992, Note_on_c, 9, 38, 127
10, 113008, Note_on_c, 9, 38, 0
10, 113088, Note_on_c, 9, 38, 80
10, 113088, Note_on_c, 9, 42, 110
10, 113088, Note_on_c, 9, 51, 90
10, 113104, Note_on_c, 9, 51, 0
10, 113104, Note_on_c, 9, 42, 0
10, 113104, Note_on_c, 9, 38, 0
10, 113136, Note_on_c, 9, 38, 80
10, 113152, Note_on_c, 9, 38, 0
10, 113184, Note_on_c, 9, 38, 120
10, 113200, Note_on_c, 9, 38, 0
10, 113280, Note_on_c, 9, 38, 127
10, 113280, Note_on_c, 9, 42, 120
10, 113280, Note_on_c, 9, 51, 127
10, 113296, Note_on_c, 9, 51, 0
10, 113296, Note_on_c, 9, 42, 0
10, 113296, Note_on_c, 9, 38, 0
10, 113328, Note_on_c, 9, 38, 80
10, 113344, Note_on_c, 9, 38, 0
10, 113376, Note_on_c, 9, 38, 110
10, 113392, Note_on_c, 9, 38, 0
10, 113424, Note_on_c, 9, 38, 80
10, 113440, Note_on_c, 9, 38, 0
10, 113472, Note_on_c, 9, 35, 100
10, 113472, Note_on_c, 9, 38, 80
10, 113472, Note_on_c, 9, 42, 110
10, 113472, Note_on_c, 9, 46, 120
10, 113472, Note_on_c, 9, 51, 90
10, 113488, Note_on_c, 9, 51, 0
10, 113488, Note_on_c, 9, 42, 0
10, 113488, Note_on_c, 9, 35, 0
10, 113488, Note_on_c, 9, 38, 0
10, 113488, Note_on_c, 9, 46, 0
10, 113520, Note_on_c, 9, 38, 80
10, 113536, Note_on_c, 9, 38, 0
10, 113568, Note_on_c, 9, 38, 110
10, 113584, Note_on_c, 9, 38, 0
10, 113616, Note_on_c, 9, 38, 90
10, 113632, Note_on_c, 9, 38, 0
10, 113664, Note_on_c, 9, 35, 120
10, 113664, Note_on_c, 9, 49, 120
10, 113680, Note_on_c, 9, 49, 0
10, 113680, Note_on_c, 9, 35, 0
10, 115104, Note_on_c, 9, 45, 100
10, 115120, Note_on_c, 9, 45, 0
10, 115152, Note_on_c, 9, 41, 90
10, 115168, Note_on_c, 9, 41, 0
10, 115200, Note_on_c, 9, 35, 120
10, 115200, Note_on_c, 9, 49, 90
10, 115216, Note_on_c, 9, 49, 0
10, 115216, Note_on_c, 9, 35, 0
10, 115216, End_track
11, 0, Start_track
11, 0, MIDI_port, 0
11, 0, Title_t, "VOICE"
11, 0, Control_c, 3, 0, 0
11, 0, Control_c, 3, 32, 0
11, 0, Program_c, 3, 66
11, 0, Control_c, 3, 7, 120
11, 0, Control_c, 3, 10, 64
11, 0, Control_c, 3, 91, 127
11, 0, Control_c, 3, 93, 55
11, 6628, Note_on_c, 3, 60, 119
11, 6788, Note_on_c, 3, 59, 89
11, 6792, Note_on_c, 3, 60, 0
11, 6952, Note_on_c, 3, 59, 0
11, 7024, Note_on_c, 3, 59, 114
11, 7200, Note_on_c, 3, 59, 0
11, 8344, Note_on_c, 3, 57, 94
11, 8380, Note_on_c, 3, 57, 0
11, 8436, Note_on_c, 3, 57, 114
11, 8476, Note_on_c, 3, 57, 0
11, 8532, Note_on_c, 3, 57, 89
11, 8576, Note_on_c, 3, 57, 0
11, 8632, Note_on_c, 3, 57, 100
11, 8676, Note_on_c, 3, 57, 0
11, 8732, Note_on_c, 3, 57, 107
11, 8776, Note_on_c, 3, 57, 0
11, 8844, Note_on_c, 3, 57, 119
11, 8936, Note_on_c, 3, 57, 0
11, 9212, Note_on_c, 3, 56, 106
11, 9292, Note_on_c, 3, 56, 0
11, 9316, Note_on_c, 3, 52, 107
11, 9400, Note_on_c, 3, 52, 0
11, 9452, Note_on_c, 3, 52, 114
11, 9708, Note_on_c, 3, 52, 0
11, 12776, Note_on_c, 3, 60, 123
11, 12940, Note_on_c, 3, 60, 0
11, 12944, Note_on_c, 3, 59, 103
11, 13124, Note_on_c, 3, 59, 0
11, 13192, Note_on_c, 3, 59, 114
11, 13448, Note_on_c, 3, 59, 0
11, 14304, Note_on_c, 3, 57, 94
11, 14336, Note_on_c, 3, 57, 0
11, 14400, Note_on_c, 3, 57, 123
11, 14460, Note_on_c, 3, 57, 0
11, 14588, Note_on_c, 3, 57, 127
11, 14628, Note_on_c, 3, 57, 0
11, 14680, Note_on_c, 3, 57, 103
11, 14720, Note_on_c, 3, 57, 0
11, 14776, Note_on_c, 3, 57, 107
11, 14820, Note_on_c, 3, 57, 0
11, 14864, Note_on_c, 3, 57, 100
11, 14908, Note_on_c, 3, 57, 0
11, 14968, Note_on_c, 3, 57, 119
11, 15028, Note_on_c, 3, 57, 0
11, 15360, Note_on_c, 3, 56, 93
11, 15436, Note_on_c, 3, 56, 0
11, 15452, Note_on_c, 3, 52, 103
11, 15524, Note_on_c, 3, 52, 0
11, 15576, Note_on_c, 3, 55, 107
11, 15784, Note_on_c, 3, 55, 0
11, 15816, Note_on_c, 3, 56, 93
11, 15972, Note_on_c, 3, 56, 0
11, 16448, Pitch_bend_c, 3, 8191
11, 16464, Pitch_bend_c, 3, 5812
11, 16480, Pitch_bend_c, 3, 2642
11, 16496, Pitch_bend_c, 3, 0
11, 16508, Note_on_c, 3, 52, 77
11, 16544, Pitch_bend_c, 3, 264
11, 16560, Pitch_bend_c, 3, 3699
11, 16572, Pitch_bend_c, 3, 7398
11, 16588, Pitch_bend_c, 3, 8192
11, 16716, Control_c, 3, 1, 115
11, 16748, Control_c, 3, 1, 124
11, 16812, Control_c, 3, 1, 125
11, 17000, Control_c, 3, 1, 111
11, 17032, Control_c, 3, 1, 0
11, 17240, Note_on_c, 3, 52, 0
11, 17748, Pitch_bend_c, 3, 8192
11, 18816, Note_on_c, 3, 60, 114
11, 18860, Note_on_c, 3, 60, 0
11, 18920, Note_on_c, 3, 60, 114
11, 18980, Note_on_c, 3, 60, 0
11, 19024, Note_on_c, 3, 60, 107
11, 19076, Note_on_c, 3, 60, 0
11, 19128, Note_on_c, 3, 60, 114
11, 19200, Note_on_c, 3, 60, 0
11, 19248, Note_on_c, 3, 62, 110
11, 19332, Note_on_c, 3, 62, 0
11, 19352, Note_on_c, 3, 59, 92
11, 19444, Note_on_c, 3, 59, 0
11, 19496, Note_on_c, 3, 59, 114
11, 19632, Note_on_c, 3, 59, 0
11, 19672, Note_on_c, 3, 55, 79
11, 19724, Note_on_c, 3, 55, 0
11, 20444, Note_on_c, 3, 57, 114
11, 20480, Note_on_c, 3, 57, 0
11, 20552, Note_on_c, 3, 57, 127
11, 20608, Note_on_c, 3, 57, 0
11, 20624, Note_on_c, 3, 55, 100
11, 20676, Note_on_c, 3, 55, 0
11, 20752, Note_on_c, 3, 57, 127
11, 20804, Note_on_c, 3, 57, 0
11, 20816, Note_on_c, 3, 55, 94
11, 20868, Note_on_c, 3, 55, 0
11, 20892, Note_on_c, 3, 57, 107
11, 20948, Note_on_c, 3, 57, 0
11, 20948, Note_on_c, 3, 55, 97
11, 21000, Note_on_c, 3, 55, 0
11, 21028, Note_on_c, 3, 57, 123
11, 21160, Note_on_c, 3, 57, 0
11, 21232, Note_on_c, 3, 57, 114
11, 21272, Note_on_c, 3, 57, 0
11, 21340, Note_on_c, 3, 57, 110
11, 21424, Note_on_c, 3, 57, 0
11, 21464, Note_on_c, 3, 56, 106
11, 21516, Note_on_c, 3, 56, 0
11, 21548, Note_on_c, 3, 52, 107
11, 21588, Note_on_c, 3, 52, 0
11, 21636, Note_on_c, 3, 52, 107
11, 21884, Note_on_c, 3, 52, 0
11, 23156, Pitch_bend_c, 3, 7662
11, 23172, Pitch_bend_c, 3, 4227
11, 23188, Pitch_bend_c, 3, 0
11, 23212, Note_on_c, 3, 56, 77
11, 23256, Pitch_bend_c, 3, 3699
11, 23272, Pitch_bend_c, 3, 7398
11, 23284, Pitch_bend_c, 3, 8192
11, 23368, Note_on_c, 3, 56, 0
11, 24576, Pitch_bend_c, 3, 8192
11, 24864, Note_on_c, 3, 60, 110
11, 24908, Note_on_c, 3, 60, 0
11, 24984, Note_on_c, 3, 60, 123
11, 25036, Note_on_c, 3, 60, 0
11, 25088, Note_on_c, 3, 60, 103
11, 25136, Note_on_c, 3, 60, 0
11, 25196, Note_on_c, 3, 60, 103
11, 25268, Note_on_c, 3, 60, 0
11, 25304, Note_on_c, 3, 62, 94
11, 25380, Note_on_c, 3, 62, 0
11, 25396, Note_on_c, 3, 59, 92
11, 25448, Note_on_c, 3, 59, 0
11, 25524, Note_on_c, 3, 59, 107
11, 25660, Note_on_c, 3, 59, 0
11, 25672, Note_on_c, 3, 55, 81
11, 25732, Note_on_c, 3, 55, 0
11, 25740, Note_on_c, 3, 59, 79
11, 25904, Note_on_c, 3, 59, 0
11, 26592, Note_on_c, 3, 57, 110
11, 26636, Note_on_c, 3, 57, 0
11, 26704, Note_on_c, 3, 57, 119
11, 26780, Note_on_c, 3, 55, 83
11, 26788, Note_on_c, 3, 57, 0
11, 26836, Note_on_c, 3, 55, 0
11, 26896, Note_on_c, 3, 57, 110
11, 26956, Note_on_c, 3, 57, 0
11, 26964, Note_on_c, 3, 55, 97
11, 27028, Note_on_c, 3, 55, 0
11, 27052, Note_on_c, 3, 57, 107
11, 27112, Note_on_c, 3, 57, 0
11, 27116, Note_on_c, 3, 55, 100
11, 27172, Note_on_c, 3, 55, 0
11, 27188, Note_on_c, 3, 57, 97
11, 27364, Note_on_c, 3, 57, 0
11, 27400, Note_on_c, 3, 57, 89
11, 27420, Note_on_c, 3, 57, 0
11, 27472, Note_on_c, 3, 57, 107
11, 27532, Note_on_c, 3, 57, 0
11, 27668, Note_on_c, 3, 56, 93
11, 27728, Note_on_c, 3, 56, 0
11, 27744, Note_on_c, 3, 52, 85
11, 27812, Note_on_c, 3, 52, 0
11, 27852, Note_on_c, 3, 56, 101
11, 28184, Note_on_c, 3, 56, 0
11, 31052, Note_on_c, 3, 55, 81
11, 31124, Note_on_c, 3, 55, 0
11, 31136, Note_on_c, 3, 64, 119
11, 31276, Note_on_c, 3, 62, 107
11, 31288, Note_on_c, 3, 64, 0
11, 31632, Note_on_c, 3, 62, 0
11, 31660, Note_on_c, 3, 64, 103
11, 31904, Pitch_bend_c, 3, 8191
11, 31920, Pitch_bend_c, 3, 7134
11, 31936, Pitch_bend_c, 3, 6077
11, 31952, Pitch_bend_c, 3, 4756
11, 31968, Pitch_bend_c, 3, 3170
11, 31984, Pitch_bend_c, 3, 1585
11, 31988, Note_on_c, 3, 64, 0
11, 32004, Pitch_bend_c, 3, 0
11, 32096, Pitch_bend_c, 3, 1585
11, 32112, Pitch_bend_c, 3, 6605
11, 32128, Pitch_bend_c, 3, 8192
11, 32912, Note_on_c, 3, 57, 83
11, 32968, Note_on_c, 3, 57, 0
11, 33012, Note_on_c, 3, 62, 107
11, 33088, Note_on_c, 3, 62, 0
11, 33128, Note_on_c, 3, 62, 107
11, 33200, Note_on_c, 3, 62, 0
11, 33268, Note_on_c, 3, 62, 107
11, 33364, Note_on_c, 3, 62, 0
11, 33432, Note_on_c, 3, 61, 93
11, 33512, Note_on_c, 3, 61, 0
11, 33580, Note_on_c, 3, 61, 89
11, 33680, Note_on_c, 3, 61, 0
11, 33772, Note_on_c, 3, 59, 107
11, 33864, Note_on_c, 3, 59, 0
11, 33880, Note_on_c, 3, 56, 86
11, 33940, Note_on_c, 3, 56, 0
11, 33988, Note_on_c, 3, 61, 93
11, 34224, Pitch_bend_c, 3, 8191
11, 34240, Pitch_bend_c, 3, 7398
11, 34256, Note_on_c, 3, 61, 0
11, 34260, Pitch_bend_c, 3, 6341
11, 34272, Pitch_bend_c, 3, 5284
11, 34288, Pitch_bend_c, 3, 3963
11, 34304, Pitch_bend_c, 3, 2906
11, 34320, Pitch_bend_c, 3, 1849
11, 34336, Pitch_bend_c, 3, 792
11, 34352, Pitch_bend_c, 3, 0
11, 34368, Note_on_c, 3, 59, 81
11, 34376, Pitch_bend_c, 3, 1056
11, 34392, Pitch_bend_c, 3, 3699
11, 34408, Pitch_bend_c, 3, 7134
11, 34424, Pitch_bend_c, 3, 8192
11, 34444, Note_on_c, 3, 59, 0
11, 34464, Note_on_c, 3, 56, 67
11, 34504, Note_on_c, 3, 56, 0
11, 34560, Note_on_c, 3, 59, 97
11, 34640, Note_on_c, 3, 59, 0
11, 34660, Note_on_c, 3, 56, 71
11, 34704, Note_on_c, 3, 56, 0
11, 34748, Note_on_c, 3, 61, 93
11, 34940, Pitch_bend_c, 3, 7662
11, 34956, Pitch_bend_c, 3, 6869
11, 34972, Pitch_bend_c, 3, 6341
11, 34988, Pitch_bend_c, 3, 5548
11, 35004, Pitch_bend_c, 3, 4491
11, 35020, Pitch_bend_c, 3, 3170
11, 35036, Pitch_bend_c, 3, 2113
11, 35044, Note_on_c, 3, 61, 0
11, 35052, Pitch_bend_c, 3, 1056
11, 35068, Pitch_bend_c, 3, 0
11, 35120, Pitch_bend_c, 3, 1849
11, 35132, Pitch_bend_c, 3, 6077
11, 35152, Pitch_bend_c, 3, 8192
11, 37196, Note_on_c, 3, 55, 81
11, 37268, Note_on_c, 3, 55, 0
11, 37280, Note_on_c, 3, 64, 119
11, 37420, Note_on_c, 3, 62, 107
11, 37432, Note_on_c, 3, 64, 0
11, 37776, Note_on_c, 3, 62, 0
11, 37804, Note_on_c, 3, 64, 103
11, 38048, Pitch_bend_c, 3, 8191
11, 38064, Pitch_bend_c, 3, 7134
11, 38080, Pitch_bend_c, 3, 6077
11, 38096, Pitch_bend_c, 3, 4756
11, 38112, Pitch_bend_c, 3, 3170
11, 38128, Pitch_bend_c, 3, 1585
11, 38132, Note_on_c, 3, 64, 0
11, 38148, Pitch_bend_c, 3, 0
11, 38240, Pitch_bend_c, 3, 1585
11, 38256, Pitch_bend_c, 3, 8269
11, 39056, Note_on_c, 3, 57, 83
11, 39112, Note_on_c, 3, 57, 0
11, 39156, Note_on_c, 3, 62, 107
11, 39232, Note_on_c, 3, 62, 0
11, 39272, Note_on_c, 3, 62, 107
11, 39344, Note_on_c, 3, 62, 0
11, 39412, Note_on_c, 3, 62, 107
11, 39508, Note_on_c, 3, 62, 0
11, 39576, Note_on_c, 3, 61, 93
11, 39656, Note_on_c, 3, 61, 0
11, 39724, Note_on_c, 3, 61, 89
11, 39824, Note_on_c, 3, 61, 0
11, 39916, Note_on_c, 3, 59, 107
11, 40008, Note_on_c, 3, 59, 0
11, 40024, Note_on_c, 3, 56, 86
11, 40084, Note_on_c, 3, 56, 0
11, 40132, Note_on_c, 3, 61, 93
11, 40332, Pitch_bend_c, 3, 8191
11, 40348, Pitch_bend_c, 3, 7398
11, 40364, Pitch_bend_c, 3, 6605
11, 40380, Pitch_bend_c, 3, 5284
11, 40396, Pitch_bend_c, 3, 3699
11, 40400, Note_on_c, 3, 61, 0
11, 40412, Pitch_bend_c, 3, 1849
11, 40428, Pitch_bend_c, 3, 0
11, 40484, Pitch_bend_c, 3, 1321
11, 40500, Pitch_bend_c, 3, 6605
11, 40504, Note_on_c, 3, 59, 103
11, 40516, Pitch_bend_c, 3, 8192
11, 40556, Note_on_c, 3, 59, 0
11, 40636, Note_on_c, 3, 56, 89
11, 40668, Note_on_c, 3, 56, 0
11, 40724, Note_on_c, 3, 59, 107
11, 40780, Note_on_c, 3, 59, 0
11, 40792, Note_on_c, 3, 59, 69
11, 40836, Note_on_c, 3, 59, 0
11, 40864, Note_on_c, 3, 56, 85
11, 40896, Note_on_c, 3, 56, 0
11, 40944, Note_on_c, 3, 59, 110
11, 41116, Pitch_bend_c, 3, 7398
11, 41132, Pitch_bend_c, 3, 5812
11, 41140, Note_on_c, 3, 59, 0
11, 41148, Pitch_bend_c, 3, 4227
11, 41164, Pitch_bend_c, 3, 2113
11, 41180, Pitch_bend_c, 3, 0
11, 41252, Pitch_bend_c, 3, 2642
11, 41268, Pitch_bend_c, 3, 6605
11, 41284, Pitch_bend_c, 3, 8192
11, 43008, Pitch_bend_c, 3, 8192
11, 43532, Note_on_c, 3, 64, 110
11, 43600, Note_on_c, 3, 64, 0
11, 43700, Note_on_c, 3, 64, 114
11, 43792, Note_on_c, 3, 64, 0
11, 43872, Note_on_c, 3, 62, 100
11, 44028, Note_on_c, 3, 62, 0
11, 44056, Note_on_c, 3, 59, 79
11, 44108, Note_on_c, 3, 59, 0
11, 44160, Note_on_c, 3, 62, 94
11, 44308, Note_on_c, 3, 62, 0
11, 44312, Note_on_c, 3, 55, 60
11, 44392, Note_on_c, 3, 55, 0
11, 45224, Note_on_c, 3, 62, 87
11, 45256, Note_on_c, 3, 62, 0
11, 45316, Note_on_c, 3, 62, 87
11, 45348, Note_on_c, 3, 62, 0
11, 45408, Note_on_c, 3, 62, 89
11, 45436, Note_on_c, 3, 62, 0
11, 45516, Note_on_c, 3, 62, 110
11, 45656, Note_on_c, 3, 62, 0
11, 45692, Note_on_c, 3, 61, 74
11, 45720, Note_on_c, 3, 61, 0
11, 45788, Note_on_c, 3, 61, 82
11, 45816, Note_on_c, 3, 61, 0
11, 45896, Note_on_c, 3, 61, 101
11, 45996, Note_on_c, 3, 61, 0
11, 46088, Note_on_c, 3, 61, 93
11, 46124, Note_on_c, 3, 61, 0
11, 46188, Note_on_c, 3, 59, 110
11, 46228, Note_on_c, 3, 59, 0
11, 46292, Note_on_c, 3, 59, 100
11, 46448, Note_on_c, 3, 59, 0
11, 46488, Note_on_c, 3, 61, 93
11, 46684, Note_on_c, 3, 61, 0
11, 49680, Note_on_c, 3, 64, 114
11, 49740, Note_on_c, 3, 64, 0
11, 49852, Note_on_c, 3, 64, 114
11, 50012, Note_on_c, 3, 64, 0
11, 50032, Note_on_c, 3, 62, 85
11, 50168, Note_on_c, 3, 62, 0
11, 50200, Note_on_c, 3, 59, 85
11, 50248, Note_on_c, 3, 59, 0
11, 50328, Note_on_c, 3, 62, 103
11, 50444, Note_on_c, 3, 62, 0
11, 50456, Note_on_c, 3, 55, 68
11, 50584, Note_on_c, 3, 55, 0
11, 51148, Note_on_c, 3, 62, 87
11, 51180, Note_on_c, 3, 62, 0
11, 51240, Note_on_c, 3, 62, 89
11, 51272, Note_on_c, 3, 62, 0
11, 51328, Note_on_c, 3, 62, 89
11, 51368, Note_on_c, 3, 62, 0
11, 51452, Note_on_c, 3, 62, 119
11, 51524, Note_on_c, 3, 62, 0
11, 51548, Note_on_c, 3, 61, 79
11, 51584, Note_on_c, 3, 61, 0
11, 51644, Note_on_c, 3, 61, 93
11, 51748, Note_on_c, 3, 61, 0
11, 51804, Note_on_c, 3, 61, 82
11, 51836, Note_on_c, 3, 61, 0
11, 51880, Note_on_c, 3, 61, 79
11, 51936, Note_on_c, 3, 59, 94
11, 51940, Note_on_c, 3, 61, 0
11, 51972, Note_on_c, 3, 59, 0
11, 52032, Note_on_c, 3, 59, 77
11, 52092, Note_on_c, 3, 59, 0
11, 52212, Note_on_c, 3, 61, 93
11, 52404, Note_on_c, 3, 61, 0
11, 53128, Note_on_c, 3, 64, 89
11, 53160, Note_on_c, 3, 64, 0
11, 53196, Note_on_c, 3, 64, 103
11, 53260, Note_on_c, 3, 64, 0
11, 53364, Note_on_c, 3, 64, 119
11, 53404, Note_on_c, 3, 64, 0
11, 53440, Note_on_c, 3, 64, 85
11, 53488, Note_on_c, 3, 64, 0
11, 53492, Note_on_c, 3, 62, 110
11, 53532, Note_on_c, 3, 62, 0
11, 53572, Note_on_c, 3, 64, 119
11, 53696, Note_on_c, 3, 64, 0
11, 54328, Note_on_c, 3, 64, 94
11, 54444, Note_on_c, 3, 64, 0
11, 54528, Note_on_c, 3, 68, 97
11, 54668, Note_on_c, 3, 68, 0
11, 54676, Note_on_c, 3, 56, 71
11, 54808, Note_on_c, 3, 56, 0
11, 59196, Pitch_bend_c, 3, 7662
11, 59212, Pitch_bend_c, 3, 3699
11, 59228, Pitch_bend_c, 3, 0
11, 59228, Note_on_c, 3, 68, 71
11, 59280, Pitch_bend_c, 3, 1585
11, 59292, Pitch_bend_c, 3, 6077
11, 59308, Pitch_bend_c, 3, 8192
11, 59500, Note_on_c, 3, 68, 0
11, 59508, Note_on_c, 3, 64, 97
11, 59660, Note_on_c, 3, 64, 0
11, 60040, Pitch_bend_c, 3, 8192
11, 74276, Pitch_bend_c, 3, 6869
11, 74292, Note_on_c, 3, 64, 94
11, 74296, Pitch_bend_c, 3, 0
11, 74344, Pitch_bend_c, 3, 2378
11, 74360, Pitch_bend_c, 3, 6341
11, 74376, Pitch_bend_c, 3, 8192
11, 74540, Note_on_c, 3, 64, 0
11, 74544, Note_on_c, 3, 62, 97
11, 74828, Note_on_c, 3, 62, 0
11, 74844, Note_on_c, 3, 64, 103
11, 75016, Note_on_c, 3, 64, 0
11, 76120, Note_on_c, 3, 62, 92
11, 76152, Note_on_c, 3, 62, 0
11, 76216, Note_on_c, 3, 62, 103
11, 76256, Note_on_c, 3, 62, 0
11, 76312, Note_on_c, 3, 62, 87
11, 76344, Note_on_c, 3, 62, 0
11, 76424, Note_on_c, 3, 62, 110
11, 76488, Note_on_c, 3, 62, 0
11, 76520, Note_on_c, 3, 61, 79
11, 76560, Note_on_c, 3, 61, 0
11, 76624, Note_on_c, 3, 61, 93
11, 76720, Note_on_c, 3, 61, 0
11, 76804, Note_on_c, 3, 61, 89
11, 76892, Note_on_c, 3, 61, 0
11, 76920, Note_on_c, 3, 59, 92
11, 77156, Note_on_c, 3, 59, 0
11, 77184, Note_on_c, 3, 61, 82
11, 77344, Note_on_c, 3, 61, 0
11, 77356, Note_on_c, 3, 59, 66
11, 77448, Note_on_c, 3, 59, 0
11, 77480, Note_on_c, 3, 56, 49
11, 77556, Note_on_c, 3, 56, 0
11, 77568, Note_on_c, 3, 59, 66
11, 77660, Note_on_c, 3, 59, 0
11, 77672, Note_on_c, 3, 56, 48
11, 77732, Note_on_c, 3, 56, 0
11, 77736, Note_on_c, 3, 59, 72
11, 77916, Note_on_c, 3, 59, 0
11, 77936, Note_on_c, 3, 61, 58
11, 78132, Note_on_c, 3, 61, 0
11, 78320, Pitch_bend_c, 3, 8192
11, 80420, Pitch_bend_c, 3, 6869
11, 80436, Note_on_c, 3, 64, 94
11, 80440, Pitch_bend_c, 3, 0
11, 80488, Pitch_bend_c, 3, 2378
11, 80504, Pitch_bend_c, 3, 6341
11, 80520, Pitch_bend_c, 3, 8192
11, 80684, Note_on_c, 3, 64, 0
11, 80688, Note_on_c, 3, 62, 97
11, 80820, Note_on_c, 3, 62, 0
11, 80832, Note_on_c, 3, 64, 103
11, 81004, Note_on_c, 3, 64, 0
11, 82264, Note_on_c, 3, 62, 92
11, 82296, Note_on_c, 3, 62, 0
11, 82360, Note_on_c, 3, 62, 103
11, 82400, Note_on_c, 3, 62, 0
11, 82456, Note_on_c, 3, 62, 87
11, 82488, Note_on_c, 3, 62, 0
11, 82568, Note_on_c, 3, 62, 110
11, 82632, Note_on_c, 3, 62, 0
11, 82664, Note_on_c, 3, 61, 79
11, 82704, Note_on_c, 3, 61, 0
11, 82768, Note_on_c, 3, 61, 93
11, 82864, Note_on_c, 3, 61, 0
11, 82948, Note_on_c, 3, 61, 89
11, 83036, Note_on_c, 3, 61, 0
11, 83064, Note_on_c, 3, 59, 92
11, 83300, Note_on_c, 3, 59, 0
11, 83328, Note_on_c, 3, 61, 82
11, 83488, Note_on_c, 3, 61, 0
11, 83500, Note_on_c, 3, 59, 66
11, 83592, Note_on_c, 3, 59, 0
11, 83624, Note_on_c, 3, 56, 49
11, 83700, Note_on_c, 3, 56, 0
11, 84096, Note_on_c, 3, 59, 66
11, 84184, Note_on_c, 3, 59, 0
11, 84220, Note_on_c, 3, 56, 49
11, 84292, Note_on_c, 3, 56, 0
11, 84304, Note_on_c, 3, 59, 66
11, 84396, Note_on_c, 3, 59, 0
11, 84408, Note_on_c, 3, 56, 48
11, 84468, Note_on_c, 3, 56, 0
11, 84472, Note_on_c, 3, 61, 72
11, 84652, Note_on_c, 3, 61, 0
11, 85544, Note_on_c, 3, 64, 97
11, 85596, Note_on_c, 3, 64, 0
11, 85632, Note_on_c, 3, 67, 77
11, 85708, Note_on_c, 3, 67, 0
11, 85728, Pitch_bend_c, 3, 8192
11, 85728, Note_on_c, 3, 55, 89
11, 85808, Note_on_c, 3, 55, 0
11, 86536, Note_on_c, 3, 64, 103
11, 86580, Note_on_c, 3, 64, 0
11, 86660, Note_on_c, 3, 67, 100
11, 86708, Note_on_c, 3, 67, 0
11, 86756, Note_on_c, 3, 64, 103
11, 86808, Note_on_c, 3, 64, 0
11, 86852, Note_on_c, 3, 67, 94
11, 86920, Note_on_c, 3, 67, 0
11, 86984, Note_on_c, 3, 67, 92
11, 87028, Note_on_c, 3, 67, 0
11, 87064, Note_on_c, 3, 55, 103
11, 87244, Note_on_c, 3, 55, 0
11, 88016, Pitch_bend_c, 3, 7398
11, 88032, Pitch_bend_c, 3, 3699
11, 88048, Pitch_bend_c, 3, 0
11, 88072, Note_on_c, 3, 67, 94
11, 88128, Pitch_bend_c, 3, 2113
11, 88144, Pitch_bend_c, 3, 6605
11, 88160, Pitch_bend_c, 3, 8192
11, 88220, Note_on_c, 3, 67, 0
11, 88268, Note_on_c, 3, 67, 94
11, 88504, Note_on_c, 3, 67, 0
11, 88784, Note_on_c, 3, 62, 81
11, 88864, Note_on_c, 3, 62, 0
11, 88904, Note_on_c, 3, 64, 103
11, 88984, Note_on_c, 3, 64, 0
11, 89012, Note_on_c, 3, 62, 87
11, 89064, Note_on_c, 3, 62, 0
11, 89140, Note_on_c, 3, 64, 103
11, 89200, Note_on_c, 3, 64, 0
11, 89252, Note_on_c, 3, 64, 97
11, 89336, Note_on_c, 3, 64, 0
11, 89368, Note_on_c, 3, 56, 89
11, 89504, Note_on_c, 3, 56, 0
11, 90704, Pitch_bend_c, 3, 5812
11, 90720, Pitch_bend_c, 3, 0
11, 90724, Note_on_c, 3, 64, 94
11, 90776, Pitch_bend_c, 3, 3170
11, 90792, Pitch_bend_c, 3, 6605
11, 90808, Pitch_bend_c, 3, 8192
11, 91028, Note_on_c, 3, 64, 0
11, 91032, Note_on_c, 3, 56, 67
11, 91036, Pitch_bend_c, 3, 8192
11, 91220, Note_on_c, 3, 56, 0
11, 92544, Note_on_c, 3, 64, 103
11, 92612, Note_on_c, 3, 64, 0
11, 92692, Note_on_c, 3, 67, 97
11, 92764, Note_on_c, 3, 67, 0
11, 92796, Note_on_c, 3, 64, 94
11, 92856, Note_on_c, 3, 64, 0
11, 92920, Note_on_c, 3, 67, 100
11, 93036, Note_on_c, 3, 67, 0
11, 93100, Note_on_c, 3, 67, 97
11, 93152, Note_on_c, 3, 67, 0
11, 93176, Note_on_c, 3, 55, 92
11, 93360, Note_on_c, 3, 55, 0
11, 94508, Pitch_bend_c, 3, 7926
11, 94524, Pitch_bend_c, 3, 4227
11, 94540, Pitch_bend_c, 3, 0
11, 94548, Note_on_c, 3, 71, 107
11, 94604, Pitch_bend_c, 3, 792
11, 94620, Pitch_bend_c, 3, 4491
11, 94636, Pitch_bend_c, 3, 7398
11, 94652, Pitch_bend_c, 3, 8192
11, 94752, Note_on_c, 3, 71, 0
11, 94776, Note_on_c, 3, 67, 107
11, 94960, Note_on_c, 3, 67, 0
11, 95124, Pitch_bend_c, 3, 4756
11, 95140, Pitch_bend_c, 3, 0
11, 95152, Note_on_c, 3, 64, 89
11, 95204, Pitch_bend_c, 3, 1849
11, 95220, Pitch_bend_c, 3, 6077
11, 95236, Pitch_bend_c, 3, 8192
11, 95280, Note_on_c, 3, 64, 0
11, 95304, Note_on_c, 3, 62, 74
11, 95400, Note_on_c, 3, 62, 0
11, 95468, Note_on_c, 3, 64, 102
11, 95564, Note_on_c, 3, 64, 0
11, 95616, Note_on_c, 3, 64, 88
11, 95788, Note_on_c, 3, 64, 0
11, 95816, Note_on_c, 3, 67, 96
11, 96024, Pitch_bend_c, 3, 7662
11, 96040, Pitch_bend_c, 3, 6605
11, 96056, Pitch_bend_c, 3, 5548
11, 96072, Pitch_bend_c, 3, 4491
11, 96088, Pitch_bend_c, 3, 3434
11, 96104, Pitch_bend_c, 3, 2642
11, 96120, Pitch_bend_c, 3, 1321
11, 96132, Note_on_c, 3, 67, 0
11, 96136, Pitch_bend_c, 3, 0
11, 96240, Pitch_bend_c, 3, 1849
11, 96256, Pitch_bend_c, 3, 6341
11, 96272, Pitch_bend_c, 3, 8192
11, 96448, Pitch_bend_c, 3, 6077
11, 96464, Pitch_bend_c, 3, 2378
11, 96484, Pitch_bend_c, 3, 0
11, 96504, Note_on_c, 3, 67, 71
11, 96532, Pitch_bend_c, 3, 2113
11, 96548, Pitch_bend_c, 3, 6341
11, 96564, Pitch_bend_c, 3, 8192
11, 96644, Note_on_c, 3, 67, 0
11, 96708, Note_on_c, 3, 64, 63
11, 96836, Note_on_c, 3, 64, 0
11, 96892, Note_on_c, 3, 64, 65
11, 96964, Note_on_c, 3, 64, 0
11, 97032, Note_on_c, 3, 64, 69
11, 97080, Note_on_c, 3, 64, 0
11, 97120, Note_on_c, 3, 62, 63
11, 97188, Note_on_c, 3, 62, 0
11, 97256, Note_on_c, 3, 64, 69
11, 97260, Pitch_bend_c, 3, 8192
11, 97376, Note_on_c, 3, 64, 0
11, 98636, Note_on_c, 3, 59, 66
11, 98688, Note_on_c, 3, 59, 0
11, 98696, Note_on_c, 3, 67, 97
11, 98824, Note_on_c, 3, 67, 0
11, 98892, Note_on_c, 3, 67, 85
11, 98988, Note_on_c, 3, 67, 0
11, 99084, Note_on_c, 3, 67, 85
11, 99236, Note_on_c, 3, 67, 0
11, 99272, Note_on_c, 3, 62, 94
11, 99396, Note_on_c, 3, 62, 0
11, 99472, Note_on_c, 3, 62, 89
11, 99584, Note_on_c, 3, 62, 0
11, 99600, Note_on_c, 3, 57, 79
11, 99672, Note_on_c, 3, 57, 0
11, 100340, Note_on_c, 3, 66, 86
11, 100388, Note_on_c, 3, 66, 0
11, 100484, Note_on_c, 3, 66, 79
11, 100520, Note_on_c, 3, 66, 0
11, 100568, Note_on_c, 3, 66, 86
11, 100604, Note_on_c, 3, 66, 0
11, 100692, Note_on_c, 3, 66, 89
11, 100748, Note_on_c, 3, 66, 0
11, 100780, Note_on_c, 3, 64, 89
11, 100844, Note_on_c, 3, 64, 0
11, 100920, Note_on_c, 3, 66, 93
11, 101088, Note_on_c, 3, 66, 0
11, 101184, Note_on_c, 3, 62, 85
11, 101228, Note_on_c, 3, 62, 0
11, 101248, Note_on_c, 3, 64, 79
11, 101556, Note_on_c, 3, 64, 0
11, 101564, Note_on_c, 3, 59, 83
11, 101628, Note_on_c, 3, 59, 0
11, 102052, Note_on_c, 3, 62, 87
11, 102076, Note_on_c, 3, 62, 0
11, 102136, Note_on_c, 3, 64, 103
11, 102172, Note_on_c, 3, 64, 0
11, 102212, Note_on_c, 3, 64, 87
11, 102280, Note_on_c, 3, 64, 0
11, 102292, Note_on_c, 3, 62, 87
11, 102364, Note_on_c, 3, 62, 0
11, 102376, Note_on_c, 3, 68, 82
11, 102580, Pitch_bend_c, 3, 8191
11, 102596, Pitch_bend_c, 3, 7398
11, 102608, Pitch_bend_c, 3, 6605
11, 102612, Note_on_c, 3, 68, 0
11, 102624, Pitch_bend_c, 3, 6077
11, 102640, Pitch_bend_c, 3, 5284
11, 102660, Pitch_bend_c, 3, 4756
11, 102676, Pitch_bend_c, 3, 3963
11, 102692, Pitch_bend_c, 3, 3170
11, 102708, Pitch_bend_c, 3, 2378
11, 102724, Pitch_bend_c, 3, 1585
11, 102740, Pitch_bend_c, 3, 2113
11, 102756, Pitch_bend_c, 3, 3963
11, 102772, Pitch_bend_c, 3, 7134
11, 102788, Pitch_bend_c, 3, 8192
11, 102836, Note_on_c, 3, 62, 79
11, 102896, Note_on_c, 3, 62, 0
11, 102904, Note_on_c, 3, 64, 83
11, 103072, Note_on_c, 3, 64, 0
11, 103088, Note_on_c, 3, 59, 56
11, 103200, Note_on_c, 3, 59, 0
11, 103588, Note_on_c, 3, 64, 77
11, 103636, Note_on_c, 3, 64, 0
11, 103704, Note_on_c, 3, 64, 97
11, 103760, Note_on_c, 3, 64, 0
11, 103832, Note_on_c, 3, 62, 92
11, 103892, Note_on_c, 3, 62, 0
11, 103948, Note_on_c, 3, 59, 63
11, 103984, Pitch_bend_c, 3, 5020
11, 104000, Pitch_bend_c, 3, 1585
11, 104016, Pitch_bend_c, 3, 1056
11, 104032, Pitch_bend_c, 3, 3170
11, 104048, Pitch_bend_c, 3, 6605
11, 104060, Pitch_bend_c, 3, 8192
11, 104088, Note_on_c, 3, 59, 0
11, 104448, Pitch_bend_c, 3, 8192
11, 104484, Control_c, 3, 7, 127
11, 104604, Control_c, 3, 7, 127
11, 104964, Note_on_c, 3, 67, 89
11, 105204, Note_on_c, 3, 67, 0
11, 105208, Control_c, 3, 7, 127
11, 105248, Note_on_c, 3, 64, 87
11, 105320, Note_on_c, 3, 64, 0
11, 105328, Note_on_c, 3, 62, 87
11, 105436, Control_c, 3, 7, 126
11, 105604, Note_on_c, 3, 62, 0
11, 105604, Control_c, 3, 7, 124
11, 105628, Note_on_c, 3, 64, 87
11, 105692, Control_c, 3, 7, 120
11, 105732, Control_c, 3, 7, 118
11, 105796, Pitch_bend_c, 3, 7926
11, 105812, Pitch_bend_c, 3, 7134
11, 105828, Pitch_bend_c, 3, 6605
11, 105848, Pitch_bend_c, 3, 5812
11, 105860, Control_c, 3, 7, 115
11, 105864, Pitch_bend_c, 3, 4756
11, 105880, Pitch_bend_c, 3, 3963
11, 105896, Pitch_bend_c, 3, 2906
11, 105912, Note_on_c, 3, 64, 0
11, 105912, Pitch_bend_c, 3, 1585
11, 105928, Pitch_bend_c, 3, 0
11, 106008, Pitch_bend_c, 3, 3170
11, 106024, Pitch_bend_c, 3, 7398
11, 106040, Pitch_bend_c, 3, 8192
11, 106448, Control_c, 3, 7, 108
11, 106488, Note_on_c, 3, 64, 74
11, 106512, Note_on_c, 3, 64, 0
11, 106564, Note_on_c, 3, 67, 99
11, 106612, Note_on_c, 3, 67, 0
11, 106636, Control_c, 3, 7, 104
11, 106676, Note_on_c, 3, 67, 83
11, 106692, Note_on_c, 3, 67, 0
11, 106752, Note_on_c, 3, 67, 91
11, 106972, Control_c, 3, 7, 99
11, 107028, Note_on_c, 3, 67, 0
11, 107060, Note_on_c, 3, 62, 92
11, 107156, Control_c, 3, 7, 93
11, 107300, Note_on_c, 3, 62, 0
11, 107324, Note_on_c, 3, 64, 83
11, 107360, Control_c, 3, 7, 90
11, 107504, Note_on_c, 3, 64, 0
11, 108392, Control_c, 3, 7, 74
11, 108508, Pitch_bend_c, 3, 7398
11, 108524, Pitch_bend_c, 3, 5548
11, 108540, Pitch_bend_c, 3, 2906
11, 108556, Pitch_bend_c, 3, 0
11, 108560, Control_c, 3, 7, 72
11, 108584, Note_on_c, 3, 67, 97
11, 108608, Pitch_bend_c, 3, 3170
11, 108624, Pitch_bend_c, 3, 6869
11, 108636, Pitch_bend_c, 3, 8192
11, 108668, Note_on_c, 3, 67, 0
11, 108740, Control_c, 3, 7, 69
11, 108768, Note_on_c, 3, 64, 81
11, 108936, Note_on_c, 3, 64, 0
11, 108956, Note_on_c, 3, 62, 73
11, 109000, Note_on_c, 3, 62, 0
11, 109028, Control_c, 3, 7, 66
11, 109036, Note_on_c, 3, 64, 81
11, 109124, Note_on_c, 3, 64, 0
11, 109156, Note_on_c, 3, 62, 70
11, 109180, Note_on_c, 3, 62, 0
11, 109480, Control_c, 3, 7, 58
11, 109584, Pitch_bend_c, 3, 8191
11, 109600, Pitch_bend_c, 3, 3699
11, 109612, Note_on_c, 3, 76, 100
11, 109616, Pitch_bend_c, 3, 0
11, 109656, Control_c, 3, 7, 56
11, 109664, Pitch_bend_c, 3, 3170
11, 109680, Pitch_bend_c, 3, 7398
11, 109696, Pitch_bend_c, 3, 8192
11, 109748, Note_on_c, 3, 76, 0
11, 109748, End_track
0, 0, End_of_file
